%TF.GenerationSoftware,KiCad,Pcbnew,9.0.1-9.0.1-0~ubuntu24.04.1*%
%TF.CreationDate,2025-05-01T05:33:58-07:00*%
%TF.ProjectId,tobydio,746f6279-6469-46f2-9e6b-696361645f70,rev?*%
%TF.SameCoordinates,Original*%
%TF.FileFunction,Copper,L2,Bot*%
%TF.FilePolarity,Positive*%
%FSLAX46Y46*%
G04 Gerber Fmt 4.6, Leading zero omitted, Abs format (unit mm)*
G04 Created by KiCad (PCBNEW 9.0.1-9.0.1-0~ubuntu24.04.1) date 2025-05-01 05:33:58*
%MOMM*%
%LPD*%
G01*
G04 APERTURE LIST*
%TA.AperFunction,NonConductor*%
%ADD10C,0.000000*%
%TD*%
%ADD11C,0.250000*%
%TA.AperFunction,NonConductor*%
%ADD12C,0.250000*%
%TD*%
%ADD13C,0.170000*%
%TA.AperFunction,NonConductor*%
%ADD14C,0.170000*%
%TD*%
%TA.AperFunction,ComponentPad*%
%ADD15R,1.700000X1.700000*%
%TD*%
%TA.AperFunction,ComponentPad*%
%ADD16O,1.700000X1.700000*%
%TD*%
%TA.AperFunction,ComponentPad*%
%ADD17C,0.900000*%
%TD*%
%TA.AperFunction,ComponentPad*%
%ADD18C,8.600000*%
%TD*%
%TA.AperFunction,ViaPad*%
%ADD19C,0.600000*%
%TD*%
%TA.AperFunction,Conductor*%
%ADD20C,0.350000*%
%TD*%
G04 APERTURE END LIST*
D10*
%TA.AperFunction,NonConductor*%
G36*
X130703259Y-114546378D02*
G01*
X130712144Y-114546842D01*
X130720959Y-114547612D01*
X130729698Y-114548682D01*
X130738353Y-114550050D01*
X130746920Y-114551711D01*
X130755393Y-114553662D01*
X130763764Y-114555899D01*
X130772028Y-114558419D01*
X130780178Y-114561216D01*
X130788209Y-114564288D01*
X130796115Y-114567631D01*
X130803888Y-114571241D01*
X130811524Y-114575114D01*
X130819015Y-114579246D01*
X130826357Y-114583634D01*
X130833541Y-114588274D01*
X130840564Y-114593162D01*
X130847417Y-114598294D01*
X130854096Y-114603666D01*
X130860593Y-114609275D01*
X130866904Y-114615116D01*
X130873021Y-114621187D01*
X130878938Y-114627483D01*
X130884650Y-114634000D01*
X130890151Y-114640734D01*
X130895433Y-114647683D01*
X130900491Y-114654841D01*
X130905319Y-114662206D01*
X130909910Y-114669773D01*
X130914259Y-114677539D01*
X130918359Y-114685499D01*
X131182677Y-115221068D01*
X130948415Y-115344206D01*
X130860574Y-115166194D01*
X130694256Y-114829274D01*
X130527939Y-115166194D01*
X130527992Y-115166221D01*
X130528045Y-115166247D01*
X130440204Y-115344259D01*
X130205941Y-115221122D01*
X130470260Y-114685499D01*
X130478709Y-114669782D01*
X130488129Y-114654856D01*
X130498469Y-114640754D01*
X130509681Y-114627505D01*
X130521716Y-114615140D01*
X130534524Y-114603689D01*
X130548056Y-114593184D01*
X130562263Y-114583654D01*
X130577096Y-114575131D01*
X130592505Y-114567645D01*
X130608441Y-114561227D01*
X130624856Y-114555907D01*
X130641699Y-114551716D01*
X130658922Y-114548684D01*
X130676475Y-114546843D01*
X130694310Y-114546222D01*
X130703259Y-114546378D01*
G37*
%TD.AperFunction*%
%TA.AperFunction,NonConductor*%
G36*
X132196349Y-118618742D02*
G01*
X132197704Y-118627589D01*
X132198744Y-118636425D01*
X132199472Y-118645243D01*
X132199890Y-118654037D01*
X132200002Y-118662799D01*
X132199810Y-118671524D01*
X132199316Y-118680204D01*
X132198524Y-118688833D01*
X132196054Y-118705910D01*
X132192422Y-118722702D01*
X132187649Y-118739154D01*
X132181757Y-118755214D01*
X132174768Y-118770827D01*
X132166702Y-118785940D01*
X132157582Y-118800499D01*
X132147429Y-118814451D01*
X132141972Y-118821182D01*
X132136265Y-118827741D01*
X132130310Y-118834122D01*
X132124111Y-118840317D01*
X132117669Y-118846321D01*
X132110988Y-118852125D01*
X132104070Y-118857724D01*
X132096919Y-118863111D01*
X132082119Y-118873092D01*
X132066831Y-118881920D01*
X132051111Y-118889590D01*
X132035017Y-118896098D01*
X132018607Y-118901440D01*
X132001939Y-118905612D01*
X131985071Y-118908611D01*
X131968060Y-118910432D01*
X131950964Y-118911070D01*
X131933841Y-118910523D01*
X131916748Y-118908786D01*
X131899744Y-118905854D01*
X131882886Y-118901725D01*
X131866231Y-118896393D01*
X131849838Y-118889855D01*
X131833764Y-118882108D01*
X131297665Y-118600273D01*
X131414770Y-118362943D01*
X131590453Y-118455282D01*
X131930495Y-118634034D01*
X131864984Y-118251976D01*
X131864985Y-118252029D01*
X131831436Y-118056396D01*
X132093374Y-118018349D01*
X132196349Y-118618742D01*
G37*
%TD.AperFunction*%
%TA.AperFunction,NonConductor*%
G36*
X130710267Y-114347905D02*
G01*
X130726214Y-114348738D01*
X130742035Y-114350119D01*
X130757718Y-114352040D01*
X130773251Y-114354495D01*
X130788624Y-114357476D01*
X130803827Y-114360977D01*
X130818848Y-114364992D01*
X130833675Y-114369512D01*
X130848299Y-114374532D01*
X130862708Y-114380045D01*
X130876891Y-114386043D01*
X130890837Y-114392520D01*
X130904535Y-114399469D01*
X130917974Y-114406884D01*
X130931144Y-114414757D01*
X130944033Y-114423082D01*
X130956630Y-114431851D01*
X130968925Y-114441058D01*
X130980906Y-114450697D01*
X130992562Y-114460760D01*
X131003882Y-114471240D01*
X131014856Y-114482131D01*
X131025472Y-114493425D01*
X131035720Y-114505117D01*
X131045588Y-114517198D01*
X131055066Y-114529663D01*
X131064142Y-114542505D01*
X131072805Y-114555716D01*
X131081045Y-114569289D01*
X131088851Y-114583219D01*
X131096211Y-114597498D01*
X131270518Y-114950664D01*
X131823974Y-114659675D01*
X131853992Y-114645202D01*
X131884602Y-114632990D01*
X131915697Y-114623032D01*
X131947168Y-114615321D01*
X131978910Y-114609849D01*
X132010814Y-114606607D01*
X132042773Y-114605588D01*
X132074679Y-114606785D01*
X132106426Y-114610190D01*
X132137904Y-114615794D01*
X132169008Y-114623590D01*
X132199630Y-114633571D01*
X132229662Y-114645728D01*
X132258997Y-114660055D01*
X132287527Y-114676542D01*
X132315146Y-114695183D01*
X132341394Y-114715678D01*
X132365879Y-114737708D01*
X132388560Y-114761173D01*
X132409395Y-114785973D01*
X132428345Y-114812007D01*
X132445369Y-114839176D01*
X132460425Y-114867379D01*
X132473472Y-114896517D01*
X132484472Y-114926490D01*
X132493381Y-114957198D01*
X132500160Y-114988540D01*
X132504768Y-115020417D01*
X132507164Y-115052728D01*
X132507307Y-115085374D01*
X132505156Y-115118255D01*
X132500672Y-115151271D01*
X132394362Y-115770978D01*
X132790603Y-115828551D01*
X132822111Y-115834254D01*
X132852804Y-115842050D01*
X132882603Y-115851874D01*
X132911428Y-115863657D01*
X132939200Y-115877333D01*
X132965840Y-115892836D01*
X132991268Y-115910098D01*
X133015406Y-115929054D01*
X133038172Y-115949635D01*
X133059489Y-115971775D01*
X133079277Y-115995407D01*
X133097456Y-116020465D01*
X133113947Y-116046882D01*
X133128671Y-116074591D01*
X133141549Y-116103524D01*
X133152500Y-116133616D01*
X133161334Y-116164396D01*
X133167929Y-116195372D01*
X133172310Y-116226443D01*
X133174503Y-116257507D01*
X133174531Y-116288465D01*
X133172420Y-116319216D01*
X133168194Y-116349659D01*
X133161879Y-116379692D01*
X133153498Y-116409216D01*
X133143078Y-116438129D01*
X133130642Y-116466331D01*
X133116215Y-116493721D01*
X133099823Y-116520198D01*
X133081489Y-116545661D01*
X133061240Y-116570011D01*
X133039099Y-116593145D01*
X132756313Y-116868788D01*
X133198908Y-117300217D01*
X133198914Y-117300224D01*
X133198921Y-117300230D01*
X133198934Y-117300243D01*
X133198947Y-117300256D01*
X133198954Y-117300263D01*
X133198961Y-117300269D01*
X133221996Y-117324341D01*
X133243064Y-117349677D01*
X133262138Y-117376171D01*
X133279192Y-117403719D01*
X133294202Y-117432216D01*
X133307140Y-117461557D01*
X133317982Y-117491638D01*
X133326702Y-117522354D01*
X133333273Y-117553600D01*
X133337671Y-117585271D01*
X133339869Y-117617263D01*
X133339841Y-117649472D01*
X133337563Y-117681791D01*
X133333008Y-117714118D01*
X133326151Y-117746346D01*
X133316965Y-117778371D01*
X133305577Y-117809680D01*
X133292184Y-117839784D01*
X133276868Y-117868613D01*
X133259714Y-117896097D01*
X133240803Y-117922168D01*
X133220217Y-117946755D01*
X133198040Y-117969790D01*
X133174354Y-117991202D01*
X133149242Y-118010922D01*
X133122786Y-118028882D01*
X133095070Y-118045011D01*
X133066175Y-118059239D01*
X133036184Y-118071499D01*
X133005180Y-118081719D01*
X132973245Y-118089831D01*
X132940463Y-118095765D01*
X132323402Y-118185405D01*
X132391928Y-118585086D01*
X132394368Y-118600964D01*
X132396241Y-118616823D01*
X132397554Y-118632649D01*
X132398311Y-118648430D01*
X132398516Y-118664155D01*
X132398176Y-118679812D01*
X132397295Y-118695389D01*
X132395877Y-118710872D01*
X132391451Y-118741515D01*
X132384938Y-118771644D01*
X132376378Y-118801164D01*
X132365808Y-118829977D01*
X132353268Y-118857989D01*
X132338796Y-118885103D01*
X132322433Y-118911223D01*
X132304217Y-118936253D01*
X132294426Y-118948329D01*
X132284186Y-118960097D01*
X132273503Y-118971544D01*
X132262381Y-118982659D01*
X132250824Y-118993429D01*
X132238839Y-119003843D01*
X132226429Y-119013888D01*
X132213600Y-119023553D01*
X132198721Y-119033929D01*
X132183547Y-119043645D01*
X132168095Y-119052701D01*
X132152384Y-119061093D01*
X132136434Y-119068822D01*
X132120263Y-119075886D01*
X132103890Y-119082283D01*
X132087334Y-119088012D01*
X132070613Y-119093072D01*
X132053747Y-119097462D01*
X132036755Y-119101180D01*
X132019654Y-119104225D01*
X132002465Y-119106596D01*
X131985205Y-119108291D01*
X131967894Y-119109309D01*
X131950551Y-119109648D01*
X131937193Y-119109447D01*
X131923835Y-119108842D01*
X131910485Y-119107832D01*
X131897152Y-119106418D01*
X131883844Y-119104599D01*
X131870570Y-119102373D01*
X131857337Y-119099742D01*
X131844156Y-119096704D01*
X131831033Y-119093258D01*
X131817977Y-119089404D01*
X131804997Y-119085142D01*
X131792101Y-119080471D01*
X131779298Y-119075390D01*
X131766597Y-119069899D01*
X131754005Y-119063997D01*
X131741530Y-119057684D01*
X131385612Y-118870571D01*
X131112563Y-119423868D01*
X131096785Y-119453210D01*
X131079199Y-119481073D01*
X131059895Y-119507400D01*
X131038966Y-119532132D01*
X131016502Y-119555214D01*
X130992596Y-119576588D01*
X130967339Y-119596197D01*
X130940822Y-119613985D01*
X130913136Y-119629893D01*
X130884374Y-119643865D01*
X130854627Y-119655844D01*
X130823985Y-119665773D01*
X130792541Y-119673595D01*
X130760386Y-119679253D01*
X130727612Y-119682690D01*
X130694309Y-119683848D01*
X130677603Y-119683557D01*
X130661016Y-119682690D01*
X130644562Y-119681253D01*
X130628250Y-119679253D01*
X130612093Y-119676698D01*
X130596102Y-119673595D01*
X130580289Y-119669951D01*
X130564664Y-119665773D01*
X130549240Y-119661069D01*
X130534028Y-119655844D01*
X130519039Y-119650107D01*
X130504285Y-119643865D01*
X130489776Y-119637125D01*
X130475526Y-119629893D01*
X130461544Y-119622177D01*
X130447843Y-119613985D01*
X130434434Y-119605322D01*
X130421328Y-119596197D01*
X130408537Y-119586617D01*
X130396073Y-119576588D01*
X130383946Y-119566118D01*
X130372168Y-119555214D01*
X130360750Y-119543883D01*
X130349705Y-119532132D01*
X130339043Y-119519969D01*
X130328776Y-119507400D01*
X130318916Y-119494432D01*
X130309473Y-119481073D01*
X130300459Y-119467330D01*
X130291887Y-119453210D01*
X130283766Y-119438721D01*
X130276109Y-119423868D01*
X130003059Y-118870571D01*
X129647141Y-119057684D01*
X129634967Y-119063847D01*
X129622622Y-119069632D01*
X129610118Y-119075036D01*
X129597466Y-119080058D01*
X129584677Y-119084694D01*
X129571764Y-119088942D01*
X129558736Y-119092798D01*
X129545607Y-119096261D01*
X129532388Y-119099326D01*
X129519089Y-119101992D01*
X129505723Y-119104255D01*
X129492301Y-119106113D01*
X129478833Y-119107563D01*
X129465333Y-119108602D01*
X129451811Y-119109228D01*
X129438279Y-119109437D01*
X129420537Y-119109090D01*
X129402900Y-119108051D01*
X129385382Y-119106327D01*
X129367998Y-119103921D01*
X129350762Y-119100838D01*
X129333688Y-119097083D01*
X129316792Y-119092661D01*
X129300087Y-119087576D01*
X129283588Y-119081833D01*
X129267310Y-119075436D01*
X129251266Y-119068392D01*
X129235471Y-119060703D01*
X129219940Y-119052376D01*
X129204687Y-119043414D01*
X129189726Y-119033822D01*
X129175072Y-119023606D01*
X129149823Y-119003877D01*
X129126273Y-118982677D01*
X129104460Y-118960101D01*
X129084424Y-118936246D01*
X129066202Y-118911206D01*
X129049835Y-118885079D01*
X129035360Y-118857960D01*
X129022817Y-118829944D01*
X129012245Y-118801129D01*
X129003683Y-118771610D01*
X128997169Y-118741483D01*
X128992742Y-118710844D01*
X128990442Y-118679789D01*
X128990307Y-118648413D01*
X128992377Y-118616814D01*
X128996689Y-118585086D01*
X129065217Y-118185406D01*
X128448103Y-118095713D01*
X128415320Y-118089788D01*
X128383386Y-118081682D01*
X128352382Y-118071466D01*
X128322391Y-118059210D01*
X128293496Y-118044982D01*
X128265779Y-118028853D01*
X128239323Y-118010892D01*
X128214211Y-117991169D01*
X128190525Y-117969754D01*
X128168348Y-117946717D01*
X128147763Y-117922126D01*
X128128851Y-117896052D01*
X128111697Y-117868565D01*
X128096382Y-117839734D01*
X128082989Y-117809628D01*
X128071600Y-117778319D01*
X128062406Y-117746285D01*
X128055542Y-117714050D01*
X128050982Y-117681719D01*
X128048701Y-117649397D01*
X128048680Y-117624465D01*
X128247032Y-117624465D01*
X128247048Y-117642972D01*
X128248357Y-117661543D01*
X128250975Y-117680119D01*
X128254915Y-117698639D01*
X128260194Y-117717042D01*
X128266739Y-117735026D01*
X128274436Y-117752318D01*
X128283237Y-117768879D01*
X128293095Y-117784669D01*
X128303961Y-117799647D01*
X128315790Y-117813774D01*
X128328533Y-117827009D01*
X128342143Y-117839312D01*
X128356571Y-117850644D01*
X128371772Y-117860964D01*
X128387696Y-117870233D01*
X128404297Y-117878409D01*
X128421528Y-117885453D01*
X128439339Y-117891325D01*
X128457685Y-117895985D01*
X128476518Y-117899393D01*
X129295086Y-118018349D01*
X129192110Y-118618742D01*
X129190745Y-118627589D01*
X129189697Y-118636425D01*
X129188961Y-118645243D01*
X129188536Y-118654037D01*
X129188418Y-118662799D01*
X129188605Y-118671524D01*
X129189094Y-118680204D01*
X129189882Y-118688833D01*
X129190967Y-118697404D01*
X129192346Y-118705910D01*
X129195974Y-118722702D01*
X129200744Y-118739154D01*
X129206636Y-118755214D01*
X129213626Y-118770827D01*
X129221693Y-118785940D01*
X129230815Y-118800499D01*
X129235765Y-118807554D01*
X129240970Y-118814451D01*
X129246429Y-118821182D01*
X129252137Y-118827741D01*
X129258093Y-118834122D01*
X129264293Y-118840317D01*
X129270736Y-118846321D01*
X129277417Y-118852125D01*
X129284336Y-118857724D01*
X129291487Y-118863111D01*
X129299788Y-118868891D01*
X129308252Y-118874304D01*
X129316868Y-118879350D01*
X129325628Y-118884027D01*
X129334520Y-118888335D01*
X129343534Y-118892273D01*
X129352659Y-118895839D01*
X129361887Y-118899034D01*
X129371205Y-118901857D01*
X129380604Y-118904305D01*
X129390074Y-118906380D01*
X129399604Y-118908079D01*
X129409184Y-118909402D01*
X129418803Y-118910348D01*
X129428452Y-118910916D01*
X129438119Y-118911106D01*
X129445572Y-118910984D01*
X129453023Y-118910639D01*
X129460469Y-118910070D01*
X129467905Y-118909276D01*
X129475326Y-118908258D01*
X129482727Y-118907014D01*
X129490104Y-118905545D01*
X129497453Y-118903850D01*
X129504767Y-118901928D01*
X129512044Y-118899780D01*
X129519278Y-118897405D01*
X129526464Y-118894802D01*
X129533598Y-118891971D01*
X129540676Y-118888912D01*
X129547692Y-118885624D01*
X129554642Y-118882108D01*
X130090794Y-118600220D01*
X130453908Y-119335974D01*
X130462977Y-119352834D01*
X130473084Y-119368844D01*
X130484176Y-119383971D01*
X130496202Y-119398182D01*
X130509107Y-119411445D01*
X130522841Y-119423726D01*
X130537351Y-119434994D01*
X130552584Y-119445214D01*
X130568488Y-119454355D01*
X130585011Y-119462383D01*
X130602100Y-119469267D01*
X130619702Y-119474972D01*
X130637766Y-119479467D01*
X130656239Y-119482718D01*
X130675069Y-119484692D01*
X130694203Y-119485358D01*
X130703804Y-119485191D01*
X130713337Y-119484692D01*
X130722793Y-119483867D01*
X130732168Y-119482718D01*
X130741453Y-119481250D01*
X130750643Y-119479467D01*
X130759731Y-119477373D01*
X130768710Y-119474972D01*
X130777574Y-119472269D01*
X130786316Y-119469267D01*
X130794929Y-119465970D01*
X130803408Y-119462383D01*
X130811745Y-119458510D01*
X130819933Y-119454355D01*
X130827968Y-119449922D01*
X130835840Y-119445214D01*
X130843545Y-119440237D01*
X130851076Y-119434994D01*
X130858425Y-119429489D01*
X130865587Y-119423726D01*
X130872554Y-119417710D01*
X130879321Y-119411445D01*
X130885880Y-119404934D01*
X130892225Y-119398182D01*
X130898350Y-119391193D01*
X130904248Y-119383971D01*
X130909912Y-119376520D01*
X130915336Y-119368844D01*
X130920513Y-119360947D01*
X130925436Y-119352834D01*
X130930100Y-119344508D01*
X130934497Y-119335974D01*
X131297611Y-118600220D01*
X131833710Y-118882055D01*
X131849792Y-118889812D01*
X131866192Y-118896356D01*
X131882851Y-118901692D01*
X131899712Y-118905824D01*
X131916717Y-118908756D01*
X131933810Y-118910493D01*
X131950932Y-118911039D01*
X131968026Y-118910399D01*
X131985034Y-118908575D01*
X132001899Y-118905574D01*
X132018564Y-118901398D01*
X132034970Y-118896052D01*
X132051061Y-118889541D01*
X132066779Y-118881869D01*
X132082066Y-118873040D01*
X132096864Y-118863058D01*
X132110934Y-118852073D01*
X132124059Y-118840267D01*
X132136215Y-118827693D01*
X132147383Y-118814405D01*
X132157539Y-118800457D01*
X132166662Y-118785901D01*
X132174731Y-118770791D01*
X132181723Y-118755181D01*
X132187617Y-118739123D01*
X132192391Y-118722672D01*
X132196023Y-118705881D01*
X132198492Y-118688802D01*
X132199775Y-118671490D01*
X132199851Y-118653999D01*
X132198698Y-118636380D01*
X132196295Y-118618688D01*
X132093319Y-118018297D01*
X132911887Y-117899340D01*
X132930729Y-117895932D01*
X132949081Y-117891272D01*
X132966897Y-117885400D01*
X132984130Y-117878356D01*
X133000733Y-117870180D01*
X133016657Y-117860912D01*
X133031856Y-117850591D01*
X133046283Y-117839260D01*
X133059890Y-117826956D01*
X133072629Y-117813721D01*
X133084455Y-117799594D01*
X133095318Y-117784616D01*
X133105173Y-117768826D01*
X133113972Y-117752265D01*
X133121667Y-117734973D01*
X133128211Y-117716989D01*
X133127999Y-117716989D01*
X133133278Y-117698585D01*
X133137219Y-117680066D01*
X133139837Y-117661490D01*
X133141146Y-117642919D01*
X133141161Y-117624412D01*
X133139898Y-117606030D01*
X133137371Y-117587833D01*
X133133595Y-117569881D01*
X133128585Y-117552234D01*
X133122356Y-117534952D01*
X133114923Y-117518095D01*
X133106300Y-117501724D01*
X133096503Y-117485899D01*
X133085546Y-117470679D01*
X133073444Y-117456126D01*
X133060213Y-117442299D01*
X132471938Y-116868840D01*
X132900404Y-116451169D01*
X132912750Y-116438280D01*
X132924041Y-116424713D01*
X132934265Y-116410524D01*
X132943406Y-116395770D01*
X132951451Y-116380506D01*
X132958386Y-116364789D01*
X132964198Y-116348674D01*
X132968871Y-116332219D01*
X132972393Y-116315480D01*
X132974750Y-116298511D01*
X132975927Y-116281371D01*
X132975912Y-116264115D01*
X132974689Y-116246798D01*
X132972245Y-116229478D01*
X132968566Y-116212211D01*
X132963639Y-116195053D01*
X132957532Y-116178286D01*
X132950353Y-116162164D01*
X132942146Y-116146724D01*
X132932954Y-116132002D01*
X132922823Y-116118036D01*
X132911795Y-116104864D01*
X132899915Y-116092523D01*
X132887228Y-116081050D01*
X132873776Y-116070484D01*
X132859604Y-116060861D01*
X132844757Y-116052219D01*
X132829277Y-116044595D01*
X132813210Y-116038027D01*
X132796599Y-116032552D01*
X132779488Y-116028208D01*
X132761921Y-116025031D01*
X132164228Y-115938195D01*
X132304933Y-115117828D01*
X132306390Y-115108337D01*
X132307509Y-115098857D01*
X132308292Y-115089397D01*
X132308744Y-115079963D01*
X132308866Y-115070563D01*
X132308661Y-115061204D01*
X132308133Y-115051893D01*
X132307285Y-115042638D01*
X132304637Y-115024320D01*
X132300742Y-115006310D01*
X132295622Y-114988664D01*
X132289302Y-114971441D01*
X132281804Y-114954696D01*
X132273152Y-114938488D01*
X132263369Y-114922875D01*
X132252478Y-114907913D01*
X132246624Y-114900695D01*
X132240503Y-114893661D01*
X132234116Y-114886818D01*
X132227467Y-114880175D01*
X132220558Y-114873737D01*
X132213393Y-114867513D01*
X132205975Y-114861508D01*
X132198305Y-114855732D01*
X132182436Y-114845028D01*
X132166042Y-114835562D01*
X132149187Y-114827336D01*
X132131931Y-114820357D01*
X132114337Y-114814628D01*
X132096466Y-114810153D01*
X132078380Y-114806937D01*
X132060140Y-114804985D01*
X132041808Y-114804300D01*
X132023447Y-114804886D01*
X132005117Y-114806749D01*
X131986880Y-114809893D01*
X131968798Y-114814321D01*
X131950934Y-114820039D01*
X131933347Y-114827050D01*
X131916101Y-114835359D01*
X131182411Y-115221068D01*
X130918093Y-114685446D01*
X130909645Y-114669720D01*
X130900227Y-114654788D01*
X130889889Y-114640682D01*
X130878680Y-114627430D01*
X130866648Y-114615063D01*
X130853844Y-114603613D01*
X130840315Y-114593109D01*
X130826110Y-114583582D01*
X130811280Y-114575061D01*
X130795872Y-114567578D01*
X130779936Y-114561163D01*
X130763520Y-114555847D01*
X130746674Y-114551658D01*
X130729447Y-114548629D01*
X130711887Y-114546790D01*
X130694044Y-114546169D01*
X130685095Y-114546325D01*
X130676209Y-114546790D01*
X130667395Y-114547560D01*
X130658656Y-114548631D01*
X130650000Y-114550000D01*
X130641433Y-114551663D01*
X130632961Y-114553616D01*
X130624590Y-114555854D01*
X130616326Y-114558375D01*
X130608175Y-114561174D01*
X130600144Y-114564248D01*
X130592239Y-114567592D01*
X130584465Y-114571204D01*
X130576830Y-114575078D01*
X130569338Y-114579212D01*
X130561997Y-114583602D01*
X130554812Y-114588242D01*
X130547790Y-114593131D01*
X130540936Y-114598264D01*
X130534258Y-114603636D01*
X130527760Y-114609245D01*
X130521450Y-114615087D01*
X130515333Y-114621157D01*
X130509415Y-114627452D01*
X130503703Y-114633968D01*
X130498203Y-114640701D01*
X130492921Y-114647648D01*
X130487863Y-114654804D01*
X130483035Y-114662165D01*
X130478443Y-114669729D01*
X130474095Y-114677490D01*
X130469994Y-114685446D01*
X130205676Y-115221068D01*
X129471986Y-114835359D01*
X129464537Y-114831583D01*
X129457016Y-114828053D01*
X129449428Y-114824770D01*
X129441779Y-114821732D01*
X129434073Y-114818940D01*
X129426316Y-114816392D01*
X129418513Y-114814089D01*
X129410669Y-114812029D01*
X129402789Y-114810214D01*
X129394878Y-114808642D01*
X129386941Y-114807313D01*
X129378983Y-114806226D01*
X129371011Y-114805381D01*
X129363027Y-114804779D01*
X129355039Y-114804417D01*
X129347050Y-114804297D01*
X129336688Y-114804500D01*
X129326345Y-114805109D01*
X129316034Y-114806124D01*
X129305764Y-114807542D01*
X129295547Y-114809364D01*
X129285395Y-114811589D01*
X129275318Y-114814215D01*
X129265327Y-114817242D01*
X129255433Y-114820669D01*
X129245648Y-114824495D01*
X129235982Y-114828719D01*
X129226447Y-114833341D01*
X129217053Y-114838359D01*
X129207813Y-114843773D01*
X129198736Y-114849582D01*
X129189834Y-114855785D01*
X129174756Y-114867574D01*
X129160690Y-114880243D01*
X129147661Y-114893733D01*
X129135692Y-114907989D01*
X129124807Y-114922952D01*
X129115028Y-114938565D01*
X129106379Y-114954771D01*
X129098884Y-114971514D01*
X129092565Y-114988735D01*
X129087448Y-115006377D01*
X129083554Y-115024384D01*
X129080907Y-115042698D01*
X129079531Y-115061262D01*
X129079449Y-115080019D01*
X129080684Y-115098911D01*
X129083260Y-115117881D01*
X129223966Y-115938248D01*
X128626272Y-116025084D01*
X128608705Y-116028269D01*
X128591592Y-116032620D01*
X128574978Y-116038100D01*
X128558908Y-116044671D01*
X128543426Y-116052297D01*
X128528575Y-116060940D01*
X128514400Y-116070563D01*
X128500945Y-116081130D01*
X128488256Y-116092602D01*
X128476375Y-116104944D01*
X128465347Y-116118117D01*
X128455216Y-116132085D01*
X128446028Y-116146810D01*
X128437825Y-116162255D01*
X128430652Y-116178384D01*
X128424554Y-116195159D01*
X128419636Y-116212317D01*
X128415965Y-116229582D01*
X128413528Y-116246900D01*
X128412311Y-116264213D01*
X128412299Y-116281467D01*
X128413480Y-116298604D01*
X128415838Y-116315569D01*
X128419361Y-116332306D01*
X128424034Y-116348758D01*
X128429844Y-116364871D01*
X128436776Y-116380588D01*
X128444817Y-116395853D01*
X128453952Y-116410611D01*
X128464169Y-116424804D01*
X128475452Y-116438378D01*
X128487789Y-116451275D01*
X128916255Y-116868947D01*
X128327981Y-117442352D01*
X128314749Y-117456179D01*
X128302648Y-117470732D01*
X128291691Y-117485952D01*
X128281894Y-117501777D01*
X128273271Y-117518148D01*
X128265838Y-117535005D01*
X128259608Y-117552287D01*
X128254599Y-117569934D01*
X128250823Y-117587886D01*
X128248296Y-117606083D01*
X128247032Y-117624465D01*
X128048680Y-117624465D01*
X128048673Y-117617188D01*
X128050871Y-117585196D01*
X128055270Y-117553525D01*
X128061844Y-117522281D01*
X128070566Y-117491568D01*
X128081411Y-117461491D01*
X128094353Y-117432153D01*
X128109365Y-117403659D01*
X128126423Y-117376114D01*
X128145499Y-117349622D01*
X128166568Y-117324288D01*
X128189604Y-117300217D01*
X128632147Y-116868840D01*
X128349413Y-116593250D01*
X128327271Y-116570116D01*
X128307020Y-116545767D01*
X128288684Y-116520303D01*
X128272288Y-116493826D01*
X128257858Y-116466436D01*
X128245417Y-116438234D01*
X128234992Y-116409321D01*
X128226607Y-116379798D01*
X128220286Y-116349764D01*
X128216056Y-116319322D01*
X128213940Y-116288571D01*
X128213964Y-116257613D01*
X128216154Y-116226548D01*
X128220532Y-116195478D01*
X128227126Y-116164502D01*
X128235959Y-116133722D01*
X128246911Y-116103621D01*
X128259788Y-116074679D01*
X128274512Y-116046963D01*
X128291003Y-116020540D01*
X128309182Y-115995477D01*
X128328970Y-115971841D01*
X128350287Y-115949697D01*
X128373054Y-115929113D01*
X128397191Y-115910156D01*
X128422619Y-115892892D01*
X128449259Y-115877388D01*
X128477031Y-115863710D01*
X128505857Y-115851927D01*
X128535656Y-115842103D01*
X128566349Y-115834307D01*
X128597857Y-115828604D01*
X128994097Y-115771031D01*
X128887840Y-115151377D01*
X128885298Y-115134863D01*
X128883346Y-115118371D01*
X128881977Y-115101911D01*
X128881187Y-115085498D01*
X128880971Y-115069142D01*
X128881324Y-115052858D01*
X128882240Y-115036657D01*
X128883714Y-115020551D01*
X128888317Y-114988678D01*
X128895093Y-114957338D01*
X128904001Y-114926630D01*
X128914999Y-114896656D01*
X128928048Y-114867515D01*
X128943106Y-114839306D01*
X128960132Y-114812130D01*
X128979086Y-114786086D01*
X128989274Y-114773520D01*
X128999928Y-114761275D01*
X129011043Y-114749363D01*
X129022615Y-114737796D01*
X129034638Y-114726587D01*
X129047108Y-114715750D01*
X129060019Y-114705295D01*
X129073366Y-114695235D01*
X129088612Y-114684596D01*
X129104178Y-114674607D01*
X129120048Y-114665274D01*
X129136208Y-114656602D01*
X129152643Y-114648596D01*
X129169337Y-114641260D01*
X129186275Y-114634600D01*
X129203442Y-114628620D01*
X129220822Y-114623325D01*
X129238402Y-114618721D01*
X129256166Y-114614811D01*
X129274098Y-114611601D01*
X129292183Y-114609096D01*
X129310407Y-114607301D01*
X129328754Y-114606220D01*
X129347209Y-114605859D01*
X129361306Y-114606077D01*
X129375389Y-114606728D01*
X129389448Y-114607810D01*
X129403469Y-114609320D01*
X129417442Y-114611255D01*
X129431354Y-114613611D01*
X129445194Y-114616387D01*
X129458950Y-114619578D01*
X129472609Y-114623182D01*
X129486161Y-114627196D01*
X129499593Y-114631618D01*
X129512893Y-114636443D01*
X129526049Y-114641670D01*
X129539050Y-114647295D01*
X129551884Y-114653315D01*
X129564538Y-114659728D01*
X130117941Y-114950664D01*
X130292248Y-114597498D01*
X130307405Y-114569298D01*
X130324302Y-114542520D01*
X130342851Y-114517218D01*
X130362964Y-114493448D01*
X130384552Y-114471263D01*
X130407528Y-114450720D01*
X130431803Y-114431873D01*
X130457289Y-114414777D01*
X130483898Y-114399487D01*
X130511542Y-114386057D01*
X130540133Y-114374543D01*
X130569582Y-114364999D01*
X130599802Y-114357481D01*
X130630704Y-114352042D01*
X130662201Y-114348739D01*
X130694203Y-114347626D01*
X130710267Y-114347905D01*
G37*
%TD.AperFunction*%
%TA.AperFunction,NonConductor*%
G36*
X132268845Y-117066961D02*
G01*
X132268858Y-117066961D01*
X132268871Y-117066961D01*
X132268898Y-117066961D01*
X131978703Y-117349801D01*
X132045378Y-117738527D01*
X131783440Y-117776574D01*
X131716607Y-117386895D01*
X131714473Y-117371683D01*
X131713283Y-117356472D01*
X131713023Y-117341303D01*
X131713681Y-117326215D01*
X131715244Y-117311247D01*
X131717699Y-117296438D01*
X131721032Y-117281828D01*
X131725232Y-117267455D01*
X131730285Y-117253360D01*
X131736178Y-117239581D01*
X131742899Y-117226158D01*
X131750435Y-117213130D01*
X131758773Y-117200537D01*
X131767899Y-117188417D01*
X131777801Y-117176810D01*
X131788467Y-117165756D01*
X132079350Y-116882228D01*
X132268845Y-117066961D01*
G37*
%TD.AperFunction*%
%TA.AperFunction,NonConductor*%
G36*
X129557078Y-118056344D02*
G01*
X129523528Y-118251977D01*
X129458017Y-118634035D01*
X129798060Y-118455283D01*
X129798113Y-118455230D01*
X129973797Y-118362838D01*
X130090901Y-118600169D01*
X129554749Y-118882056D01*
X129547799Y-118885582D01*
X129540781Y-118888878D01*
X129533701Y-118891944D01*
X129526564Y-118894780D01*
X129519374Y-118897387D01*
X129512137Y-118899765D01*
X129504857Y-118901915D01*
X129497540Y-118903838D01*
X129490190Y-118905532D01*
X129482811Y-118906999D01*
X129475410Y-118908240D01*
X129467990Y-118909254D01*
X129460557Y-118910042D01*
X129453116Y-118910605D01*
X129445671Y-118910942D01*
X129438227Y-118911054D01*
X129428559Y-118910865D01*
X129418910Y-118910296D01*
X129409291Y-118909350D01*
X129399711Y-118908027D01*
X129390181Y-118906328D01*
X129380711Y-118904254D01*
X129371312Y-118901805D01*
X129361994Y-118898983D01*
X129352767Y-118895788D01*
X129343641Y-118892221D01*
X129334627Y-118888283D01*
X129325735Y-118883975D01*
X129316976Y-118879298D01*
X129308359Y-118874252D01*
X129299895Y-118868839D01*
X129291595Y-118863059D01*
X129277534Y-118852073D01*
X129264418Y-118840266D01*
X129252268Y-118827690D01*
X129241107Y-118814399D01*
X129230956Y-118800447D01*
X129221837Y-118785888D01*
X129213772Y-118770775D01*
X129206782Y-118755162D01*
X129200891Y-118739102D01*
X129196118Y-118722650D01*
X129192487Y-118705858D01*
X129190019Y-118688781D01*
X129188737Y-118671472D01*
X129188661Y-118653985D01*
X129189814Y-118636373D01*
X129192217Y-118618690D01*
X129295193Y-118018298D01*
X129557078Y-118056344D01*
G37*
%TD.AperFunction*%
%TA.AperFunction,NonConductor*%
G36*
X131488059Y-115839929D02*
G01*
X131883506Y-115897397D01*
X131838791Y-116158223D01*
X131442392Y-116100597D01*
X131442340Y-116100650D01*
X131427215Y-116097972D01*
X131412383Y-116094399D01*
X131397877Y-116089956D01*
X131383731Y-116084666D01*
X131369978Y-116078554D01*
X131356652Y-116071644D01*
X131343786Y-116063959D01*
X131331413Y-116055525D01*
X131319568Y-116046366D01*
X131308283Y-116036505D01*
X131297592Y-116025967D01*
X131287529Y-116014776D01*
X131278126Y-116002957D01*
X131269419Y-115990532D01*
X131261439Y-115977527D01*
X131254221Y-115963966D01*
X131073986Y-115598735D01*
X131308249Y-115475598D01*
X131488059Y-115839929D01*
G37*
%TD.AperFunction*%
%TA.AperFunction,NonConductor*%
G36*
X129600045Y-117165756D02*
G01*
X129600046Y-117165702D01*
X129610711Y-117176757D01*
X129620614Y-117188365D01*
X129629740Y-117200488D01*
X129638078Y-117213085D01*
X129645614Y-117226117D01*
X129652335Y-117239544D01*
X129658228Y-117253328D01*
X129663281Y-117267428D01*
X129667481Y-117281805D01*
X129670815Y-117296420D01*
X129673269Y-117311234D01*
X129674832Y-117326206D01*
X129675490Y-117341297D01*
X129675230Y-117356469D01*
X129674040Y-117371681D01*
X129671907Y-117386893D01*
X129605073Y-117776572D01*
X129343188Y-117738525D01*
X129409863Y-117349800D01*
X129119668Y-117066961D01*
X129309163Y-116882228D01*
X129600045Y-117165756D01*
G37*
%TD.AperFunction*%
%TA.AperFunction,NonConductor*%
G36*
X130701738Y-118016556D02*
G01*
X130709214Y-118016893D01*
X130716682Y-118017454D01*
X130724135Y-118018240D01*
X130731568Y-118019250D01*
X130738976Y-118020485D01*
X130746353Y-118021944D01*
X130753695Y-118023628D01*
X130760996Y-118025536D01*
X130768251Y-118027669D01*
X130775454Y-118030026D01*
X130782601Y-118032607D01*
X130789685Y-118035413D01*
X130796703Y-118038444D01*
X130803647Y-118041699D01*
X130810514Y-118045178D01*
X131163521Y-118230757D01*
X131046417Y-118468088D01*
X130694256Y-118282933D01*
X130342096Y-118468088D01*
X130224991Y-118230757D01*
X130577999Y-118045178D01*
X130584865Y-118041708D01*
X130591808Y-118038461D01*
X130598823Y-118035438D01*
X130605905Y-118032638D01*
X130613048Y-118030061D01*
X130620248Y-118027709D01*
X130627500Y-118025580D01*
X130634798Y-118023674D01*
X130642138Y-118021993D01*
X130649514Y-118020535D01*
X130656922Y-118019302D01*
X130664356Y-118018292D01*
X130671812Y-118017507D01*
X130679284Y-118016946D01*
X130686767Y-118016609D01*
X130694256Y-118016497D01*
X130694257Y-118016444D01*
X130701738Y-118016556D01*
G37*
%TD.AperFunction*%
%TA.AperFunction,NonConductor*%
G36*
X129268840Y-116199074D02*
G01*
X129072414Y-116227596D01*
X128693954Y-116282577D01*
X128963776Y-116545573D01*
X128963776Y-116545678D01*
X129105910Y-116684214D01*
X128916415Y-116868946D01*
X128487949Y-116451275D01*
X128475603Y-116438386D01*
X128464313Y-116424819D01*
X128454092Y-116410630D01*
X128444954Y-116395875D01*
X128436912Y-116380611D01*
X128429980Y-116364894D01*
X128424172Y-116348780D01*
X128419501Y-116332325D01*
X128415981Y-116315585D01*
X128413626Y-116298617D01*
X128412449Y-116281477D01*
X128412463Y-116264220D01*
X128413683Y-116246904D01*
X128416123Y-116229584D01*
X128419795Y-116212317D01*
X128424713Y-116195158D01*
X128430820Y-116178383D01*
X128438000Y-116162252D01*
X128446207Y-116146805D01*
X128455398Y-116132077D01*
X128465530Y-116118106D01*
X128476558Y-116104929D01*
X128488437Y-116092585D01*
X128501125Y-116081109D01*
X128514577Y-116070541D01*
X128528748Y-116060916D01*
X128543596Y-116052273D01*
X128559076Y-116044648D01*
X128575143Y-116038080D01*
X128591754Y-116032605D01*
X128608865Y-116028260D01*
X128626432Y-116025084D01*
X129224126Y-115938248D01*
X129268840Y-116199074D01*
G37*
%TD.AperFunction*%
%TA.AperFunction,NonConductor*%
G36*
X130314473Y-115598682D02*
G01*
X130134239Y-115963913D01*
X130134239Y-115963859D01*
X130127021Y-115977420D01*
X130119041Y-115990425D01*
X130110334Y-116002849D01*
X130100932Y-116014669D01*
X130090868Y-116025860D01*
X130080177Y-116036398D01*
X130068893Y-116046259D01*
X130057047Y-116055418D01*
X130044675Y-116063852D01*
X130031808Y-116071536D01*
X130018482Y-116078447D01*
X130004729Y-116084559D01*
X129990583Y-116089849D01*
X129976077Y-116094292D01*
X129961245Y-116097865D01*
X129946121Y-116100543D01*
X129549669Y-116158169D01*
X129504955Y-115897343D01*
X129900400Y-115839876D01*
X130080211Y-115475544D01*
X130314473Y-115598682D01*
G37*
%TD.AperFunction*%
%TA.AperFunction,NonConductor*%
G36*
X132060299Y-114804965D02*
G01*
X132078539Y-114806920D01*
X132096625Y-114810139D01*
X132114497Y-114814617D01*
X132132091Y-114820350D01*
X132149346Y-114827332D01*
X132166202Y-114835559D01*
X132182595Y-114845028D01*
X132198465Y-114855732D01*
X132213553Y-114867521D01*
X132227626Y-114880190D01*
X132240663Y-114893680D01*
X132252638Y-114907936D01*
X132263529Y-114922899D01*
X132273312Y-114938512D01*
X132281964Y-114954718D01*
X132289462Y-114971461D01*
X132295782Y-114988682D01*
X132300902Y-115006324D01*
X132304797Y-115024331D01*
X132307444Y-115042645D01*
X132308821Y-115061209D01*
X132308903Y-115079966D01*
X132307668Y-115098858D01*
X132305092Y-115117828D01*
X132164387Y-115938195D01*
X132119673Y-116199021D01*
X132071730Y-116478580D01*
X132282602Y-116684109D01*
X132472097Y-116868840D01*
X132472202Y-116868788D01*
X133060477Y-117442246D01*
X133073708Y-117456073D01*
X133085810Y-117470626D01*
X133096767Y-117485846D01*
X133106564Y-117501671D01*
X133115187Y-117518042D01*
X133122620Y-117534899D01*
X133128849Y-117552181D01*
X133133859Y-117569828D01*
X133137635Y-117587780D01*
X133140162Y-117605977D01*
X133141425Y-117624359D01*
X133141410Y-117642866D01*
X133140101Y-117661437D01*
X133137483Y-117680013D01*
X133133542Y-117698532D01*
X133128263Y-117716936D01*
X133121719Y-117734920D01*
X133114024Y-117752212D01*
X133105225Y-117768773D01*
X133095371Y-117784563D01*
X133084507Y-117799541D01*
X133072682Y-117813668D01*
X133059942Y-117826903D01*
X133046335Y-117839206D01*
X133031909Y-117850538D01*
X133016709Y-117860858D01*
X133000785Y-117870126D01*
X132984183Y-117878303D01*
X132966950Y-117885347D01*
X132949134Y-117891219D01*
X132930781Y-117895879D01*
X132911940Y-117899287D01*
X132093372Y-118018243D01*
X131831435Y-118056290D01*
X131545578Y-118097830D01*
X131414768Y-118362889D01*
X131297664Y-118600220D01*
X130934550Y-119335974D01*
X130925489Y-119352833D01*
X130915389Y-119368843D01*
X130904301Y-119383970D01*
X130892279Y-119398181D01*
X130879374Y-119411444D01*
X130865640Y-119423726D01*
X130851129Y-119434993D01*
X130835893Y-119445213D01*
X130819987Y-119454354D01*
X130803461Y-119462383D01*
X130786369Y-119469266D01*
X130768763Y-119474971D01*
X130750696Y-119479466D01*
X130732221Y-119482717D01*
X130713390Y-119484692D01*
X130694256Y-119485357D01*
X130684654Y-119485190D01*
X130675121Y-119484692D01*
X130665665Y-119483866D01*
X130656290Y-119482717D01*
X130647005Y-119481249D01*
X130637815Y-119479466D01*
X130628727Y-119477372D01*
X130619748Y-119474971D01*
X130610884Y-119472268D01*
X130602142Y-119469266D01*
X130593529Y-119465970D01*
X130585050Y-119462383D01*
X130576713Y-119458510D01*
X130568524Y-119454354D01*
X130560490Y-119449921D01*
X130552618Y-119445213D01*
X130544913Y-119440236D01*
X130537382Y-119434993D01*
X130530033Y-119429488D01*
X130522871Y-119423726D01*
X130515904Y-119417710D01*
X130509137Y-119411444D01*
X130502578Y-119404933D01*
X130496232Y-119398181D01*
X130490107Y-119391192D01*
X130484210Y-119383970D01*
X130478546Y-119376519D01*
X130473122Y-119368843D01*
X130467945Y-119360947D01*
X130463021Y-119352833D01*
X130458358Y-119344508D01*
X130453961Y-119335974D01*
X130090847Y-118600220D01*
X129973742Y-118362889D01*
X129842932Y-118097883D01*
X129557076Y-118056343D01*
X129295192Y-118018297D01*
X128476624Y-117899340D01*
X128457783Y-117895933D01*
X128439430Y-117891274D01*
X128421614Y-117885405D01*
X128404381Y-117878363D01*
X128387779Y-117870190D01*
X128371855Y-117860926D01*
X128356656Y-117850609D01*
X128342229Y-117839280D01*
X128328622Y-117826978D01*
X128315882Y-117813744D01*
X128304057Y-117799618D01*
X128293193Y-117784638D01*
X128283339Y-117768846D01*
X128274540Y-117752280D01*
X128266845Y-117734981D01*
X128260301Y-117716989D01*
X128255022Y-117698585D01*
X128251081Y-117680066D01*
X128248463Y-117661490D01*
X128247154Y-117642919D01*
X128247139Y-117624412D01*
X128247224Y-117623167D01*
X128549173Y-117623167D01*
X129146814Y-117710004D01*
X129343241Y-117738526D01*
X129605125Y-117776573D01*
X129892039Y-117818271D01*
X129908255Y-117821141D01*
X129924158Y-117824971D01*
X129939711Y-117829735D01*
X129954878Y-117835407D01*
X129969625Y-117841961D01*
X129983913Y-117849371D01*
X129997709Y-117857612D01*
X130010976Y-117866656D01*
X130023678Y-117876479D01*
X130035779Y-117887055D01*
X130047243Y-117898356D01*
X130058035Y-117910358D01*
X130068118Y-117923035D01*
X130077457Y-117936359D01*
X130086015Y-117950306D01*
X130093758Y-117964850D01*
X130224991Y-118230809D01*
X130342095Y-118468140D01*
X130429884Y-118646046D01*
X130694256Y-119181721D01*
X130958628Y-118646046D01*
X131046416Y-118468140D01*
X131163521Y-118230809D01*
X131294807Y-117964850D01*
X131302550Y-117950306D01*
X131311108Y-117936359D01*
X131320448Y-117923035D01*
X131330531Y-117910358D01*
X131341324Y-117898356D01*
X131352789Y-117887055D01*
X131364892Y-117876480D01*
X131377596Y-117866657D01*
X131390865Y-117857612D01*
X131404664Y-117849371D01*
X131418957Y-117841961D01*
X131433709Y-117835407D01*
X131448882Y-117829735D01*
X131464442Y-117824971D01*
X131480353Y-117821141D01*
X131496579Y-117818271D01*
X131783440Y-117776573D01*
X132045377Y-117738526D01*
X132241804Y-117710004D01*
X132242016Y-117710004D01*
X132839657Y-117623167D01*
X132411138Y-117205496D01*
X132269057Y-117067013D01*
X132079562Y-116882281D01*
X131867948Y-116676012D01*
X131856516Y-116664153D01*
X131845903Y-116651702D01*
X131836121Y-116638702D01*
X131827186Y-116625195D01*
X131819110Y-116611222D01*
X131811907Y-116596825D01*
X131805591Y-116582048D01*
X131800175Y-116566931D01*
X131795673Y-116551517D01*
X131792099Y-116535848D01*
X131789466Y-116519967D01*
X131787789Y-116503915D01*
X131787080Y-116487734D01*
X131787353Y-116471466D01*
X131788622Y-116455154D01*
X131790901Y-116438839D01*
X131839002Y-116158275D01*
X131883717Y-115897449D01*
X131917266Y-115701710D01*
X132020241Y-115101424D01*
X131484195Y-115383258D01*
X131308459Y-115475651D01*
X131074197Y-115598788D01*
X130819139Y-115732879D01*
X130811773Y-115736608D01*
X130804323Y-115740097D01*
X130796796Y-115743345D01*
X130789196Y-115746353D01*
X130781529Y-115749120D01*
X130773801Y-115751646D01*
X130766018Y-115753932D01*
X130758185Y-115755977D01*
X130750309Y-115757781D01*
X130742394Y-115759345D01*
X130734446Y-115760669D01*
X130726471Y-115761751D01*
X130718475Y-115762593D01*
X130710463Y-115763195D01*
X130702441Y-115763556D01*
X130694414Y-115763676D01*
X130686388Y-115763556D01*
X130678368Y-115763195D01*
X130670359Y-115762593D01*
X130662366Y-115761751D01*
X130654395Y-115760669D01*
X130646452Y-115759345D01*
X130638542Y-115757781D01*
X130630670Y-115755977D01*
X130622842Y-115753932D01*
X130615064Y-115751646D01*
X130607341Y-115749120D01*
X130599678Y-115746353D01*
X130592081Y-115743345D01*
X130584556Y-115740097D01*
X130577108Y-115736608D01*
X130569743Y-115732879D01*
X130314684Y-115598788D01*
X130080422Y-115475651D01*
X129904686Y-115383258D01*
X129368587Y-115101424D01*
X129471563Y-115701710D01*
X129505112Y-115897449D01*
X129549827Y-116158275D01*
X129597928Y-116438839D01*
X129600216Y-116455154D01*
X129601494Y-116471466D01*
X129601774Y-116487734D01*
X129601070Y-116503915D01*
X129599397Y-116519967D01*
X129596768Y-116535848D01*
X129593195Y-116551517D01*
X129588694Y-116566931D01*
X129583278Y-116582048D01*
X129576960Y-116596825D01*
X129569754Y-116611222D01*
X129561674Y-116625195D01*
X129552733Y-116638702D01*
X129542945Y-116651702D01*
X129532323Y-116664153D01*
X129520882Y-116676012D01*
X129309268Y-116882281D01*
X129119774Y-117067013D01*
X128977692Y-117205496D01*
X128549173Y-117623167D01*
X128247224Y-117623167D01*
X128248402Y-117606030D01*
X128250929Y-117587833D01*
X128254705Y-117569881D01*
X128259715Y-117552234D01*
X128265944Y-117534952D01*
X128273377Y-117518095D01*
X128282000Y-117501724D01*
X128291797Y-117485899D01*
X128302754Y-117470679D01*
X128314856Y-117456126D01*
X128328087Y-117442299D01*
X128916361Y-116868893D01*
X129105856Y-116684162D01*
X129316729Y-116478633D01*
X129268786Y-116199074D01*
X129224072Y-115938248D01*
X129083366Y-115117881D01*
X129081904Y-115108390D01*
X129080781Y-115098910D01*
X129079993Y-115089450D01*
X129079537Y-115080016D01*
X129079412Y-115070617D01*
X129079613Y-115061257D01*
X129080138Y-115051946D01*
X129080983Y-115042691D01*
X129082147Y-115033497D01*
X129083626Y-115024373D01*
X129087517Y-115006363D01*
X129092633Y-114988717D01*
X129098950Y-114971494D01*
X129106446Y-114954749D01*
X129115097Y-114938541D01*
X129124879Y-114922928D01*
X129130187Y-114915362D01*
X129135769Y-114907966D01*
X129141622Y-114900748D01*
X129147743Y-114893714D01*
X129154130Y-114886871D01*
X129160779Y-114880227D01*
X129167687Y-114873790D01*
X129174853Y-114867565D01*
X129182271Y-114861561D01*
X129189940Y-114855785D01*
X129198833Y-114849582D01*
X129207902Y-114843773D01*
X129217135Y-114838359D01*
X129226523Y-114833341D01*
X129236054Y-114828719D01*
X129245716Y-114824495D01*
X129255500Y-114820669D01*
X129265393Y-114817242D01*
X129275384Y-114814215D01*
X129285464Y-114811589D01*
X129295619Y-114809364D01*
X129305840Y-114807542D01*
X129316115Y-114806124D01*
X129326434Y-114805109D01*
X129336784Y-114804500D01*
X129347156Y-114804297D01*
X129355144Y-114804417D01*
X129363133Y-114804779D01*
X129371116Y-114805381D01*
X129379089Y-114806226D01*
X129387047Y-114807313D01*
X129394984Y-114808642D01*
X129402895Y-114810214D01*
X129410775Y-114812029D01*
X129418619Y-114814089D01*
X129426422Y-114816392D01*
X129434179Y-114818940D01*
X129441885Y-114821732D01*
X129449534Y-114824770D01*
X129457122Y-114828053D01*
X129464643Y-114831583D01*
X129472092Y-114835359D01*
X130205782Y-115221068D01*
X130440044Y-115344206D01*
X130694150Y-115477820D01*
X130948309Y-115344206D01*
X131182571Y-115221068D01*
X131916261Y-114835359D01*
X131933507Y-114827041D01*
X131951093Y-114820023D01*
X131968958Y-114814301D01*
X131987040Y-114809870D01*
X132005276Y-114806726D01*
X132023606Y-114804863D01*
X132041968Y-114804278D01*
X132060299Y-114804965D01*
G37*
%TD.AperFunction*%
%TA.AperFunction,NonConductor*%
G36*
X132762081Y-116025031D02*
G01*
X132779648Y-116028207D01*
X132796759Y-116032550D01*
X132813370Y-116038022D01*
X132829437Y-116044587D01*
X132844917Y-116052208D01*
X132859764Y-116060847D01*
X132873936Y-116070467D01*
X132887388Y-116081031D01*
X132900075Y-116092501D01*
X132911955Y-116104841D01*
X132922983Y-116118012D01*
X132933114Y-116131979D01*
X132942306Y-116146704D01*
X132950513Y-116162149D01*
X132957692Y-116178278D01*
X132963799Y-116195053D01*
X132968717Y-116212211D01*
X132972388Y-116229476D01*
X132974825Y-116246794D01*
X132976042Y-116264107D01*
X132976054Y-116281360D01*
X132974873Y-116298498D01*
X132972515Y-116315463D01*
X132968992Y-116332199D01*
X132964319Y-116348652D01*
X132958509Y-116364765D01*
X132951577Y-116380482D01*
X132943537Y-116395747D01*
X132934401Y-116410505D01*
X132924185Y-116424698D01*
X132912901Y-116438272D01*
X132900564Y-116451169D01*
X132472098Y-116868840D01*
X132282603Y-116684109D01*
X132424737Y-116545573D01*
X132694559Y-116282524D01*
X132316099Y-116227544D01*
X132316100Y-116227544D01*
X132119673Y-116199021D01*
X132164387Y-115938195D01*
X132762081Y-116025031D01*
G37*
%TD.AperFunction*%
D11*
D12*
X134907143Y-107502000D02*
X134811905Y-107549619D01*
X134811905Y-107549619D02*
X134621429Y-107549619D01*
X134621429Y-107549619D02*
X134526191Y-107502000D01*
X134526191Y-107502000D02*
X134478572Y-107406761D01*
X134478572Y-107406761D02*
X134478572Y-107359142D01*
X134478572Y-107359142D02*
X134526191Y-107263904D01*
X134526191Y-107263904D02*
X134621429Y-107216285D01*
X134621429Y-107216285D02*
X134764286Y-107216285D01*
X134764286Y-107216285D02*
X134859524Y-107168666D01*
X134859524Y-107168666D02*
X134907143Y-107073428D01*
X134907143Y-107073428D02*
X134907143Y-107025809D01*
X134907143Y-107025809D02*
X134859524Y-106930571D01*
X134859524Y-106930571D02*
X134764286Y-106882952D01*
X134764286Y-106882952D02*
X134621429Y-106882952D01*
X134621429Y-106882952D02*
X134526191Y-106930571D01*
X133526191Y-107549619D02*
X134097619Y-107549619D01*
X133811905Y-107549619D02*
X133811905Y-106549619D01*
X133811905Y-106549619D02*
X133907143Y-106692476D01*
X133907143Y-106692476D02*
X134002381Y-106787714D01*
X134002381Y-106787714D02*
X134097619Y-106835333D01*
X132573810Y-107549619D02*
X133145238Y-107549619D01*
X132859524Y-107549619D02*
X132859524Y-106549619D01*
X132859524Y-106549619D02*
X132954762Y-106692476D01*
X132954762Y-106692476D02*
X133050000Y-106787714D01*
X133050000Y-106787714D02*
X133145238Y-106835333D01*
X131383333Y-106882952D02*
X130621429Y-107168666D01*
X130621429Y-107168666D02*
X131383333Y-107454380D01*
X129383333Y-106882952D02*
X129383333Y-107549619D01*
X129383333Y-106978190D02*
X129335714Y-106930571D01*
X129335714Y-106930571D02*
X129240476Y-106882952D01*
X129240476Y-106882952D02*
X129097619Y-106882952D01*
X129097619Y-106882952D02*
X129002381Y-106930571D01*
X129002381Y-106930571D02*
X128954762Y-107025809D01*
X128954762Y-107025809D02*
X128954762Y-107549619D01*
X128097619Y-107502000D02*
X128192857Y-107549619D01*
X128192857Y-107549619D02*
X128383333Y-107549619D01*
X128383333Y-107549619D02*
X128478571Y-107502000D01*
X128478571Y-107502000D02*
X128526190Y-107406761D01*
X128526190Y-107406761D02*
X128526190Y-107025809D01*
X128526190Y-107025809D02*
X128478571Y-106930571D01*
X128478571Y-106930571D02*
X128383333Y-106882952D01*
X128383333Y-106882952D02*
X128192857Y-106882952D01*
X128192857Y-106882952D02*
X128097619Y-106930571D01*
X128097619Y-106930571D02*
X128050000Y-107025809D01*
X128050000Y-107025809D02*
X128050000Y-107121047D01*
X128050000Y-107121047D02*
X128526190Y-107216285D01*
X127621428Y-107549619D02*
X127621428Y-106549619D01*
X127526190Y-107168666D02*
X127240476Y-107549619D01*
X127240476Y-106882952D02*
X127621428Y-107263904D01*
X126669047Y-107549619D02*
X126764285Y-107502000D01*
X126764285Y-107502000D02*
X126811904Y-107454380D01*
X126811904Y-107454380D02*
X126859523Y-107359142D01*
X126859523Y-107359142D02*
X126859523Y-107073428D01*
X126859523Y-107073428D02*
X126811904Y-106978190D01*
X126811904Y-106978190D02*
X126764285Y-106930571D01*
X126764285Y-106930571D02*
X126669047Y-106882952D01*
X126669047Y-106882952D02*
X126526190Y-106882952D01*
X126526190Y-106882952D02*
X126430952Y-106930571D01*
X126430952Y-106930571D02*
X126383333Y-106978190D01*
X126383333Y-106978190D02*
X126335714Y-107073428D01*
X126335714Y-107073428D02*
X126335714Y-107359142D01*
X126335714Y-107359142D02*
X126383333Y-107454380D01*
X126383333Y-107454380D02*
X126430952Y-107502000D01*
X126430952Y-107502000D02*
X126526190Y-107549619D01*
X126526190Y-107549619D02*
X126669047Y-107549619D01*
X125288094Y-106882952D02*
X124907142Y-106882952D01*
X125145237Y-106549619D02*
X125145237Y-107406761D01*
X125145237Y-107406761D02*
X125097618Y-107502000D01*
X125097618Y-107502000D02*
X125002380Y-107549619D01*
X125002380Y-107549619D02*
X124907142Y-107549619D01*
X124573808Y-107549619D02*
X124573808Y-106549619D01*
X124145237Y-107549619D02*
X124145237Y-107025809D01*
X124145237Y-107025809D02*
X124192856Y-106930571D01*
X124192856Y-106930571D02*
X124288094Y-106882952D01*
X124288094Y-106882952D02*
X124430951Y-106882952D01*
X124430951Y-106882952D02*
X124526189Y-106930571D01*
X124526189Y-106930571D02*
X124573808Y-106978190D01*
X123526189Y-107549619D02*
X123621427Y-107502000D01*
X123621427Y-107502000D02*
X123669046Y-107454380D01*
X123669046Y-107454380D02*
X123716665Y-107359142D01*
X123716665Y-107359142D02*
X123716665Y-107073428D01*
X123716665Y-107073428D02*
X123669046Y-106978190D01*
X123669046Y-106978190D02*
X123621427Y-106930571D01*
X123621427Y-106930571D02*
X123526189Y-106882952D01*
X123526189Y-106882952D02*
X123383332Y-106882952D01*
X123383332Y-106882952D02*
X123288094Y-106930571D01*
X123288094Y-106930571D02*
X123240475Y-106978190D01*
X123240475Y-106978190D02*
X123192856Y-107073428D01*
X123192856Y-107073428D02*
X123192856Y-107359142D01*
X123192856Y-107359142D02*
X123240475Y-107454380D01*
X123240475Y-107454380D02*
X123288094Y-107502000D01*
X123288094Y-107502000D02*
X123383332Y-107549619D01*
X123383332Y-107549619D02*
X123526189Y-107549619D01*
D13*
D14*
X139914285Y-86817720D02*
X139676190Y-87384387D01*
X139676190Y-87384387D02*
X139438095Y-86817720D01*
X138628571Y-86534387D02*
X138819047Y-86534387D01*
X138819047Y-86534387D02*
X138914285Y-86574863D01*
X138914285Y-86574863D02*
X138961904Y-86615339D01*
X138961904Y-86615339D02*
X139057142Y-86736768D01*
X139057142Y-86736768D02*
X139104761Y-86898672D01*
X139104761Y-86898672D02*
X139104761Y-87222482D01*
X139104761Y-87222482D02*
X139057142Y-87303434D01*
X139057142Y-87303434D02*
X139009523Y-87343911D01*
X139009523Y-87343911D02*
X138914285Y-87384387D01*
X138914285Y-87384387D02*
X138723809Y-87384387D01*
X138723809Y-87384387D02*
X138628571Y-87343911D01*
X138628571Y-87343911D02*
X138580952Y-87303434D01*
X138580952Y-87303434D02*
X138533333Y-87222482D01*
X138533333Y-87222482D02*
X138533333Y-87020101D01*
X138533333Y-87020101D02*
X138580952Y-86939149D01*
X138580952Y-86939149D02*
X138628571Y-86898672D01*
X138628571Y-86898672D02*
X138723809Y-86858196D01*
X138723809Y-86858196D02*
X138914285Y-86858196D01*
X138914285Y-86858196D02*
X139009523Y-86898672D01*
X139009523Y-86898672D02*
X139057142Y-86939149D01*
X139057142Y-86939149D02*
X139104761Y-87020101D01*
D15*
%TO.P,J7,1,Pin_1*%
%TO.N,GND*%
X144250000Y-105000000D03*
D16*
%TO.P,J7,2,Pin_2*%
%TO.N,Net-(J7-Pin_2)*%
X141710000Y-105000000D03*
%TO.P,J7,3,Pin_3*%
%TO.N,Net-(J7-Pin_3)*%
X139170000Y-105000000D03*
%TO.P,J7,4,Pin_4*%
%TO.N,Net-(J7-Pin_4)*%
X136630000Y-105000000D03*
%TD*%
D15*
%TO.P,J6,1,Pin_1*%
%TO.N,BCK*%
X108350000Y-97375000D03*
D16*
%TO.P,J6,2,Pin_2*%
%TO.N,SCK*%
X108350000Y-94835000D03*
%TO.P,J6,3,Pin_3*%
%TO.N,LRCK*%
X108350000Y-92295000D03*
%TD*%
D15*
%TO.P,J1,1,Pin_1*%
%TO.N,Net-(J1-Pin_1)*%
X127075000Y-84550000D03*
D16*
%TO.P,J1,2,Pin_2*%
%TO.N,Net-(J1-Pin_2)*%
X124535000Y-84550000D03*
%TD*%
D17*
%TO.P,H2,1,1*%
%TO.N,GND*%
X106975000Y-115000000D03*
X107919581Y-112719581D03*
X107919581Y-117280419D03*
X110200000Y-111775000D03*
D18*
X110200000Y-115000000D03*
D17*
X110200000Y-118225000D03*
X112480419Y-112719581D03*
X112480419Y-117280419D03*
X113425000Y-115000000D03*
%TD*%
%TO.P,H1,1,1*%
%TO.N,GND*%
X106975000Y-86000000D03*
X107919581Y-83719581D03*
X107919581Y-88280419D03*
X110200000Y-82775000D03*
D18*
X110200000Y-86000000D03*
D17*
X110200000Y-89225000D03*
X112480419Y-83719581D03*
X112480419Y-88280419D03*
X113425000Y-86000000D03*
%TD*%
D15*
%TO.P,J5,1,Pin_1*%
%TO.N,Net-(J5-Pin_1)*%
X108350000Y-107475500D03*
%TD*%
%TO.P,J10,1,Pin_1*%
%TO.N,+5V*%
X116975000Y-84550000D03*
D16*
%TO.P,J10,2,Pin_2*%
%TO.N,+3.3V*%
X119515000Y-84550000D03*
%TO.P,J10,3,Pin_3*%
%TO.N,GND*%
X122055000Y-84550000D03*
%TD*%
D15*
%TO.P,J9,1,Pin_1*%
%TO.N,Net-(J9-Pin_1)*%
X108350000Y-99900000D03*
D16*
%TO.P,J9,2,Pin_2*%
%TO.N,Net-(J9-Pin_2)*%
X108350000Y-102440000D03*
%TO.P,J9,3,Pin_3*%
%TO.N,Net-(J9-Pin_3)*%
X108350000Y-104980000D03*
%TD*%
D15*
%TO.P,J3,1,Pin_1*%
%TO.N,GND*%
X144200000Y-97000000D03*
D16*
%TO.P,J3,2,Pin_2*%
%TO.N,Net-(J3-Pin_2)*%
X141660000Y-97000000D03*
%TO.P,J3,3,Pin_3*%
%TO.N,Net-(J3-Pin_3)*%
X139120000Y-97000000D03*
%TO.P,J3,4,Pin_4*%
%TO.N,Net-(J3-Pin_4)*%
X136580000Y-97000000D03*
%TD*%
D19*
%TO.N,GND*%
X124200000Y-102925000D03*
X118300000Y-90600000D03*
X121950000Y-107550000D03*
X119450000Y-94250000D03*
X118350776Y-99711966D03*
X114100000Y-92150000D03*
%TO.N,+5V*%
X115970000Y-93970000D03*
X119700000Y-99400000D03*
%TO.N,Net-(J7-Pin_4)*%
X128750000Y-104850000D03*
%TO.N,Net-(J1-Pin_1)*%
X129550000Y-93300000D03*
X129500000Y-99974999D03*
%TO.N,SCK*%
X133950000Y-101600000D03*
X115777298Y-99372702D03*
%TO.N,LRCK*%
X116650000Y-99200000D03*
X128250000Y-98300000D03*
%TO.N,BCK*%
X115900000Y-100450000D03*
X115900000Y-103600000D03*
%TO.N,Net-(U1-OUTL)*%
X129950000Y-99050000D03*
X136130000Y-99400000D03*
%TO.N,Net-(U1-OUTR)*%
X128200000Y-99950000D03*
X141050000Y-100650000D03*
%TO.N,Net-(U2-VINL)*%
X124450000Y-105800000D03*
X126900000Y-103800000D03*
%TO.N,Net-(J1-Pin_2)*%
X128659616Y-92254341D03*
X130350000Y-96600000D03*
%TD*%
D20*
%TO.N,+5V*%
X119700000Y-97750000D02*
X119700000Y-99400000D01*
X115970000Y-93970000D02*
X115970000Y-94020000D01*
X115970000Y-94020000D02*
X119700000Y-97750000D01*
%TO.N,Net-(J7-Pin_4)*%
X128750000Y-104850000D02*
X128900000Y-105000000D01*
X128900000Y-105000000D02*
X136630000Y-105000000D01*
%TO.N,Net-(J1-Pin_1)*%
X128700000Y-95727818D02*
X128700000Y-94150000D01*
X129000000Y-96027818D02*
X128700000Y-95727818D01*
X128700000Y-94150000D02*
X129550000Y-93300000D01*
X129500000Y-99974999D02*
X129000000Y-99474999D01*
X129000000Y-99474999D02*
X129000000Y-96027818D01*
%TO.N,SCK*%
X133950000Y-101600000D02*
X133775000Y-101775000D01*
X133775000Y-101775000D02*
X117545768Y-101775000D01*
X117545768Y-101775000D02*
X116902298Y-101131530D01*
X116902298Y-100497702D02*
X115777298Y-99372702D01*
X116902298Y-101131530D02*
X116902298Y-100497702D01*
%TO.N,LRCK*%
X128250000Y-98300000D02*
X127850000Y-98300000D01*
X117453298Y-100903298D02*
X117453298Y-100269470D01*
X127850000Y-98300000D02*
X124926000Y-101224000D01*
X124926000Y-101224000D02*
X117774000Y-101224000D01*
X116650000Y-99466172D02*
X116650000Y-99200000D01*
X117453298Y-100269470D02*
X116650000Y-99466172D01*
X117774000Y-101224000D02*
X117453298Y-100903298D01*
%TO.N,BCK*%
X115900000Y-100450000D02*
X115900000Y-103600000D01*
%TO.N,Net-(U1-OUTL)*%
X135150000Y-98650000D02*
X130350000Y-98650000D01*
X130350000Y-98650000D02*
X129950000Y-99050000D01*
X136130000Y-99400000D02*
X135900000Y-99400000D01*
X135900000Y-99400000D02*
X135150000Y-98650000D01*
%TO.N,Net-(U1-OUTR)*%
X128200000Y-99950000D02*
X128925000Y-100675000D01*
X128925000Y-100675000D02*
X141025000Y-100675000D01*
X141025000Y-100675000D02*
X141050000Y-100650000D01*
%TO.N,Net-(U2-VINL)*%
X126900000Y-103800000D02*
X126450000Y-103800000D01*
X126450000Y-103800000D02*
X124450000Y-105800000D01*
%TO.N,Net-(J1-Pin_2)*%
X129425000Y-94525202D02*
X129425000Y-95675000D01*
X130445040Y-93505162D02*
X129425000Y-94525202D01*
X129425000Y-95675000D02*
X130350000Y-96600000D01*
X130445040Y-92732957D02*
X130445040Y-93505162D01*
X129966424Y-92254341D02*
X130445040Y-92732957D01*
X128659616Y-92254341D02*
X129966424Y-92254341D01*
%TD*%
%TA.AperFunction,Conductor*%
%TO.N,GND*%
G36*
X140552562Y-80500605D02*
G01*
X140999036Y-80519072D01*
X141009209Y-80519915D01*
X141450114Y-80574873D01*
X141460194Y-80576555D01*
X141895042Y-80667733D01*
X141904950Y-80670242D01*
X142330786Y-80797019D01*
X142340454Y-80800338D01*
X142651547Y-80921728D01*
X142754339Y-80961838D01*
X142763724Y-80965954D01*
X143162869Y-81161083D01*
X143171872Y-81165955D01*
X143425015Y-81316796D01*
X143553544Y-81393383D01*
X143562123Y-81398989D01*
X143641854Y-81455915D01*
X143923693Y-81657144D01*
X143931770Y-81663431D01*
X144020162Y-81738295D01*
X144270796Y-81950571D01*
X144278336Y-81957512D01*
X144592487Y-82271663D01*
X144599428Y-82279203D01*
X144886564Y-82618224D01*
X144892859Y-82626312D01*
X145151010Y-82987876D01*
X145156616Y-82996455D01*
X145384041Y-83378122D01*
X145388919Y-83387136D01*
X145584045Y-83786275D01*
X145588161Y-83795660D01*
X145749656Y-84209533D01*
X145752984Y-84219226D01*
X145879753Y-84645036D01*
X145882269Y-84654971D01*
X145973441Y-85089791D01*
X145975128Y-85099900D01*
X146030082Y-85540769D01*
X146030928Y-85550983D01*
X146049394Y-85997437D01*
X146049500Y-86002561D01*
X146049500Y-114926162D01*
X146049499Y-114934857D01*
X146049308Y-114935581D01*
X146049495Y-114999096D01*
X146049495Y-114999233D01*
X146049486Y-114999260D01*
X146049403Y-115004004D01*
X146032172Y-115450773D01*
X146031349Y-115461027D01*
X145977465Y-115902215D01*
X145975796Y-115912366D01*
X145885521Y-116347601D01*
X145883017Y-116357573D01*
X145756979Y-116783816D01*
X145753661Y-116793537D01*
X145592728Y-117207867D01*
X145588609Y-117217294D01*
X145393891Y-117616848D01*
X145389005Y-117625900D01*
X145161832Y-118007953D01*
X145156212Y-118016569D01*
X144898160Y-118378468D01*
X144891845Y-118386589D01*
X144604681Y-118725855D01*
X144597715Y-118733424D01*
X144283424Y-119047715D01*
X144275855Y-119054681D01*
X143936589Y-119341845D01*
X143928468Y-119348160D01*
X143566569Y-119606212D01*
X143557953Y-119611832D01*
X143175900Y-119839005D01*
X143166848Y-119843891D01*
X142767294Y-120038609D01*
X142757867Y-120042728D01*
X142343537Y-120203661D01*
X142333816Y-120206979D01*
X141907573Y-120333017D01*
X141897601Y-120335521D01*
X141462366Y-120425796D01*
X141452215Y-120427465D01*
X141011027Y-120481349D01*
X141000773Y-120482172D01*
X140554004Y-120499403D01*
X140549233Y-120499495D01*
X140549097Y-120499495D01*
X140485581Y-120499308D01*
X140484858Y-120499499D01*
X140476155Y-120499500D01*
X140476153Y-120499499D01*
X140476147Y-120499500D01*
X110202561Y-120499500D01*
X110197437Y-120499394D01*
X109750983Y-120480928D01*
X109740769Y-120480082D01*
X109299900Y-120425128D01*
X109289791Y-120423441D01*
X108854971Y-120332269D01*
X108845036Y-120329753D01*
X108419226Y-120202984D01*
X108409533Y-120199656D01*
X107995660Y-120038161D01*
X107986275Y-120034045D01*
X107587136Y-119838919D01*
X107578122Y-119834041D01*
X107196455Y-119606616D01*
X107187876Y-119601010D01*
X106839777Y-119352473D01*
X106826310Y-119342857D01*
X106818224Y-119336564D01*
X106794449Y-119316428D01*
X106534179Y-119095990D01*
X106479203Y-119049428D01*
X106471663Y-119042487D01*
X106157512Y-118728336D01*
X106150582Y-118720809D01*
X105863431Y-118381770D01*
X105857140Y-118373687D01*
X105851749Y-118366137D01*
X105598989Y-118012123D01*
X105593383Y-118003544D01*
X105542273Y-117917771D01*
X105365955Y-117621872D01*
X105361080Y-117612863D01*
X105346292Y-117582614D01*
X105203319Y-117290155D01*
X105165954Y-117213724D01*
X105161838Y-117204339D01*
X105092407Y-117026404D01*
X105000338Y-116790454D01*
X104997019Y-116780786D01*
X104870242Y-116354950D01*
X104867733Y-116345042D01*
X104776555Y-115910194D01*
X104774873Y-115900114D01*
X104719915Y-115459209D01*
X104719072Y-115449036D01*
X104700606Y-115002562D01*
X104700500Y-114997438D01*
X104700500Y-114790423D01*
X105400000Y-114790423D01*
X105400000Y-115209576D01*
X105436531Y-115627125D01*
X105509314Y-116039894D01*
X105509317Y-116039907D01*
X105617793Y-116444752D01*
X105761157Y-116838639D01*
X105761160Y-116838647D01*
X105938287Y-117218495D01*
X105938295Y-117218511D01*
X106147859Y-117581486D01*
X106147875Y-117581512D01*
X106388271Y-117924833D01*
X106631611Y-118214834D01*
X108513098Y-116333347D01*
X108580076Y-116420635D01*
X108779365Y-116619924D01*
X108866650Y-116686900D01*
X106985163Y-118568387D01*
X106985164Y-118568388D01*
X107275159Y-118811723D01*
X107618487Y-119052124D01*
X107618513Y-119052140D01*
X107981488Y-119261704D01*
X107981504Y-119261712D01*
X108361352Y-119438839D01*
X108361360Y-119438842D01*
X108755247Y-119582206D01*
X109160092Y-119690682D01*
X109160105Y-119690685D01*
X109572874Y-119763468D01*
X109990423Y-119799999D01*
X109990426Y-119800000D01*
X110409574Y-119800000D01*
X110409576Y-119799999D01*
X110827125Y-119763468D01*
X111239894Y-119690685D01*
X111239907Y-119690682D01*
X111644752Y-119582206D01*
X112038639Y-119438842D01*
X112038647Y-119438839D01*
X112418495Y-119261712D01*
X112418511Y-119261704D01*
X112781486Y-119052140D01*
X112781512Y-119052124D01*
X113124840Y-118811723D01*
X113414834Y-118568388D01*
X113414835Y-118568387D01*
X111533348Y-116686901D01*
X111620635Y-116619924D01*
X111819924Y-116420635D01*
X111886900Y-116333348D01*
X113768387Y-118214835D01*
X113768388Y-118214834D01*
X114011723Y-117924840D01*
X114252124Y-117581512D01*
X114252145Y-117581478D01*
X114268221Y-117553636D01*
X114461704Y-117218511D01*
X114461712Y-117218495D01*
X114638839Y-116838647D01*
X114638842Y-116838639D01*
X114782206Y-116444752D01*
X114794197Y-116400000D01*
X127300000Y-116400000D01*
X127350000Y-118350000D01*
X128500000Y-120150000D01*
X130800000Y-120400000D01*
X132950000Y-120100000D01*
X134500000Y-119700000D01*
X134248705Y-115068995D01*
X135049499Y-115068995D01*
X135076418Y-115204322D01*
X135076421Y-115204332D01*
X135129221Y-115331804D01*
X135129228Y-115331817D01*
X135205885Y-115446541D01*
X135205888Y-115446545D01*
X135303454Y-115544111D01*
X135303458Y-115544114D01*
X135418182Y-115620771D01*
X135418195Y-115620778D01*
X135539397Y-115670981D01*
X135545672Y-115673580D01*
X135545676Y-115673580D01*
X135545677Y-115673581D01*
X135681004Y-115700500D01*
X135681007Y-115700500D01*
X135818995Y-115700500D01*
X135910041Y-115682389D01*
X135954328Y-115673580D01*
X136080604Y-115621275D01*
X136081804Y-115620778D01*
X136081804Y-115620777D01*
X136081811Y-115620775D01*
X136196542Y-115544114D01*
X136294114Y-115446542D01*
X136370775Y-115331811D01*
X136423580Y-115204328D01*
X136436193Y-115140918D01*
X136450500Y-115068995D01*
X142049499Y-115068995D01*
X142076418Y-115204322D01*
X142076421Y-115204332D01*
X142129221Y-115331804D01*
X142129228Y-115331817D01*
X142205885Y-115446541D01*
X142205888Y-115446545D01*
X142303454Y-115544111D01*
X142303458Y-115544114D01*
X142418182Y-115620771D01*
X142418195Y-115620778D01*
X142539397Y-115670981D01*
X142545672Y-115673580D01*
X142545676Y-115673580D01*
X142545677Y-115673581D01*
X142681004Y-115700500D01*
X142681007Y-115700500D01*
X142818995Y-115700500D01*
X142910041Y-115682389D01*
X142954328Y-115673580D01*
X143080604Y-115621275D01*
X143081804Y-115620778D01*
X143081804Y-115620777D01*
X143081811Y-115620775D01*
X143196542Y-115544114D01*
X143294114Y-115446542D01*
X143370775Y-115331811D01*
X143423580Y-115204328D01*
X143436193Y-115140918D01*
X143450500Y-115068995D01*
X143450500Y-114931004D01*
X143423581Y-114795677D01*
X143423580Y-114795676D01*
X143423580Y-114795672D01*
X143419490Y-114785797D01*
X143370778Y-114668195D01*
X143370771Y-114668182D01*
X143294114Y-114553458D01*
X143294111Y-114553454D01*
X143196545Y-114455888D01*
X143196541Y-114455885D01*
X143081817Y-114379228D01*
X143081804Y-114379221D01*
X142954332Y-114326421D01*
X142954322Y-114326418D01*
X142818995Y-114299500D01*
X142818993Y-114299500D01*
X142681007Y-114299500D01*
X142681005Y-114299500D01*
X142545677Y-114326418D01*
X142545667Y-114326421D01*
X142418195Y-114379221D01*
X142418182Y-114379228D01*
X142303458Y-114455885D01*
X142303454Y-114455888D01*
X142205888Y-114553454D01*
X142205885Y-114553458D01*
X142129228Y-114668182D01*
X142129221Y-114668195D01*
X142076421Y-114795667D01*
X142076418Y-114795677D01*
X142049500Y-114931004D01*
X142049500Y-114931007D01*
X142049500Y-115068993D01*
X142049500Y-115068995D01*
X142049499Y-115068995D01*
X136450500Y-115068995D01*
X136450500Y-114931004D01*
X136423581Y-114795677D01*
X136423580Y-114795676D01*
X136423580Y-114795672D01*
X136419490Y-114785797D01*
X136370778Y-114668195D01*
X136370771Y-114668182D01*
X136294114Y-114553458D01*
X136294111Y-114553454D01*
X136196545Y-114455888D01*
X136196541Y-114455885D01*
X136081817Y-114379228D01*
X136081804Y-114379221D01*
X135954332Y-114326421D01*
X135954322Y-114326418D01*
X135818995Y-114299500D01*
X135818993Y-114299500D01*
X135681007Y-114299500D01*
X135681005Y-114299500D01*
X135545677Y-114326418D01*
X135545667Y-114326421D01*
X135418195Y-114379221D01*
X135418182Y-114379228D01*
X135303458Y-114455885D01*
X135303454Y-114455888D01*
X135205888Y-114553454D01*
X135205885Y-114553458D01*
X135129228Y-114668182D01*
X135129221Y-114668195D01*
X135076421Y-114795667D01*
X135076418Y-114795677D01*
X135049500Y-114931004D01*
X135049500Y-114931007D01*
X135049500Y-115068993D01*
X135049500Y-115068995D01*
X135049499Y-115068995D01*
X134248705Y-115068995D01*
X134150000Y-113250000D01*
X133400000Y-113350000D01*
X130800000Y-112950000D01*
X127450000Y-112900000D01*
X127300000Y-116400000D01*
X114794197Y-116400000D01*
X114890682Y-116039907D01*
X114890685Y-116039894D01*
X114963468Y-115627125D01*
X114999999Y-115209576D01*
X115000000Y-115209574D01*
X115000000Y-114790426D01*
X114999999Y-114790423D01*
X114963468Y-114372874D01*
X114890685Y-113960105D01*
X114890682Y-113960092D01*
X114782206Y-113555247D01*
X114638842Y-113161360D01*
X114638839Y-113161352D01*
X114461712Y-112781504D01*
X114461704Y-112781488D01*
X114252140Y-112418513D01*
X114252124Y-112418487D01*
X114011723Y-112075159D01*
X113768388Y-111785164D01*
X113768387Y-111785163D01*
X111886900Y-113666650D01*
X111819924Y-113579365D01*
X111620635Y-113380076D01*
X111533347Y-113313097D01*
X113414834Y-111431611D01*
X113124833Y-111188271D01*
X112781512Y-110947875D01*
X112781486Y-110947859D01*
X112418511Y-110738295D01*
X112418495Y-110738287D01*
X112038647Y-110561160D01*
X112038639Y-110561157D01*
X111644752Y-110417793D01*
X111239907Y-110309317D01*
X111239894Y-110309314D01*
X110827125Y-110236531D01*
X110409576Y-110200000D01*
X109990423Y-110200000D01*
X109572874Y-110236531D01*
X109160105Y-110309314D01*
X109160092Y-110309317D01*
X108755247Y-110417793D01*
X108361360Y-110561157D01*
X108361352Y-110561160D01*
X107981504Y-110738287D01*
X107981488Y-110738295D01*
X107618513Y-110947859D01*
X107618487Y-110947875D01*
X107275166Y-111188271D01*
X106985164Y-111431612D01*
X108866651Y-113313098D01*
X108779365Y-113380076D01*
X108580076Y-113579365D01*
X108513098Y-113666651D01*
X106631612Y-111785164D01*
X106388271Y-112075166D01*
X106147875Y-112418487D01*
X106147859Y-112418513D01*
X105938295Y-112781488D01*
X105938287Y-112781504D01*
X105761160Y-113161352D01*
X105761157Y-113161360D01*
X105617793Y-113555247D01*
X105509317Y-113960092D01*
X105509314Y-113960105D01*
X105436531Y-114372874D01*
X105400000Y-114790423D01*
X104700500Y-114790423D01*
X104700500Y-92188713D01*
X106999500Y-92188713D01*
X106999500Y-92401287D01*
X107032754Y-92611243D01*
X107082592Y-92764629D01*
X107098444Y-92813414D01*
X107194951Y-93002820D01*
X107319890Y-93174786D01*
X107470213Y-93325109D01*
X107642182Y-93450050D01*
X107650946Y-93454516D01*
X107701742Y-93502491D01*
X107718536Y-93570312D01*
X107695998Y-93636447D01*
X107650946Y-93675484D01*
X107642182Y-93679949D01*
X107470213Y-93804890D01*
X107319890Y-93955213D01*
X107194951Y-94127179D01*
X107098444Y-94316585D01*
X107098443Y-94316587D01*
X107098443Y-94316588D01*
X107087852Y-94349185D01*
X107032753Y-94518760D01*
X106999500Y-94728713D01*
X106999500Y-94941286D01*
X107032753Y-95151239D01*
X107098444Y-95353414D01*
X107194951Y-95542820D01*
X107319890Y-95714786D01*
X107433430Y-95828326D01*
X107466915Y-95889649D01*
X107461931Y-95959341D01*
X107420059Y-96015274D01*
X107389083Y-96032189D01*
X107257669Y-96081203D01*
X107257664Y-96081206D01*
X107142455Y-96167452D01*
X107142452Y-96167455D01*
X107056206Y-96282664D01*
X107056202Y-96282671D01*
X107005908Y-96417517D01*
X106999501Y-96477116D01*
X106999501Y-96477123D01*
X106999500Y-96477135D01*
X106999500Y-98272870D01*
X106999501Y-98272876D01*
X107005908Y-98332483D01*
X107056202Y-98467328D01*
X107056204Y-98467331D01*
X107127963Y-98563189D01*
X107152380Y-98628653D01*
X107137528Y-98696926D01*
X107127963Y-98711811D01*
X107056204Y-98807668D01*
X107056202Y-98807671D01*
X107005908Y-98942517D01*
X106999581Y-99001370D01*
X106999501Y-99002123D01*
X106999500Y-99002135D01*
X106999500Y-100797870D01*
X106999501Y-100797876D01*
X107005908Y-100857483D01*
X107056202Y-100992328D01*
X107056206Y-100992335D01*
X107142452Y-101107544D01*
X107142455Y-101107547D01*
X107257664Y-101193793D01*
X107257671Y-101193797D01*
X107389082Y-101242810D01*
X107445016Y-101284681D01*
X107469433Y-101350145D01*
X107454582Y-101418418D01*
X107433431Y-101446673D01*
X107319889Y-101560215D01*
X107194951Y-101732179D01*
X107098444Y-101921585D01*
X107032753Y-102123760D01*
X106999500Y-102333713D01*
X106999500Y-102546286D01*
X107032753Y-102756239D01*
X107098444Y-102958414D01*
X107194951Y-103147820D01*
X107319890Y-103319786D01*
X107470213Y-103470109D01*
X107642182Y-103595050D01*
X107650946Y-103599516D01*
X107701742Y-103647491D01*
X107718536Y-103715312D01*
X107695998Y-103781447D01*
X107650946Y-103820484D01*
X107642182Y-103824949D01*
X107470213Y-103949890D01*
X107319890Y-104100213D01*
X107194951Y-104272179D01*
X107098444Y-104461585D01*
X107032753Y-104663760D01*
X107029586Y-104683757D01*
X106999500Y-104873713D01*
X106999500Y-105086287D01*
X107000184Y-105090606D01*
X107031718Y-105289707D01*
X107032754Y-105296243D01*
X107087887Y-105465925D01*
X107098444Y-105498414D01*
X107194951Y-105687820D01*
X107319890Y-105859786D01*
X107401019Y-105940915D01*
X107434504Y-106002238D01*
X107429520Y-106071930D01*
X107387648Y-106127863D01*
X107356671Y-106144778D01*
X107257671Y-106181702D01*
X107257664Y-106181706D01*
X107142455Y-106267952D01*
X107142452Y-106267955D01*
X107056206Y-106383164D01*
X107056202Y-106383171D01*
X107005908Y-106518017D01*
X106999501Y-106577616D01*
X106999501Y-106577623D01*
X106999500Y-106577635D01*
X106999500Y-108373370D01*
X106999501Y-108373376D01*
X107005908Y-108432983D01*
X107056202Y-108567828D01*
X107056206Y-108567835D01*
X107142452Y-108683044D01*
X107142455Y-108683047D01*
X107257664Y-108769293D01*
X107257671Y-108769297D01*
X107392517Y-108819591D01*
X107392516Y-108819591D01*
X107399444Y-108820335D01*
X107452127Y-108826000D01*
X109247872Y-108825999D01*
X109307483Y-108819591D01*
X109442331Y-108769296D01*
X109557546Y-108683046D01*
X109643796Y-108567831D01*
X109694091Y-108432983D01*
X109700500Y-108373373D01*
X109700499Y-106577628D01*
X109694091Y-106518017D01*
X109643796Y-106383169D01*
X109643795Y-106383168D01*
X109643793Y-106383164D01*
X109557547Y-106267955D01*
X109557544Y-106267952D01*
X109442335Y-106181706D01*
X109442328Y-106181702D01*
X109343328Y-106144778D01*
X109318617Y-106126280D01*
X109292706Y-106109519D01*
X109290899Y-106105530D01*
X109287394Y-106102907D01*
X109276608Y-106073989D01*
X109263871Y-106045877D01*
X109264507Y-106041545D01*
X109262977Y-106037443D01*
X109269538Y-106007280D01*
X109274021Y-105976749D01*
X109277159Y-105972242D01*
X109277828Y-105969170D01*
X109293191Y-105947114D01*
X109295970Y-105943925D01*
X109325730Y-105914165D01*
X122560921Y-105914165D01*
X122560921Y-108179729D01*
X135539078Y-108179729D01*
X135539078Y-106118336D01*
X135558763Y-106051297D01*
X135611567Y-106005542D01*
X135680725Y-105995598D01*
X135744281Y-106024623D01*
X135749717Y-106029685D01*
X135750213Y-106030109D01*
X135922179Y-106155048D01*
X135922181Y-106155049D01*
X135922184Y-106155051D01*
X136111588Y-106251557D01*
X136313757Y-106317246D01*
X136523713Y-106350500D01*
X136523714Y-106350500D01*
X136736286Y-106350500D01*
X136736287Y-106350500D01*
X136946243Y-106317246D01*
X137148412Y-106251557D01*
X137337816Y-106155051D01*
X137400486Y-106109519D01*
X137509786Y-106030109D01*
X137509788Y-106030106D01*
X137509792Y-106030104D01*
X137660104Y-105879792D01*
X137660106Y-105879788D01*
X137660109Y-105879786D01*
X137785048Y-105707820D01*
X137785047Y-105707820D01*
X137785051Y-105707816D01*
X137789514Y-105699054D01*
X137837488Y-105648259D01*
X137905308Y-105631463D01*
X137971444Y-105653999D01*
X138010484Y-105699054D01*
X138012232Y-105702484D01*
X138014951Y-105707820D01*
X138139890Y-105879786D01*
X138290213Y-106030109D01*
X138462179Y-106155048D01*
X138462181Y-106155049D01*
X138462184Y-106155051D01*
X138651588Y-106251557D01*
X138853757Y-106317246D01*
X139063713Y-106350500D01*
X139063714Y-106350500D01*
X139276286Y-106350500D01*
X139276287Y-106350500D01*
X139486243Y-106317246D01*
X139688412Y-106251557D01*
X139877816Y-106155051D01*
X139940486Y-106109519D01*
X140049786Y-106030109D01*
X140049788Y-106030106D01*
X140049792Y-106030104D01*
X140200104Y-105879792D01*
X140200106Y-105879788D01*
X140200109Y-105879786D01*
X140325048Y-105707820D01*
X140325047Y-105707820D01*
X140325051Y-105707816D01*
X140329514Y-105699054D01*
X140377488Y-105648259D01*
X140445308Y-105631463D01*
X140511444Y-105653999D01*
X140550484Y-105699054D01*
X140552232Y-105702484D01*
X140554951Y-105707820D01*
X140679890Y-105879786D01*
X140830213Y-106030109D01*
X141002179Y-106155048D01*
X141002181Y-106155049D01*
X141002184Y-106155051D01*
X141191588Y-106251557D01*
X141393757Y-106317246D01*
X141603713Y-106350500D01*
X141603714Y-106350500D01*
X141816286Y-106350500D01*
X141816287Y-106350500D01*
X142026243Y-106317246D01*
X142228412Y-106251557D01*
X142417816Y-106155051D01*
X142504478Y-106092088D01*
X142589784Y-106030110D01*
X142589784Y-106030109D01*
X142589792Y-106030104D01*
X142703717Y-105916178D01*
X142765036Y-105882696D01*
X142834728Y-105887680D01*
X142890662Y-105929551D01*
X142907577Y-105960528D01*
X142956646Y-106092088D01*
X142956649Y-106092093D01*
X143042809Y-106207187D01*
X143042812Y-106207190D01*
X143157906Y-106293350D01*
X143157913Y-106293354D01*
X143292620Y-106343596D01*
X143292627Y-106343598D01*
X143352155Y-106349999D01*
X143352172Y-106350000D01*
X144000000Y-106350000D01*
X144000000Y-105433012D01*
X144057007Y-105465925D01*
X144184174Y-105500000D01*
X144315826Y-105500000D01*
X144442993Y-105465925D01*
X144500000Y-105433012D01*
X144500000Y-106350000D01*
X145147828Y-106350000D01*
X145147844Y-106349999D01*
X145207372Y-106343598D01*
X145207379Y-106343596D01*
X145342086Y-106293354D01*
X145342093Y-106293350D01*
X145457187Y-106207190D01*
X145457190Y-106207187D01*
X145543350Y-106092093D01*
X145543354Y-106092086D01*
X145593596Y-105957379D01*
X145593598Y-105957372D01*
X145599999Y-105897844D01*
X145600000Y-105897827D01*
X145600000Y-105250000D01*
X144683012Y-105250000D01*
X144715925Y-105192993D01*
X144750000Y-105065826D01*
X144750000Y-104934174D01*
X144715925Y-104807007D01*
X144683012Y-104750000D01*
X145600000Y-104750000D01*
X145600000Y-104102172D01*
X145599999Y-104102155D01*
X145593598Y-104042627D01*
X145593596Y-104042620D01*
X145543354Y-103907913D01*
X145543350Y-103907906D01*
X145457190Y-103792812D01*
X145457187Y-103792809D01*
X145342093Y-103706649D01*
X145342086Y-103706645D01*
X145207379Y-103656403D01*
X145207372Y-103656401D01*
X145147844Y-103650000D01*
X144500000Y-103650000D01*
X144500000Y-104566988D01*
X144442993Y-104534075D01*
X144315826Y-104500000D01*
X144184174Y-104500000D01*
X144057007Y-104534075D01*
X144000000Y-104566988D01*
X144000000Y-103650000D01*
X143352155Y-103650000D01*
X143292627Y-103656401D01*
X143292620Y-103656403D01*
X143157913Y-103706645D01*
X143157906Y-103706649D01*
X143042812Y-103792809D01*
X143042809Y-103792812D01*
X142956649Y-103907906D01*
X142956646Y-103907912D01*
X142907577Y-104039471D01*
X142865705Y-104095404D01*
X142800241Y-104119821D01*
X142731968Y-104104969D01*
X142703714Y-104083818D01*
X142589786Y-103969890D01*
X142417820Y-103844951D01*
X142228414Y-103748444D01*
X142228413Y-103748443D01*
X142228412Y-103748443D01*
X142026243Y-103682754D01*
X142026241Y-103682753D01*
X142026240Y-103682753D01*
X141864957Y-103657208D01*
X141816287Y-103649500D01*
X141603713Y-103649500D01*
X141555042Y-103657208D01*
X141393760Y-103682753D01*
X141191585Y-103748444D01*
X141002179Y-103844951D01*
X140830213Y-103969890D01*
X140679890Y-104120213D01*
X140554949Y-104292182D01*
X140550484Y-104300946D01*
X140502509Y-104351742D01*
X140434688Y-104368536D01*
X140368553Y-104345998D01*
X140329516Y-104300946D01*
X140325050Y-104292182D01*
X140200109Y-104120213D01*
X140049786Y-103969890D01*
X139877820Y-103844951D01*
X139688414Y-103748444D01*
X139688413Y-103748443D01*
X139688412Y-103748443D01*
X139486243Y-103682754D01*
X139486241Y-103682753D01*
X139486240Y-103682753D01*
X139324957Y-103657208D01*
X139276287Y-103649500D01*
X139063713Y-103649500D01*
X139015042Y-103657208D01*
X138853760Y-103682753D01*
X138651585Y-103748444D01*
X138462179Y-103844951D01*
X138290213Y-103969890D01*
X138139890Y-104120213D01*
X138014949Y-104292182D01*
X138010484Y-104300946D01*
X137962509Y-104351742D01*
X137894688Y-104368536D01*
X137828553Y-104345998D01*
X137789516Y-104300946D01*
X137785050Y-104292182D01*
X137660109Y-104120213D01*
X137509786Y-103969890D01*
X137337820Y-103844951D01*
X137148414Y-103748444D01*
X137148413Y-103748443D01*
X137148412Y-103748443D01*
X136946243Y-103682754D01*
X136946241Y-103682753D01*
X136946240Y-103682753D01*
X136784957Y-103657208D01*
X136736287Y-103649500D01*
X136523713Y-103649500D01*
X136475042Y-103657208D01*
X136313760Y-103682753D01*
X136111585Y-103748444D01*
X135922179Y-103844951D01*
X135750213Y-103969890D01*
X135599894Y-104120209D01*
X135599890Y-104120214D01*
X135488606Y-104273385D01*
X135433276Y-104316051D01*
X135388288Y-104324500D01*
X129407940Y-104324500D01*
X129340901Y-104304815D01*
X129320263Y-104288185D01*
X129260289Y-104228211D01*
X129260288Y-104228210D01*
X129260287Y-104228209D01*
X129129185Y-104140609D01*
X129129172Y-104140602D01*
X128983501Y-104080264D01*
X128983489Y-104080261D01*
X128828845Y-104049500D01*
X128828842Y-104049500D01*
X128671158Y-104049500D01*
X128671155Y-104049500D01*
X128516510Y-104080261D01*
X128516498Y-104080264D01*
X128370827Y-104140602D01*
X128370814Y-104140609D01*
X128239711Y-104228210D01*
X128239707Y-104228213D01*
X128128213Y-104339707D01*
X128128210Y-104339711D01*
X128040609Y-104470814D01*
X128040602Y-104470827D01*
X127980264Y-104616498D01*
X127980261Y-104616510D01*
X127949500Y-104771153D01*
X127949500Y-104928846D01*
X127980261Y-105083489D01*
X127980264Y-105083501D01*
X128040602Y-105229172D01*
X128040609Y-105229185D01*
X128128210Y-105360288D01*
X128128213Y-105360292D01*
X128239707Y-105471786D01*
X128239711Y-105471789D01*
X128370814Y-105559390D01*
X128370827Y-105559397D01*
X128516498Y-105619735D01*
X128516503Y-105619737D01*
X128659892Y-105648259D01*
X128671153Y-105650499D01*
X128671156Y-105650500D01*
X128671158Y-105650500D01*
X128695578Y-105650500D01*
X128719770Y-105652883D01*
X128798519Y-105668548D01*
X128860430Y-105700934D01*
X128895004Y-105761650D01*
X128891263Y-105831419D01*
X128850396Y-105888091D01*
X128785378Y-105913672D01*
X128774327Y-105914165D01*
X125590498Y-105914165D01*
X125523459Y-105894480D01*
X125477704Y-105841676D01*
X125467760Y-105772518D01*
X125496785Y-105708962D01*
X125502817Y-105702484D01*
X125743651Y-105461650D01*
X126593831Y-104611468D01*
X126655152Y-104577985D01*
X126705700Y-104577534D01*
X126736652Y-104583690D01*
X126821155Y-104600500D01*
X126821158Y-104600500D01*
X126978844Y-104600500D01*
X126978845Y-104600499D01*
X127133497Y-104569737D01*
X127279179Y-104509394D01*
X127410289Y-104421789D01*
X127521789Y-104310289D01*
X127609394Y-104179179D01*
X127669737Y-104033497D01*
X127700500Y-103878842D01*
X127700500Y-103721158D01*
X127700500Y-103721155D01*
X127700499Y-103721153D01*
X127699337Y-103715312D01*
X127669737Y-103566503D01*
X127650955Y-103521158D01*
X127609397Y-103420827D01*
X127609390Y-103420814D01*
X127521789Y-103289711D01*
X127521786Y-103289707D01*
X127410292Y-103178213D01*
X127410288Y-103178210D01*
X127279185Y-103090609D01*
X127279172Y-103090602D01*
X127133501Y-103030264D01*
X127133489Y-103030261D01*
X126978845Y-102999500D01*
X126978842Y-102999500D01*
X126821158Y-102999500D01*
X126821155Y-102999500D01*
X126666510Y-103030261D01*
X126666498Y-103030264D01*
X126520827Y-103090602D01*
X126520813Y-103090610D01*
X126501372Y-103103601D01*
X126434695Y-103124480D01*
X126432480Y-103124500D01*
X126383467Y-103124500D01*
X126252969Y-103150458D01*
X126252959Y-103150461D01*
X126130038Y-103201376D01*
X126130020Y-103201386D01*
X126019398Y-103275301D01*
X126019390Y-103275307D01*
X124302935Y-104991762D01*
X124241612Y-105025247D01*
X124239449Y-105025698D01*
X124216503Y-105030262D01*
X124216500Y-105030263D01*
X124070827Y-105090602D01*
X124070814Y-105090609D01*
X123939711Y-105178210D01*
X123939707Y-105178213D01*
X123828213Y-105289707D01*
X123828210Y-105289711D01*
X123740609Y-105420814D01*
X123740602Y-105420827D01*
X123680264Y-105566498D01*
X123680261Y-105566510D01*
X123649500Y-105721153D01*
X123649500Y-105790165D01*
X123629815Y-105857204D01*
X123577011Y-105902959D01*
X123525500Y-105914165D01*
X122560921Y-105914165D01*
X109325730Y-105914165D01*
X109380104Y-105859792D01*
X109505051Y-105687816D01*
X109601557Y-105498412D01*
X109667246Y-105296243D01*
X109700500Y-105086287D01*
X109700500Y-104873713D01*
X109667246Y-104663757D01*
X109601557Y-104461588D01*
X109505051Y-104272184D01*
X109505049Y-104272181D01*
X109505048Y-104272179D01*
X109380109Y-104100213D01*
X109229786Y-103949890D01*
X109057820Y-103824951D01*
X109057115Y-103824591D01*
X109049054Y-103820485D01*
X108998259Y-103772512D01*
X108981463Y-103704692D01*
X109003999Y-103638556D01*
X109049054Y-103599515D01*
X109057816Y-103595051D01*
X109159529Y-103521153D01*
X109229786Y-103470109D01*
X109229788Y-103470106D01*
X109229792Y-103470104D01*
X109380104Y-103319792D01*
X109380106Y-103319788D01*
X109380109Y-103319786D01*
X109505048Y-103147820D01*
X109505047Y-103147820D01*
X109505051Y-103147816D01*
X109601557Y-102958412D01*
X109667246Y-102756243D01*
X109700500Y-102546287D01*
X109700500Y-102333713D01*
X109667246Y-102123757D01*
X109601557Y-101921588D01*
X109505051Y-101732184D01*
X109505049Y-101732181D01*
X109505048Y-101732179D01*
X109380109Y-101560213D01*
X109266569Y-101446673D01*
X109233084Y-101385350D01*
X109238068Y-101315658D01*
X109279940Y-101259725D01*
X109310915Y-101242810D01*
X109442331Y-101193796D01*
X109557546Y-101107546D01*
X109643796Y-100992331D01*
X109694091Y-100857483D01*
X109700500Y-100797873D01*
X109700499Y-99293855D01*
X114976798Y-99293855D01*
X114976798Y-99451548D01*
X115007559Y-99606191D01*
X115007562Y-99606203D01*
X115067900Y-99751874D01*
X115067907Y-99751887D01*
X115155508Y-99882990D01*
X115155511Y-99882994D01*
X115179823Y-99907306D01*
X115213308Y-99968629D01*
X115208324Y-100038321D01*
X115195249Y-100063871D01*
X115190610Y-100070814D01*
X115190602Y-100070828D01*
X115130264Y-100216498D01*
X115130261Y-100216510D01*
X115099500Y-100371153D01*
X115099500Y-100528846D01*
X115130261Y-100683489D01*
X115130264Y-100683501D01*
X115190603Y-100829174D01*
X115190604Y-100829175D01*
X115190606Y-100829179D01*
X115203602Y-100848628D01*
X115224480Y-100915305D01*
X115224500Y-100917519D01*
X115224500Y-103132479D01*
X115204815Y-103199518D01*
X115203602Y-103201370D01*
X115190609Y-103220814D01*
X115190602Y-103220827D01*
X115130264Y-103366498D01*
X115130261Y-103366510D01*
X115099500Y-103521153D01*
X115099500Y-103678846D01*
X115130261Y-103833489D01*
X115130264Y-103833501D01*
X115190602Y-103979172D01*
X115190609Y-103979185D01*
X115278210Y-104110288D01*
X115278213Y-104110292D01*
X115389707Y-104221786D01*
X115389711Y-104221789D01*
X115520814Y-104309390D01*
X115520827Y-104309397D01*
X115666498Y-104369735D01*
X115666503Y-104369737D01*
X115821153Y-104400499D01*
X115821156Y-104400500D01*
X115821158Y-104400500D01*
X115978844Y-104400500D01*
X115978845Y-104400499D01*
X116133497Y-104369737D01*
X116246166Y-104323067D01*
X116279172Y-104309397D01*
X116279172Y-104309396D01*
X116279179Y-104309394D01*
X116410289Y-104221789D01*
X116521789Y-104110289D01*
X116609394Y-103979179D01*
X116669737Y-103833497D01*
X116700500Y-103678842D01*
X116700500Y-103521158D01*
X116700500Y-103521155D01*
X116700499Y-103521153D01*
X116680543Y-103420827D01*
X116669737Y-103366503D01*
X116650389Y-103319792D01*
X116609397Y-103220827D01*
X116609390Y-103220814D01*
X116596398Y-103201370D01*
X116575520Y-103134692D01*
X116575500Y-103132479D01*
X116575500Y-102059395D01*
X116595185Y-101992356D01*
X116647989Y-101946601D01*
X116717147Y-101936657D01*
X116780703Y-101965682D01*
X116787181Y-101971714D01*
X117115158Y-102299692D01*
X117115162Y-102299695D01*
X117225792Y-102373616D01*
X117225796Y-102373618D01*
X117225799Y-102373620D01*
X117348732Y-102424541D01*
X117479232Y-102450499D01*
X117479236Y-102450500D01*
X117479237Y-102450500D01*
X133841532Y-102450500D01*
X133841533Y-102450499D01*
X133972036Y-102424541D01*
X134019941Y-102404696D01*
X134043177Y-102397647D01*
X134183497Y-102369737D01*
X134329179Y-102309394D01*
X134460289Y-102221789D01*
X134571789Y-102110289D01*
X134659394Y-101979179D01*
X134719737Y-101833497D01*
X134750500Y-101678842D01*
X134750500Y-101521158D01*
X134746031Y-101498690D01*
X134752260Y-101429099D01*
X134795123Y-101373922D01*
X134861013Y-101350678D01*
X134867649Y-101350500D01*
X140624684Y-101350500D01*
X140672136Y-101359939D01*
X140816498Y-101419735D01*
X140816503Y-101419737D01*
X140951919Y-101446673D01*
X140971153Y-101450499D01*
X140971156Y-101450500D01*
X140971158Y-101450500D01*
X141128844Y-101450500D01*
X141128845Y-101450499D01*
X141283497Y-101419737D01*
X141429179Y-101359394D01*
X141560289Y-101271789D01*
X141671789Y-101160289D01*
X141759394Y-101029179D01*
X141819737Y-100883497D01*
X141850500Y-100728842D01*
X141850500Y-100571158D01*
X141850500Y-100571155D01*
X141850499Y-100571153D01*
X141845429Y-100545666D01*
X141819737Y-100416503D01*
X141783569Y-100329185D01*
X141759397Y-100270827D01*
X141759390Y-100270814D01*
X141671789Y-100139711D01*
X141671786Y-100139707D01*
X141560292Y-100028213D01*
X141560288Y-100028210D01*
X141429185Y-99940609D01*
X141429172Y-99940602D01*
X141283501Y-99880264D01*
X141283489Y-99880261D01*
X141128845Y-99849500D01*
X141128842Y-99849500D01*
X140971158Y-99849500D01*
X140971155Y-99849500D01*
X140816510Y-99880261D01*
X140816498Y-99880264D01*
X140670827Y-99940602D01*
X140670820Y-99940606D01*
X140641928Y-99959911D01*
X140613955Y-99978602D01*
X140547279Y-99999480D01*
X140545065Y-99999500D01*
X136924168Y-99999500D01*
X136857129Y-99979815D01*
X136811374Y-99927011D01*
X136801430Y-99857853D01*
X136821067Y-99806608D01*
X136839389Y-99779187D01*
X136839390Y-99779184D01*
X136839394Y-99779179D01*
X136899737Y-99633497D01*
X136930500Y-99478842D01*
X136930500Y-99321158D01*
X136930500Y-99321155D01*
X136930499Y-99321153D01*
X136899738Y-99166510D01*
X136899737Y-99166503D01*
X136880955Y-99121158D01*
X136839397Y-99020827D01*
X136839390Y-99020814D01*
X136751789Y-98889711D01*
X136751786Y-98889707D01*
X136640292Y-98778213D01*
X136640288Y-98778210D01*
X136509185Y-98690609D01*
X136509172Y-98690602D01*
X136363501Y-98630264D01*
X136363489Y-98630261D01*
X136208845Y-98599500D01*
X136208842Y-98599500D01*
X136106163Y-98599500D01*
X136076722Y-98590855D01*
X136046736Y-98584332D01*
X136041720Y-98580577D01*
X136039124Y-98579815D01*
X136018486Y-98563185D01*
X135891947Y-98436646D01*
X135858463Y-98375323D01*
X135863447Y-98305631D01*
X135905319Y-98249698D01*
X135970783Y-98225281D01*
X136035924Y-98238480D01*
X136061588Y-98251557D01*
X136263757Y-98317246D01*
X136473713Y-98350500D01*
X136473714Y-98350500D01*
X136686286Y-98350500D01*
X136686287Y-98350500D01*
X136896243Y-98317246D01*
X137098412Y-98251557D01*
X137287816Y-98155051D01*
X137309789Y-98139086D01*
X137459786Y-98030109D01*
X137459788Y-98030106D01*
X137459792Y-98030104D01*
X137610104Y-97879792D01*
X137610106Y-97879788D01*
X137610109Y-97879786D01*
X137735048Y-97707820D01*
X137735047Y-97707820D01*
X137735051Y-97707816D01*
X137739514Y-97699054D01*
X137787488Y-97648259D01*
X137855308Y-97631463D01*
X137921444Y-97653999D01*
X137960486Y-97699056D01*
X137964951Y-97707820D01*
X138089890Y-97879786D01*
X138240213Y-98030109D01*
X138412179Y-98155048D01*
X138412181Y-98155049D01*
X138412184Y-98155051D01*
X138601588Y-98251557D01*
X138803757Y-98317246D01*
X139013713Y-98350500D01*
X139013714Y-98350500D01*
X139226286Y-98350500D01*
X139226287Y-98350500D01*
X139436243Y-98317246D01*
X139638412Y-98251557D01*
X139827816Y-98155051D01*
X139849789Y-98139086D01*
X139999786Y-98030109D01*
X139999788Y-98030106D01*
X139999792Y-98030104D01*
X140150104Y-97879792D01*
X140150106Y-97879788D01*
X140150109Y-97879786D01*
X140275048Y-97707820D01*
X140275047Y-97707820D01*
X140275051Y-97707816D01*
X140279514Y-97699054D01*
X140327488Y-97648259D01*
X140395308Y-97631463D01*
X140461444Y-97653999D01*
X140500486Y-97699056D01*
X140504951Y-97707820D01*
X140629890Y-97879786D01*
X140780213Y-98030109D01*
X140952179Y-98155048D01*
X140952181Y-98155049D01*
X140952184Y-98155051D01*
X141141588Y-98251557D01*
X141343757Y-98317246D01*
X141553713Y-98350500D01*
X141553714Y-98350500D01*
X141766286Y-98350500D01*
X141766287Y-98350500D01*
X141976243Y-98317246D01*
X142178412Y-98251557D01*
X142367816Y-98155051D01*
X142439508Y-98102964D01*
X142539784Y-98030110D01*
X142539784Y-98030109D01*
X142539792Y-98030104D01*
X142653717Y-97916178D01*
X142715036Y-97882696D01*
X142784728Y-97887680D01*
X142840662Y-97929551D01*
X142857577Y-97960528D01*
X142906646Y-98092088D01*
X142906649Y-98092093D01*
X142992809Y-98207187D01*
X142992812Y-98207190D01*
X143107906Y-98293350D01*
X143107913Y-98293354D01*
X143242620Y-98343596D01*
X143242627Y-98343598D01*
X143302155Y-98349999D01*
X143302172Y-98350000D01*
X143950000Y-98350000D01*
X143950000Y-97433012D01*
X144007007Y-97465925D01*
X144134174Y-97500000D01*
X144265826Y-97500000D01*
X144392993Y-97465925D01*
X144450000Y-97433012D01*
X144450000Y-98350000D01*
X145097828Y-98350000D01*
X145097844Y-98349999D01*
X145157372Y-98343598D01*
X145157379Y-98343596D01*
X145292086Y-98293354D01*
X145292093Y-98293350D01*
X145407187Y-98207190D01*
X145407190Y-98207187D01*
X145493350Y-98092093D01*
X145493354Y-98092086D01*
X145543596Y-97957379D01*
X145543598Y-97957372D01*
X145549999Y-97897844D01*
X145550000Y-97897827D01*
X145550000Y-97250000D01*
X144633012Y-97250000D01*
X144665925Y-97192993D01*
X144700000Y-97065826D01*
X144700000Y-96934174D01*
X144665925Y-96807007D01*
X144633012Y-96750000D01*
X145550000Y-96750000D01*
X145550000Y-96102172D01*
X145549999Y-96102155D01*
X145543598Y-96042627D01*
X145543596Y-96042620D01*
X145493354Y-95907913D01*
X145493350Y-95907906D01*
X145407190Y-95792812D01*
X145407187Y-95792809D01*
X145292093Y-95706649D01*
X145292086Y-95706645D01*
X145157379Y-95656403D01*
X145157372Y-95656401D01*
X145097844Y-95650000D01*
X144450000Y-95650000D01*
X144450000Y-96566988D01*
X144392993Y-96534075D01*
X144265826Y-96500000D01*
X144134174Y-96500000D01*
X144007007Y-96534075D01*
X143950000Y-96566988D01*
X143950000Y-95650000D01*
X143302155Y-95650000D01*
X143242627Y-95656401D01*
X143242620Y-95656403D01*
X143107913Y-95706645D01*
X143107906Y-95706649D01*
X142992812Y-95792809D01*
X142992809Y-95792812D01*
X142906649Y-95907906D01*
X142906646Y-95907912D01*
X142857577Y-96039471D01*
X142815705Y-96095404D01*
X142750241Y-96119821D01*
X142681968Y-96104969D01*
X142653714Y-96083818D01*
X142539786Y-95969890D01*
X142367820Y-95844951D01*
X142178414Y-95748444D01*
X142178413Y-95748443D01*
X142178412Y-95748443D01*
X141976243Y-95682754D01*
X141976241Y-95682753D01*
X141976240Y-95682753D01*
X141814957Y-95657208D01*
X141766287Y-95649500D01*
X141553713Y-95649500D01*
X141505042Y-95657208D01*
X141343760Y-95682753D01*
X141141585Y-95748444D01*
X140952179Y-95844951D01*
X140780213Y-95969890D01*
X140629890Y-96120213D01*
X140504949Y-96292182D01*
X140500484Y-96300946D01*
X140452509Y-96351742D01*
X140384688Y-96368536D01*
X140318553Y-96345998D01*
X140279516Y-96300946D01*
X140275050Y-96292182D01*
X140150109Y-96120213D01*
X139999786Y-95969890D01*
X139827820Y-95844951D01*
X139638414Y-95748444D01*
X139638413Y-95748443D01*
X139638412Y-95748443D01*
X139436243Y-95682754D01*
X139436241Y-95682753D01*
X139436240Y-95682753D01*
X139274957Y-95657208D01*
X139226287Y-95649500D01*
X139013713Y-95649500D01*
X138965042Y-95657208D01*
X138803760Y-95682753D01*
X138601585Y-95748444D01*
X138412179Y-95844951D01*
X138240213Y-95969890D01*
X138089890Y-96120213D01*
X137964949Y-96292182D01*
X137960484Y-96300946D01*
X137912509Y-96351742D01*
X137844688Y-96368536D01*
X137778553Y-96345998D01*
X137739516Y-96300946D01*
X137735050Y-96292182D01*
X137610109Y-96120213D01*
X137459786Y-95969890D01*
X137287820Y-95844951D01*
X137098414Y-95748444D01*
X137098413Y-95748443D01*
X137098412Y-95748443D01*
X136896243Y-95682754D01*
X136896241Y-95682753D01*
X136896240Y-95682753D01*
X136734957Y-95657208D01*
X136686287Y-95649500D01*
X136473713Y-95649500D01*
X136425042Y-95657208D01*
X136263760Y-95682753D01*
X136061585Y-95748444D01*
X135872179Y-95844951D01*
X135700213Y-95969890D01*
X135549890Y-96120213D01*
X135424951Y-96292179D01*
X135328444Y-96481585D01*
X135328443Y-96481587D01*
X135328443Y-96481588D01*
X135315587Y-96521155D01*
X135262753Y-96683760D01*
X135229500Y-96893713D01*
X135229500Y-97106286D01*
X135261669Y-97309397D01*
X135262754Y-97316243D01*
X135303790Y-97442539D01*
X135328444Y-97518414D01*
X135424951Y-97707820D01*
X135504206Y-97816906D01*
X135527686Y-97882713D01*
X135511860Y-97950766D01*
X135461754Y-97999461D01*
X135393276Y-98013336D01*
X135356438Y-98004353D01*
X135347040Y-98000460D01*
X135347028Y-98000457D01*
X135216535Y-97974500D01*
X135216531Y-97974500D01*
X130283469Y-97974500D01*
X130283467Y-97974500D01*
X130152969Y-98000458D01*
X130152959Y-98000461D01*
X130030038Y-98051376D01*
X130030020Y-98051386D01*
X129952831Y-98102962D01*
X129952830Y-98102964D01*
X129919834Y-98125010D01*
X129919391Y-98125307D01*
X129887180Y-98157518D01*
X129825856Y-98191003D01*
X129756165Y-98186017D01*
X129700232Y-98144145D01*
X129675816Y-98078680D01*
X129675500Y-98069836D01*
X129675500Y-97344054D01*
X129695185Y-97277015D01*
X129747989Y-97231260D01*
X129817147Y-97221316D01*
X129868389Y-97240951D01*
X129970821Y-97309394D01*
X129970823Y-97309395D01*
X129970827Y-97309397D01*
X130054498Y-97344054D01*
X130116503Y-97369737D01*
X130269142Y-97400099D01*
X130271153Y-97400499D01*
X130271156Y-97400500D01*
X130271158Y-97400500D01*
X130428844Y-97400500D01*
X130428845Y-97400499D01*
X130583497Y-97369737D01*
X130729179Y-97309394D01*
X130860289Y-97221789D01*
X130971789Y-97110289D01*
X131059394Y-96979179D01*
X131119737Y-96833497D01*
X131150500Y-96678842D01*
X131150500Y-96521158D01*
X131150500Y-96521155D01*
X131150499Y-96521153D01*
X131119738Y-96366510D01*
X131119737Y-96366503D01*
X131092583Y-96300946D01*
X131059397Y-96220827D01*
X131059390Y-96220814D01*
X130971789Y-96089711D01*
X130971786Y-96089707D01*
X130860292Y-95978213D01*
X130860288Y-95978210D01*
X130729185Y-95890609D01*
X130729172Y-95890602D01*
X130583499Y-95830263D01*
X130583493Y-95830261D01*
X130560551Y-95825698D01*
X130498640Y-95793312D01*
X130497063Y-95791762D01*
X130136819Y-95431518D01*
X130103334Y-95370195D01*
X130100500Y-95343837D01*
X130100500Y-94856365D01*
X130120185Y-94789326D01*
X130136819Y-94768684D01*
X130969733Y-93935770D01*
X130969735Y-93935768D01*
X130999542Y-93891158D01*
X131043660Y-93825131D01*
X131094580Y-93702198D01*
X131116735Y-93590821D01*
X131120540Y-93571695D01*
X131120540Y-92666423D01*
X131094581Y-92535926D01*
X131094580Y-92535925D01*
X131094580Y-92535921D01*
X131043660Y-92412988D01*
X130990336Y-92333183D01*
X130969738Y-92302355D01*
X130969737Y-92302354D01*
X130969735Y-92302351D01*
X130875646Y-92208262D01*
X130646141Y-91978757D01*
X130397033Y-91729648D01*
X130397029Y-91729645D01*
X130286399Y-91655724D01*
X130286389Y-91655719D01*
X130163460Y-91604800D01*
X130163452Y-91604798D01*
X130032959Y-91578841D01*
X130032955Y-91578841D01*
X129127136Y-91578841D01*
X129060097Y-91559156D01*
X129058244Y-91557942D01*
X129038802Y-91544951D01*
X129038788Y-91544943D01*
X128893117Y-91484605D01*
X128893105Y-91484602D01*
X128738461Y-91453841D01*
X128738458Y-91453841D01*
X128580774Y-91453841D01*
X128580771Y-91453841D01*
X128426126Y-91484602D01*
X128426114Y-91484605D01*
X128280443Y-91544943D01*
X128280430Y-91544950D01*
X128149327Y-91632551D01*
X128149323Y-91632554D01*
X128037829Y-91744048D01*
X128037826Y-91744052D01*
X127950225Y-91875155D01*
X127950218Y-91875168D01*
X127889880Y-92020839D01*
X127889877Y-92020851D01*
X127859116Y-92175494D01*
X127859116Y-92333187D01*
X127889877Y-92487830D01*
X127889880Y-92487842D01*
X127950218Y-92633513D01*
X127950225Y-92633526D01*
X128037826Y-92764629D01*
X128037829Y-92764633D01*
X128149323Y-92876127D01*
X128149327Y-92876130D01*
X128280430Y-92963731D01*
X128280443Y-92963738D01*
X128374797Y-93002820D01*
X128426119Y-93024078D01*
X128569342Y-93052567D01*
X128631253Y-93084952D01*
X128665827Y-93145667D01*
X128662088Y-93215437D01*
X128632832Y-93261865D01*
X128175307Y-93719390D01*
X128175304Y-93719394D01*
X128101383Y-93830024D01*
X128101378Y-93830034D01*
X128050459Y-93952963D01*
X128050457Y-93952971D01*
X128024500Y-94083464D01*
X128024500Y-95794353D01*
X128050457Y-95924846D01*
X128050459Y-95924853D01*
X128101378Y-96047783D01*
X128101383Y-96047793D01*
X128175303Y-96158422D01*
X128175304Y-96158423D01*
X128175305Y-96158424D01*
X128288182Y-96271301D01*
X128321666Y-96332622D01*
X128324500Y-96358981D01*
X128324500Y-97375500D01*
X128304815Y-97442539D01*
X128252011Y-97488294D01*
X128200500Y-97499500D01*
X128171155Y-97499500D01*
X128016510Y-97530261D01*
X128016498Y-97530264D01*
X127870827Y-97590602D01*
X127870813Y-97590610D01*
X127851372Y-97603601D01*
X127789439Y-97622994D01*
X127789529Y-97623903D01*
X127785165Y-97624332D01*
X127784695Y-97624480D01*
X127783566Y-97624490D01*
X127783466Y-97624499D01*
X127652969Y-97650458D01*
X127652959Y-97650461D01*
X127530038Y-97701376D01*
X127530020Y-97701386D01*
X127419398Y-97775301D01*
X127419390Y-97775307D01*
X124682518Y-100512181D01*
X124621195Y-100545666D01*
X124594837Y-100548500D01*
X118252798Y-100548500D01*
X118185759Y-100528815D01*
X118140004Y-100476011D01*
X118128798Y-100424500D01*
X118128798Y-100202938D01*
X118128797Y-100202937D01*
X118122651Y-100172035D01*
X118102839Y-100072434D01*
X118051918Y-99949501D01*
X118051916Y-99949498D01*
X118051914Y-99949494D01*
X117977993Y-99838864D01*
X117977990Y-99838860D01*
X117486819Y-99347689D01*
X117453334Y-99286366D01*
X117450500Y-99260008D01*
X117450500Y-99121155D01*
X117450499Y-99121153D01*
X117446391Y-99100500D01*
X117419737Y-98966503D01*
X117387929Y-98889711D01*
X117359397Y-98820827D01*
X117359390Y-98820814D01*
X117271789Y-98689711D01*
X117271786Y-98689707D01*
X117160292Y-98578213D01*
X117160288Y-98578210D01*
X117029185Y-98490609D01*
X117029172Y-98490602D01*
X116883501Y-98430264D01*
X116883489Y-98430261D01*
X116728845Y-98399500D01*
X116728842Y-98399500D01*
X116571158Y-98399500D01*
X116571155Y-98399500D01*
X116416510Y-98430261D01*
X116416498Y-98430264D01*
X116270827Y-98490602D01*
X116270814Y-98490609D01*
X116139714Y-98578208D01*
X116135007Y-98582072D01*
X116133427Y-98580146D01*
X116081650Y-98608385D01*
X116016928Y-98603722D01*
X116016622Y-98604733D01*
X116012159Y-98603379D01*
X116011961Y-98603365D01*
X116011452Y-98603164D01*
X116010798Y-98602966D01*
X116010795Y-98602965D01*
X116010790Y-98602964D01*
X116010787Y-98602963D01*
X115856143Y-98572202D01*
X115856140Y-98572202D01*
X115698456Y-98572202D01*
X115698453Y-98572202D01*
X115543808Y-98602963D01*
X115543796Y-98602966D01*
X115398125Y-98663304D01*
X115398112Y-98663311D01*
X115267009Y-98750912D01*
X115267005Y-98750915D01*
X115155511Y-98862409D01*
X115155508Y-98862413D01*
X115067907Y-98993516D01*
X115067900Y-98993529D01*
X115007562Y-99139200D01*
X115007559Y-99139212D01*
X114976798Y-99293855D01*
X109700499Y-99293855D01*
X109700499Y-99002128D01*
X109694091Y-98942517D01*
X109691172Y-98934692D01*
X109643797Y-98807671D01*
X109643793Y-98807664D01*
X109572037Y-98711811D01*
X109547619Y-98646347D01*
X109562470Y-98578074D01*
X109572037Y-98563189D01*
X109643793Y-98467335D01*
X109643792Y-98467335D01*
X109643796Y-98467331D01*
X109694091Y-98332483D01*
X109700500Y-98272873D01*
X109700499Y-96477128D01*
X109694091Y-96417517D01*
X109675822Y-96368536D01*
X109643797Y-96282671D01*
X109643793Y-96282664D01*
X109557547Y-96167455D01*
X109557544Y-96167452D01*
X109442335Y-96081206D01*
X109442328Y-96081202D01*
X109310917Y-96032189D01*
X109254983Y-95990318D01*
X109230566Y-95924853D01*
X109245418Y-95856580D01*
X109266563Y-95828332D01*
X109380104Y-95714792D01*
X109505051Y-95542816D01*
X109601557Y-95353412D01*
X109667246Y-95151243D01*
X109700500Y-94941287D01*
X109700500Y-94728713D01*
X109667246Y-94518757D01*
X109601557Y-94316588D01*
X109505051Y-94127184D01*
X109505049Y-94127181D01*
X109505048Y-94127179D01*
X109382100Y-93957954D01*
X109382098Y-93957952D01*
X109380105Y-93955209D01*
X109316049Y-93891153D01*
X115169500Y-93891153D01*
X115169500Y-94048846D01*
X115200261Y-94203489D01*
X115200264Y-94203501D01*
X115260602Y-94349172D01*
X115260609Y-94349185D01*
X115348210Y-94480288D01*
X115348213Y-94480292D01*
X115459707Y-94591786D01*
X115459711Y-94591789D01*
X115590817Y-94679392D01*
X115590819Y-94679392D01*
X115590821Y-94679394D01*
X115709889Y-94728713D01*
X115710186Y-94728836D01*
X115750415Y-94755716D01*
X118988181Y-97993482D01*
X119021666Y-98054805D01*
X119024500Y-98081163D01*
X119024500Y-98932479D01*
X119004815Y-98999518D01*
X119003602Y-99001370D01*
X118990609Y-99020814D01*
X118990602Y-99020827D01*
X118930264Y-99166498D01*
X118930261Y-99166510D01*
X118899500Y-99321153D01*
X118899500Y-99478846D01*
X118930261Y-99633489D01*
X118930264Y-99633501D01*
X118990602Y-99779172D01*
X118990609Y-99779185D01*
X119078210Y-99910288D01*
X119078213Y-99910292D01*
X119189707Y-100021786D01*
X119189711Y-100021789D01*
X119320814Y-100109390D01*
X119320827Y-100109397D01*
X119394013Y-100139711D01*
X119466503Y-100169737D01*
X119621153Y-100200499D01*
X119621156Y-100200500D01*
X119621158Y-100200500D01*
X119778844Y-100200500D01*
X119778845Y-100200499D01*
X119933497Y-100169737D01*
X120079179Y-100109394D01*
X120210289Y-100021789D01*
X120321789Y-99910289D01*
X120409394Y-99779179D01*
X120469737Y-99633497D01*
X120500500Y-99478842D01*
X120500500Y-99321158D01*
X120500500Y-99321155D01*
X120500499Y-99321153D01*
X120469738Y-99166510D01*
X120469737Y-99166503D01*
X120450955Y-99121158D01*
X120409397Y-99020827D01*
X120409390Y-99020814D01*
X120396398Y-99001370D01*
X120375520Y-98934692D01*
X120375500Y-98932479D01*
X120375500Y-97683467D01*
X120367803Y-97644776D01*
X120366412Y-97637782D01*
X120349541Y-97552964D01*
X120299018Y-97430993D01*
X120298790Y-97430284D01*
X120224698Y-97319398D01*
X120224697Y-97319397D01*
X120224695Y-97319394D01*
X120130606Y-97225305D01*
X116790651Y-93885350D01*
X116757166Y-93824027D01*
X116756743Y-93821998D01*
X116739737Y-93736503D01*
X116694592Y-93627512D01*
X116679397Y-93590827D01*
X116679390Y-93590814D01*
X116591789Y-93459711D01*
X116591786Y-93459707D01*
X116480292Y-93348213D01*
X116480288Y-93348210D01*
X116349185Y-93260609D01*
X116349172Y-93260602D01*
X116203501Y-93200264D01*
X116203489Y-93200261D01*
X116048845Y-93169500D01*
X116048842Y-93169500D01*
X115891158Y-93169500D01*
X115891155Y-93169500D01*
X115736510Y-93200261D01*
X115736498Y-93200264D01*
X115590827Y-93260602D01*
X115590814Y-93260609D01*
X115459711Y-93348210D01*
X115459707Y-93348213D01*
X115348213Y-93459707D01*
X115348210Y-93459711D01*
X115260609Y-93590814D01*
X115260602Y-93590827D01*
X115200264Y-93736498D01*
X115200261Y-93736510D01*
X115169500Y-93891153D01*
X109316049Y-93891153D01*
X109229786Y-93804890D01*
X109057820Y-93679951D01*
X109057115Y-93679591D01*
X109049054Y-93675485D01*
X108998259Y-93627512D01*
X108981463Y-93559692D01*
X109003999Y-93493556D01*
X109049054Y-93454515D01*
X109057816Y-93450051D01*
X109079789Y-93434086D01*
X109229786Y-93325109D01*
X109229788Y-93325106D01*
X109229792Y-93325104D01*
X109380104Y-93174792D01*
X109380106Y-93174788D01*
X109380109Y-93174786D01*
X109505048Y-93002820D01*
X109505047Y-93002820D01*
X109505051Y-93002816D01*
X109601557Y-92813412D01*
X109667246Y-92611243D01*
X109700500Y-92401287D01*
X109700500Y-92188713D01*
X109667246Y-91978757D01*
X109601557Y-91776588D01*
X109505051Y-91587184D01*
X109505049Y-91587181D01*
X109505048Y-91587179D01*
X109380109Y-91415213D01*
X109229786Y-91264890D01*
X109057820Y-91139951D01*
X108868414Y-91043444D01*
X108868413Y-91043443D01*
X108868412Y-91043443D01*
X108666243Y-90977754D01*
X108666241Y-90977753D01*
X108666240Y-90977753D01*
X108504957Y-90952208D01*
X108456287Y-90944500D01*
X108243713Y-90944500D01*
X108195042Y-90952208D01*
X108033760Y-90977753D01*
X107831585Y-91043444D01*
X107642179Y-91139951D01*
X107470213Y-91264890D01*
X107319890Y-91415213D01*
X107194951Y-91587179D01*
X107098444Y-91776585D01*
X107032753Y-91978760D01*
X107001594Y-92175494D01*
X106999500Y-92188713D01*
X104700500Y-92188713D01*
X104700500Y-86113764D01*
X104701033Y-86111707D01*
X104700500Y-86047853D01*
X104700500Y-86047201D01*
X104700560Y-86043343D01*
X104705007Y-85900498D01*
X104708434Y-85790423D01*
X105400000Y-85790423D01*
X105400000Y-86209576D01*
X105436531Y-86627125D01*
X105509314Y-87039894D01*
X105509317Y-87039907D01*
X105617793Y-87444752D01*
X105761157Y-87838639D01*
X105761160Y-87838647D01*
X105938287Y-88218495D01*
X105938295Y-88218511D01*
X106147859Y-88581486D01*
X106147875Y-88581512D01*
X106388271Y-88924833D01*
X106631611Y-89214834D01*
X108513098Y-87333347D01*
X108580076Y-87420635D01*
X108779365Y-87619924D01*
X108866650Y-87686900D01*
X106985163Y-89568387D01*
X106985164Y-89568388D01*
X107275159Y-89811723D01*
X107618487Y-90052124D01*
X107618513Y-90052140D01*
X107981488Y-90261704D01*
X107981504Y-90261712D01*
X108361352Y-90438839D01*
X108361360Y-90438842D01*
X108755247Y-90582206D01*
X109160092Y-90690682D01*
X109160105Y-90690685D01*
X109572874Y-90763468D01*
X109990423Y-90799999D01*
X109990426Y-90800000D01*
X110409574Y-90800000D01*
X110409576Y-90799999D01*
X110827125Y-90763468D01*
X111239894Y-90690685D01*
X111239907Y-90690682D01*
X111644752Y-90582206D01*
X112038639Y-90438842D01*
X112038647Y-90438839D01*
X112418495Y-90261712D01*
X112418511Y-90261704D01*
X112781486Y-90052140D01*
X112781512Y-90052124D01*
X113124840Y-89811723D01*
X113414834Y-89568388D01*
X113414835Y-89568387D01*
X111533348Y-87686901D01*
X111620635Y-87619924D01*
X111819924Y-87420635D01*
X111886900Y-87333348D01*
X113768387Y-89214835D01*
X113768388Y-89214834D01*
X114011723Y-88924840D01*
X114252124Y-88581512D01*
X114252140Y-88581486D01*
X114461704Y-88218511D01*
X114461712Y-88218495D01*
X114575238Y-87975038D01*
X137941359Y-87975038D01*
X140504869Y-87975038D01*
X140504869Y-87068995D01*
X141999499Y-87068995D01*
X142026418Y-87204322D01*
X142026421Y-87204332D01*
X142079221Y-87331804D01*
X142079228Y-87331817D01*
X142155885Y-87446541D01*
X142155888Y-87446545D01*
X142253454Y-87544111D01*
X142253458Y-87544114D01*
X142368182Y-87620771D01*
X142368195Y-87620778D01*
X142495667Y-87673578D01*
X142495672Y-87673580D01*
X142495676Y-87673580D01*
X142495677Y-87673581D01*
X142631004Y-87700500D01*
X142631007Y-87700500D01*
X142768995Y-87700500D01*
X142860041Y-87682389D01*
X142904328Y-87673580D01*
X143031811Y-87620775D01*
X143146542Y-87544114D01*
X143244114Y-87446542D01*
X143320775Y-87331811D01*
X143373580Y-87204328D01*
X143400500Y-87068993D01*
X143400500Y-86931007D01*
X143400500Y-86931004D01*
X143373581Y-86795677D01*
X143373580Y-86795676D01*
X143373580Y-86795672D01*
X143373578Y-86795667D01*
X143320778Y-86668195D01*
X143320771Y-86668182D01*
X143244114Y-86553458D01*
X143244111Y-86553454D01*
X143146545Y-86455888D01*
X143146541Y-86455885D01*
X143031817Y-86379228D01*
X143031804Y-86379221D01*
X142904332Y-86326421D01*
X142904322Y-86326418D01*
X142768995Y-86299500D01*
X142768993Y-86299500D01*
X142631007Y-86299500D01*
X142631005Y-86299500D01*
X142495677Y-86326418D01*
X142495667Y-86326421D01*
X142368195Y-86379221D01*
X142368182Y-86379228D01*
X142253458Y-86455885D01*
X142253454Y-86455888D01*
X142155888Y-86553454D01*
X142155885Y-86553458D01*
X142079228Y-86668182D01*
X142079221Y-86668195D01*
X142026421Y-86795667D01*
X142026418Y-86795677D01*
X141999500Y-86931004D01*
X141999500Y-86931007D01*
X141999500Y-87068993D01*
X141999500Y-87068995D01*
X141999499Y-87068995D01*
X140504869Y-87068995D01*
X140504869Y-85943736D01*
X137941359Y-85943736D01*
X137941359Y-87975038D01*
X114575238Y-87975038D01*
X114638839Y-87838647D01*
X114638842Y-87838639D01*
X114782206Y-87444752D01*
X114882888Y-87068995D01*
X134999499Y-87068995D01*
X135026418Y-87204322D01*
X135026421Y-87204332D01*
X135079221Y-87331804D01*
X135079228Y-87331817D01*
X135155885Y-87446541D01*
X135155888Y-87446545D01*
X135253454Y-87544111D01*
X135253458Y-87544114D01*
X135368182Y-87620771D01*
X135368195Y-87620778D01*
X135495667Y-87673578D01*
X135495672Y-87673580D01*
X135495676Y-87673580D01*
X135495677Y-87673581D01*
X135631004Y-87700500D01*
X135631007Y-87700500D01*
X135768995Y-87700500D01*
X135860041Y-87682389D01*
X135904328Y-87673580D01*
X136031811Y-87620775D01*
X136146542Y-87544114D01*
X136244114Y-87446542D01*
X136320775Y-87331811D01*
X136373580Y-87204328D01*
X136400500Y-87068993D01*
X136400500Y-86931007D01*
X136400500Y-86931004D01*
X136373581Y-86795677D01*
X136373580Y-86795676D01*
X136373580Y-86795672D01*
X136373578Y-86795667D01*
X136320778Y-86668195D01*
X136320771Y-86668182D01*
X136244114Y-86553458D01*
X136244111Y-86553454D01*
X136146545Y-86455888D01*
X136146541Y-86455885D01*
X136031817Y-86379228D01*
X136031804Y-86379221D01*
X135904332Y-86326421D01*
X135904322Y-86326418D01*
X135768995Y-86299500D01*
X135768993Y-86299500D01*
X135631007Y-86299500D01*
X135631005Y-86299500D01*
X135495677Y-86326418D01*
X135495667Y-86326421D01*
X135368195Y-86379221D01*
X135368182Y-86379228D01*
X135253458Y-86455885D01*
X135253454Y-86455888D01*
X135155888Y-86553454D01*
X135155885Y-86553458D01*
X135079228Y-86668182D01*
X135079221Y-86668195D01*
X135026421Y-86795667D01*
X135026418Y-86795677D01*
X134999500Y-86931004D01*
X134999500Y-86931007D01*
X134999500Y-87068993D01*
X134999500Y-87068995D01*
X134999499Y-87068995D01*
X114882888Y-87068995D01*
X114890682Y-87039907D01*
X114890685Y-87039894D01*
X114914757Y-86903382D01*
X114914757Y-86903381D01*
X114963468Y-86627129D01*
X114963468Y-86627125D01*
X114999999Y-86209576D01*
X115000000Y-86209574D01*
X115000000Y-85790426D01*
X114999999Y-85790423D01*
X114963468Y-85372874D01*
X114890685Y-84960105D01*
X114890682Y-84960092D01*
X114782206Y-84555247D01*
X114638842Y-84161360D01*
X114638839Y-84161352D01*
X114461712Y-83781504D01*
X114461704Y-83781488D01*
X114420896Y-83710806D01*
X114387022Y-83652135D01*
X115624500Y-83652135D01*
X115624500Y-85447870D01*
X115624501Y-85447876D01*
X115630908Y-85507483D01*
X115681202Y-85642328D01*
X115681206Y-85642335D01*
X115767452Y-85757544D01*
X115767455Y-85757547D01*
X115882664Y-85843793D01*
X115882671Y-85843797D01*
X116017517Y-85894091D01*
X116017516Y-85894091D01*
X116024444Y-85894835D01*
X116077127Y-85900500D01*
X117872872Y-85900499D01*
X117932483Y-85894091D01*
X118067331Y-85843796D01*
X118182546Y-85757546D01*
X118268796Y-85642331D01*
X118317810Y-85510916D01*
X118359681Y-85454984D01*
X118425145Y-85430566D01*
X118493418Y-85445417D01*
X118521673Y-85466569D01*
X118635213Y-85580109D01*
X118807179Y-85705048D01*
X118807181Y-85705049D01*
X118807184Y-85705051D01*
X118996588Y-85801557D01*
X119198757Y-85867246D01*
X119408713Y-85900500D01*
X119408714Y-85900500D01*
X119621286Y-85900500D01*
X119621287Y-85900500D01*
X119831243Y-85867246D01*
X120033412Y-85801557D01*
X120222816Y-85705051D01*
X120244789Y-85689086D01*
X120394786Y-85580109D01*
X120394788Y-85580106D01*
X120394792Y-85580104D01*
X120545104Y-85429792D01*
X120545106Y-85429788D01*
X120545109Y-85429786D01*
X120634010Y-85307422D01*
X120670051Y-85257816D01*
X120674793Y-85248508D01*
X120722763Y-85197711D01*
X120790583Y-85180911D01*
X120856719Y-85203445D01*
X120895763Y-85248500D01*
X120900377Y-85257555D01*
X121025272Y-85429459D01*
X121025276Y-85429464D01*
X121175535Y-85579723D01*
X121175540Y-85579727D01*
X121347442Y-85704620D01*
X121536782Y-85801095D01*
X121738871Y-85866757D01*
X121805000Y-85877231D01*
X121805000Y-84983012D01*
X121862007Y-85015925D01*
X121989174Y-85050000D01*
X122120826Y-85050000D01*
X122247993Y-85015925D01*
X122305000Y-84983012D01*
X122305000Y-85877230D01*
X122371126Y-85866757D01*
X122371129Y-85866757D01*
X122573217Y-85801095D01*
X122762557Y-85704620D01*
X122934459Y-85579727D01*
X122934464Y-85579723D01*
X123084721Y-85429466D01*
X123194371Y-85278545D01*
X123249701Y-85235879D01*
X123319314Y-85229900D01*
X123381110Y-85262505D01*
X123395008Y-85278545D01*
X123504890Y-85429785D01*
X123504894Y-85429790D01*
X123655213Y-85580109D01*
X123827179Y-85705048D01*
X123827181Y-85705049D01*
X123827184Y-85705051D01*
X124016588Y-85801557D01*
X124218757Y-85867246D01*
X124428713Y-85900500D01*
X124428714Y-85900500D01*
X124641286Y-85900500D01*
X124641287Y-85900500D01*
X124851243Y-85867246D01*
X125053412Y-85801557D01*
X125242816Y-85705051D01*
X125414792Y-85580104D01*
X125528329Y-85466566D01*
X125589648Y-85433084D01*
X125659340Y-85438068D01*
X125715274Y-85479939D01*
X125732189Y-85510917D01*
X125781202Y-85642328D01*
X125781206Y-85642335D01*
X125867452Y-85757544D01*
X125867455Y-85757547D01*
X125982664Y-85843793D01*
X125982671Y-85843797D01*
X126117517Y-85894091D01*
X126117516Y-85894091D01*
X126124444Y-85894835D01*
X126177127Y-85900500D01*
X127972872Y-85900499D01*
X128032483Y-85894091D01*
X128167331Y-85843796D01*
X128168108Y-85843214D01*
X128235042Y-85793108D01*
X128258487Y-85775556D01*
X128282546Y-85757546D01*
X128368796Y-85642331D01*
X128419091Y-85507483D01*
X128425500Y-85447873D01*
X128425499Y-83652128D01*
X128419091Y-83592517D01*
X128417810Y-83589083D01*
X128368797Y-83457671D01*
X128368793Y-83457664D01*
X128282547Y-83342455D01*
X128282544Y-83342452D01*
X128167335Y-83256206D01*
X128167328Y-83256202D01*
X128032482Y-83205908D01*
X128032483Y-83205908D01*
X127972883Y-83199501D01*
X127972881Y-83199500D01*
X127972873Y-83199500D01*
X127972864Y-83199500D01*
X126177129Y-83199500D01*
X126177123Y-83199501D01*
X126117516Y-83205908D01*
X125982671Y-83256202D01*
X125982664Y-83256206D01*
X125867455Y-83342452D01*
X125867452Y-83342455D01*
X125781206Y-83457664D01*
X125781203Y-83457669D01*
X125732189Y-83589083D01*
X125690317Y-83645016D01*
X125624853Y-83669433D01*
X125556580Y-83654581D01*
X125528326Y-83633430D01*
X125414786Y-83519890D01*
X125242820Y-83394951D01*
X125053414Y-83298444D01*
X125053413Y-83298443D01*
X125053412Y-83298443D01*
X124851243Y-83232754D01*
X124851241Y-83232753D01*
X124851240Y-83232753D01*
X124689957Y-83207208D01*
X124641287Y-83199500D01*
X124428713Y-83199500D01*
X124380042Y-83207208D01*
X124218760Y-83232753D01*
X124016585Y-83298444D01*
X123827179Y-83394951D01*
X123655213Y-83519890D01*
X123504894Y-83670209D01*
X123395008Y-83821455D01*
X123339678Y-83864120D01*
X123270065Y-83870099D01*
X123208270Y-83837493D01*
X123194372Y-83821454D01*
X123084727Y-83670540D01*
X123084723Y-83670535D01*
X122934464Y-83520276D01*
X122934459Y-83520272D01*
X122762557Y-83395379D01*
X122573215Y-83298903D01*
X122371124Y-83233241D01*
X122305000Y-83222768D01*
X122305000Y-84116988D01*
X122247993Y-84084075D01*
X122120826Y-84050000D01*
X121989174Y-84050000D01*
X121862007Y-84084075D01*
X121805000Y-84116988D01*
X121805000Y-83222768D01*
X121804999Y-83222768D01*
X121738875Y-83233241D01*
X121536784Y-83298903D01*
X121347442Y-83395379D01*
X121175540Y-83520272D01*
X121175535Y-83520276D01*
X121025276Y-83670535D01*
X121025272Y-83670540D01*
X120900378Y-83842443D01*
X120895762Y-83851502D01*
X120847784Y-83902295D01*
X120779963Y-83919087D01*
X120713829Y-83896546D01*
X120674794Y-83851493D01*
X120670051Y-83842184D01*
X120670049Y-83842181D01*
X120670048Y-83842179D01*
X120545109Y-83670213D01*
X120394786Y-83519890D01*
X120222820Y-83394951D01*
X120033414Y-83298444D01*
X120033413Y-83298443D01*
X120033412Y-83298443D01*
X119831243Y-83232754D01*
X119831241Y-83232753D01*
X119831240Y-83232753D01*
X119669957Y-83207208D01*
X119621287Y-83199500D01*
X119408713Y-83199500D01*
X119360042Y-83207208D01*
X119198760Y-83232753D01*
X118996585Y-83298444D01*
X118807179Y-83394951D01*
X118635215Y-83519889D01*
X118521673Y-83633431D01*
X118460350Y-83666915D01*
X118390658Y-83661931D01*
X118334725Y-83620059D01*
X118317810Y-83589082D01*
X118268797Y-83457671D01*
X118268793Y-83457664D01*
X118182547Y-83342455D01*
X118182544Y-83342452D01*
X118067335Y-83256206D01*
X118067328Y-83256202D01*
X117932482Y-83205908D01*
X117932483Y-83205908D01*
X117872883Y-83199501D01*
X117872881Y-83199500D01*
X117872873Y-83199500D01*
X117872864Y-83199500D01*
X116077129Y-83199500D01*
X116077123Y-83199501D01*
X116017516Y-83205908D01*
X115882671Y-83256202D01*
X115882664Y-83256206D01*
X115767455Y-83342452D01*
X115767452Y-83342455D01*
X115681206Y-83457664D01*
X115681202Y-83457671D01*
X115630908Y-83592517D01*
X115624501Y-83652116D01*
X115624501Y-83652123D01*
X115624500Y-83652135D01*
X114387022Y-83652135D01*
X114252140Y-83418513D01*
X114252124Y-83418487D01*
X114011723Y-83075159D01*
X113768388Y-82785164D01*
X113768387Y-82785163D01*
X111886900Y-84666650D01*
X111819924Y-84579365D01*
X111620635Y-84380076D01*
X111533347Y-84313097D01*
X113414834Y-82431611D01*
X113124833Y-82188271D01*
X112781512Y-81947875D01*
X112781486Y-81947859D01*
X112418511Y-81738295D01*
X112418495Y-81738287D01*
X112038647Y-81561160D01*
X112038639Y-81561157D01*
X111644752Y-81417793D01*
X111239907Y-81309317D01*
X111239894Y-81309314D01*
X110827125Y-81236531D01*
X110409576Y-81200000D01*
X109990423Y-81200000D01*
X109572874Y-81236531D01*
X109160105Y-81309314D01*
X109160092Y-81309317D01*
X108755247Y-81417793D01*
X108361360Y-81561157D01*
X108361352Y-81561160D01*
X107981504Y-81738287D01*
X107981488Y-81738295D01*
X107618513Y-81947859D01*
X107618487Y-81947875D01*
X107275166Y-82188271D01*
X106985164Y-82431612D01*
X108866651Y-84313098D01*
X108779365Y-84380076D01*
X108580076Y-84579365D01*
X108513098Y-84666651D01*
X106631612Y-82785164D01*
X106388271Y-83075166D01*
X106147875Y-83418487D01*
X106147859Y-83418513D01*
X105938295Y-83781488D01*
X105938287Y-83781504D01*
X105761160Y-84161352D01*
X105761157Y-84161360D01*
X105617793Y-84555247D01*
X105509317Y-84960092D01*
X105509314Y-84960105D01*
X105436531Y-85372874D01*
X105400000Y-85790423D01*
X104708434Y-85790423D01*
X104713840Y-85616778D01*
X104714528Y-85607054D01*
X104761147Y-85185283D01*
X104762604Y-85175611D01*
X104777090Y-85099900D01*
X104842349Y-84758813D01*
X104844557Y-84749321D01*
X104956927Y-84340127D01*
X104959881Y-84330823D01*
X105104186Y-83931742D01*
X105107872Y-83922687D01*
X105283192Y-83536263D01*
X105287562Y-83527562D01*
X105492835Y-83156139D01*
X105497885Y-83147797D01*
X105731810Y-82793731D01*
X105737496Y-82785821D01*
X105998621Y-82451308D01*
X106004915Y-82443870D01*
X106291618Y-82130991D01*
X106298489Y-82124064D01*
X106608961Y-81834789D01*
X106616351Y-81828429D01*
X106948694Y-81564531D01*
X106956562Y-81558775D01*
X107308660Y-81321930D01*
X107316967Y-81316806D01*
X107686672Y-81108459D01*
X107695347Y-81104013D01*
X108080303Y-80925491D01*
X108089330Y-80921729D01*
X108487181Y-80774125D01*
X108496450Y-80771096D01*
X108904728Y-80655326D01*
X108914204Y-80653039D01*
X109330319Y-80569840D01*
X109339951Y-80568306D01*
X109761324Y-80518188D01*
X109771070Y-80517417D01*
X110197565Y-80500595D01*
X110202438Y-80500500D01*
X110265863Y-80500504D01*
X110265878Y-80500500D01*
X140484108Y-80500500D01*
X140547439Y-80500500D01*
X140552562Y-80500605D01*
G37*
%TD.AperFunction*%
%TD*%
%TA.AperFunction,Conductor*%
%TO.N,GND*%
G36*
X130800000Y-112950000D02*
G01*
X133400000Y-113350000D01*
X134150000Y-113250000D01*
X134500000Y-119700000D01*
X132950000Y-120100000D01*
X130800000Y-120400000D01*
X128500000Y-120150000D01*
X127350000Y-118350000D01*
X127331215Y-117617382D01*
X127843173Y-117617382D01*
X127843180Y-117624639D01*
X127843180Y-117624653D01*
X127843201Y-117649574D01*
X127843711Y-117663867D01*
X127845991Y-117696182D01*
X127847496Y-117710428D01*
X127852055Y-117742748D01*
X127854545Y-117756836D01*
X127861415Y-117789098D01*
X127862917Y-117795114D01*
X127864880Y-117802976D01*
X127867189Y-117811020D01*
X127874071Y-117835001D01*
X127878485Y-117848586D01*
X127889868Y-117879877D01*
X127895224Y-117893142D01*
X127908624Y-117923263D01*
X127914899Y-117936141D01*
X127930217Y-117964978D01*
X127937352Y-117977351D01*
X127954518Y-118004857D01*
X127960416Y-118013613D01*
X127962501Y-118016709D01*
X127970793Y-118028141D01*
X127981418Y-118042791D01*
X127990177Y-118054023D01*
X127990185Y-118054033D01*
X127998836Y-118064368D01*
X128010772Y-118078627D01*
X128020308Y-118089247D01*
X128020342Y-118089282D01*
X128042477Y-118112275D01*
X128052706Y-118122188D01*
X128076392Y-118143603D01*
X128087280Y-118152782D01*
X128087291Y-118152791D01*
X128112392Y-118172506D01*
X128123887Y-118180906D01*
X128130115Y-118185134D01*
X128150352Y-118198873D01*
X128150354Y-118198874D01*
X128162427Y-118206473D01*
X128190126Y-118222592D01*
X128202727Y-118229350D01*
X128231595Y-118243565D01*
X128231675Y-118243601D01*
X128244653Y-118249439D01*
X128274644Y-118261695D01*
X128288070Y-118266643D01*
X128319074Y-118276859D01*
X128332826Y-118280865D01*
X128364760Y-118288971D01*
X128378771Y-118292012D01*
X128411554Y-118297937D01*
X128418546Y-118299076D01*
X128701173Y-118340153D01*
X128764682Y-118369274D01*
X128802366Y-118428110D01*
X128805553Y-118483816D01*
X128794141Y-118550380D01*
X128793062Y-118557403D01*
X128788749Y-118589134D01*
X128787317Y-118603377D01*
X128785246Y-118634985D01*
X128784809Y-118649291D01*
X128784943Y-118680682D01*
X128785502Y-118694968D01*
X128787802Y-118726012D01*
X128789352Y-118740217D01*
X128793783Y-118770883D01*
X128796310Y-118784914D01*
X128802825Y-118815048D01*
X128806315Y-118828852D01*
X128814877Y-118858369D01*
X128819320Y-118871913D01*
X128819330Y-118871939D01*
X128829892Y-118900727D01*
X128835257Y-118913916D01*
X128835262Y-118913927D01*
X128847803Y-118941939D01*
X128854071Y-118954733D01*
X128865335Y-118975835D01*
X128868543Y-118981845D01*
X128875684Y-118994174D01*
X128892051Y-119020301D01*
X128900042Y-119032123D01*
X128918264Y-119057163D01*
X128927065Y-119068413D01*
X128934908Y-119077751D01*
X128947101Y-119092269D01*
X128956677Y-119102897D01*
X128978480Y-119125462D01*
X128978487Y-119125469D01*
X128986286Y-119132998D01*
X128988784Y-119135409D01*
X129012333Y-119156608D01*
X129023299Y-119165809D01*
X129048519Y-119185516D01*
X129048531Y-119185525D01*
X129048544Y-119185535D01*
X129057548Y-119192184D01*
X129072202Y-119202400D01*
X129072222Y-119202413D01*
X129072243Y-119202428D01*
X129078804Y-119206816D01*
X129093740Y-119216392D01*
X129093758Y-119216403D01*
X129093772Y-119216412D01*
X129100584Y-119220594D01*
X129115837Y-119229556D01*
X129122837Y-119233487D01*
X129138368Y-119241814D01*
X129145525Y-119245473D01*
X129161320Y-119253162D01*
X129168654Y-119256556D01*
X129184698Y-119263600D01*
X129192147Y-119266697D01*
X129208425Y-119273094D01*
X129216033Y-119275912D01*
X129232532Y-119281655D01*
X129240244Y-119284170D01*
X129256949Y-119289255D01*
X129264761Y-119291465D01*
X129281657Y-119295887D01*
X129289548Y-119297787D01*
X129306622Y-119301542D01*
X129314579Y-119303127D01*
X129331815Y-119306210D01*
X129338269Y-119307234D01*
X129339805Y-119307478D01*
X129339813Y-119307479D01*
X129339825Y-119307481D01*
X129357209Y-119309887D01*
X129365255Y-119310839D01*
X129382773Y-119312563D01*
X129390815Y-119313195D01*
X129408452Y-119314234D01*
X129416519Y-119314551D01*
X129425571Y-119314728D01*
X129434237Y-119314898D01*
X129434544Y-119314898D01*
X129441453Y-119314912D01*
X129454985Y-119314703D01*
X129457622Y-119314621D01*
X129461328Y-119314508D01*
X129474799Y-119313884D01*
X129474817Y-119313882D01*
X129474836Y-119313882D01*
X129481102Y-119313496D01*
X129494602Y-119312457D01*
X129494636Y-119312453D01*
X129494647Y-119312453D01*
X129495636Y-119312361D01*
X129500831Y-119311882D01*
X129514299Y-119310432D01*
X129520480Y-119309672D01*
X129533902Y-119307814D01*
X129540028Y-119306871D01*
X129553394Y-119304608D01*
X129559481Y-119303483D01*
X129572780Y-119300817D01*
X129578805Y-119299515D01*
X129592024Y-119296450D01*
X129598019Y-119294965D01*
X129611148Y-119291502D01*
X129617058Y-119289848D01*
X129624075Y-119287771D01*
X129630064Y-119285999D01*
X129631393Y-119285583D01*
X129635982Y-119284150D01*
X129648895Y-119279902D01*
X129654711Y-119277892D01*
X129667500Y-119273256D01*
X129673282Y-119271061D01*
X129674639Y-119270522D01*
X129685918Y-119266046D01*
X129691616Y-119263684D01*
X129691643Y-119263673D01*
X129704147Y-119258269D01*
X129709822Y-119255714D01*
X129722167Y-119249929D01*
X129727784Y-119247192D01*
X129739958Y-119241029D01*
X129742767Y-119239579D01*
X129799474Y-119209766D01*
X129867971Y-119195994D01*
X129933042Y-119221440D01*
X129968371Y-119264646D01*
X130091827Y-119514810D01*
X130093452Y-119518031D01*
X130101109Y-119532884D01*
X130104504Y-119539196D01*
X130112625Y-119553685D01*
X130116223Y-119559852D01*
X130124795Y-119573972D01*
X130128623Y-119580037D01*
X130128642Y-119580067D01*
X130128649Y-119580077D01*
X130137622Y-119593758D01*
X130141676Y-119599708D01*
X130151100Y-119613040D01*
X130155330Y-119618811D01*
X130163013Y-119628915D01*
X130165191Y-119631779D01*
X130169624Y-119637403D01*
X130179891Y-119649972D01*
X130184511Y-119655431D01*
X130195173Y-119667594D01*
X130199966Y-119672875D01*
X130211011Y-119684626D01*
X130215996Y-119689748D01*
X130215998Y-119689750D01*
X130227409Y-119701075D01*
X130232569Y-119706021D01*
X130244314Y-119716895D01*
X130247080Y-119719367D01*
X130249651Y-119721666D01*
X130261778Y-119732136D01*
X130267246Y-119736694D01*
X130267276Y-119736719D01*
X130279719Y-119746731D01*
X130285334Y-119751090D01*
X130285346Y-119751099D01*
X130298137Y-119760679D01*
X130300873Y-119762655D01*
X130303927Y-119764861D01*
X130317002Y-119773964D01*
X130322919Y-119777933D01*
X130336323Y-119786593D01*
X130338750Y-119788101D01*
X130342385Y-119790362D01*
X130348387Y-119793950D01*
X130356063Y-119798541D01*
X130356086Y-119798554D01*
X130362254Y-119802098D01*
X130376236Y-119809814D01*
X130382524Y-119813144D01*
X130396774Y-119820376D01*
X130403199Y-119823497D01*
X130403224Y-119823508D01*
X130403231Y-119823512D01*
X130414418Y-119828709D01*
X130417708Y-119830237D01*
X130424215Y-119833124D01*
X130434042Y-119837281D01*
X130438954Y-119839360D01*
X130438969Y-119839366D01*
X130445581Y-119842029D01*
X130445594Y-119842034D01*
X130445609Y-119842040D01*
X130458356Y-119846918D01*
X130460570Y-119847766D01*
X130467271Y-119850199D01*
X130482483Y-119855424D01*
X130489293Y-119857631D01*
X130504717Y-119862335D01*
X130511580Y-119864298D01*
X130527205Y-119868476D01*
X130527250Y-119868487D01*
X130527253Y-119868488D01*
X130534137Y-119870202D01*
X130537595Y-119870998D01*
X130549955Y-119873847D01*
X130556956Y-119875332D01*
X130568432Y-119877558D01*
X130572920Y-119878430D01*
X130572933Y-119878432D01*
X130572947Y-119878435D01*
X130579995Y-119879676D01*
X130596152Y-119882231D01*
X130603241Y-119883226D01*
X130619553Y-119885226D01*
X130626683Y-119885974D01*
X130643137Y-119887411D01*
X130650289Y-119887910D01*
X130650299Y-119887910D01*
X130650306Y-119887911D01*
X130652223Y-119888011D01*
X130666876Y-119888777D01*
X130674024Y-119889026D01*
X130690730Y-119889317D01*
X130701450Y-119889224D01*
X130720876Y-119888548D01*
X130734758Y-119888066D01*
X130747354Y-119887186D01*
X130749045Y-119887069D01*
X130781819Y-119883632D01*
X130795999Y-119881644D01*
X130828154Y-119875986D01*
X130842149Y-119873017D01*
X130853465Y-119870202D01*
X130873579Y-119865199D01*
X130876785Y-119864282D01*
X130887331Y-119861266D01*
X130917973Y-119851337D01*
X130931391Y-119846468D01*
X130961138Y-119834489D01*
X130974168Y-119828709D01*
X131002930Y-119814737D01*
X131015516Y-119808074D01*
X131043202Y-119792166D01*
X131055303Y-119784644D01*
X131081820Y-119766856D01*
X131093362Y-119758519D01*
X131118619Y-119738910D01*
X131129567Y-119729785D01*
X131153473Y-119708411D01*
X131163771Y-119698540D01*
X131186235Y-119675458D01*
X131195836Y-119664880D01*
X131216765Y-119640148D01*
X131225619Y-119628915D01*
X131244923Y-119602588D01*
X131252980Y-119590756D01*
X131270566Y-119562893D01*
X131277777Y-119550535D01*
X131293555Y-119521193D01*
X131296845Y-119514810D01*
X131420299Y-119264645D01*
X131467617Y-119213242D01*
X131535217Y-119195579D01*
X131589194Y-119209765D01*
X131645904Y-119239579D01*
X131648741Y-119241043D01*
X131651316Y-119242346D01*
X131661174Y-119247335D01*
X131661187Y-119247341D01*
X131661216Y-119247356D01*
X131666790Y-119250072D01*
X131679382Y-119255974D01*
X131685048Y-119258526D01*
X131697749Y-119264017D01*
X131703495Y-119266398D01*
X131716298Y-119271479D01*
X131722117Y-119273687D01*
X131735013Y-119278358D01*
X131740888Y-119280386D01*
X131753868Y-119284648D01*
X131756599Y-119285499D01*
X131759827Y-119286506D01*
X131772837Y-119290346D01*
X131778814Y-119292012D01*
X131778829Y-119292016D01*
X131778840Y-119292019D01*
X131791963Y-119295465D01*
X131798002Y-119296954D01*
X131811183Y-119299992D01*
X131817248Y-119301294D01*
X131818496Y-119301542D01*
X131830497Y-119303928D01*
X131836583Y-119305043D01*
X131849857Y-119307269D01*
X131856014Y-119308206D01*
X131864977Y-119309431D01*
X131869342Y-119310028D01*
X131875453Y-119310769D01*
X131875470Y-119310770D01*
X131875480Y-119310772D01*
X131888813Y-119312186D01*
X131894982Y-119312746D01*
X131908332Y-119313756D01*
X131912241Y-119313992D01*
X131914517Y-119314131D01*
X131914530Y-119314131D01*
X131914537Y-119314132D01*
X131927895Y-119314737D01*
X131934101Y-119314924D01*
X131947459Y-119315125D01*
X131954567Y-119315109D01*
X131971910Y-119314770D01*
X131979958Y-119314455D01*
X131985728Y-119314115D01*
X131997275Y-119313437D01*
X132004603Y-119312860D01*
X132005289Y-119312807D01*
X132022549Y-119311112D01*
X132028993Y-119310351D01*
X132030529Y-119310170D01*
X132030534Y-119310169D01*
X132030545Y-119310168D01*
X132047734Y-119307797D01*
X132047758Y-119307793D01*
X132047774Y-119307791D01*
X132055647Y-119306548D01*
X132055644Y-119306548D01*
X132055679Y-119306543D01*
X132072780Y-119303498D01*
X132073604Y-119303334D01*
X132080673Y-119301932D01*
X132086584Y-119300638D01*
X132097673Y-119298212D01*
X132105511Y-119296336D01*
X132122377Y-119291946D01*
X132130134Y-119289763D01*
X132146855Y-119284703D01*
X132147007Y-119284654D01*
X132154492Y-119282228D01*
X132154494Y-119282226D01*
X132154535Y-119282214D01*
X132171091Y-119276485D01*
X132178674Y-119273692D01*
X132195047Y-119267295D01*
X132202526Y-119264203D01*
X132218697Y-119257139D01*
X132226048Y-119253754D01*
X132241998Y-119246025D01*
X132249205Y-119242355D01*
X132264916Y-119233963D01*
X132272003Y-119229996D01*
X132287455Y-119220940D01*
X132294360Y-119216708D01*
X132309534Y-119206992D01*
X132316269Y-119202490D01*
X132331148Y-119192114D01*
X132337254Y-119187687D01*
X132344839Y-119181971D01*
X132350081Y-119178024D01*
X132351798Y-119176682D01*
X132355720Y-119173619D01*
X132368130Y-119163574D01*
X132373627Y-119158964D01*
X132385612Y-119148550D01*
X132385625Y-119148539D01*
X132390927Y-119143766D01*
X132402438Y-119133039D01*
X132402437Y-119133039D01*
X132402482Y-119132998D01*
X132407646Y-119128015D01*
X132418768Y-119116900D01*
X132423741Y-119111754D01*
X132434424Y-119100307D01*
X132439212Y-119094994D01*
X132449452Y-119083226D01*
X132454052Y-119077751D01*
X132463843Y-119065675D01*
X132470373Y-119057176D01*
X132488589Y-119032146D01*
X132496583Y-119020320D01*
X132512946Y-118994200D01*
X132520088Y-118981867D01*
X132534560Y-118954753D01*
X132540831Y-118941955D01*
X132553371Y-118913943D01*
X132558736Y-118900752D01*
X132569306Y-118871939D01*
X132573748Y-118858396D01*
X132582308Y-118828876D01*
X132585799Y-118815064D01*
X132592312Y-118784935D01*
X132594840Y-118770892D01*
X132599266Y-118740249D01*
X132600521Y-118729614D01*
X132601939Y-118714131D01*
X132602467Y-118706993D01*
X132603348Y-118691416D01*
X132603628Y-118684273D01*
X132603968Y-118668616D01*
X132603999Y-118661476D01*
X132603794Y-118645751D01*
X132603575Y-118638584D01*
X132602818Y-118622803D01*
X132602350Y-118615658D01*
X132601037Y-118599832D01*
X132600323Y-118592720D01*
X132598450Y-118576861D01*
X132597484Y-118569751D01*
X132595044Y-118553873D01*
X132594473Y-118550359D01*
X132583068Y-118483839D01*
X132591141Y-118414439D01*
X132635454Y-118360418D01*
X132687455Y-118340175D01*
X132970006Y-118299130D01*
X132970004Y-118299130D01*
X132970020Y-118299128D01*
X132975247Y-118298275D01*
X132977067Y-118297979D01*
X133009849Y-118292045D01*
X133023839Y-118289006D01*
X133055774Y-118280894D01*
X133069515Y-118276889D01*
X133100519Y-118266669D01*
X133113944Y-118261719D01*
X133143935Y-118249459D01*
X133156955Y-118243601D01*
X133185850Y-118229373D01*
X133198431Y-118222625D01*
X133226147Y-118206496D01*
X133238208Y-118198905D01*
X133264664Y-118180945D01*
X133276161Y-118172544D01*
X133301273Y-118152824D01*
X133312162Y-118143646D01*
X133335848Y-118122234D01*
X133346081Y-118112317D01*
X133368258Y-118089282D01*
X133377781Y-118078679D01*
X133398367Y-118054092D01*
X133407149Y-118042830D01*
X133426060Y-118016759D01*
X133434045Y-118004905D01*
X133451199Y-117977421D01*
X133458347Y-117965027D01*
X133473663Y-117936198D01*
X133479941Y-117923315D01*
X133493334Y-117893211D01*
X133498699Y-117879924D01*
X133510087Y-117848615D01*
X133514499Y-117835031D01*
X133514589Y-117834719D01*
X133517421Y-117824843D01*
X133523685Y-117803006D01*
X133527152Y-117789112D01*
X133534009Y-117756884D01*
X133536498Y-117742791D01*
X133541053Y-117710464D01*
X133542554Y-117696240D01*
X133544832Y-117663921D01*
X133545341Y-117649651D01*
X133545369Y-117617442D01*
X133544886Y-117603177D01*
X133542688Y-117571185D01*
X133541218Y-117557005D01*
X133536820Y-117525334D01*
X133536719Y-117524756D01*
X133534374Y-117511309D01*
X133527807Y-117480079D01*
X133524391Y-117466238D01*
X133524390Y-117466232D01*
X133515670Y-117435516D01*
X133511308Y-117421958D01*
X133508946Y-117415405D01*
X133500470Y-117391885D01*
X133495177Y-117378659D01*
X133495171Y-117378644D01*
X133482233Y-117349303D01*
X133476022Y-117336447D01*
X133461012Y-117307950D01*
X133460967Y-117307872D01*
X133453923Y-117295557D01*
X133453920Y-117295551D01*
X133436866Y-117268003D01*
X133433405Y-117262824D01*
X133428917Y-117256108D01*
X133409841Y-117229612D01*
X133409787Y-117229542D01*
X133401072Y-117218286D01*
X133401060Y-117218271D01*
X133380013Y-117192960D01*
X133377202Y-117189810D01*
X133370469Y-117182264D01*
X133347434Y-117158192D01*
X133345003Y-117155891D01*
X133344191Y-117155025D01*
X133344264Y-117154953D01*
X133344231Y-117154920D01*
X133343178Y-117153945D01*
X133342350Y-117153062D01*
X133141813Y-116957584D01*
X133107548Y-116896695D01*
X133111642Y-116826945D01*
X133141813Y-116779999D01*
X133182539Y-116740302D01*
X133187561Y-116735234D01*
X133209702Y-116712100D01*
X133219246Y-116701405D01*
X133239495Y-116677055D01*
X133248257Y-116665738D01*
X133266591Y-116640275D01*
X133274548Y-116628371D01*
X133290940Y-116601894D01*
X133298035Y-116589490D01*
X133312462Y-116562100D01*
X133318673Y-116549245D01*
X133331109Y-116521043D01*
X133336406Y-116507803D01*
X133346826Y-116478890D01*
X133351187Y-116465334D01*
X133359568Y-116435810D01*
X133362981Y-116421978D01*
X133369296Y-116391945D01*
X133371742Y-116377915D01*
X133375968Y-116347472D01*
X133377437Y-116333290D01*
X133379548Y-116302539D01*
X133380031Y-116288279D01*
X133380003Y-116257321D01*
X133379493Y-116243036D01*
X133377300Y-116211972D01*
X133375797Y-116197751D01*
X133375795Y-116197740D01*
X133375794Y-116197726D01*
X133371418Y-116166693D01*
X133368922Y-116152566D01*
X133362334Y-116121627D01*
X133362329Y-116121603D01*
X133358860Y-116107705D01*
X133350026Y-116076925D01*
X133345610Y-116063340D01*
X133334659Y-116033248D01*
X133332175Y-116027099D01*
X133329296Y-116019970D01*
X133316465Y-115991142D01*
X133316414Y-115991027D01*
X133310142Y-115978161D01*
X133295418Y-115950452D01*
X133288269Y-115938060D01*
X133271836Y-115911736D01*
X133271779Y-115911644D01*
X133270181Y-115909272D01*
X133263793Y-115899791D01*
X133245614Y-115874733D01*
X133236836Y-115863477D01*
X133217048Y-115839845D01*
X133207525Y-115829242D01*
X133186208Y-115807102D01*
X133186205Y-115807099D01*
X133175983Y-115797192D01*
X133153292Y-115776680D01*
X133153217Y-115776612D01*
X133148929Y-115772997D01*
X133142346Y-115767448D01*
X133142340Y-115767443D01*
X133142329Y-115767434D01*
X133118191Y-115748478D01*
X133106690Y-115740074D01*
X133106675Y-115740063D01*
X133081261Y-115722811D01*
X133069209Y-115715226D01*
X133042549Y-115699712D01*
X133029992Y-115692977D01*
X133002231Y-115679306D01*
X133000492Y-115678523D01*
X132989186Y-115673436D01*
X132960361Y-115661653D01*
X132951225Y-115658284D01*
X132946946Y-115656706D01*
X132939431Y-115654229D01*
X132917146Y-115646882D01*
X132907998Y-115644216D01*
X132903385Y-115642872D01*
X132872710Y-115635081D01*
X132872701Y-115635079D01*
X132858712Y-115632040D01*
X132827204Y-115626337D01*
X132822691Y-115625600D01*
X132820098Y-115625177D01*
X132758444Y-115616219D01*
X132694931Y-115587100D01*
X132657245Y-115528265D01*
X132654059Y-115472545D01*
X132703213Y-115186017D01*
X132704303Y-115178927D01*
X132708787Y-115145911D01*
X132710218Y-115131670D01*
X132712369Y-115098789D01*
X132712805Y-115084474D01*
X132712662Y-115051828D01*
X132712101Y-115037531D01*
X132709705Y-115005220D01*
X132708154Y-114991016D01*
X132703570Y-114959305D01*
X132703547Y-114959143D01*
X132701018Y-114945114D01*
X132701015Y-114945097D01*
X132694236Y-114913755D01*
X132690743Y-114899939D01*
X132681834Y-114869231D01*
X132677574Y-114856253D01*
X132677392Y-114855696D01*
X132666393Y-114825725D01*
X132666390Y-114825717D01*
X132661028Y-114812536D01*
X132647981Y-114783398D01*
X132641710Y-114770601D01*
X132626654Y-114742398D01*
X132619508Y-114730061D01*
X132602484Y-114702892D01*
X132594491Y-114691070D01*
X132575634Y-114665164D01*
X132575550Y-114665048D01*
X132575541Y-114665036D01*
X132566738Y-114653786D01*
X132545903Y-114628986D01*
X132536318Y-114618352D01*
X132513637Y-114594887D01*
X132505967Y-114587486D01*
X132503342Y-114584953D01*
X132488363Y-114571476D01*
X132478844Y-114562911D01*
X132467866Y-114553705D01*
X132467856Y-114553697D01*
X132441624Y-114533213D01*
X132430105Y-114524845D01*
X132402503Y-114506215D01*
X132390351Y-114498617D01*
X132361810Y-114482123D01*
X132349179Y-114475400D01*
X132319846Y-114461074D01*
X132306779Y-114455246D01*
X132276725Y-114443080D01*
X132263324Y-114438191D01*
X132232680Y-114428203D01*
X132218967Y-114424255D01*
X132187869Y-114416460D01*
X132173928Y-114413476D01*
X132173926Y-114413475D01*
X132173923Y-114413475D01*
X132170811Y-114412921D01*
X132142445Y-114407870D01*
X132128345Y-114405862D01*
X132096594Y-114402457D01*
X132082387Y-114401429D01*
X132050455Y-114400231D01*
X132036239Y-114400191D01*
X132004257Y-114401211D01*
X131990054Y-114402158D01*
X131966557Y-114404546D01*
X131958135Y-114405402D01*
X131958130Y-114405402D01*
X131958117Y-114405404D01*
X131943992Y-114407336D01*
X131912261Y-114412806D01*
X131898270Y-114415723D01*
X131866777Y-114423439D01*
X131853025Y-114427322D01*
X131821942Y-114437276D01*
X131821936Y-114437277D01*
X131821927Y-114437281D01*
X131808453Y-114442119D01*
X131808434Y-114442126D01*
X131777844Y-114454330D01*
X131764744Y-114460093D01*
X131734732Y-114474563D01*
X131728347Y-114477779D01*
X131474084Y-114611462D01*
X131405586Y-114625236D01*
X131340514Y-114599791D01*
X131305185Y-114556588D01*
X131280488Y-114506547D01*
X131280460Y-114506490D01*
X131278884Y-114503365D01*
X131271510Y-114489059D01*
X131268143Y-114482799D01*
X131268142Y-114482797D01*
X131268122Y-114482760D01*
X131260316Y-114468830D01*
X131256708Y-114462646D01*
X131248468Y-114449073D01*
X131246189Y-114445462D01*
X131244659Y-114443037D01*
X131243833Y-114441778D01*
X131235990Y-114429817D01*
X131231961Y-114423900D01*
X131229921Y-114421014D01*
X131222878Y-114411048D01*
X131218659Y-114405294D01*
X131209162Y-114392804D01*
X131204760Y-114387220D01*
X131202519Y-114384477D01*
X131194874Y-114375117D01*
X131190260Y-114369663D01*
X131180012Y-114357971D01*
X131175207Y-114352679D01*
X131164591Y-114341385D01*
X131159614Y-114336270D01*
X131151229Y-114327948D01*
X131148672Y-114325410D01*
X131143452Y-114320406D01*
X131132187Y-114309977D01*
X131126865Y-114305219D01*
X131126854Y-114305209D01*
X131115198Y-114295146D01*
X131109722Y-114290582D01*
X131097741Y-114280943D01*
X131092092Y-114276558D01*
X131079822Y-114267370D01*
X131074024Y-114263182D01*
X131065662Y-114257362D01*
X131061440Y-114254423D01*
X131055530Y-114250459D01*
X131042641Y-114242134D01*
X131042614Y-114242117D01*
X131036607Y-114238383D01*
X131023409Y-114230493D01*
X131017265Y-114226963D01*
X131003813Y-114219541D01*
X130997485Y-114216191D01*
X130983817Y-114209257D01*
X130977407Y-114206144D01*
X130974593Y-114204837D01*
X130963452Y-114199663D01*
X130956934Y-114196772D01*
X130953761Y-114195430D01*
X130942759Y-114190777D01*
X130936132Y-114188110D01*
X130921774Y-114182616D01*
X130921733Y-114182601D01*
X130915020Y-114180165D01*
X130900396Y-114175145D01*
X130893599Y-114172943D01*
X130878772Y-114168423D01*
X130878761Y-114168420D01*
X130878732Y-114168411D01*
X130871925Y-114166464D01*
X130856882Y-114162444D01*
X130849964Y-114160722D01*
X130834723Y-114157213D01*
X130827751Y-114155735D01*
X130812402Y-114152759D01*
X130812401Y-114152758D01*
X130812371Y-114152753D01*
X130808659Y-114152100D01*
X130805295Y-114151508D01*
X130789781Y-114149057D01*
X130782740Y-114148068D01*
X130767005Y-114146141D01*
X130759909Y-114145397D01*
X130744106Y-114144017D01*
X130736891Y-114143515D01*
X130720971Y-114142684D01*
X130713837Y-114142435D01*
X130697776Y-114142156D01*
X130687067Y-114142249D01*
X130655053Y-114143362D01*
X130640787Y-114144358D01*
X130609268Y-114147663D01*
X130595078Y-114149653D01*
X130564166Y-114155094D01*
X130550204Y-114158055D01*
X130519967Y-114165578D01*
X130506212Y-114169512D01*
X130476793Y-114179047D01*
X130463349Y-114183926D01*
X130434782Y-114195430D01*
X130421738Y-114201217D01*
X130394099Y-114214645D01*
X130381514Y-114221307D01*
X130354902Y-114236598D01*
X130343785Y-114243510D01*
X130342810Y-114244117D01*
X130336382Y-114248428D01*
X130317312Y-114261220D01*
X130305794Y-114269539D01*
X130281483Y-114288413D01*
X130270575Y-114297506D01*
X130247562Y-114318083D01*
X130237289Y-114327931D01*
X130215678Y-114350140D01*
X130206088Y-114360707D01*
X130185967Y-114384486D01*
X130177118Y-114395714D01*
X130158570Y-114421014D01*
X130150506Y-114432860D01*
X130133617Y-114459624D01*
X130126388Y-114472017D01*
X130111238Y-114500203D01*
X130107967Y-114506553D01*
X130083266Y-114556600D01*
X130035944Y-114608003D01*
X129968342Y-114625662D01*
X129914372Y-114611475D01*
X129660127Y-114477813D01*
X129657504Y-114476459D01*
X129657491Y-114476452D01*
X129657436Y-114476424D01*
X129644782Y-114470011D01*
X129644743Y-114469991D01*
X129639182Y-114467279D01*
X129626318Y-114461245D01*
X129620657Y-114458693D01*
X129607631Y-114453057D01*
X129601938Y-114450695D01*
X129588768Y-114445462D01*
X129582950Y-114443252D01*
X129569722Y-114438453D01*
X129563850Y-114436422D01*
X129550390Y-114431991D01*
X129544523Y-114430157D01*
X129530963Y-114426140D01*
X129525097Y-114424498D01*
X129525047Y-114424484D01*
X129525037Y-114424482D01*
X129511378Y-114420878D01*
X129511362Y-114420874D01*
X129511324Y-114420864D01*
X129505408Y-114419398D01*
X129505395Y-114419395D01*
X129505387Y-114419393D01*
X129498055Y-114417692D01*
X129491597Y-114416194D01*
X129485646Y-114414908D01*
X129485632Y-114414905D01*
X129485608Y-114414900D01*
X129471768Y-114412124D01*
X129471767Y-114412123D01*
X129471758Y-114412122D01*
X129465669Y-114410996D01*
X129451762Y-114408641D01*
X129445599Y-114407693D01*
X129431658Y-114405762D01*
X129425469Y-114404999D01*
X129411499Y-114403495D01*
X129407004Y-114403080D01*
X129405217Y-114402916D01*
X129405208Y-114402915D01*
X129405183Y-114402913D01*
X129391169Y-114401834D01*
X129384891Y-114401447D01*
X129370764Y-114400794D01*
X129364483Y-114400601D01*
X129350412Y-114400384D01*
X129350389Y-114400384D01*
X129350387Y-114400384D01*
X129350089Y-114400384D01*
X129343167Y-114400397D01*
X129324759Y-114400758D01*
X129316626Y-114401077D01*
X129298334Y-114402155D01*
X129290291Y-114402788D01*
X129278357Y-114403963D01*
X129272039Y-114404586D01*
X129272032Y-114404586D01*
X129272020Y-114404588D01*
X129263991Y-114405538D01*
X129245885Y-114408046D01*
X129237902Y-114409312D01*
X129222715Y-114412031D01*
X129219955Y-114412526D01*
X129219943Y-114412528D01*
X129219934Y-114412530D01*
X129211989Y-114414115D01*
X129194222Y-114418025D01*
X129186337Y-114419924D01*
X129168760Y-114424528D01*
X129160951Y-114426740D01*
X129143538Y-114432045D01*
X129135838Y-114434558D01*
X129118684Y-114440533D01*
X129111069Y-114443355D01*
X129094126Y-114450017D01*
X129086677Y-114453117D01*
X129070002Y-114460445D01*
X129069980Y-114460454D01*
X129069969Y-114460460D01*
X129068643Y-114461074D01*
X129062632Y-114463857D01*
X129046193Y-114471865D01*
X129039074Y-114475507D01*
X129022842Y-114484218D01*
X129015886Y-114488127D01*
X128999990Y-114497475D01*
X128993177Y-114501663D01*
X128977643Y-114511632D01*
X128971002Y-114516078D01*
X128955801Y-114526685D01*
X128949681Y-114531124D01*
X128946914Y-114533210D01*
X128936328Y-114541189D01*
X128936312Y-114541200D01*
X128936306Y-114541206D01*
X128930699Y-114545587D01*
X128917786Y-114556043D01*
X128912303Y-114560644D01*
X128909695Y-114562911D01*
X128899839Y-114571476D01*
X128895684Y-114575215D01*
X128894487Y-114576293D01*
X128882473Y-114587494D01*
X128877328Y-114592461D01*
X128865784Y-114603999D01*
X128860770Y-114609188D01*
X128849686Y-114621068D01*
X128844885Y-114626396D01*
X128834278Y-114638588D01*
X128834241Y-114638631D01*
X128829647Y-114644101D01*
X128829635Y-114644116D01*
X128819466Y-114656658D01*
X128812929Y-114665164D01*
X128793958Y-114691232D01*
X128785994Y-114703013D01*
X128768963Y-114730197D01*
X128761810Y-114742547D01*
X128746760Y-114770742D01*
X128740498Y-114783517D01*
X128727444Y-114812669D01*
X128722072Y-114825878D01*
X128711074Y-114855853D01*
X128706637Y-114869372D01*
X128697732Y-114900073D01*
X128694230Y-114913926D01*
X128687460Y-114945236D01*
X128684927Y-114959301D01*
X128680325Y-114991170D01*
X128679070Y-115001815D01*
X128677594Y-115017936D01*
X128677065Y-115025097D01*
X128676152Y-115041246D01*
X128675872Y-115048383D01*
X128675519Y-115064689D01*
X128675489Y-115071875D01*
X128675704Y-115088216D01*
X128675921Y-115095262D01*
X128675925Y-115095378D01*
X128676715Y-115111791D01*
X128677186Y-115118977D01*
X128678548Y-115135359D01*
X128679274Y-115142566D01*
X128681216Y-115158977D01*
X128682114Y-115165574D01*
X128682190Y-115166127D01*
X128684732Y-115182641D01*
X128684744Y-115182714D01*
X128685292Y-115186084D01*
X128734422Y-115472601D01*
X128726351Y-115542003D01*
X128682039Y-115596024D01*
X128630038Y-115616269D01*
X128568312Y-115625238D01*
X128561244Y-115626392D01*
X128530052Y-115632038D01*
X128529748Y-115632093D01*
X128520046Y-115634200D01*
X128515749Y-115635134D01*
X128485074Y-115642925D01*
X128471300Y-115646939D01*
X128441510Y-115656759D01*
X128428113Y-115661699D01*
X128399290Y-115673481D01*
X128386217Y-115679364D01*
X128358452Y-115693038D01*
X128345920Y-115699761D01*
X128319249Y-115715283D01*
X128307183Y-115722878D01*
X128281760Y-115740138D01*
X128270256Y-115748545D01*
X128246120Y-115767501D01*
X128235230Y-115776680D01*
X128212474Y-115797255D01*
X128202243Y-115807171D01*
X128180905Y-115829336D01*
X128171413Y-115839907D01*
X128151608Y-115863563D01*
X128142834Y-115874817D01*
X128124652Y-115899884D01*
X128116671Y-115911733D01*
X128100174Y-115938166D01*
X128093034Y-115950544D01*
X128078307Y-115978266D01*
X128072035Y-115991136D01*
X128059150Y-116020097D01*
X128053799Y-116033349D01*
X128042846Y-116063452D01*
X128038430Y-116077040D01*
X128029598Y-116107819D01*
X128026128Y-116121721D01*
X128019537Y-116152683D01*
X128017040Y-116166814D01*
X128012664Y-116197869D01*
X128011497Y-116208935D01*
X128011163Y-116212097D01*
X128010747Y-116217995D01*
X128008973Y-116243154D01*
X128008973Y-116243162D01*
X128008585Y-116254076D01*
X128008464Y-116257464D01*
X128008439Y-116288419D01*
X128008841Y-116300216D01*
X128008925Y-116302678D01*
X128009653Y-116313251D01*
X128011030Y-116333280D01*
X128011041Y-116333429D01*
X128012512Y-116347605D01*
X128016742Y-116378047D01*
X128019191Y-116392087D01*
X128025512Y-116422121D01*
X128026649Y-116426724D01*
X128028931Y-116435967D01*
X128037310Y-116465469D01*
X128041665Y-116478998D01*
X128041670Y-116479014D01*
X128041674Y-116479024D01*
X128043572Y-116484288D01*
X128052099Y-116507937D01*
X128057402Y-116521183D01*
X128069843Y-116549386D01*
X128076049Y-116562230D01*
X128090470Y-116589601D01*
X128097575Y-116602018D01*
X128113968Y-116628491D01*
X128121922Y-116640389D01*
X128140254Y-116665848D01*
X128148932Y-116677055D01*
X128149023Y-116677172D01*
X128169274Y-116701521D01*
X128169277Y-116701524D01*
X128178800Y-116712197D01*
X128200960Y-116735349D01*
X128205982Y-116740416D01*
X128217949Y-116752080D01*
X128246585Y-116779993D01*
X128246641Y-116780047D01*
X128280908Y-116840937D01*
X128276816Y-116910686D01*
X128246644Y-116957637D01*
X128116345Y-117084649D01*
X128051770Y-117147596D01*
X128046144Y-117153080D01*
X128041122Y-117158147D01*
X128018096Y-117182208D01*
X128008586Y-117192866D01*
X128008575Y-117192878D01*
X128008568Y-117192887D01*
X127994496Y-117209808D01*
X127987487Y-117218236D01*
X127978731Y-117229542D01*
X127959662Y-117256025D01*
X127951716Y-117267911D01*
X127934650Y-117295468D01*
X127927548Y-117307881D01*
X127912539Y-117336372D01*
X127906333Y-117349212D01*
X127893400Y-117378531D01*
X127893392Y-117378550D01*
X127888094Y-117391786D01*
X127877249Y-117421863D01*
X127877243Y-117421879D01*
X127877241Y-117421887D01*
X127872884Y-117435424D01*
X127864160Y-117466141D01*
X127860750Y-117479955D01*
X127854172Y-117511215D01*
X127851724Y-117525252D01*
X127847325Y-117556918D01*
X127845851Y-117571133D01*
X127843656Y-117603091D01*
X127843173Y-117617382D01*
X127331215Y-117617382D01*
X127300000Y-116400000D01*
X127450000Y-112900000D01*
X130800000Y-112950000D01*
G37*
%TD.AperFunction*%
%TD*%
%TA.AperFunction,NonConductor*%
G36*
X130509730Y-115931769D02*
G01*
X130509775Y-115931661D01*
X130510394Y-115931917D01*
X130510416Y-115931922D01*
X130510651Y-115932023D01*
X130516438Y-115934418D01*
X130523978Y-115937403D01*
X130524012Y-115937416D01*
X130524025Y-115937421D01*
X130529885Y-115939638D01*
X130537548Y-115942405D01*
X130537565Y-115942411D01*
X130543403Y-115944420D01*
X130543436Y-115944431D01*
X130543457Y-115944438D01*
X130551180Y-115946964D01*
X130557117Y-115948807D01*
X130557141Y-115948814D01*
X130564850Y-115951080D01*
X130564863Y-115951083D01*
X130564895Y-115951093D01*
X130570900Y-115952759D01*
X130578728Y-115954804D01*
X130580740Y-115955297D01*
X130584730Y-115956276D01*
X130587611Y-115956936D01*
X130592638Y-115958088D01*
X130598681Y-115959378D01*
X130606591Y-115960942D01*
X130606634Y-115960949D01*
X130606645Y-115960952D01*
X130612633Y-115962043D01*
X130613632Y-115962209D01*
X130620607Y-115963372D01*
X130626754Y-115964302D01*
X130634725Y-115965384D01*
X130640837Y-115966120D01*
X130640854Y-115966122D01*
X130648809Y-115966960D01*
X130648822Y-115966961D01*
X130648830Y-115966962D01*
X130654956Y-115967515D01*
X130662965Y-115968117D01*
X130669127Y-115968487D01*
X130677147Y-115968848D01*
X130683316Y-115969033D01*
X130690647Y-115969142D01*
X130691336Y-115969153D01*
X130691342Y-115969153D01*
X130697492Y-115969153D01*
X130698152Y-115969143D01*
X130705513Y-115969033D01*
X130711679Y-115968848D01*
X130719701Y-115968487D01*
X130725860Y-115968117D01*
X130733872Y-115967515D01*
X130739996Y-115966963D01*
X130743736Y-115966569D01*
X130747996Y-115966121D01*
X130752877Y-115965532D01*
X130754099Y-115965385D01*
X130762074Y-115964303D01*
X130768213Y-115963376D01*
X130776161Y-115962052D01*
X130778731Y-115961583D01*
X130782199Y-115960953D01*
X130782221Y-115960948D01*
X130782230Y-115960947D01*
X130790145Y-115959383D01*
X130796191Y-115958094D01*
X130804067Y-115956290D01*
X130810096Y-115954812D01*
X130816362Y-115953176D01*
X130817922Y-115952769D01*
X130823916Y-115951107D01*
X130831750Y-115948806D01*
X130837612Y-115946987D01*
X130837620Y-115946984D01*
X130837647Y-115946976D01*
X130845375Y-115944450D01*
X130851289Y-115942417D01*
X130858956Y-115939650D01*
X130864823Y-115937431D01*
X130872423Y-115934423D01*
X130876476Y-115932746D01*
X130879101Y-115931662D01*
X130879221Y-115931952D01*
X130947408Y-115923582D01*
X131010351Y-115953912D01*
X131038428Y-115991055D01*
X131069939Y-116054910D01*
X131072797Y-116060482D01*
X131072811Y-116060508D01*
X131072817Y-116060520D01*
X131079978Y-116073974D01*
X131080040Y-116074090D01*
X131086285Y-116085004D01*
X131094256Y-116097995D01*
X131094265Y-116098008D01*
X131101127Y-116108465D01*
X131101137Y-116108479D01*
X131109825Y-116120878D01*
X131109834Y-116120890D01*
X131117312Y-116130898D01*
X131117314Y-116130900D01*
X131126712Y-116142713D01*
X131134713Y-116152171D01*
X131134722Y-116152181D01*
X131144785Y-116163372D01*
X131144805Y-116163393D01*
X131144806Y-116163394D01*
X131153230Y-116172214D01*
X131153333Y-116172321D01*
X131164024Y-116182859D01*
X131173064Y-116191250D01*
X131184349Y-116201111D01*
X131193864Y-116208935D01*
X131205709Y-116218094D01*
X131205722Y-116218104D01*
X131205737Y-116218115D01*
X131215654Y-116225319D01*
X131215663Y-116225325D01*
X131215667Y-116225328D01*
X131228040Y-116233762D01*
X131238406Y-116240383D01*
X131251272Y-116248068D01*
X131262054Y-116254076D01*
X131262069Y-116254083D01*
X131262073Y-116254086D01*
X131275360Y-116260976D01*
X131275369Y-116260980D01*
X131275380Y-116260986D01*
X131286522Y-116266345D01*
X131300275Y-116272457D01*
X131311751Y-116277148D01*
X131325897Y-116282438D01*
X131325910Y-116282442D01*
X131325917Y-116282445D01*
X131337679Y-116286441D01*
X131337692Y-116286444D01*
X131337695Y-116286446D01*
X131352201Y-116290889D01*
X131364255Y-116294184D01*
X131379087Y-116297757D01*
X131391387Y-116300325D01*
X131406512Y-116303003D01*
X131412838Y-116303887D01*
X131412828Y-116303959D01*
X131478778Y-116313546D01*
X131480073Y-116313763D01*
X131510364Y-116328446D01*
X131540960Y-116342477D01*
X131541703Y-116343638D01*
X131542945Y-116344240D01*
X131560484Y-116372961D01*
X131578643Y-116401314D01*
X131578815Y-116402980D01*
X131579359Y-116403870D01*
X131579277Y-116407435D01*
X131583238Y-116445677D01*
X131582471Y-116455530D01*
X131581882Y-116468005D01*
X131581882Y-116468018D01*
X131581611Y-116484198D01*
X131581609Y-116484288D01*
X131581777Y-116496744D01*
X131582262Y-116507803D01*
X131582486Y-116512911D01*
X131583401Y-116525268D01*
X131583403Y-116525287D01*
X131585075Y-116541302D01*
X131585947Y-116547757D01*
X131586733Y-116553579D01*
X131586735Y-116553590D01*
X131589367Y-116569468D01*
X131591746Y-116581555D01*
X131595311Y-116597188D01*
X131596534Y-116601894D01*
X131598412Y-116609120D01*
X131598417Y-116609137D01*
X131602915Y-116624540D01*
X131602917Y-116624545D01*
X131606713Y-116636233D01*
X131606722Y-116636259D01*
X131612130Y-116651357D01*
X131616628Y-116662817D01*
X131622946Y-116677597D01*
X131628123Y-116688770D01*
X131635327Y-116703169D01*
X131641183Y-116714044D01*
X131646283Y-116722867D01*
X131649266Y-116728028D01*
X131655793Y-116738573D01*
X131664728Y-116752080D01*
X131669761Y-116759210D01*
X131671921Y-116762270D01*
X131679251Y-116772011D01*
X131681697Y-116775261D01*
X131689508Y-116785010D01*
X131700121Y-116797461D01*
X131700128Y-116797469D01*
X131700367Y-116797733D01*
X131700385Y-116797771D01*
X131701355Y-116798909D01*
X131701058Y-116799161D01*
X131730819Y-116860617D01*
X131722439Y-116929982D01*
X131695064Y-116969826D01*
X131645004Y-117018621D01*
X131640598Y-117023049D01*
X131629911Y-117034124D01*
X131621469Y-117043428D01*
X131611558Y-117055045D01*
X131603723Y-117064816D01*
X131594610Y-117076919D01*
X131587420Y-117087096D01*
X131579102Y-117099658D01*
X131572536Y-117110257D01*
X131565028Y-117123237D01*
X131559144Y-117134155D01*
X131552414Y-117147596D01*
X131547233Y-117158771D01*
X131541343Y-117172543D01*
X131536838Y-117184013D01*
X131531786Y-117198105D01*
X131527983Y-117209807D01*
X131523784Y-117224174D01*
X131520676Y-117236131D01*
X131517346Y-117250733D01*
X131514961Y-117262848D01*
X131512513Y-117277619D01*
X131510853Y-117289917D01*
X131509292Y-117304866D01*
X131508374Y-117317272D01*
X131507718Y-117332337D01*
X131507553Y-117344812D01*
X131507813Y-117359995D01*
X131508409Y-117372512D01*
X131509598Y-117387712D01*
X131510964Y-117400218D01*
X131513097Y-117415424D01*
X131514068Y-117421657D01*
X131524101Y-117480158D01*
X131516031Y-117549560D01*
X131471720Y-117603582D01*
X131430911Y-117621672D01*
X131416337Y-117625180D01*
X131404280Y-117628475D01*
X131388737Y-117633233D01*
X131376914Y-117637248D01*
X131361770Y-117642909D01*
X131350256Y-117647614D01*
X131335525Y-117654159D01*
X131324365Y-117659525D01*
X131310106Y-117666917D01*
X131299282Y-117672948D01*
X131285509Y-117681173D01*
X131275108Y-117687816D01*
X131261849Y-117696854D01*
X131251882Y-117704094D01*
X131239195Y-117713905D01*
X131229674Y-117721733D01*
X131217578Y-117732302D01*
X131208528Y-117740702D01*
X131197071Y-117751995D01*
X131188507Y-117760960D01*
X131177739Y-117772934D01*
X131169696Y-117782441D01*
X131159621Y-117795107D01*
X131152164Y-117805090D01*
X131142838Y-117818394D01*
X131135943Y-117828899D01*
X131127399Y-117842822D01*
X131126637Y-117844155D01*
X131126503Y-117844282D01*
X131126405Y-117844444D01*
X131126362Y-117844418D01*
X131076243Y-117892551D01*
X131007684Y-117906019D01*
X130961329Y-117892296D01*
X130937804Y-117879929D01*
X130906096Y-117863259D01*
X130903407Y-117861872D01*
X130901655Y-117860984D01*
X130896520Y-117858383D01*
X130892957Y-117856645D01*
X130890875Y-117855630D01*
X130883904Y-117852362D01*
X130878189Y-117849790D01*
X130875401Y-117848586D01*
X130871164Y-117846756D01*
X130871160Y-117846754D01*
X130871143Y-117846747D01*
X130865374Y-117844359D01*
X130858275Y-117841546D01*
X130852433Y-117839336D01*
X130852426Y-117839333D01*
X130852401Y-117839324D01*
X130845254Y-117836743D01*
X130839364Y-117834717D01*
X130839357Y-117834714D01*
X130839323Y-117834703D01*
X130835237Y-117833366D01*
X130832161Y-117832360D01*
X130829188Y-117831436D01*
X130826199Y-117830507D01*
X130818972Y-117828383D01*
X130812957Y-117826713D01*
X130805633Y-117824799D01*
X130799653Y-117823333D01*
X130799637Y-117823329D01*
X130796297Y-117822562D01*
X130792288Y-117821643D01*
X130786252Y-117820354D01*
X130780059Y-117819129D01*
X130778847Y-117818890D01*
X130778840Y-117818888D01*
X130778806Y-117818882D01*
X130772781Y-117817785D01*
X130765387Y-117816552D01*
X130759192Y-117815614D01*
X130751801Y-117814610D01*
X130745726Y-117813876D01*
X130738197Y-117813083D01*
X130735274Y-117812819D01*
X130735258Y-117812818D01*
X130732076Y-117812531D01*
X130724608Y-117811970D01*
X130718468Y-117811601D01*
X130710992Y-117811264D01*
X130704814Y-117811079D01*
X130697333Y-117810967D01*
X130696276Y-117811067D01*
X130694189Y-117810974D01*
X130683687Y-117811132D01*
X130677539Y-117811316D01*
X130670026Y-117811654D01*
X130663913Y-117812022D01*
X130663906Y-117812022D01*
X130663898Y-117812023D01*
X130662514Y-117812126D01*
X130656392Y-117812586D01*
X130650312Y-117813135D01*
X130642823Y-117813923D01*
X130636705Y-117814660D01*
X130629293Y-117815667D01*
X130623182Y-117816591D01*
X130615752Y-117817827D01*
X130609686Y-117818931D01*
X130602230Y-117820405D01*
X130596270Y-117821676D01*
X130588948Y-117823353D01*
X130582900Y-117824835D01*
X130575534Y-117826759D01*
X130569610Y-117828401D01*
X130562391Y-117830521D01*
X130562379Y-117830524D01*
X130562361Y-117830530D01*
X130560004Y-117831260D01*
X130556441Y-117832365D01*
X130549180Y-117834737D01*
X130543337Y-117836746D01*
X130536183Y-117839326D01*
X130530343Y-117841534D01*
X130523219Y-117844350D01*
X130517536Y-117846697D01*
X130510506Y-117849727D01*
X130510493Y-117849732D01*
X130510481Y-117849738D01*
X130504752Y-117852312D01*
X130504723Y-117852325D01*
X130504722Y-117852326D01*
X130497792Y-117855567D01*
X130492164Y-117858303D01*
X130485312Y-117861766D01*
X130482459Y-117863237D01*
X130427221Y-117892276D01*
X130358722Y-117906046D01*
X130293652Y-117880596D01*
X130262176Y-117844429D01*
X130262157Y-117844441D01*
X130262086Y-117844326D01*
X130261908Y-117844121D01*
X130261175Y-117842840D01*
X130260372Y-117841532D01*
X130252611Y-117828883D01*
X130252600Y-117828865D01*
X130246083Y-117818936D01*
X130245737Y-117818409D01*
X130236398Y-117805085D01*
X130228949Y-117795114D01*
X130218866Y-117782437D01*
X130210844Y-117772955D01*
X130205905Y-117767462D01*
X130200040Y-117760939D01*
X130191516Y-117752016D01*
X130180032Y-117740695D01*
X130171019Y-117732328D01*
X130158916Y-117721750D01*
X130149405Y-117713928D01*
X130149393Y-117713918D01*
X130136691Y-117704095D01*
X130136668Y-117704078D01*
X130126723Y-117696852D01*
X130113474Y-117687821D01*
X130103081Y-117681183D01*
X130089306Y-117672954D01*
X130078520Y-117666944D01*
X130064225Y-117659530D01*
X130053103Y-117654180D01*
X130038327Y-117647613D01*
X130026864Y-117642927D01*
X130011681Y-117637249D01*
X129999900Y-117633247D01*
X129999854Y-117633233D01*
X129995783Y-117631986D01*
X129984348Y-117628483D01*
X129972259Y-117625179D01*
X129957590Y-117621645D01*
X129897025Y-117586808D01*
X129864910Y-117524756D01*
X129864416Y-117480132D01*
X129864444Y-117479969D01*
X129874450Y-117421631D01*
X129875416Y-117415429D01*
X129877549Y-117400217D01*
X129878914Y-117387708D01*
X129880104Y-117372496D01*
X129880700Y-117359990D01*
X129880960Y-117344818D01*
X129880795Y-117332345D01*
X129880137Y-117317254D01*
X129879221Y-117304869D01*
X129877658Y-117289897D01*
X129876006Y-117277650D01*
X129873552Y-117262836D01*
X129871172Y-117250733D01*
X129871170Y-117250723D01*
X129867836Y-117236108D01*
X129867834Y-117236100D01*
X129864736Y-117224180D01*
X129860536Y-117209803D01*
X129856734Y-117198101D01*
X129851681Y-117184001D01*
X129847184Y-117172545D01*
X129841291Y-117158761D01*
X129841006Y-117158147D01*
X129838658Y-117153080D01*
X129836099Y-117147559D01*
X129829378Y-117134132D01*
X129823511Y-117123244D01*
X129822996Y-117122353D01*
X129815990Y-117110235D01*
X129809452Y-117099680D01*
X129809440Y-117099660D01*
X129809427Y-117099640D01*
X129801107Y-117087069D01*
X129793920Y-117076896D01*
X129784795Y-117064774D01*
X129776961Y-117055001D01*
X129776952Y-117054990D01*
X129767049Y-117043382D01*
X129758607Y-117034079D01*
X129747942Y-117023024D01*
X129743332Y-117018751D01*
X129743483Y-117018597D01*
X129692659Y-116969058D01*
X129691770Y-116968154D01*
X129675876Y-116938465D01*
X129659355Y-116909108D01*
X129659434Y-116907751D01*
X129658794Y-116906555D01*
X129661473Y-116872992D01*
X129663447Y-116839358D01*
X129664268Y-116837989D01*
X129664355Y-116836907D01*
X129667015Y-116833413D01*
X129687607Y-116799111D01*
X129687435Y-116798964D01*
X129688316Y-116797930D01*
X129688358Y-116797860D01*
X129688662Y-116797526D01*
X129699284Y-116785075D01*
X129707114Y-116775309D01*
X129716902Y-116762309D01*
X129724091Y-116752133D01*
X129733032Y-116738626D01*
X129739572Y-116728066D01*
X129747652Y-116714093D01*
X129753520Y-116703201D01*
X129760726Y-116688804D01*
X129765914Y-116677613D01*
X129772232Y-116662836D01*
X129776737Y-116651359D01*
X129782153Y-116636242D01*
X129785956Y-116624533D01*
X129790457Y-116609119D01*
X129793552Y-116597204D01*
X129797125Y-116581535D01*
X129799509Y-116569410D01*
X129802138Y-116553529D01*
X129803790Y-116541270D01*
X129805463Y-116525218D01*
X129806376Y-116512847D01*
X129807080Y-116496666D01*
X129807080Y-116496661D01*
X129807081Y-116496640D01*
X129807244Y-116484222D01*
X129807244Y-116484198D01*
X129806964Y-116467930D01*
X129806515Y-116458552D01*
X129806366Y-116455411D01*
X129806150Y-116452669D01*
X129805601Y-116445658D01*
X129819981Y-116377288D01*
X129869044Y-116327543D01*
X129911382Y-116313251D01*
X129975681Y-116303906D01*
X129981951Y-116302895D01*
X129997075Y-116300217D01*
X130009373Y-116297650D01*
X130024205Y-116294077D01*
X130036259Y-116290782D01*
X130050765Y-116286339D01*
X130062563Y-116282331D01*
X130076709Y-116277041D01*
X130088185Y-116272350D01*
X130101938Y-116266238D01*
X130113090Y-116260874D01*
X130126416Y-116253963D01*
X130137172Y-116247969D01*
X130150039Y-116240285D01*
X130160427Y-116233651D01*
X130172799Y-116225217D01*
X130182745Y-116217992D01*
X130194591Y-116208833D01*
X130204119Y-116200998D01*
X130215403Y-116191137D01*
X130224436Y-116182752D01*
X130235127Y-116172214D01*
X130243669Y-116163273D01*
X130253733Y-116152082D01*
X130261758Y-116142595D01*
X130271160Y-116130775D01*
X130278621Y-116120788D01*
X130287328Y-116108364D01*
X130294195Y-116097901D01*
X130302175Y-116084896D01*
X130308425Y-116073974D01*
X130315643Y-116060413D01*
X130315642Y-116060412D01*
X130316609Y-116058596D01*
X130316617Y-116058581D01*
X130318409Y-116055215D01*
X130318410Y-116055213D01*
X130333374Y-116027099D01*
X130337438Y-116016521D01*
X130350083Y-115990897D01*
X130397402Y-115939490D01*
X130465002Y-115921827D01*
X130509730Y-115931769D01*
G37*
%TD.AperFunction*%
M02*
