%TF.GenerationSoftware,KiCad,Pcbnew,9.0.1-9.0.1-0~ubuntu24.04.1*%
%TF.CreationDate,2025-05-01T05:33:58-07:00*%
%TF.ProjectId,tobydio,746f6279-6469-46f2-9e6b-696361645f70,rev?*%
%TF.SameCoordinates,Original*%
%TF.FileFunction,Copper,L1,Top*%
%TF.FilePolarity,Positive*%
%FSLAX46Y46*%
G04 Gerber Fmt 4.6, Leading zero omitted, Abs format (unit mm)*
G04 Created by KiCad (PCBNEW 9.0.1-9.0.1-0~ubuntu24.04.1) date 2025-05-01 05:33:58*
%MOMM*%
%LPD*%
G01*
G04 APERTURE LIST*
G04 Aperture macros list*
%AMRoundRect*
0 Rectangle with rounded corners*
0 $1 Rounding radius*
0 $2 $3 $4 $5 $6 $7 $8 $9 X,Y pos of 4 corners*
0 Add a 4 corners polygon primitive as box body*
4,1,4,$2,$3,$4,$5,$6,$7,$8,$9,$2,$3,0*
0 Add four circle primitives for the rounded corners*
1,1,$1+$1,$2,$3*
1,1,$1+$1,$4,$5*
1,1,$1+$1,$6,$7*
1,1,$1+$1,$8,$9*
0 Add four rect primitives between the rounded corners*
20,1,$1+$1,$2,$3,$4,$5,0*
20,1,$1+$1,$4,$5,$6,$7,0*
20,1,$1+$1,$6,$7,$8,$9,0*
20,1,$1+$1,$8,$9,$2,$3,0*%
G04 Aperture macros list end*
%TA.AperFunction,NonConductor*%
%ADD10C,0.000000*%
%TD*%
%TA.AperFunction,ComponentPad*%
%ADD11R,1.700000X1.700000*%
%TD*%
%TA.AperFunction,ComponentPad*%
%ADD12O,1.700000X1.700000*%
%TD*%
%TA.AperFunction,SMDPad,CuDef*%
%ADD13RoundRect,0.250000X0.450000X-0.325000X0.450000X0.325000X-0.450000X0.325000X-0.450000X-0.325000X0*%
%TD*%
%TA.AperFunction,SMDPad,CuDef*%
%ADD14RoundRect,0.237500X0.300000X0.237500X-0.300000X0.237500X-0.300000X-0.237500X0.300000X-0.237500X0*%
%TD*%
%TA.AperFunction,ComponentPad*%
%ADD15C,0.900000*%
%TD*%
%TA.AperFunction,ComponentPad*%
%ADD16C,8.600000*%
%TD*%
%TA.AperFunction,SMDPad,CuDef*%
%ADD17RoundRect,0.155000X-0.155000X0.212500X-0.155000X-0.212500X0.155000X-0.212500X0.155000X0.212500X0*%
%TD*%
%TA.AperFunction,SMDPad,CuDef*%
%ADD18RoundRect,0.155000X0.212500X0.155000X-0.212500X0.155000X-0.212500X-0.155000X0.212500X-0.155000X0*%
%TD*%
%TA.AperFunction,SMDPad,CuDef*%
%ADD19R,1.200000X2.500000*%
%TD*%
%TA.AperFunction,SMDPad,CuDef*%
%ADD20RoundRect,0.155000X0.155000X-0.212500X0.155000X0.212500X-0.155000X0.212500X-0.155000X-0.212500X0*%
%TD*%
%TA.AperFunction,SMDPad,CuDef*%
%ADD21RoundRect,0.237500X-0.181797X0.336684X-0.285986X-0.254201X0.181797X-0.336684X0.285986X0.254201X0*%
%TD*%
%TA.AperFunction,SMDPad,CuDef*%
%ADD22RoundRect,0.250000X-0.337500X-0.475000X0.337500X-0.475000X0.337500X0.475000X-0.337500X0.475000X0*%
%TD*%
%TA.AperFunction,SMDPad,CuDef*%
%ADD23RoundRect,0.237500X-0.300000X-0.237500X0.300000X-0.237500X0.300000X0.237500X-0.300000X0.237500X0*%
%TD*%
%TA.AperFunction,SMDPad,CuDef*%
%ADD24R,0.355600X1.676400*%
%TD*%
%TA.AperFunction,SMDPad,CuDef*%
%ADD25RoundRect,0.250000X-0.475000X0.337500X-0.475000X-0.337500X0.475000X-0.337500X0.475000X0.337500X0*%
%TD*%
%TA.AperFunction,SMDPad,CuDef*%
%ADD26RoundRect,0.155000X-0.212500X-0.155000X0.212500X-0.155000X0.212500X0.155000X-0.212500X0.155000X0*%
%TD*%
%TA.AperFunction,SMDPad,CuDef*%
%ADD27O,1.699999X0.349999*%
%TD*%
%TA.AperFunction,SMDPad,CuDef*%
%ADD28RoundRect,0.160000X-0.197500X-0.160000X0.197500X-0.160000X0.197500X0.160000X-0.197500X0.160000X0*%
%TD*%
%TA.AperFunction,ViaPad*%
%ADD29C,0.600000*%
%TD*%
%TA.AperFunction,Conductor*%
%ADD30C,0.350000*%
%TD*%
%TA.AperFunction,Conductor*%
%ADD31C,0.450000*%
%TD*%
G04 APERTURE END LIST*
D10*
%TA.AperFunction,NonConductor*%
G36*
X117482372Y-109262947D02*
G01*
X117487016Y-109263243D01*
X117491804Y-109263750D01*
X117496476Y-109264520D01*
X117500780Y-109265588D01*
X117504726Y-109266941D01*
X117508326Y-109268566D01*
X117511589Y-109270448D01*
X117514527Y-109272574D01*
X117517150Y-109274931D01*
X117519468Y-109277505D01*
X117521492Y-109280282D01*
X117523233Y-109283249D01*
X117524702Y-109286393D01*
X117525908Y-109289699D01*
X117526863Y-109293154D01*
X117527577Y-109296745D01*
X117528061Y-109300458D01*
X117528325Y-109304279D01*
X117528380Y-109308195D01*
X117528237Y-109312193D01*
X117527906Y-109316258D01*
X117527397Y-109320378D01*
X117526722Y-109324538D01*
X117525891Y-109328726D01*
X117523803Y-109337127D01*
X117521218Y-109345475D01*
X117518220Y-109353659D01*
X117514895Y-109361572D01*
X117511328Y-109369105D01*
X117417639Y-109566962D01*
X117322200Y-109777592D01*
X117203867Y-110049558D01*
X117069765Y-110373014D01*
X116999028Y-110550972D01*
X116927022Y-110738110D01*
X116854637Y-110933196D01*
X116782763Y-111135000D01*
X116712293Y-111342290D01*
X116644116Y-111553835D01*
X116581773Y-111767713D01*
X116527808Y-111981620D01*
X116481621Y-112193759D01*
X116442609Y-112402332D01*
X116410173Y-112605542D01*
X116383711Y-112801591D01*
X116346304Y-113165016D01*
X116325580Y-113478225D01*
X116316731Y-113726838D01*
X116315422Y-113972751D01*
X115923884Y-113972751D01*
X115926075Y-113882025D01*
X115938512Y-113707066D01*
X115963984Y-113459757D01*
X116005283Y-113151979D01*
X116032740Y-112979127D01*
X116065200Y-112795615D01*
X116103012Y-112602927D01*
X116146525Y-112402548D01*
X116196088Y-112195964D01*
X116252050Y-111984661D01*
X116314759Y-111770123D01*
X116384565Y-111553835D01*
X116539108Y-111126379D01*
X116703193Y-110718055D01*
X116868328Y-110339913D01*
X117026021Y-110003005D01*
X117167781Y-109718381D01*
X117285116Y-109497093D01*
X117369534Y-109350192D01*
X117412543Y-109288729D01*
X117413823Y-109287386D01*
X117415416Y-109285860D01*
X117417638Y-109283901D01*
X117420486Y-109281611D01*
X117423954Y-109279091D01*
X117425920Y-109277778D01*
X117428039Y-109276445D01*
X117430311Y-109275106D01*
X117432736Y-109273773D01*
X117435312Y-109272460D01*
X117438039Y-109271179D01*
X117440918Y-109269943D01*
X117443946Y-109268764D01*
X117447125Y-109267655D01*
X117450452Y-109266630D01*
X117453928Y-109265700D01*
X117457552Y-109264879D01*
X117461323Y-109264179D01*
X117465241Y-109263613D01*
X117469306Y-109263194D01*
X117473516Y-109262935D01*
X117477872Y-109262848D01*
X117482372Y-109262947D01*
G37*
%TD.AperFunction*%
%TA.AperFunction,NonConductor*%
G36*
X127483053Y-111370285D02*
G01*
X127494465Y-111370919D01*
X127505702Y-111372213D01*
X127516733Y-111374207D01*
X127522160Y-111375478D01*
X127527524Y-111376939D01*
X127532820Y-111378594D01*
X127538044Y-111380449D01*
X127543192Y-111382507D01*
X127548260Y-111384774D01*
X127553245Y-111387255D01*
X127558142Y-111389954D01*
X127562946Y-111392876D01*
X127567655Y-111396027D01*
X127572264Y-111399411D01*
X127576769Y-111403032D01*
X127581166Y-111406897D01*
X127585450Y-111411009D01*
X127589619Y-111415373D01*
X127593668Y-111419994D01*
X127597593Y-111424878D01*
X127601390Y-111430028D01*
X127605054Y-111435450D01*
X127608583Y-111441149D01*
X127611971Y-111447129D01*
X127615216Y-111453395D01*
X127618312Y-111459953D01*
X127621256Y-111466806D01*
X127628137Y-111486790D01*
X127632223Y-111506000D01*
X127633685Y-111524450D01*
X127632691Y-111542153D01*
X127629411Y-111559124D01*
X127624014Y-111575374D01*
X127616668Y-111590918D01*
X127607544Y-111605770D01*
X127596811Y-111619941D01*
X127584638Y-111633447D01*
X127571193Y-111646300D01*
X127556647Y-111658514D01*
X127541169Y-111670102D01*
X127524927Y-111681077D01*
X127490831Y-111701245D01*
X127455714Y-111719124D01*
X127420929Y-111734822D01*
X127357772Y-111760103D01*
X127312193Y-111777948D01*
X127299379Y-111784350D01*
X127296059Y-111786968D01*
X127295022Y-111789215D01*
X127217766Y-111466806D01*
X127240780Y-111452134D01*
X127266864Y-111437034D01*
X127300281Y-111419637D01*
X127319180Y-111410752D01*
X127339242Y-111402103D01*
X127360242Y-111393959D01*
X127381957Y-111386591D01*
X127404164Y-111380269D01*
X127426639Y-111375262D01*
X127449158Y-111371840D01*
X127471498Y-111370274D01*
X127483053Y-111370285D01*
G37*
%TD.AperFunction*%
%TA.AperFunction,NonConductor*%
G36*
X120365405Y-110675447D02*
G01*
X120366428Y-110675541D01*
X120367435Y-110675692D01*
X120374442Y-110678546D01*
X120380525Y-110684312D01*
X120385728Y-110692793D01*
X120390099Y-110703792D01*
X120393683Y-110717112D01*
X120396526Y-110732557D01*
X120400174Y-110769031D01*
X120401412Y-110811638D01*
X120400609Y-110858805D01*
X120398133Y-110908956D01*
X120394353Y-110960515D01*
X120384354Y-111061558D01*
X120373562Y-111149333D01*
X120361389Y-111234675D01*
X120009370Y-111174576D01*
X120349194Y-110680239D01*
X120350472Y-110679504D01*
X120351732Y-110678831D01*
X120352972Y-110678221D01*
X120354194Y-110677671D01*
X120355397Y-110677182D01*
X120356581Y-110676754D01*
X120357747Y-110676386D01*
X120358895Y-110676077D01*
X120360024Y-110675828D01*
X120361136Y-110675636D01*
X120362229Y-110675503D01*
X120363305Y-110675428D01*
X120364364Y-110675409D01*
X120365405Y-110675447D01*
G37*
%TD.AperFunction*%
%TA.AperFunction,NonConductor*%
G36*
X127335508Y-110903603D02*
G01*
X127345192Y-110904510D01*
X127349891Y-110905203D01*
X127354492Y-110906062D01*
X127358991Y-110907090D01*
X127363387Y-110908293D01*
X127367676Y-110909674D01*
X127371856Y-110911238D01*
X127375925Y-110912990D01*
X127379880Y-110914932D01*
X127383719Y-110917071D01*
X127387437Y-110919409D01*
X127391035Y-110921952D01*
X127394507Y-110924704D01*
X127397853Y-110927668D01*
X127401069Y-110930850D01*
X127404153Y-110934254D01*
X127407101Y-110937883D01*
X127409913Y-110941743D01*
X127412584Y-110945838D01*
X127415113Y-110950171D01*
X127417497Y-110954748D01*
X127419733Y-110959572D01*
X127421819Y-110964649D01*
X127423752Y-110969981D01*
X127425529Y-110975574D01*
X127427148Y-110981432D01*
X127428606Y-110987559D01*
X127430842Y-111001762D01*
X127431323Y-111015727D01*
X127430159Y-111029440D01*
X127427462Y-111042887D01*
X127423341Y-111056054D01*
X127417906Y-111068927D01*
X127411269Y-111081492D01*
X127403540Y-111093734D01*
X127394828Y-111105641D01*
X127385246Y-111117199D01*
X127374902Y-111128392D01*
X127363908Y-111139208D01*
X127352373Y-111149632D01*
X127340409Y-111159650D01*
X127315633Y-111178414D01*
X127290463Y-111195389D01*
X127265783Y-111210462D01*
X127242476Y-111223522D01*
X127221426Y-111234458D01*
X127189628Y-111249510D01*
X127177459Y-111254726D01*
X127059998Y-110979652D01*
X127193265Y-110931698D01*
X127225674Y-110921347D01*
X127241500Y-110916819D01*
X127257014Y-110912821D01*
X127272172Y-110909425D01*
X127286931Y-110906705D01*
X127301246Y-110904734D01*
X127315073Y-110903584D01*
X127325462Y-110903306D01*
X127335508Y-110903603D01*
G37*
%TD.AperFunction*%
%TA.AperFunction,NonConductor*%
G36*
X118914139Y-109106847D02*
G01*
X119216133Y-109125919D01*
X119548193Y-109166675D01*
X119725685Y-109196189D01*
X119910919Y-109232329D01*
X120103969Y-109275498D01*
X120304910Y-109326096D01*
X120513817Y-109384526D01*
X120730766Y-109451190D01*
X120955830Y-109526490D01*
X121189085Y-109610826D01*
X121430607Y-109704602D01*
X121680468Y-109808219D01*
X121938746Y-109922078D01*
X122205514Y-110046583D01*
X122498102Y-110177507D01*
X122790365Y-110290252D01*
X123081826Y-110385670D01*
X123372008Y-110464612D01*
X123660433Y-110527929D01*
X123946623Y-110576473D01*
X124230101Y-110611094D01*
X124510390Y-110632644D01*
X124787012Y-110641974D01*
X125059490Y-110639936D01*
X125327346Y-110627380D01*
X125590102Y-110605158D01*
X125847282Y-110574121D01*
X126098407Y-110535120D01*
X126343001Y-110489007D01*
X126580585Y-110436632D01*
X127032816Y-110316504D01*
X127451281Y-110181545D01*
X127832158Y-110038567D01*
X128171629Y-109894377D01*
X128465874Y-109755787D01*
X128711072Y-109629606D01*
X129039051Y-109441710D01*
X129040845Y-109440742D01*
X129042703Y-109440008D01*
X129044615Y-109439497D01*
X129046572Y-109439200D01*
X129048563Y-109439109D01*
X129050578Y-109439213D01*
X129052609Y-109439503D01*
X129054643Y-109439969D01*
X129056673Y-109440603D01*
X129058688Y-109441394D01*
X129060678Y-109442333D01*
X129062633Y-109443412D01*
X129064543Y-109444619D01*
X129066398Y-109445946D01*
X129068189Y-109447383D01*
X129069905Y-109448922D01*
X129071537Y-109450552D01*
X129073074Y-109452263D01*
X129074508Y-109454047D01*
X129075827Y-109455895D01*
X129077022Y-109457796D01*
X129078083Y-109459741D01*
X129079001Y-109461720D01*
X129079764Y-109463725D01*
X129080364Y-109465746D01*
X129080791Y-109467773D01*
X129081034Y-109469797D01*
X129081084Y-109471808D01*
X129080930Y-109473797D01*
X129080563Y-109475754D01*
X129079974Y-109477671D01*
X129079151Y-109479537D01*
X128510762Y-110585929D01*
X128509983Y-110587573D01*
X128509326Y-110589231D01*
X128508789Y-110590900D01*
X128508368Y-110592576D01*
X128508061Y-110594253D01*
X128507867Y-110595928D01*
X128507781Y-110597596D01*
X128507802Y-110599253D01*
X128507927Y-110600895D01*
X128508154Y-110602517D01*
X128508480Y-110604115D01*
X128508902Y-110605684D01*
X128509418Y-110607221D01*
X128510025Y-110608720D01*
X128510721Y-110610178D01*
X128511503Y-110611589D01*
X128512369Y-110612951D01*
X128513316Y-110614257D01*
X128514341Y-110615505D01*
X128515442Y-110616690D01*
X128516617Y-110617806D01*
X128517863Y-110618851D01*
X128519177Y-110619819D01*
X128520557Y-110620707D01*
X128521999Y-110621509D01*
X128523503Y-110622222D01*
X128525065Y-110622841D01*
X128526682Y-110623362D01*
X128528352Y-110623780D01*
X128530072Y-110624092D01*
X128531841Y-110624292D01*
X128533654Y-110624377D01*
X128992863Y-110628175D01*
X129357563Y-110628160D01*
X129774095Y-110624687D01*
X129776309Y-110624737D01*
X129778459Y-110624941D01*
X129780540Y-110625292D01*
X129782550Y-110625785D01*
X129784484Y-110626410D01*
X129786339Y-110627162D01*
X129788110Y-110628033D01*
X129789794Y-110629016D01*
X129791388Y-110630105D01*
X129792887Y-110631292D01*
X129794287Y-110632570D01*
X129795585Y-110633932D01*
X129796777Y-110635372D01*
X129797860Y-110636882D01*
X129798829Y-110638455D01*
X129799680Y-110640083D01*
X129800411Y-110641761D01*
X129801016Y-110643481D01*
X129801493Y-110645237D01*
X129801837Y-110647020D01*
X129802045Y-110648824D01*
X129802112Y-110650642D01*
X129802036Y-110652467D01*
X129801812Y-110654291D01*
X129801437Y-110656109D01*
X129800906Y-110657913D01*
X129800217Y-110659695D01*
X129799364Y-110661449D01*
X129798345Y-110663168D01*
X129797155Y-110664845D01*
X129795791Y-110666472D01*
X129794249Y-110668043D01*
X129544525Y-110896534D01*
X129109062Y-111271330D01*
X128522266Y-111737948D01*
X128182872Y-111988663D01*
X127818547Y-112241902D01*
X127433593Y-112490855D01*
X127032311Y-112728710D01*
X126619002Y-112948657D01*
X126197966Y-113143886D01*
X125773506Y-113307586D01*
X125561335Y-113375485D01*
X125349921Y-113432947D01*
X125139801Y-113479122D01*
X124931513Y-113513158D01*
X124725594Y-113534203D01*
X124522582Y-113541408D01*
X124100267Y-113535230D01*
X123700959Y-113517354D01*
X123322772Y-113488765D01*
X122963816Y-113450450D01*
X122622202Y-113403395D01*
X122296044Y-113348585D01*
X121983452Y-113287007D01*
X121682538Y-113219647D01*
X121391414Y-113147490D01*
X121108191Y-113071523D01*
X120557897Y-112912103D01*
X120016549Y-112749274D01*
X119469041Y-112590924D01*
X119264236Y-112535665D01*
X121850339Y-112535665D01*
X121851620Y-112551643D01*
X121854588Y-112566518D01*
X121859182Y-112580210D01*
X121865341Y-112592641D01*
X121873002Y-112603729D01*
X121882104Y-112613397D01*
X121892584Y-112621563D01*
X121904382Y-112628148D01*
X121917436Y-112633072D01*
X121931683Y-112636256D01*
X121947062Y-112637619D01*
X121963512Y-112637082D01*
X121980970Y-112634566D01*
X121999374Y-112629990D01*
X122018664Y-112623275D01*
X122038778Y-112614341D01*
X122059652Y-112603108D01*
X122081227Y-112589496D01*
X122103440Y-112573426D01*
X122126229Y-112554819D01*
X122149532Y-112533593D01*
X122173289Y-112509670D01*
X122197436Y-112482969D01*
X122221913Y-112453412D01*
X122246658Y-112420918D01*
X122271608Y-112385407D01*
X122283796Y-112366890D01*
X122296024Y-112345617D01*
X122308178Y-112322133D01*
X122320144Y-112296983D01*
X122331808Y-112270712D01*
X122343056Y-112243865D01*
X122363848Y-112190625D01*
X122381607Y-112141624D01*
X122395422Y-112101223D01*
X122407569Y-112063669D01*
X122523738Y-112050595D01*
X122577402Y-112297839D01*
X122619224Y-112508181D01*
X122636516Y-112606241D01*
X122648588Y-112688592D01*
X122651796Y-112705658D01*
X122656659Y-112722187D01*
X122663064Y-112738107D01*
X122670896Y-112753348D01*
X122680041Y-112767838D01*
X122690384Y-112781506D01*
X122701812Y-112794282D01*
X122714209Y-112806094D01*
X122727462Y-112816872D01*
X122741456Y-112826544D01*
X122756077Y-112835039D01*
X122771210Y-112842287D01*
X122786741Y-112848216D01*
X122802556Y-112852756D01*
X122818541Y-112855835D01*
X122834581Y-112857382D01*
X122850561Y-112857327D01*
X122866368Y-112855597D01*
X122881887Y-112852124D01*
X122897004Y-112846834D01*
X122911605Y-112839658D01*
X122925574Y-112830524D01*
X122938798Y-112819361D01*
X122951163Y-112806098D01*
X122962553Y-112790665D01*
X122972856Y-112772989D01*
X122981955Y-112753001D01*
X122989738Y-112730629D01*
X122996090Y-112705803D01*
X123000896Y-112678450D01*
X123004042Y-112648501D01*
X123005413Y-112615883D01*
X122999544Y-112567247D01*
X122990635Y-112514493D01*
X122978609Y-112457600D01*
X122963390Y-112396550D01*
X122944900Y-112331323D01*
X122923064Y-112261900D01*
X122897802Y-112188260D01*
X122869039Y-112110384D01*
X122861195Y-112089119D01*
X123914094Y-112089119D01*
X123914712Y-112152397D01*
X123916885Y-112199999D01*
X123920199Y-112246293D01*
X123924646Y-112291255D01*
X123930217Y-112334860D01*
X123936904Y-112377082D01*
X123944699Y-112417898D01*
X123953593Y-112457281D01*
X123963579Y-112495208D01*
X123974648Y-112531653D01*
X123986791Y-112566592D01*
X124000000Y-112600000D01*
X124014268Y-112631852D01*
X124029585Y-112662123D01*
X124045944Y-112690789D01*
X124063336Y-112717823D01*
X124081752Y-112743203D01*
X124101186Y-112766902D01*
X124121627Y-112788896D01*
X124143069Y-112809160D01*
X124165503Y-112827670D01*
X124188920Y-112844400D01*
X124213312Y-112859326D01*
X124238671Y-112872422D01*
X124264988Y-112883664D01*
X124292256Y-112893028D01*
X124320466Y-112900487D01*
X124349609Y-112906019D01*
X124379678Y-112909596D01*
X124410664Y-112911196D01*
X124442559Y-112910792D01*
X124475355Y-112908360D01*
X124509043Y-112903876D01*
X124541871Y-112897771D01*
X124572157Y-112890556D01*
X124599990Y-112882314D01*
X124625464Y-112873130D01*
X124648670Y-112863087D01*
X124669700Y-112852268D01*
X124688646Y-112840758D01*
X124705600Y-112828641D01*
X124720653Y-112816001D01*
X124733899Y-112802920D01*
X124745428Y-112789484D01*
X124755332Y-112775775D01*
X124763704Y-112761878D01*
X124770636Y-112747877D01*
X124776218Y-112733855D01*
X124780544Y-112719896D01*
X124783705Y-112706085D01*
X124785793Y-112692504D01*
X124786900Y-112679238D01*
X124787118Y-112666370D01*
X124786538Y-112653985D01*
X124785254Y-112642166D01*
X124783355Y-112630997D01*
X124780936Y-112620562D01*
X124778086Y-112610945D01*
X124774899Y-112602229D01*
X124771467Y-112594498D01*
X124767880Y-112587837D01*
X124764232Y-112582329D01*
X124760613Y-112578057D01*
X124757117Y-112575106D01*
X124753834Y-112573560D01*
X124749000Y-112572003D01*
X124744398Y-112570048D01*
X124734941Y-112565596D01*
X124729608Y-112563423D01*
X124723556Y-112561503D01*
X124716545Y-112559997D01*
X124708337Y-112559069D01*
X124698694Y-112558880D01*
X124687378Y-112559593D01*
X124674151Y-112561370D01*
X124658774Y-112564374D01*
X124641009Y-112568767D01*
X124620617Y-112574712D01*
X124597361Y-112582370D01*
X124571003Y-112591905D01*
X124557110Y-112596808D01*
X124543431Y-112600991D01*
X124529962Y-112604446D01*
X124516698Y-112607165D01*
X124503637Y-112609141D01*
X124490776Y-112610366D01*
X124478111Y-112610833D01*
X124465638Y-112610534D01*
X124453354Y-112609462D01*
X124441255Y-112607609D01*
X124429339Y-112604968D01*
X124417602Y-112601530D01*
X124406041Y-112597290D01*
X124394651Y-112592238D01*
X124383430Y-112586368D01*
X124372374Y-112579671D01*
X124361480Y-112572142D01*
X124350744Y-112563771D01*
X124340163Y-112554551D01*
X124329734Y-112544475D01*
X124319452Y-112533536D01*
X124309316Y-112521725D01*
X124299321Y-112509035D01*
X124289463Y-112495459D01*
X124279741Y-112480989D01*
X124270149Y-112465618D01*
X124251344Y-112432141D01*
X124233023Y-112394968D01*
X124215158Y-112354038D01*
X124203863Y-112323417D01*
X124193406Y-112289789D01*
X124183962Y-112253562D01*
X124175701Y-112215142D01*
X124168796Y-112174939D01*
X124163420Y-112133358D01*
X124159744Y-112090808D01*
X124157941Y-112047697D01*
X124158182Y-112004431D01*
X124160641Y-111961419D01*
X124165489Y-111919068D01*
X124172898Y-111877786D01*
X124183040Y-111837979D01*
X124196089Y-111800057D01*
X124203757Y-111781929D01*
X124212215Y-111764425D01*
X124221487Y-111747596D01*
X124231592Y-111731493D01*
X124234732Y-111726943D01*
X124237859Y-111722598D01*
X124240972Y-111718452D01*
X124244067Y-111714499D01*
X124247142Y-111710733D01*
X124250195Y-111707148D01*
X124256225Y-111700498D01*
X124262136Y-111694501D01*
X124267910Y-111689109D01*
X124273526Y-111684274D01*
X124278965Y-111679948D01*
X124284208Y-111676084D01*
X124289234Y-111672635D01*
X124294025Y-111669551D01*
X124298560Y-111666786D01*
X124313758Y-111657957D01*
X124320051Y-111654353D01*
X124326344Y-111651201D01*
X124332625Y-111648481D01*
X124338883Y-111646173D01*
X124345108Y-111644257D01*
X124351290Y-111642712D01*
X124357416Y-111641520D01*
X124363478Y-111640658D01*
X124369463Y-111640108D01*
X124375361Y-111639849D01*
X124381161Y-111639862D01*
X124386854Y-111640125D01*
X124392427Y-111640619D01*
X124397870Y-111641323D01*
X124403173Y-111642218D01*
X124408324Y-111643283D01*
X124413313Y-111644498D01*
X124418129Y-111645844D01*
X124427201Y-111648844D01*
X124435452Y-111652123D01*
X124442797Y-111655519D01*
X124449150Y-111658871D01*
X124454425Y-111662018D01*
X124458536Y-111664798D01*
X124461397Y-111667052D01*
X124478582Y-111678978D01*
X124494889Y-111689279D01*
X124510328Y-111698010D01*
X124524906Y-111705227D01*
X124538633Y-111710984D01*
X124551518Y-111715339D01*
X124563568Y-111718346D01*
X124574793Y-111720061D01*
X124585201Y-111720540D01*
X124594800Y-111719839D01*
X124603600Y-111718012D01*
X124611610Y-111715116D01*
X124618837Y-111711206D01*
X124625290Y-111706338D01*
X124630978Y-111700568D01*
X124635910Y-111693950D01*
X124640094Y-111686541D01*
X124643540Y-111678397D01*
X124646254Y-111669572D01*
X124648247Y-111660123D01*
X124649527Y-111650106D01*
X124650102Y-111639575D01*
X124649982Y-111628586D01*
X124649174Y-111617196D01*
X124647688Y-111605459D01*
X124645532Y-111593431D01*
X124642714Y-111581169D01*
X124639244Y-111568727D01*
X124635130Y-111556161D01*
X124630380Y-111543526D01*
X124625004Y-111530879D01*
X124619010Y-111518276D01*
X124604860Y-111499069D01*
X124590391Y-111480982D01*
X124577443Y-111466135D01*
X124919457Y-111466135D01*
X124920503Y-111504239D01*
X124922867Y-111545072D01*
X124930965Y-111633649D01*
X124942572Y-111729313D01*
X124956512Y-111829511D01*
X124986683Y-112033298D01*
X125000559Y-112131782D01*
X125012061Y-112224589D01*
X125039322Y-112482054D01*
X125044666Y-112527639D01*
X125050578Y-112571541D01*
X125057638Y-112616675D01*
X125066425Y-112665958D01*
X125070838Y-112678031D01*
X125078989Y-112688160D01*
X125090626Y-112696443D01*
X125105498Y-112702983D01*
X125123355Y-112707879D01*
X125143946Y-112711232D01*
X125167019Y-112713141D01*
X125192324Y-112713709D01*
X125248623Y-112711218D01*
X125310837Y-112704563D01*
X125376956Y-112694548D01*
X125444973Y-112681975D01*
X125578668Y-112652371D01*
X125695856Y-112622182D01*
X125780474Y-112597834D01*
X125816456Y-112585756D01*
X125820327Y-112583854D01*
X125825527Y-112581881D01*
X125839231Y-112577249D01*
X125847396Y-112574355D01*
X125856208Y-112570918D01*
X125865498Y-112566822D01*
X125875096Y-112561949D01*
X125884832Y-112556180D01*
X125889698Y-112552923D01*
X125894535Y-112549398D01*
X125899322Y-112545591D01*
X125904036Y-112541486D01*
X125908657Y-112537070D01*
X125913164Y-112532326D01*
X125917535Y-112527241D01*
X125921749Y-112521800D01*
X125925785Y-112515989D01*
X125929622Y-112509791D01*
X125933237Y-112503194D01*
X125936611Y-112496181D01*
X125939721Y-112488739D01*
X125942547Y-112480853D01*
X125945301Y-112473040D01*
X125946982Y-112465508D01*
X125947638Y-112458261D01*
X125947317Y-112451302D01*
X125946068Y-112444634D01*
X125943938Y-112438261D01*
X125940975Y-112432186D01*
X125937229Y-112426413D01*
X125932746Y-112420944D01*
X125927574Y-112415784D01*
X125921763Y-112410935D01*
X125915360Y-112406402D01*
X125908413Y-112402187D01*
X125900970Y-112398294D01*
X125884790Y-112391487D01*
X125867205Y-112386007D01*
X125848599Y-112381883D01*
X125829357Y-112379141D01*
X125809864Y-112377808D01*
X125790505Y-112377912D01*
X125771665Y-112379479D01*
X125753729Y-112382536D01*
X125737081Y-112387111D01*
X125695606Y-112399448D01*
X125638595Y-112413814D01*
X125571895Y-112428296D01*
X125536737Y-112434984D01*
X125501349Y-112440985D01*
X125466462Y-112446059D01*
X125432805Y-112449969D01*
X125401109Y-112452474D01*
X125372106Y-112453337D01*
X125346525Y-112452318D01*
X125335246Y-112451029D01*
X125325098Y-112449179D01*
X125316170Y-112446740D01*
X125308554Y-112443681D01*
X125302342Y-112439972D01*
X125297625Y-112435584D01*
X125290458Y-112420491D01*
X125284542Y-112394902D01*
X125279622Y-112359929D01*
X125275444Y-112316683D01*
X125261044Y-112083204D01*
X125251660Y-111945726D01*
X125238101Y-111806277D01*
X125229118Y-111738592D01*
X125218325Y-111673749D01*
X125205469Y-111612859D01*
X125190293Y-111557033D01*
X125187093Y-111538213D01*
X125183732Y-111520139D01*
X125180215Y-111502801D01*
X125176548Y-111486188D01*
X125172738Y-111470291D01*
X125168791Y-111455098D01*
X125164713Y-111440601D01*
X125160511Y-111426787D01*
X125156191Y-111413649D01*
X125151760Y-111401174D01*
X125147223Y-111389353D01*
X125142586Y-111378176D01*
X125137858Y-111367632D01*
X125133042Y-111357712D01*
X125128147Y-111348404D01*
X125123178Y-111339700D01*
X125118141Y-111331587D01*
X125113043Y-111324057D01*
X125107890Y-111317100D01*
X125102689Y-111310704D01*
X125097445Y-111304859D01*
X125092165Y-111299556D01*
X125086856Y-111294784D01*
X125081523Y-111290533D01*
X125076173Y-111286793D01*
X125070813Y-111283554D01*
X125065448Y-111280804D01*
X125060085Y-111278535D01*
X125054730Y-111276735D01*
X125049389Y-111275395D01*
X125044070Y-111274504D01*
X125038777Y-111274053D01*
X125032820Y-111274059D01*
X125026915Y-111274601D01*
X125021071Y-111275664D01*
X125015297Y-111277233D01*
X125009603Y-111279293D01*
X125003998Y-111281830D01*
X124998490Y-111284827D01*
X124993090Y-111288271D01*
X124987806Y-111292147D01*
X124982647Y-111296440D01*
X124972743Y-111306215D01*
X124963450Y-111317478D01*
X124954843Y-111330110D01*
X124946994Y-111343991D01*
X124939977Y-111359002D01*
X124933866Y-111375025D01*
X124928733Y-111391940D01*
X124924652Y-111409627D01*
X124921697Y-111427968D01*
X124919941Y-111446844D01*
X124919457Y-111466135D01*
X124577443Y-111466135D01*
X124575608Y-111464030D01*
X124560513Y-111448226D01*
X124545111Y-111433584D01*
X124529406Y-111420120D01*
X124513402Y-111407847D01*
X124497102Y-111396780D01*
X124480511Y-111386934D01*
X124463633Y-111378322D01*
X124446471Y-111370958D01*
X124429029Y-111364858D01*
X124411312Y-111360035D01*
X124393323Y-111356505D01*
X124375066Y-111354280D01*
X124356546Y-111353376D01*
X124341961Y-111353596D01*
X124327222Y-111354630D01*
X124312329Y-111356485D01*
X124297285Y-111359169D01*
X124282091Y-111362687D01*
X124266749Y-111367047D01*
X124251262Y-111372254D01*
X124235630Y-111378317D01*
X124219856Y-111385240D01*
X124203941Y-111393032D01*
X124187888Y-111401698D01*
X124171698Y-111411246D01*
X124155373Y-111421682D01*
X124138914Y-111433012D01*
X124122324Y-111445243D01*
X124105605Y-111458383D01*
X124083188Y-111482393D01*
X124061894Y-111508913D01*
X124041782Y-111537960D01*
X124022911Y-111569548D01*
X124005340Y-111603692D01*
X123989127Y-111640408D01*
X123974333Y-111679712D01*
X123961016Y-111721618D01*
X123949234Y-111766142D01*
X123939047Y-111813299D01*
X123930513Y-111863104D01*
X123923692Y-111915574D01*
X123918642Y-111970723D01*
X123915423Y-112028566D01*
X123914094Y-112089119D01*
X122861195Y-112089119D01*
X122859917Y-112085656D01*
X122849482Y-112059881D01*
X122835989Y-112029731D01*
X122828298Y-112014085D01*
X122820084Y-111998630D01*
X122811429Y-111983792D01*
X122802412Y-111970001D01*
X122793114Y-111957684D01*
X122788385Y-111952212D01*
X122783616Y-111947269D01*
X122778818Y-111942909D01*
X122773999Y-111939184D01*
X122769171Y-111936149D01*
X122764343Y-111933858D01*
X122821914Y-111874949D01*
X122881658Y-111811596D01*
X122951180Y-111734785D01*
X123022333Y-111651371D01*
X123055975Y-111609330D01*
X123086970Y-111568209D01*
X123114299Y-111528865D01*
X123136945Y-111492155D01*
X123153888Y-111458936D01*
X123159904Y-111443903D01*
X123164112Y-111430064D01*
X123169708Y-111403001D01*
X123172723Y-111377429D01*
X123172986Y-111353783D01*
X123172032Y-111342820D01*
X123170327Y-111332502D01*
X123167848Y-111322885D01*
X123164576Y-111314023D01*
X123160488Y-111305970D01*
X123155563Y-111298782D01*
X123149781Y-111292512D01*
X123143120Y-111287217D01*
X123135558Y-111282949D01*
X123127074Y-111279764D01*
X123117648Y-111277717D01*
X123107258Y-111276862D01*
X123095882Y-111277253D01*
X123083500Y-111278946D01*
X123070091Y-111281995D01*
X123055632Y-111286455D01*
X123040103Y-111292380D01*
X123023483Y-111299825D01*
X123005749Y-111308844D01*
X122986882Y-111319493D01*
X122966860Y-111331826D01*
X122945662Y-111345897D01*
X122923266Y-111361761D01*
X122899651Y-111379473D01*
X122874795Y-111399087D01*
X122848679Y-111420659D01*
X122822659Y-111442753D01*
X122798078Y-111463904D01*
X122774893Y-111484128D01*
X122753067Y-111503441D01*
X122732558Y-111521858D01*
X122713326Y-111539395D01*
X122695331Y-111556069D01*
X122678533Y-111571894D01*
X122662892Y-111586888D01*
X122648368Y-111601065D01*
X122634921Y-111614442D01*
X122622510Y-111627034D01*
X122611096Y-111638857D01*
X122600638Y-111649928D01*
X122591097Y-111660261D01*
X122582431Y-111669874D01*
X122567568Y-111686998D01*
X122555728Y-111701428D01*
X122546590Y-111713290D01*
X122539833Y-111722711D01*
X122535136Y-111729818D01*
X122532178Y-111734737D01*
X122530197Y-111738521D01*
X122540694Y-111687505D01*
X122551310Y-111630365D01*
X122563278Y-111558030D01*
X122574929Y-111474917D01*
X122584592Y-111385448D01*
X122588157Y-111339711D01*
X122590599Y-111294041D01*
X122591301Y-111265521D01*
X125766197Y-111265521D01*
X125766282Y-111278239D01*
X125767260Y-111291313D01*
X125774327Y-111344195D01*
X125784508Y-111399475D01*
X125798542Y-111460985D01*
X125817169Y-111532553D01*
X125871152Y-111721188D01*
X125952365Y-111996024D01*
X125965643Y-112033764D01*
X125980262Y-112068833D01*
X125996116Y-112101325D01*
X126013098Y-112131336D01*
X126031101Y-112158959D01*
X126050020Y-112184289D01*
X126069746Y-112207422D01*
X126090174Y-112228451D01*
X126111197Y-112247471D01*
X126132707Y-112264578D01*
X126154600Y-112279865D01*
X126176766Y-112293427D01*
X126199101Y-112305359D01*
X126221497Y-112315755D01*
X126243847Y-112324711D01*
X126266046Y-112332320D01*
X126287985Y-112338678D01*
X126309559Y-112343878D01*
X126351184Y-112351187D01*
X126390067Y-112355004D01*
X126425353Y-112356085D01*
X126456190Y-112355188D01*
X126481724Y-112353070D01*
X126513468Y-112348199D01*
X126529580Y-112343888D01*
X126544893Y-112338846D01*
X126559432Y-112333106D01*
X126573223Y-112326696D01*
X126586291Y-112319647D01*
X126598662Y-112311989D01*
X126610361Y-112303754D01*
X126621414Y-112294970D01*
X126631846Y-112285669D01*
X126641683Y-112275880D01*
X126650950Y-112265634D01*
X126659672Y-112254962D01*
X126675585Y-112232458D01*
X126689625Y-112208610D01*
X126701997Y-112183662D01*
X126712903Y-112157854D01*
X126722548Y-112131431D01*
X126731136Y-112104634D01*
X126745952Y-112050888D01*
X126758982Y-111998557D01*
X126764417Y-111968855D01*
X126767522Y-111933692D01*
X126768457Y-111893671D01*
X126767382Y-111849394D01*
X126764456Y-111801464D01*
X126759840Y-111750486D01*
X126746174Y-111641793D01*
X126727663Y-111528142D01*
X126705585Y-111414356D01*
X126681216Y-111305262D01*
X126655837Y-111205685D01*
X126646910Y-111182799D01*
X126637355Y-111161209D01*
X126627236Y-111140942D01*
X126616616Y-111122022D01*
X126605559Y-111104476D01*
X126599885Y-111096226D01*
X126594126Y-111088329D01*
X126588289Y-111080788D01*
X126582382Y-111073606D01*
X126576413Y-111066787D01*
X126570390Y-111060333D01*
X126564321Y-111054249D01*
X126558213Y-111048536D01*
X126552075Y-111043199D01*
X126545914Y-111038240D01*
X126539739Y-111033663D01*
X126533557Y-111029471D01*
X126527377Y-111025667D01*
X126521205Y-111022254D01*
X126515051Y-111019235D01*
X126508921Y-111016614D01*
X126502824Y-111014394D01*
X126496768Y-111012578D01*
X126490761Y-111011169D01*
X126484810Y-111010171D01*
X126478923Y-111009586D01*
X126473109Y-111009418D01*
X126464227Y-111009992D01*
X126455569Y-111011595D01*
X126447165Y-111014238D01*
X126439045Y-111017933D01*
X126431238Y-111022692D01*
X126423773Y-111028527D01*
X126416681Y-111035451D01*
X126409991Y-111043473D01*
X126403733Y-111052608D01*
X126397937Y-111062867D01*
X126392631Y-111074261D01*
X126387847Y-111086803D01*
X126383612Y-111100505D01*
X126379958Y-111115378D01*
X126376914Y-111131434D01*
X126374510Y-111148686D01*
X126374597Y-111161086D01*
X126375447Y-111174049D01*
X126377000Y-111187582D01*
X126379199Y-111201688D01*
X126385306Y-111231643D01*
X126393307Y-111263953D01*
X126413145Y-111335803D01*
X126424059Y-111375422D01*
X126435023Y-111417558D01*
X126450408Y-111510502D01*
X126465023Y-111606213D01*
X126477455Y-111701876D01*
X126482411Y-111748810D01*
X126486292Y-111794678D01*
X126488921Y-111839126D01*
X126490122Y-111881803D01*
X126489718Y-111922358D01*
X126487533Y-111960438D01*
X126483390Y-111995692D01*
X126477113Y-112027769D01*
X126468526Y-112056315D01*
X126463310Y-112069155D01*
X126457450Y-112080980D01*
X126452029Y-112088178D01*
X126446263Y-112094820D01*
X126440174Y-112100913D01*
X126433786Y-112106459D01*
X126427121Y-112111465D01*
X126420201Y-112115933D01*
X126413050Y-112119869D01*
X126405689Y-112123277D01*
X126398143Y-112126161D01*
X126390432Y-112128525D01*
X126382580Y-112130375D01*
X126374610Y-112131715D01*
X126366544Y-112132549D01*
X126358405Y-112132881D01*
X126350216Y-112132716D01*
X126341998Y-112132058D01*
X126333776Y-112130912D01*
X126325571Y-112129282D01*
X126317406Y-112127173D01*
X126309303Y-112124588D01*
X126301286Y-112121534D01*
X126293378Y-112118013D01*
X126285600Y-112114030D01*
X126277975Y-112109590D01*
X126270526Y-112104697D01*
X126263276Y-112099356D01*
X126256248Y-112093571D01*
X126249463Y-112087346D01*
X126242945Y-112080686D01*
X126236716Y-112073595D01*
X126230799Y-112066078D01*
X126225217Y-112058139D01*
X126205843Y-112014592D01*
X126187151Y-111965120D01*
X126169112Y-111910730D01*
X126151696Y-111852434D01*
X126118619Y-111728155D01*
X126087687Y-111600355D01*
X126058666Y-111477107D01*
X126031322Y-111366483D01*
X126018207Y-111318428D01*
X126005423Y-111276557D01*
X125992942Y-111241878D01*
X125980735Y-111215400D01*
X125972616Y-111201876D01*
X125964191Y-111189712D01*
X125955498Y-111178876D01*
X125946579Y-111169333D01*
X125937473Y-111161050D01*
X125928221Y-111153995D01*
X125918862Y-111148132D01*
X125909436Y-111143429D01*
X125899984Y-111139853D01*
X125890545Y-111137369D01*
X125881160Y-111135944D01*
X125871868Y-111135544D01*
X125862709Y-111136137D01*
X125853724Y-111137688D01*
X125844952Y-111140165D01*
X125836434Y-111143532D01*
X125828209Y-111147758D01*
X125820318Y-111152809D01*
X125812800Y-111158650D01*
X125805695Y-111165249D01*
X125799045Y-111172571D01*
X125792887Y-111180584D01*
X125787264Y-111189254D01*
X125782213Y-111198548D01*
X125777777Y-111208431D01*
X125773993Y-111218870D01*
X125770904Y-111229832D01*
X125768548Y-111241284D01*
X125766966Y-111253191D01*
X125766197Y-111265521D01*
X122591301Y-111265521D01*
X122591709Y-111248993D01*
X122591278Y-111205116D01*
X122592468Y-111189536D01*
X122592859Y-111174158D01*
X122592482Y-111159002D01*
X122591367Y-111144088D01*
X122589543Y-111129434D01*
X122587039Y-111115061D01*
X122583886Y-111100988D01*
X122580113Y-111087234D01*
X122575750Y-111073819D01*
X122570826Y-111060762D01*
X122565371Y-111048084D01*
X122559415Y-111035802D01*
X122552987Y-111023937D01*
X122546117Y-111012509D01*
X122538834Y-111001536D01*
X122531169Y-110991038D01*
X122523150Y-110981035D01*
X122514808Y-110971546D01*
X122506172Y-110962590D01*
X122501221Y-110957916D01*
X126850907Y-110957916D01*
X126851020Y-110963327D01*
X126851898Y-110973972D01*
X126853415Y-110984402D01*
X126855294Y-110994640D01*
X126859028Y-111014637D01*
X126994562Y-111458262D01*
X127088461Y-111778640D01*
X127119918Y-111895177D01*
X127129020Y-111933996D01*
X127132655Y-111956595D01*
X127133444Y-111959985D01*
X127134850Y-111963158D01*
X127136850Y-111966118D01*
X127139425Y-111968864D01*
X127142554Y-111971399D01*
X127146214Y-111973722D01*
X127155045Y-111977742D01*
X127165749Y-111980933D01*
X127178159Y-111983304D01*
X127192104Y-111984866D01*
X127207415Y-111985627D01*
X127223923Y-111985597D01*
X127241460Y-111984785D01*
X127259855Y-111983202D01*
X127278939Y-111980856D01*
X127298545Y-111977757D01*
X127318501Y-111973914D01*
X127338639Y-111969338D01*
X127358791Y-111964037D01*
X127416725Y-111943443D01*
X127471137Y-111921402D01*
X127521953Y-111897994D01*
X127545990Y-111885802D01*
X127569100Y-111873298D01*
X127591274Y-111860493D01*
X127612503Y-111847395D01*
X127632778Y-111834016D01*
X127652089Y-111820364D01*
X127670427Y-111806450D01*
X127687783Y-111792285D01*
X127704148Y-111777877D01*
X127719512Y-111763237D01*
X127733866Y-111748375D01*
X127747201Y-111733301D01*
X127759508Y-111718024D01*
X127770777Y-111702555D01*
X127780999Y-111686904D01*
X127790165Y-111671081D01*
X127798266Y-111655095D01*
X127805292Y-111638957D01*
X127811235Y-111622677D01*
X127816084Y-111606264D01*
X127819831Y-111589728D01*
X127822467Y-111573080D01*
X127823981Y-111556330D01*
X127824366Y-111539487D01*
X127823611Y-111522562D01*
X127821708Y-111505563D01*
X127815874Y-111472024D01*
X127808329Y-111439610D01*
X127803933Y-111423863D01*
X127799131Y-111408442D01*
X127793928Y-111393362D01*
X127788333Y-111378638D01*
X127782353Y-111364285D01*
X127775993Y-111350319D01*
X127769262Y-111336754D01*
X127762166Y-111323605D01*
X127754713Y-111310888D01*
X127746908Y-111298616D01*
X127738760Y-111286806D01*
X127730275Y-111275472D01*
X127721460Y-111264629D01*
X127712322Y-111254292D01*
X127702868Y-111244476D01*
X127693105Y-111235196D01*
X127683040Y-111226468D01*
X127672680Y-111218305D01*
X127662032Y-111210724D01*
X127651103Y-111203739D01*
X127639900Y-111197364D01*
X127628429Y-111191616D01*
X127616698Y-111186509D01*
X127604715Y-111182058D01*
X127592484Y-111178278D01*
X127580015Y-111175184D01*
X127567313Y-111172791D01*
X127554386Y-111171113D01*
X127561311Y-111156559D01*
X127568938Y-111139497D01*
X127578425Y-111116915D01*
X127589087Y-111089569D01*
X127600237Y-111058210D01*
X127611189Y-111023594D01*
X127616376Y-111005300D01*
X127621256Y-110986473D01*
X127623075Y-110975459D01*
X127624471Y-110964354D01*
X127625452Y-110953177D01*
X127626025Y-110941946D01*
X127626200Y-110930683D01*
X127625985Y-110919405D01*
X127625387Y-110908132D01*
X127624416Y-110896883D01*
X127621385Y-110874536D01*
X127616958Y-110852517D01*
X127611202Y-110830981D01*
X127604183Y-110810082D01*
X127595966Y-110789974D01*
X127586620Y-110770811D01*
X127576209Y-110752748D01*
X127570625Y-110744177D01*
X127564800Y-110735938D01*
X127558742Y-110728052D01*
X127552460Y-110720537D01*
X127545961Y-110713412D01*
X127539254Y-110706697D01*
X127532348Y-110700412D01*
X127525250Y-110694574D01*
X127517969Y-110689204D01*
X127510513Y-110684322D01*
X127504044Y-110682068D01*
X127497518Y-110679958D01*
X127490935Y-110677992D01*
X127484294Y-110676170D01*
X127477594Y-110674491D01*
X127470836Y-110672956D01*
X127457142Y-110670315D01*
X127443207Y-110668246D01*
X127429028Y-110666748D01*
X127414602Y-110665820D01*
X127399926Y-110665460D01*
X127377432Y-110665983D01*
X127354354Y-110667782D01*
X127330677Y-110670854D01*
X127306390Y-110675195D01*
X127281480Y-110680801D01*
X127255935Y-110687670D01*
X127229742Y-110695799D01*
X127202889Y-110705183D01*
X127175363Y-110715821D01*
X127147151Y-110727708D01*
X127118242Y-110740841D01*
X127088623Y-110755217D01*
X127058281Y-110770833D01*
X127027204Y-110787686D01*
X126995380Y-110805772D01*
X126962795Y-110825088D01*
X126950096Y-110832455D01*
X126938354Y-110839699D01*
X126927533Y-110846822D01*
X126917600Y-110853829D01*
X126908519Y-110860721D01*
X126900256Y-110867502D01*
X126892776Y-110874174D01*
X126886045Y-110880741D01*
X126880028Y-110887207D01*
X126874691Y-110893573D01*
X126869998Y-110899842D01*
X126865915Y-110906019D01*
X126862408Y-110912106D01*
X126859441Y-110918105D01*
X126856981Y-110924021D01*
X126854992Y-110929855D01*
X126853440Y-110935611D01*
X126852290Y-110941292D01*
X126851508Y-110946902D01*
X126851058Y-110952442D01*
X126850907Y-110957916D01*
X122501221Y-110957916D01*
X122497272Y-110954188D01*
X122488137Y-110946358D01*
X122478797Y-110939120D01*
X122469282Y-110932494D01*
X122459621Y-110926498D01*
X122449844Y-110921153D01*
X122439980Y-110916478D01*
X122430060Y-110912492D01*
X122420113Y-110909215D01*
X122410168Y-110906666D01*
X122400256Y-110904865D01*
X122390405Y-110903831D01*
X122380645Y-110903584D01*
X122380645Y-110903585D01*
X122371878Y-110904060D01*
X122363232Y-110905217D01*
X122354732Y-110907069D01*
X122346399Y-110909632D01*
X122338254Y-110912921D01*
X122330322Y-110916949D01*
X122326442Y-110919245D01*
X122322623Y-110921731D01*
X122318868Y-110924409D01*
X122315180Y-110927281D01*
X122311562Y-110930350D01*
X122308016Y-110933615D01*
X122304545Y-110937080D01*
X122301152Y-110940747D01*
X122297839Y-110944616D01*
X122294610Y-110948690D01*
X122288414Y-110957461D01*
X122282586Y-110967072D01*
X122277146Y-110977539D01*
X122272119Y-110988876D01*
X122267526Y-111001098D01*
X122253518Y-111050661D01*
X122243303Y-111100859D01*
X122236124Y-111152000D01*
X122231221Y-111204391D01*
X122219208Y-111432608D01*
X122214312Y-111495861D01*
X122207142Y-111562208D01*
X122196939Y-111631957D01*
X122182946Y-111705415D01*
X122164403Y-111782889D01*
X122140552Y-111864687D01*
X122110636Y-111951115D01*
X122073894Y-112042482D01*
X122063430Y-112066550D01*
X122051489Y-112092578D01*
X122024263Y-112148788D01*
X121994391Y-112207660D01*
X121964052Y-112265741D01*
X121881555Y-112421115D01*
X121871413Y-112442033D01*
X121863329Y-112462326D01*
X121857241Y-112481916D01*
X121853088Y-112500722D01*
X121850808Y-112518665D01*
X121850339Y-112535665D01*
X119264236Y-112535665D01*
X118955543Y-112452377D01*
X118501896Y-112339121D01*
X118294046Y-112292034D01*
X118096996Y-112251338D01*
X117909357Y-112217056D01*
X117729743Y-112189210D01*
X117556765Y-112167825D01*
X117389035Y-112152922D01*
X117225166Y-112144524D01*
X117063771Y-112142655D01*
X116903462Y-112147338D01*
X116742850Y-112158594D01*
X116580549Y-112176448D01*
X116415170Y-112200921D01*
X116413374Y-112201160D01*
X116411600Y-112201279D01*
X116409849Y-112201283D01*
X116408126Y-112201173D01*
X116406435Y-112200955D01*
X116404777Y-112200632D01*
X116403158Y-112200208D01*
X116401580Y-112199686D01*
X116400047Y-112199070D01*
X116398563Y-112198364D01*
X116397129Y-112197571D01*
X116395751Y-112196695D01*
X116394431Y-112195741D01*
X116393173Y-112194711D01*
X116391980Y-112193609D01*
X116390856Y-112192439D01*
X116389804Y-112191205D01*
X116388828Y-112189910D01*
X116387930Y-112188558D01*
X116387115Y-112187153D01*
X116386385Y-112185699D01*
X116385744Y-112184198D01*
X116385196Y-112182656D01*
X116384744Y-112181075D01*
X116384392Y-112179459D01*
X116384142Y-112177812D01*
X116383998Y-112176138D01*
X116383964Y-112174441D01*
X116384043Y-112172723D01*
X116384238Y-112170989D01*
X116384553Y-112169242D01*
X116384991Y-112167487D01*
X116628241Y-111313274D01*
X117802147Y-111313274D01*
X117803595Y-111346589D01*
X117808021Y-111376046D01*
X117815212Y-111401762D01*
X117824959Y-111423855D01*
X117837048Y-111442442D01*
X117851268Y-111457641D01*
X117867408Y-111469569D01*
X117885256Y-111478343D01*
X117904601Y-111484081D01*
X117925230Y-111486900D01*
X117946932Y-111486917D01*
X117969496Y-111484251D01*
X117992709Y-111479018D01*
X118016361Y-111471336D01*
X118040240Y-111461322D01*
X118064133Y-111449093D01*
X118087830Y-111434768D01*
X118111118Y-111418463D01*
X118133787Y-111400295D01*
X118155624Y-111380383D01*
X118176418Y-111358843D01*
X118195957Y-111335793D01*
X118214030Y-111311350D01*
X118230424Y-111285632D01*
X118244929Y-111258757D01*
X118307942Y-111138027D01*
X118363418Y-111029866D01*
X118417942Y-110922085D01*
X118869542Y-111095201D01*
X118846715Y-111219294D01*
X118823179Y-111340497D01*
X118796007Y-111470992D01*
X118784308Y-111510924D01*
X118775707Y-111548000D01*
X118770047Y-111582262D01*
X118767173Y-111613748D01*
X118766927Y-111642500D01*
X118769153Y-111668559D01*
X118773694Y-111691964D01*
X118780395Y-111712756D01*
X118789099Y-111730977D01*
X118799648Y-111746666D01*
X118811887Y-111759863D01*
X118825660Y-111770610D01*
X118840809Y-111778947D01*
X118857178Y-111784914D01*
X118874611Y-111788553D01*
X118892951Y-111789902D01*
X118912042Y-111789004D01*
X118931727Y-111785898D01*
X118935495Y-111784910D01*
X119442785Y-111784910D01*
X119442868Y-111803741D01*
X119444809Y-111821548D01*
X119448538Y-111838190D01*
X119453988Y-111853526D01*
X119461092Y-111867418D01*
X119469783Y-111879724D01*
X119479992Y-111890305D01*
X119491651Y-111899019D01*
X119504694Y-111905727D01*
X119519053Y-111910289D01*
X119534660Y-111912563D01*
X119551447Y-111912411D01*
X119569346Y-111909691D01*
X119588291Y-111904263D01*
X119608213Y-111895988D01*
X119629045Y-111884724D01*
X119650720Y-111870332D01*
X119673169Y-111852671D01*
X119696324Y-111831601D01*
X119720120Y-111806982D01*
X119744487Y-111778673D01*
X119769358Y-111746535D01*
X119794665Y-111710426D01*
X119820341Y-111670207D01*
X119846319Y-111625737D01*
X119872530Y-111576877D01*
X120229614Y-111616771D01*
X120197275Y-111713359D01*
X120164717Y-111814918D01*
X120128225Y-111934943D01*
X120119502Y-111959997D01*
X120112918Y-111983712D01*
X120108382Y-112006073D01*
X120105802Y-112027066D01*
X120105086Y-112046677D01*
X120106143Y-112064893D01*
X120108882Y-112081700D01*
X120113212Y-112097084D01*
X120119040Y-112111031D01*
X120126276Y-112123527D01*
X120134828Y-112134559D01*
X120144604Y-112144112D01*
X120155514Y-112152173D01*
X120167466Y-112158727D01*
X120180368Y-112163762D01*
X120194129Y-112167262D01*
X120208657Y-112169215D01*
X120223862Y-112169606D01*
X120239651Y-112168422D01*
X120255934Y-112165649D01*
X120272619Y-112161272D01*
X120289614Y-112155279D01*
X120306828Y-112147654D01*
X120324169Y-112138385D01*
X120341547Y-112127458D01*
X120358870Y-112114858D01*
X120376045Y-112100572D01*
X120392983Y-112084585D01*
X120409592Y-112066885D01*
X120425779Y-112047457D01*
X120441454Y-112026287D01*
X120456525Y-112003362D01*
X120467430Y-111980134D01*
X120482417Y-111937041D01*
X120519733Y-111804054D01*
X120871348Y-111804054D01*
X120872493Y-111860379D01*
X120875999Y-111918421D01*
X120882293Y-111977374D01*
X120891801Y-112036436D01*
X120904951Y-112094804D01*
X120922170Y-112151675D01*
X120943885Y-112206244D01*
X120955315Y-112231078D01*
X120967648Y-112254366D01*
X120980813Y-112276160D01*
X120994736Y-112296510D01*
X121009346Y-112315468D01*
X121024571Y-112333085D01*
X121040338Y-112349411D01*
X121056574Y-112364498D01*
X121073208Y-112378397D01*
X121090166Y-112391158D01*
X121107378Y-112402833D01*
X121124770Y-112413473D01*
X121142271Y-112423128D01*
X121159807Y-112431850D01*
X121177306Y-112439689D01*
X121194697Y-112446697D01*
X121228864Y-112458423D01*
X121261727Y-112467434D01*
X121292710Y-112474141D01*
X121321232Y-112478949D01*
X121368584Y-112484504D01*
X121399155Y-112487364D01*
X121428064Y-112477960D01*
X121454532Y-112467928D01*
X121478648Y-112457325D01*
X121500501Y-112446212D01*
X121520181Y-112434648D01*
X121537775Y-112422692D01*
X121553374Y-112410404D01*
X121567067Y-112397844D01*
X121578943Y-112385071D01*
X121589091Y-112372145D01*
X121597600Y-112359124D01*
X121604560Y-112346069D01*
X121610059Y-112333040D01*
X121614187Y-112320095D01*
X121617033Y-112307294D01*
X121618686Y-112294696D01*
X121619236Y-112282362D01*
X121618771Y-112270351D01*
X121617380Y-112258722D01*
X121615154Y-112247534D01*
X121612181Y-112236848D01*
X121608550Y-112226722D01*
X121604350Y-112217217D01*
X121599671Y-112208391D01*
X121594602Y-112200305D01*
X121589232Y-112193017D01*
X121583650Y-112186588D01*
X121577945Y-112181076D01*
X121572207Y-112176542D01*
X121566524Y-112173045D01*
X121560986Y-112170644D01*
X121555683Y-112169399D01*
X121528335Y-112168590D01*
X121499155Y-112168149D01*
X121468648Y-112167029D01*
X121453056Y-112165889D01*
X121437322Y-112164188D01*
X121421510Y-112161795D01*
X121405682Y-112158581D01*
X121389902Y-112154414D01*
X121374234Y-112149164D01*
X121358741Y-112142701D01*
X121351079Y-112138973D01*
X121343485Y-112134893D01*
X121335966Y-112130445D01*
X121328531Y-112125612D01*
X121321186Y-112120377D01*
X121313941Y-112114725D01*
X121302189Y-112104431D01*
X121291308Y-112093244D01*
X121281271Y-112081215D01*
X121272051Y-112068398D01*
X121263620Y-112054844D01*
X121255951Y-112040604D01*
X121249018Y-112025732D01*
X121242794Y-112010279D01*
X121232360Y-111977839D01*
X121224433Y-111943700D01*
X121218797Y-111908280D01*
X121215233Y-111871995D01*
X121213524Y-111835260D01*
X121213455Y-111798494D01*
X121214807Y-111762112D01*
X121217363Y-111726530D01*
X121220906Y-111692166D01*
X121225220Y-111659436D01*
X121235289Y-111600545D01*
X121264002Y-111500768D01*
X121281194Y-111445584D01*
X121300290Y-111388497D01*
X121321300Y-111330724D01*
X121344236Y-111273485D01*
X121369107Y-111218000D01*
X121395924Y-111165487D01*
X121410066Y-111140727D01*
X121424698Y-111117167D01*
X121439822Y-111094960D01*
X121455439Y-111074258D01*
X121471550Y-111055213D01*
X121488157Y-111037979D01*
X121505260Y-111022708D01*
X121522862Y-111009551D01*
X121540964Y-110998661D01*
X121559566Y-110990191D01*
X121578671Y-110984294D01*
X121598279Y-110981120D01*
X121618392Y-110980824D01*
X121639012Y-110983557D01*
X121660138Y-110989472D01*
X121681773Y-110998721D01*
X121694786Y-111014751D01*
X121707549Y-111029299D01*
X121720054Y-111042415D01*
X121732297Y-111054150D01*
X121744272Y-111064552D01*
X121755973Y-111073672D01*
X121767395Y-111081558D01*
X121778531Y-111088261D01*
X121789376Y-111093830D01*
X121799923Y-111098315D01*
X121810168Y-111101765D01*
X121820105Y-111104231D01*
X121829727Y-111105761D01*
X121839029Y-111106406D01*
X121848006Y-111106214D01*
X121856651Y-111105237D01*
X121864958Y-111103522D01*
X121872922Y-111101121D01*
X121880538Y-111098082D01*
X121887799Y-111094456D01*
X121894699Y-111090291D01*
X121901234Y-111085638D01*
X121907396Y-111080546D01*
X121913181Y-111075065D01*
X121918582Y-111069245D01*
X121923594Y-111063134D01*
X121928211Y-111056784D01*
X121932427Y-111050242D01*
X121936236Y-111043560D01*
X121939634Y-111036786D01*
X121942613Y-111029971D01*
X121945168Y-111023164D01*
X121948891Y-111011212D01*
X121951861Y-110998485D01*
X121954062Y-110985059D01*
X121955480Y-110971012D01*
X121956100Y-110956422D01*
X121955907Y-110941364D01*
X121954886Y-110925918D01*
X121953023Y-110910159D01*
X121950303Y-110894165D01*
X121946711Y-110878014D01*
X121942232Y-110861782D01*
X121936851Y-110845547D01*
X121930554Y-110829386D01*
X121923326Y-110813377D01*
X121915152Y-110797596D01*
X121906017Y-110782121D01*
X121895907Y-110767029D01*
X121884806Y-110752398D01*
X121872700Y-110738304D01*
X121859574Y-110724825D01*
X121845414Y-110712038D01*
X121830204Y-110700021D01*
X121813930Y-110688850D01*
X121796576Y-110678603D01*
X121778129Y-110669357D01*
X121758573Y-110661190D01*
X121737893Y-110654178D01*
X121716076Y-110648399D01*
X121693105Y-110643930D01*
X121668966Y-110640848D01*
X121643645Y-110639231D01*
X121617126Y-110639156D01*
X121609851Y-110639407D01*
X121602492Y-110639777D01*
X121595047Y-110640266D01*
X121587516Y-110640875D01*
X121579898Y-110641606D01*
X121572191Y-110642458D01*
X121564395Y-110643432D01*
X121556509Y-110644530D01*
X121511493Y-110647315D01*
X121468328Y-110654797D01*
X121426986Y-110666662D01*
X121387439Y-110682598D01*
X121349660Y-110702289D01*
X121313621Y-110725422D01*
X121279295Y-110751683D01*
X121246653Y-110780759D01*
X121215669Y-110812335D01*
X121186314Y-110846098D01*
X121158561Y-110881733D01*
X121132383Y-110918928D01*
X121107750Y-110957367D01*
X121084637Y-110996738D01*
X121042857Y-111077017D01*
X121006820Y-111157255D01*
X120976306Y-111234941D01*
X120951093Y-111307564D01*
X120930961Y-111372614D01*
X120905051Y-111469947D01*
X120896808Y-111506855D01*
X120886085Y-111576271D01*
X120877806Y-111653402D01*
X120872136Y-111750247D01*
X120871348Y-111804054D01*
X120519733Y-111804054D01*
X120521036Y-111799413D01*
X120565174Y-111606787D01*
X120607622Y-111375472D01*
X120625961Y-111250403D01*
X120641174Y-111121777D01*
X120652360Y-110991634D01*
X120658619Y-110862012D01*
X120659050Y-110734950D01*
X120652751Y-110612486D01*
X120638822Y-110496659D01*
X120616360Y-110389507D01*
X120607954Y-110373981D01*
X120599272Y-110358501D01*
X120590358Y-110343194D01*
X120581253Y-110328186D01*
X120571999Y-110313603D01*
X120562638Y-110299570D01*
X120553213Y-110286214D01*
X120543766Y-110273660D01*
X120534339Y-110262034D01*
X120524973Y-110251462D01*
X120515712Y-110242071D01*
X120511134Y-110237857D01*
X120506597Y-110233985D01*
X120502108Y-110230471D01*
X120497671Y-110227331D01*
X120493291Y-110224580D01*
X120488974Y-110222235D01*
X120484726Y-110220310D01*
X120480551Y-110218822D01*
X120476454Y-110217786D01*
X120472442Y-110217218D01*
X120467821Y-110216758D01*
X120463157Y-110216364D01*
X120458445Y-110216049D01*
X120453683Y-110215823D01*
X120435419Y-110215782D01*
X120416583Y-110217100D01*
X120397239Y-110219948D01*
X120377447Y-110224497D01*
X120357268Y-110230917D01*
X120336765Y-110239380D01*
X120315998Y-110250056D01*
X120295030Y-110263117D01*
X120273922Y-110278733D01*
X120263334Y-110287552D01*
X120252734Y-110297075D01*
X120242130Y-110307321D01*
X120231529Y-110318314D01*
X120220940Y-110330073D01*
X120210369Y-110342621D01*
X120199824Y-110355978D01*
X120189314Y-110370167D01*
X120178845Y-110385208D01*
X120168426Y-110401122D01*
X120158064Y-110417932D01*
X120147767Y-110435659D01*
X120127398Y-110473947D01*
X119983304Y-110748670D01*
X119806239Y-111076851D01*
X119629170Y-111399660D01*
X119485060Y-111658267D01*
X119472584Y-111680299D01*
X119462370Y-111702148D01*
X119454350Y-111723674D01*
X119448458Y-111744736D01*
X119444626Y-111765195D01*
X119442785Y-111784910D01*
X118935495Y-111784910D01*
X118951849Y-111780625D01*
X118972254Y-111773226D01*
X118992782Y-111763740D01*
X119013280Y-111752209D01*
X119033589Y-111738673D01*
X119053553Y-111723173D01*
X119073016Y-111705749D01*
X119091822Y-111686441D01*
X119109813Y-111665291D01*
X119126834Y-111642338D01*
X119142728Y-111617624D01*
X119157338Y-111591188D01*
X119170508Y-111563071D01*
X119182081Y-111533314D01*
X119353419Y-110990308D01*
X119408448Y-110805560D01*
X119459961Y-110621424D01*
X119503761Y-110448004D01*
X119535651Y-110295405D01*
X119543639Y-110273274D01*
X119549185Y-110251370D01*
X119552402Y-110229798D01*
X119553404Y-110208666D01*
X119552305Y-110188077D01*
X119549219Y-110168139D01*
X119544259Y-110148957D01*
X119537539Y-110130638D01*
X119529172Y-110113287D01*
X119519274Y-110097009D01*
X119507956Y-110081912D01*
X119495333Y-110068101D01*
X119481519Y-110055681D01*
X119466627Y-110044759D01*
X119450771Y-110035441D01*
X119434065Y-110027832D01*
X119416623Y-110022039D01*
X119398558Y-110018167D01*
X119379983Y-110016323D01*
X119361014Y-110016611D01*
X119341763Y-110019139D01*
X119322344Y-110024012D01*
X119302871Y-110031336D01*
X119283458Y-110041217D01*
X119264218Y-110053761D01*
X119245265Y-110069073D01*
X119226713Y-110087260D01*
X119208675Y-110108427D01*
X119191266Y-110132681D01*
X119174598Y-110160128D01*
X119158786Y-110190872D01*
X119143944Y-110225021D01*
X119128082Y-110253292D01*
X119111295Y-110284795D01*
X119076021Y-110354709D01*
X119040272Y-110429182D01*
X119006200Y-110502631D01*
X118951688Y-110624131D01*
X118929693Y-110674555D01*
X118742764Y-110603833D01*
X118673801Y-110576771D01*
X118613315Y-110552060D01*
X118569989Y-110532753D01*
X118557475Y-110526080D01*
X118553980Y-110523655D01*
X118552507Y-110521902D01*
X118551316Y-110518170D01*
X118550459Y-110514099D01*
X118549669Y-110504989D01*
X118549987Y-110494667D01*
X118551260Y-110483233D01*
X118553336Y-110470781D01*
X118556062Y-110457410D01*
X118562858Y-110428298D01*
X118570430Y-110396672D01*
X118577561Y-110363309D01*
X118580581Y-110346218D01*
X118583034Y-110328984D01*
X118584769Y-110311704D01*
X118585632Y-110294475D01*
X118584109Y-110261697D01*
X118581950Y-110230176D01*
X118579176Y-110199895D01*
X118575811Y-110170840D01*
X118571877Y-110142994D01*
X118567396Y-110116344D01*
X118562390Y-110090873D01*
X118556882Y-110066565D01*
X118550894Y-110043407D01*
X118544449Y-110021382D01*
X118537568Y-110000475D01*
X118530275Y-109980670D01*
X118522591Y-109961953D01*
X118514540Y-109944308D01*
X118506142Y-109927720D01*
X118497421Y-109912173D01*
X118488400Y-109897652D01*
X118479099Y-109884142D01*
X118469542Y-109871627D01*
X118459752Y-109860093D01*
X118449750Y-109849523D01*
X118439558Y-109839902D01*
X118429200Y-109831216D01*
X118418698Y-109823448D01*
X118408073Y-109816584D01*
X118397348Y-109810607D01*
X118386547Y-109805504D01*
X118375690Y-109801258D01*
X118364800Y-109797854D01*
X118353900Y-109795277D01*
X118343012Y-109793511D01*
X118332159Y-109792541D01*
X118323756Y-109792328D01*
X118315397Y-109792579D01*
X118307095Y-109793288D01*
X118298858Y-109794448D01*
X118290698Y-109796051D01*
X118282625Y-109798090D01*
X118274650Y-109800558D01*
X118266782Y-109803448D01*
X118259034Y-109806752D01*
X118251414Y-109810464D01*
X118243934Y-109814576D01*
X118236604Y-109819080D01*
X118229435Y-109823970D01*
X118222436Y-109829238D01*
X118215620Y-109834878D01*
X118208995Y-109840881D01*
X118202573Y-109847241D01*
X118196365Y-109853951D01*
X118190379Y-109861003D01*
X118184628Y-109868390D01*
X118179122Y-109876105D01*
X118173871Y-109884140D01*
X118168885Y-109892489D01*
X118164175Y-109901144D01*
X118159753Y-109910098D01*
X118155627Y-109919344D01*
X118151809Y-109928874D01*
X118148309Y-109938682D01*
X118145138Y-109948759D01*
X118142305Y-109959100D01*
X118139823Y-109969696D01*
X118137701Y-109980540D01*
X118104608Y-110155732D01*
X118082281Y-110262141D01*
X118055445Y-110380421D01*
X118023607Y-110510069D01*
X117986276Y-110650581D01*
X117942961Y-110801454D01*
X117893168Y-110962186D01*
X117867846Y-111025793D01*
X117846982Y-111084721D01*
X117830367Y-111139087D01*
X117817787Y-111189008D01*
X117809032Y-111234601D01*
X117803889Y-111275984D01*
X117802147Y-111313274D01*
X116628241Y-111313274D01*
X116730603Y-110953814D01*
X117402448Y-109415665D01*
X117402806Y-109414873D01*
X117403180Y-109414102D01*
X117403570Y-109413351D01*
X117403977Y-109412621D01*
X117404404Y-109411912D01*
X117404850Y-109411222D01*
X117405318Y-109410552D01*
X117405808Y-109409902D01*
X117406321Y-109409272D01*
X117406859Y-109408660D01*
X117407422Y-109408067D01*
X117408012Y-109407494D01*
X117408631Y-109406938D01*
X117409278Y-109406401D01*
X117409956Y-109405883D01*
X117410665Y-109405382D01*
X117450387Y-109380724D01*
X117529908Y-109338790D01*
X117650503Y-109286409D01*
X117726600Y-109258436D01*
X117813443Y-109230411D01*
X117911191Y-109203190D01*
X118020003Y-109177626D01*
X118140039Y-109154573D01*
X118271457Y-109134884D01*
X118414417Y-109119413D01*
X118569078Y-109109014D01*
X118735599Y-109104541D01*
X118914139Y-109106847D01*
G37*
%TD.AperFunction*%
D11*
%TO.P,J7,1,Pin_1*%
%TO.N,GND*%
X144250000Y-105000000D03*
D12*
%TO.P,J7,2,Pin_2*%
%TO.N,Net-(J7-Pin_2)*%
X141710000Y-105000000D03*
%TO.P,J7,3,Pin_3*%
%TO.N,Net-(J7-Pin_3)*%
X139170000Y-105000000D03*
%TO.P,J7,4,Pin_4*%
%TO.N,Net-(J7-Pin_4)*%
X136630000Y-105000000D03*
%TD*%
D11*
%TO.P,J6,1,Pin_1*%
%TO.N,BCK*%
X108350000Y-97375000D03*
D12*
%TO.P,J6,2,Pin_2*%
%TO.N,SCK*%
X108350000Y-94835000D03*
%TO.P,J6,3,Pin_3*%
%TO.N,LRCK*%
X108350000Y-92295000D03*
%TD*%
D11*
%TO.P,J1,1,Pin_1*%
%TO.N,Net-(J1-Pin_1)*%
X127075000Y-84550000D03*
D12*
%TO.P,J1,2,Pin_2*%
%TO.N,Net-(J1-Pin_2)*%
X124535000Y-84550000D03*
%TD*%
D13*
%TO.P,D1,1,K*%
%TO.N,GND*%
X130250000Y-88775000D03*
%TO.P,D1,2,A*%
%TO.N,Net-(D1-A)*%
X130250000Y-86725000D03*
%TD*%
D14*
%TO.P,C6,1*%
%TO.N,Net-(U1-VNEG)*%
X124612500Y-99250000D03*
%TO.P,C6,2*%
%TO.N,GND*%
X122887500Y-99250000D03*
%TD*%
D15*
%TO.P,H2,1,1*%
%TO.N,GND*%
X106975000Y-115000000D03*
X107919581Y-112719581D03*
X107919581Y-117280419D03*
X110200000Y-111775000D03*
D16*
X110200000Y-115000000D03*
D15*
X110200000Y-118225000D03*
X112480419Y-112719581D03*
X112480419Y-117280419D03*
X113425000Y-115000000D03*
%TD*%
D17*
%TO.P,C10,1*%
%TO.N,Net-(U1-LDOO)*%
X134150000Y-98132500D03*
%TO.P,C10,2*%
%TO.N,GND*%
X134150000Y-99267500D03*
%TD*%
D15*
%TO.P,H1,1,1*%
%TO.N,GND*%
X106975000Y-86000000D03*
X107919581Y-83719581D03*
X107919581Y-88280419D03*
X110200000Y-82775000D03*
D16*
X110200000Y-86000000D03*
D15*
X110200000Y-89225000D03*
X112480419Y-83719581D03*
X112480419Y-88280419D03*
X113425000Y-86000000D03*
%TD*%
D11*
%TO.P,J5,1,Pin_1*%
%TO.N,Net-(J5-Pin_1)*%
X108350000Y-107475500D03*
%TD*%
D18*
%TO.P,C7,1*%
%TO.N,+3.3V*%
X124067500Y-94600000D03*
%TO.P,C7,2*%
%TO.N,GND*%
X122932500Y-94600000D03*
%TD*%
%TO.P,C17,1*%
%TO.N,Net-(U2-VREF)*%
X121367500Y-94600000D03*
%TO.P,C17,2*%
%TO.N,GND*%
X120232500Y-94600000D03*
%TD*%
D19*
%TO.P,J2,1*%
%TO.N,GND*%
X133000000Y-83750000D03*
%TO.P,J2,2*%
%TO.N,Net-(J3-Pin_2)*%
X141100000Y-90250000D03*
%TO.P,J2,3*%
%TO.N,Net-(J3-Pin_3)*%
X138100000Y-90250000D03*
%TO.P,J2,4*%
%TO.N,Net-(J3-Pin_4)*%
X134100000Y-90250000D03*
%TD*%
D17*
%TO.P,C3,1*%
%TO.N,+3.3V*%
X124950000Y-100682500D03*
%TO.P,C3,2*%
%TO.N,GND*%
X124950000Y-101817500D03*
%TD*%
D20*
%TO.P,C4,1*%
%TO.N,Net-(U1-LDOO)*%
X134150000Y-96967500D03*
%TO.P,C4,2*%
%TO.N,GND*%
X134150000Y-95832500D03*
%TD*%
D21*
%TO.P,C14,1*%
%TO.N,+5V*%
X115474772Y-87375602D03*
%TO.P,C14,2*%
%TO.N,GND*%
X115175228Y-89074398D03*
%TD*%
D22*
%TO.P,C22,1*%
%TO.N,Net-(C20-Pad1)*%
X131712500Y-104850000D03*
%TO.P,C22,2*%
%TO.N,GND*%
X133787500Y-104850000D03*
%TD*%
D23*
%TO.P,C5,1*%
%TO.N,Net-(U1-CAPP)*%
X122887500Y-97600000D03*
%TO.P,C5,2*%
%TO.N,Net-(U1-CAPM)*%
X124612500Y-97600000D03*
%TD*%
D11*
%TO.P,J10,1,Pin_1*%
%TO.N,+5V*%
X116975000Y-84550000D03*
D12*
%TO.P,J10,2,Pin_2*%
%TO.N,+3.3V*%
X119515000Y-84550000D03*
%TO.P,J10,3,Pin_3*%
%TO.N,GND*%
X122055000Y-84550000D03*
%TD*%
D24*
%TO.P,U2,1,VREF*%
%TO.N,Net-(U2-VREF)*%
X121000001Y-97941700D03*
%TO.P,U2,2,AGND*%
%TO.N,GND*%
X120350000Y-97941700D03*
%TO.P,U2,3,VCC*%
%TO.N,+5V*%
X119699999Y-97941700D03*
%TO.P,U2,4,VDD*%
%TO.N,+3.3V*%
X119050000Y-97941700D03*
%TO.P,U2,5,DGND*%
%TO.N,GND*%
X118400001Y-97941700D03*
%TO.P,U2,6,SCKI*%
%TO.N,SCK*%
X117750000Y-97941700D03*
%TO.P,U2,7,LRCK*%
%TO.N,LRCK*%
X117100001Y-97941700D03*
%TO.P,U2,8,BCK*%
%TO.N,BCK*%
X117099999Y-103580500D03*
%TO.P,U2,9,DOUT*%
%TO.N,Net-(J5-Pin_1)*%
X117750000Y-103580500D03*
%TO.P,U2,10,MD0*%
%TO.N,Net-(J9-Pin_3)*%
X118399999Y-103580500D03*
%TO.P,U2,11,MD1*%
%TO.N,Net-(J9-Pin_2)*%
X119050000Y-103580500D03*
%TO.P,U2,12,FMT*%
%TO.N,Net-(J9-Pin_1)*%
X119699999Y-103580500D03*
%TO.P,U2,13,VINL*%
%TO.N,Net-(U2-VINL)*%
X120350000Y-103580500D03*
%TO.P,U2,14,VINR*%
%TO.N,Net-(U2-VINR)*%
X120999999Y-103580500D03*
%TD*%
D25*
%TO.P,C12,1*%
%TO.N,Net-(J3-Pin_3)*%
X144650000Y-99962500D03*
%TO.P,C12,2*%
%TO.N,GND*%
X144650000Y-102037500D03*
%TD*%
D19*
%TO.P,J8,1*%
%TO.N,GND*%
X133050000Y-111750000D03*
%TO.P,J8,2*%
%TO.N,Net-(J7-Pin_2)*%
X141150000Y-118250000D03*
%TO.P,J8,3*%
%TO.N,Net-(J7-Pin_3)*%
X138150000Y-118250000D03*
%TO.P,J8,4*%
%TO.N,Net-(J7-Pin_4)*%
X134150000Y-118250000D03*
%TD*%
D25*
%TO.P,C21,1*%
%TO.N,Net-(C19-Pad1)*%
X126300000Y-106962500D03*
%TO.P,C21,2*%
%TO.N,GND*%
X126300000Y-109037500D03*
%TD*%
D26*
%TO.P,C1,1*%
%TO.N,+3.3V*%
X125332500Y-94600000D03*
%TO.P,C1,2*%
%TO.N,GND*%
X126467500Y-94600000D03*
%TD*%
%TO.P,C8,1*%
%TO.N,+3.3V*%
X130182500Y-94600000D03*
%TO.P,C8,2*%
%TO.N,GND*%
X131317500Y-94600000D03*
%TD*%
%TO.P,C13,1*%
%TO.N,+5V*%
X116462500Y-91850000D03*
%TO.P,C13,2*%
%TO.N,GND*%
X117597500Y-91850000D03*
%TD*%
D11*
%TO.P,J9,1,Pin_1*%
%TO.N,Net-(J9-Pin_1)*%
X108350000Y-99900000D03*
D12*
%TO.P,J9,2,Pin_2*%
%TO.N,Net-(J9-Pin_2)*%
X108350000Y-102440000D03*
%TO.P,J9,3,Pin_3*%
%TO.N,Net-(J9-Pin_3)*%
X108350000Y-104980000D03*
%TD*%
D18*
%TO.P,C16,1*%
%TO.N,+3.3V*%
X121467500Y-93400000D03*
%TO.P,C16,2*%
%TO.N,GND*%
X120332500Y-93400000D03*
%TD*%
D27*
%TO.P,U1,1,CPVDD*%
%TO.N,+3.3V*%
X126650001Y-96075000D03*
%TO.P,U1,2,CAPP*%
%TO.N,Net-(U1-CAPP)*%
X126650001Y-96725001D03*
%TO.P,U1,3,CPGND*%
%TO.N,GND*%
X126650001Y-97374999D03*
%TO.P,U1,4,CAPM*%
%TO.N,Net-(U1-CAPM)*%
X126650001Y-98025001D03*
%TO.P,U1,5,VNEG*%
%TO.N,Net-(U1-VNEG)*%
X126650001Y-98674999D03*
%TO.P,U1,6,OUTL*%
%TO.N,Net-(U1-OUTL)*%
X126650001Y-99325001D03*
%TO.P,U1,7,OUTR*%
%TO.N,Net-(U1-OUTR)*%
X126650001Y-99974999D03*
%TO.P,U1,8,AVDD*%
%TO.N,+3.3V*%
X126650001Y-100625001D03*
%TO.P,U1,9,AGND*%
%TO.N,GND*%
X126650001Y-101274999D03*
%TO.P,U1,10,DEMP*%
X126650001Y-101925000D03*
%TO.P,U1,11,FLT*%
X132349999Y-101925000D03*
%TO.P,U1,12,SCK*%
%TO.N,SCK*%
X132349999Y-101274999D03*
%TO.P,U1,13,BCK*%
%TO.N,BCK*%
X132349999Y-100625001D03*
%TO.P,U1,14,DIN*%
%TO.N,Net-(J1-Pin_1)*%
X132349999Y-99974999D03*
%TO.P,U1,15,LRCK*%
%TO.N,LRCK*%
X132349999Y-99325001D03*
%TO.P,U1,16,FMT*%
%TO.N,GND*%
X132349999Y-98674999D03*
%TO.P,U1,17,XSMT*%
%TO.N,Net-(J1-Pin_2)*%
X132349999Y-98025001D03*
%TO.P,U1,18,LDOO*%
%TO.N,Net-(U1-LDOO)*%
X132349999Y-97374999D03*
%TO.P,U1,19,DGND*%
%TO.N,GND*%
X132349999Y-96725001D03*
%TO.P,U1,20,DVDD*%
%TO.N,+3.3V*%
X132349999Y-96075000D03*
%TD*%
D28*
%TO.P,R3,1*%
%TO.N,Net-(U2-VINR)*%
X121802500Y-105400000D03*
%TO.P,R3,2*%
%TO.N,Net-(C19-Pad1)*%
X122997500Y-105400000D03*
%TD*%
%TO.P,R2,1*%
%TO.N,Net-(U1-OUTR)*%
X141652500Y-99600000D03*
%TO.P,R2,2*%
%TO.N,Net-(J3-Pin_3)*%
X142847500Y-99600000D03*
%TD*%
D22*
%TO.P,C19,1*%
%TO.N,Net-(C19-Pad1)*%
X127662500Y-104900000D03*
%TO.P,C19,2*%
%TO.N,Net-(J7-Pin_4)*%
X129737500Y-104900000D03*
%TD*%
D28*
%TO.P,R1,1*%
%TO.N,Net-(U1-OUTL)*%
X136902500Y-99600000D03*
%TO.P,R1,2*%
%TO.N,Net-(J3-Pin_4)*%
X138097500Y-99600000D03*
%TD*%
D14*
%TO.P,C18,1*%
%TO.N,Net-(U2-VREF)*%
X121112500Y-95950000D03*
%TO.P,C18,2*%
%TO.N,GND*%
X119387500Y-95950000D03*
%TD*%
D18*
%TO.P,C2,1*%
%TO.N,+3.3V*%
X128867500Y-94600000D03*
%TO.P,C2,2*%
%TO.N,GND*%
X127732500Y-94600000D03*
%TD*%
D22*
%TO.P,C20,1*%
%TO.N,Net-(C20-Pad1)*%
X131712500Y-107000000D03*
%TO.P,C20,2*%
%TO.N,Net-(J7-Pin_3)*%
X133787500Y-107000000D03*
%TD*%
D28*
%TO.P,R4,1*%
%TO.N,Net-(U2-VINL)*%
X130002500Y-103200000D03*
%TO.P,R4,2*%
%TO.N,Net-(C20-Pad1)*%
X131197500Y-103200000D03*
%TD*%
D11*
%TO.P,J3,1,Pin_1*%
%TO.N,GND*%
X144200000Y-97000000D03*
D12*
%TO.P,J3,2,Pin_2*%
%TO.N,Net-(J3-Pin_2)*%
X141660000Y-97000000D03*
%TO.P,J3,3,Pin_3*%
%TO.N,Net-(J3-Pin_3)*%
X139120000Y-97000000D03*
%TO.P,J3,4,Pin_4*%
%TO.N,Net-(J3-Pin_4)*%
X136580000Y-97000000D03*
%TD*%
D18*
%TO.P,C15,1*%
%TO.N,+3.3V*%
X121467500Y-92100000D03*
%TO.P,C15,2*%
%TO.N,GND*%
X120332500Y-92100000D03*
%TD*%
%TO.P,C9,1*%
%TO.N,+3.3V*%
X123817500Y-101850000D03*
%TO.P,C9,2*%
%TO.N,GND*%
X122682500Y-101850000D03*
%TD*%
D25*
%TO.P,C11,1*%
%TO.N,Net-(J3-Pin_4)*%
X139750000Y-99962500D03*
%TO.P,C11,2*%
%TO.N,GND*%
X139750000Y-102037500D03*
%TD*%
D28*
%TO.P,R5,1*%
%TO.N,+5V*%
X129802500Y-85000000D03*
%TO.P,R5,2*%
%TO.N,Net-(D1-A)*%
X130997500Y-85000000D03*
%TD*%
D29*
%TO.N,GND*%
X124200000Y-102925000D03*
X118300000Y-90600000D03*
X121950000Y-107550000D03*
X119450000Y-94250000D03*
X118350776Y-99711966D03*
X114100000Y-92150000D03*
%TO.N,+5V*%
X115970000Y-93970000D03*
X119700000Y-99400000D03*
%TO.N,Net-(J7-Pin_4)*%
X128750000Y-104850000D03*
%TO.N,Net-(J1-Pin_1)*%
X129550000Y-93300000D03*
X129500000Y-99974999D03*
%TO.N,SCK*%
X133950000Y-101600000D03*
X115777298Y-99372702D03*
%TO.N,LRCK*%
X116650000Y-99200000D03*
X128250000Y-98300000D03*
%TO.N,BCK*%
X115900000Y-100450000D03*
X115900000Y-103600000D03*
%TO.N,Net-(U1-OUTL)*%
X129950000Y-99050000D03*
X136130000Y-99400000D03*
%TO.N,Net-(U1-OUTR)*%
X128200000Y-99950000D03*
X141050000Y-100650000D03*
%TO.N,Net-(U2-VINL)*%
X124450000Y-105800000D03*
X126900000Y-103800000D03*
%TO.N,Net-(J1-Pin_2)*%
X128659616Y-92254341D03*
X130350000Y-96600000D03*
%TD*%
D30*
%TO.N,+3.3V*%
X124617500Y-100682500D02*
X124950000Y-100682500D01*
X127392500Y-96075000D02*
X126650001Y-96075000D01*
X118490000Y-96468500D02*
X119050000Y-97028500D01*
X131657500Y-96075000D02*
X130182500Y-94600000D01*
X123817500Y-101850000D02*
X123817500Y-101482500D01*
X119535000Y-91415000D02*
X119535000Y-91925000D01*
X119025000Y-97966700D02*
X119050000Y-97941700D01*
X119050000Y-97028500D02*
X119050000Y-97941700D01*
X119535000Y-91925000D02*
X118310000Y-93150000D01*
X126650001Y-96075000D02*
X126650001Y-95917501D01*
X118310000Y-96284200D02*
X118490000Y-96464200D01*
X122867500Y-93400000D02*
X124067500Y-94600000D01*
X120425000Y-100075000D02*
X119420405Y-100075000D01*
X130182500Y-94600000D02*
X128867500Y-94600000D01*
X118490000Y-96464200D02*
X118490000Y-96468500D01*
X121467500Y-92100000D02*
X120782500Y-91415000D01*
X121150000Y-100800000D02*
X120425000Y-100075000D01*
X122767500Y-100800000D02*
X121150000Y-100800000D01*
X126650001Y-95917501D02*
X125332500Y-94600000D01*
X121467500Y-93400000D02*
X122867500Y-93400000D01*
X120782500Y-91415000D02*
X119535000Y-91415000D01*
X132349999Y-96075000D02*
X131657500Y-96075000D01*
X119515000Y-91395000D02*
X119515000Y-84550000D01*
X125007499Y-100625001D02*
X126650001Y-100625001D01*
X119535000Y-91415000D02*
X119515000Y-91395000D01*
X119420405Y-100075000D02*
X119025000Y-99679595D01*
X118310000Y-93150000D02*
X118310000Y-96284200D01*
X123817500Y-101850000D02*
X122767500Y-100800000D01*
X119025000Y-99679595D02*
X119025000Y-97966700D01*
X125332500Y-94600000D02*
X124067500Y-94600000D01*
X121467500Y-92100000D02*
X121467500Y-93400000D01*
X128867500Y-94600000D02*
X127392500Y-96075000D01*
X123817500Y-101482500D02*
X124617500Y-100682500D01*
%TO.N,GND*%
X133557499Y-98674999D02*
X134150000Y-99267500D01*
X120232500Y-95105000D02*
X119387500Y-95950000D01*
X130007412Y-97374999D02*
X126650001Y-97374999D01*
X124200000Y-102535000D02*
X124200000Y-102925000D01*
X132375000Y-101925000D02*
X132349999Y-101925000D01*
X121900000Y-97016172D02*
X121900000Y-98262500D01*
X122682500Y-101850000D02*
X123367500Y-102535000D01*
X119315000Y-94250000D02*
X119150000Y-94085000D01*
X126650001Y-101274999D02*
X126650001Y-101925000D01*
X126542501Y-101817500D02*
X126650001Y-101925000D01*
X124950000Y-102250000D02*
X124950000Y-101817500D01*
X123367500Y-102535000D02*
X124200000Y-102535000D01*
X120350000Y-96912500D02*
X119387500Y-95950000D01*
X119450000Y-94250000D02*
X119315000Y-94250000D01*
X121900000Y-98262500D02*
X122887500Y-99250000D01*
X120350000Y-99129900D02*
X120470100Y-99250000D01*
X131307412Y-98674999D02*
X130007412Y-97374999D01*
X120470100Y-99250000D02*
X122887500Y-99250000D01*
X118350776Y-99711966D02*
X118350776Y-99499224D01*
X122932500Y-95983672D02*
X121900000Y-97016172D01*
X124200000Y-102535000D02*
X124665000Y-102535000D01*
X133257499Y-96725001D02*
X134150000Y-95832500D01*
X120350000Y-97941700D02*
X120350000Y-99129900D01*
X122932500Y-94600000D02*
X122932500Y-95983672D01*
X132349999Y-98674999D02*
X133557499Y-98674999D01*
X132349999Y-98674999D02*
X131307412Y-98674999D01*
X119150000Y-94085000D02*
X119150000Y-93464521D01*
X120350000Y-97941700D02*
X120350000Y-96912500D01*
X132349999Y-96725001D02*
X133257499Y-96725001D01*
X119150000Y-93464521D02*
X119214521Y-93400000D01*
X124950000Y-101817500D02*
X126542501Y-101817500D01*
X120232500Y-94600000D02*
X120232500Y-95105000D01*
X124665000Y-102535000D02*
X124950000Y-102250000D01*
X119214521Y-93400000D02*
X120332500Y-93400000D01*
X118400001Y-99449999D02*
X118400001Y-97941700D01*
X133450000Y-103000000D02*
X132375000Y-101925000D01*
X118350776Y-99499224D02*
X118400001Y-99449999D01*
%TO.N,Net-(U1-LDOO)*%
X134150000Y-98132500D02*
X134150000Y-96967500D01*
X133742501Y-97374999D02*
X134150000Y-96967500D01*
X132349999Y-97374999D02*
X133742501Y-97374999D01*
%TO.N,Net-(U1-CAPM)*%
X124612500Y-97600000D02*
X125037501Y-98025001D01*
X125037501Y-98025001D02*
X126650001Y-98025001D01*
%TO.N,Net-(U1-CAPP)*%
X123762499Y-96725001D02*
X126650001Y-96725001D01*
X122887500Y-97600000D02*
X123762499Y-96725001D01*
%TO.N,Net-(U1-VNEG)*%
X125375001Y-98674999D02*
X126650001Y-98674999D01*
X124800000Y-99250000D02*
X125375001Y-98674999D01*
%TO.N,Net-(J3-Pin_4)*%
X138097500Y-98517500D02*
X136580000Y-97000000D01*
X138097500Y-99600000D02*
X138097500Y-98517500D01*
X139750000Y-99962500D02*
X138460000Y-99962500D01*
X138460000Y-99962500D02*
X138097500Y-99600000D01*
X136580000Y-97000000D02*
X136580000Y-92730000D01*
X136580000Y-92730000D02*
X134100000Y-90250000D01*
%TO.N,Net-(J3-Pin_3)*%
X140570000Y-98450000D02*
X139120000Y-97000000D01*
X142847500Y-99600000D02*
X144287500Y-99600000D01*
X138100000Y-95560000D02*
X138100000Y-90250000D01*
X142800000Y-99600000D02*
X141650000Y-98450000D01*
X139120000Y-96580000D02*
X138100000Y-95560000D01*
X141650000Y-98450000D02*
X140570000Y-98450000D01*
%TO.N,+5V*%
X115970000Y-92342500D02*
X115970000Y-93970000D01*
D31*
X129802500Y-84052500D02*
X128550000Y-82800000D01*
X128550000Y-82800000D02*
X118725000Y-82800000D01*
X116975000Y-85875374D02*
X115474772Y-87375602D01*
X116975000Y-84550000D02*
X116975000Y-85875374D01*
X118725000Y-82800000D02*
X116975000Y-84550000D01*
X116462500Y-90797500D02*
X116462500Y-91850000D01*
X129802500Y-85000000D02*
X129802500Y-84052500D01*
D30*
X119700000Y-99400000D02*
X119700000Y-97941701D01*
D31*
X117580000Y-86480374D02*
X117580000Y-89680000D01*
X116975000Y-85875374D02*
X117580000Y-86480374D01*
D30*
X116462500Y-91850000D02*
X115970000Y-92342500D01*
D31*
X117580000Y-89680000D02*
X116462500Y-90797500D01*
D30*
%TO.N,Net-(U2-VREF)*%
X121112500Y-97829201D02*
X121000001Y-97941700D01*
X121367500Y-94600000D02*
X121367500Y-95695000D01*
X121112500Y-95950000D02*
X121112500Y-97829201D01*
%TO.N,Net-(J7-Pin_4)*%
X129737500Y-104900000D02*
X128800000Y-104900000D01*
X136630000Y-105000000D02*
X137550000Y-105920000D01*
X128800000Y-104900000D02*
X128750000Y-104850000D01*
X137550000Y-105920000D02*
X137550000Y-114850000D01*
X137550000Y-114850000D02*
X134150000Y-118250000D01*
%TO.N,Net-(C19-Pad1)*%
X127662500Y-105600000D02*
X126300000Y-106962500D01*
X123347500Y-105050000D02*
X122997500Y-105400000D01*
X127662500Y-104900000D02*
X127662500Y-105600000D01*
X124975000Y-105050000D02*
X123347500Y-105050000D01*
X126300000Y-106375000D02*
X124975000Y-105050000D01*
X126300000Y-106962500D02*
X126300000Y-106375000D01*
%TO.N,Net-(J7-Pin_3)*%
X135150000Y-104450000D02*
X135150000Y-106200000D01*
X139170000Y-117230000D02*
X138150000Y-118250000D01*
X134350000Y-107000000D02*
X133787500Y-107000000D01*
X139170000Y-105000000D02*
X139170000Y-117230000D01*
X135150000Y-106200000D02*
X134350000Y-107000000D01*
X139170000Y-105000000D02*
X137770000Y-103600000D01*
X136000000Y-103600000D02*
X135150000Y-104450000D01*
X137770000Y-103600000D02*
X136000000Y-103600000D01*
%TO.N,Net-(J1-Pin_1)*%
X127075000Y-88985000D02*
X127075000Y-84550000D01*
X129550000Y-93300000D02*
X129550000Y-91460000D01*
X129550000Y-91460000D02*
X127075000Y-88985000D01*
X129500000Y-99974999D02*
X132349999Y-99974999D01*
%TO.N,Net-(J3-Pin_2)*%
X141660000Y-97000000D02*
X141100000Y-96440000D01*
X141100000Y-96440000D02*
X141100000Y-90250000D01*
%TO.N,Net-(J5-Pin_1)*%
X115043200Y-107475500D02*
X108350000Y-107475500D01*
X117750000Y-103580500D02*
X117750000Y-104768700D01*
X117750000Y-104768700D02*
X115043200Y-107475500D01*
%TO.N,SCK*%
X133624999Y-101274999D02*
X133950000Y-101600000D01*
X117750000Y-99129900D02*
X117750000Y-97941700D01*
X115777298Y-99372702D02*
X116304595Y-99900000D01*
X132349999Y-101274999D02*
X133624999Y-101274999D01*
X115777298Y-99372702D02*
X111239596Y-94835000D01*
X116304595Y-99900000D02*
X116979900Y-99900000D01*
X111239596Y-94835000D02*
X108350000Y-94835000D01*
X116979900Y-99900000D02*
X117750000Y-99129900D01*
%TO.N,LRCK*%
X128250000Y-98300000D02*
X130154595Y-98300000D01*
X117100001Y-98749999D02*
X116650000Y-99200000D01*
X111453301Y-92295000D02*
X108350000Y-92295000D01*
X131179596Y-99325001D02*
X132349999Y-99325001D01*
X117100001Y-97941700D02*
X111453301Y-92295000D01*
X130154595Y-98300000D02*
X131179596Y-99325001D01*
X117100001Y-97941700D02*
X117100001Y-98749999D01*
%TO.N,BCK*%
X131424999Y-100625001D02*
X132349999Y-100625001D01*
X122625000Y-103600000D02*
X126145405Y-103600000D01*
X120875000Y-101850000D02*
X122625000Y-103600000D01*
X126845405Y-102900000D02*
X129150000Y-102900000D01*
X120030654Y-101850000D02*
X120875000Y-101850000D01*
X117080499Y-103600000D02*
X117099999Y-103580500D01*
X126145405Y-103600000D02*
X126845405Y-102900000D01*
X112825000Y-97375000D02*
X108350000Y-97375000D01*
X118630654Y-100450000D02*
X120030654Y-101850000D01*
X115900000Y-100450000D02*
X118630654Y-100450000D01*
X129150000Y-102900000D02*
X131424999Y-100625001D01*
X115900000Y-103600000D02*
X117080499Y-103600000D01*
X115900000Y-100450000D02*
X112825000Y-97375000D01*
%TO.N,Net-(J7-Pin_2)*%
X141150000Y-105560000D02*
X141150000Y-118250000D01*
X141710000Y-105000000D02*
X141150000Y-105560000D01*
%TO.N,Net-(J9-Pin_3)*%
X118214500Y-102367300D02*
X110962700Y-102367300D01*
X118399999Y-102552799D02*
X118214500Y-102367300D01*
X110962700Y-102367300D02*
X108350000Y-104980000D01*
X118399999Y-103580500D02*
X118399999Y-102552799D01*
%TO.N,Net-(J9-Pin_1)*%
X119699999Y-102297163D02*
X118670136Y-101267300D01*
X119699999Y-103580500D02*
X119699999Y-102297163D01*
X109717300Y-101267300D02*
X108350000Y-99900000D01*
X118670136Y-101267300D02*
X109717300Y-101267300D01*
%TO.N,Net-(J9-Pin_2)*%
X118442318Y-101817300D02*
X108972700Y-101817300D01*
X108972700Y-101817300D02*
X108350000Y-102440000D01*
X119050000Y-103580500D02*
X119050000Y-102424982D01*
X119050000Y-102424982D02*
X118442318Y-101817300D01*
%TO.N,Net-(U1-OUTL)*%
X127850001Y-99325001D02*
X126650001Y-99325001D01*
X136702500Y-99400000D02*
X136902500Y-99600000D01*
X128125002Y-99050000D02*
X127850001Y-99325001D01*
X136130000Y-99400000D02*
X136702500Y-99400000D01*
X129950000Y-99050000D02*
X128125002Y-99050000D01*
%TO.N,Net-(U1-OUTR)*%
X126650001Y-99974999D02*
X128175001Y-99974999D01*
X141050000Y-100650000D02*
X141050000Y-100202500D01*
X128175001Y-99974999D02*
X128200000Y-99950000D01*
X141050000Y-100202500D02*
X141652500Y-99600000D01*
%TO.N,Net-(U2-VINR)*%
X120999999Y-104597499D02*
X121802500Y-105400000D01*
X120999999Y-103580500D02*
X120999999Y-104597499D01*
%TO.N,Net-(U2-VINL)*%
X124000000Y-106250000D02*
X121250000Y-106250000D01*
X124450000Y-105800000D02*
X124000000Y-106250000D01*
X121250000Y-106250000D02*
X120350000Y-105350000D01*
X127250000Y-103450000D02*
X126900000Y-103800000D01*
X129752500Y-103450000D02*
X127250000Y-103450000D01*
X120350000Y-105350000D02*
X120350000Y-103580500D01*
X130002500Y-103200000D02*
X129752500Y-103450000D01*
%TO.N,Net-(J1-Pin_2)*%
X130350000Y-96600000D02*
X130350000Y-96827817D01*
X124535000Y-88129725D02*
X124535000Y-84550000D01*
X130350000Y-96827817D02*
X131547184Y-98025001D01*
X128659616Y-92254341D02*
X124535000Y-88129725D01*
X131547184Y-98025001D02*
X132349999Y-98025001D01*
D31*
%TO.N,Net-(D1-A)*%
X130997500Y-85977500D02*
X130250000Y-86725000D01*
X130997500Y-85000000D02*
X130997500Y-85977500D01*
D30*
%TO.N,Net-(C20-Pad1)*%
X131712500Y-107000000D02*
X131712500Y-104850000D01*
X131712500Y-103715000D02*
X131197500Y-103200000D01*
X131712500Y-104850000D02*
X131712500Y-103715000D01*
%TD*%
%TA.AperFunction,Conductor*%
%TO.N,GND*%
G36*
X115145917Y-103062485D02*
G01*
X115191672Y-103115289D01*
X115201616Y-103184447D01*
X115191708Y-103214683D01*
X115192937Y-103215192D01*
X115130264Y-103366498D01*
X115130261Y-103366510D01*
X115099500Y-103521153D01*
X115099500Y-103678846D01*
X115130261Y-103833489D01*
X115130264Y-103833501D01*
X115190602Y-103979172D01*
X115190609Y-103979185D01*
X115278210Y-104110288D01*
X115278213Y-104110292D01*
X115389707Y-104221786D01*
X115389711Y-104221789D01*
X115520814Y-104309390D01*
X115520827Y-104309397D01*
X115666498Y-104369735D01*
X115666503Y-104369737D01*
X115820952Y-104400459D01*
X115821153Y-104400499D01*
X115821156Y-104400500D01*
X115821158Y-104400500D01*
X115978844Y-104400500D01*
X115978845Y-104400499D01*
X116133497Y-104369737D01*
X116186002Y-104347989D01*
X116250248Y-104321378D01*
X116319717Y-104313909D01*
X116382196Y-104345184D01*
X116417848Y-104405274D01*
X116421700Y-104435939D01*
X116421700Y-104466576D01*
X116428107Y-104526183D01*
X116478401Y-104661028D01*
X116478405Y-104661035D01*
X116564651Y-104776244D01*
X116564652Y-104776245D01*
X116577337Y-104785741D01*
X116619209Y-104841674D01*
X116624193Y-104911366D01*
X116590709Y-104972689D01*
X116590708Y-104972689D01*
X114799718Y-106763681D01*
X114738395Y-106797166D01*
X114712037Y-106800000D01*
X109824499Y-106800000D01*
X109757460Y-106780315D01*
X109711705Y-106727511D01*
X109700499Y-106676000D01*
X109700499Y-106577629D01*
X109700498Y-106577623D01*
X109700497Y-106577616D01*
X109694728Y-106523945D01*
X109694091Y-106518016D01*
X109643797Y-106383171D01*
X109643793Y-106383164D01*
X109557547Y-106267955D01*
X109557544Y-106267952D01*
X109442335Y-106181706D01*
X109442328Y-106181702D01*
X109343328Y-106144778D01*
X109287394Y-106102907D01*
X109262977Y-106037443D01*
X109277828Y-105969170D01*
X109298974Y-105940921D01*
X109380104Y-105859792D01*
X109383103Y-105855665D01*
X109505048Y-105687820D01*
X109505047Y-105687820D01*
X109505051Y-105687816D01*
X109601557Y-105498412D01*
X109667246Y-105296243D01*
X109700500Y-105086287D01*
X109700500Y-104873713D01*
X109670880Y-104686703D01*
X109679834Y-104617413D01*
X109705669Y-104579630D01*
X111206182Y-103079119D01*
X111267505Y-103045634D01*
X111293863Y-103042800D01*
X115078878Y-103042800D01*
X115145917Y-103062485D01*
G37*
%TD.AperFunction*%
%TA.AperFunction,Conductor*%
G36*
X128854475Y-100501873D02*
G01*
X128880832Y-100503758D01*
X128889885Y-100509576D01*
X128896927Y-100511108D01*
X128925181Y-100532259D01*
X128989707Y-100596785D01*
X128989711Y-100596788D01*
X129120814Y-100684389D01*
X129120827Y-100684396D01*
X129266498Y-100744734D01*
X129266503Y-100744736D01*
X129421153Y-100775498D01*
X129421156Y-100775499D01*
X129421158Y-100775499D01*
X129578844Y-100775499D01*
X129578845Y-100775498D01*
X129733497Y-100744736D01*
X129879179Y-100684393D01*
X129891176Y-100676377D01*
X129898628Y-100671398D01*
X129916674Y-100665746D01*
X129932585Y-100655522D01*
X129963542Y-100651070D01*
X129965305Y-100650519D01*
X129967520Y-100650499D01*
X130144838Y-100650499D01*
X130211877Y-100670184D01*
X130257632Y-100722988D01*
X130267576Y-100792146D01*
X130238551Y-100855702D01*
X130232519Y-100862180D01*
X128906518Y-102188181D01*
X128845195Y-102221666D01*
X128818837Y-102224500D01*
X128104743Y-102224500D01*
X128037704Y-102204815D01*
X127991949Y-102152011D01*
X127985756Y-102108946D01*
X127978414Y-102099999D01*
X125253862Y-102099999D01*
X125231814Y-102098023D01*
X125051952Y-102065524D01*
X125030248Y-102054653D01*
X125006961Y-102047815D01*
X124999571Y-102039287D01*
X124989481Y-102034233D01*
X124977099Y-102013353D01*
X124961206Y-101995011D01*
X124958298Y-101981647D01*
X124953844Y-101974135D01*
X124954244Y-101963009D01*
X124950000Y-101943500D01*
X124950000Y-101691500D01*
X124969685Y-101624461D01*
X125022489Y-101578706D01*
X125074000Y-101567500D01*
X125766000Y-101567500D01*
X125833039Y-101587185D01*
X125878794Y-101639989D01*
X125890000Y-101691500D01*
X125890000Y-101750001D01*
X127978413Y-101750001D01*
X127974059Y-101728112D01*
X127974057Y-101728104D01*
X127940650Y-101647451D01*
X127933181Y-101577982D01*
X127940650Y-101552546D01*
X127974058Y-101471890D01*
X127974059Y-101471886D01*
X127978413Y-101449998D01*
X127714944Y-101449998D01*
X127684430Y-101441038D01*
X127653486Y-101433696D01*
X127651143Y-101431263D01*
X127647905Y-101430313D01*
X127627082Y-101406282D01*
X127605016Y-101383372D01*
X127604360Y-101380059D01*
X127602150Y-101377509D01*
X127597623Y-101346029D01*
X127591448Y-101314833D01*
X127592686Y-101311693D01*
X127592206Y-101308351D01*
X127605421Y-101279414D01*
X127617089Y-101249838D01*
X127620286Y-101246864D01*
X127621231Y-101244795D01*
X127642509Y-101225354D01*
X127644848Y-101223670D01*
X127644970Y-101223620D01*
X127755606Y-101149695D01*
X127776080Y-101129220D01*
X127784229Y-101123356D01*
X127808099Y-101114959D01*
X127830306Y-101102834D01*
X127847972Y-101100934D01*
X127850140Y-101100172D01*
X127851675Y-101100536D01*
X127856664Y-101100000D01*
X127978413Y-101100000D01*
X127974059Y-101078111D01*
X127974058Y-101078107D01*
X127940921Y-100998106D01*
X127937641Y-100967599D01*
X127932192Y-100937398D01*
X127933741Y-100931327D01*
X127933452Y-100928636D01*
X127940918Y-100903207D01*
X127974135Y-100823015D01*
X128017974Y-100768616D01*
X128084268Y-100746551D01*
X128112886Y-100748855D01*
X128121155Y-100750500D01*
X128121158Y-100750500D01*
X128278844Y-100750500D01*
X128278845Y-100750499D01*
X128433497Y-100719737D01*
X128579179Y-100659394D01*
X128710289Y-100571789D01*
X128749818Y-100532260D01*
X128757764Y-100527920D01*
X128763190Y-100520673D01*
X128787948Y-100511438D01*
X128811141Y-100498774D01*
X128820171Y-100499419D01*
X128828654Y-100496256D01*
X128854475Y-100501873D01*
G37*
%TD.AperFunction*%
%TA.AperFunction,Conductor*%
G36*
X112560876Y-98070185D02*
G01*
X112581518Y-98086819D01*
X114874818Y-100380119D01*
X114908303Y-100441442D01*
X114903319Y-100511134D01*
X114861447Y-100567067D01*
X114795983Y-100591484D01*
X114787137Y-100591800D01*
X110048463Y-100591800D01*
X109981424Y-100572115D01*
X109960782Y-100555481D01*
X109736818Y-100331517D01*
X109703333Y-100270194D01*
X109700499Y-100243836D01*
X109700499Y-99002129D01*
X109700498Y-99002123D01*
X109700497Y-99002116D01*
X109694091Y-98942517D01*
X109693221Y-98940185D01*
X109643797Y-98807671D01*
X109643793Y-98807664D01*
X109572037Y-98711811D01*
X109547619Y-98646347D01*
X109562470Y-98578074D01*
X109572037Y-98563189D01*
X109643793Y-98467335D01*
X109643792Y-98467335D01*
X109643796Y-98467331D01*
X109694091Y-98332483D01*
X109700500Y-98272873D01*
X109700500Y-98174500D01*
X109720185Y-98107461D01*
X109772989Y-98061706D01*
X109824500Y-98050500D01*
X112493837Y-98050500D01*
X112560876Y-98070185D01*
G37*
%TD.AperFunction*%
%TA.AperFunction,Conductor*%
G36*
X121797856Y-98954963D02*
G01*
X121826118Y-98976118D01*
X121850000Y-99000000D01*
X122763500Y-99000000D01*
X122830539Y-99019685D01*
X122876294Y-99072489D01*
X122887500Y-99124000D01*
X122887500Y-99376000D01*
X122867815Y-99443039D01*
X122815011Y-99488794D01*
X122763500Y-99500000D01*
X121850001Y-99500000D01*
X121850001Y-99536654D01*
X121860319Y-99637652D01*
X121914546Y-99801300D01*
X121914551Y-99801311D01*
X121997261Y-99935403D01*
X122015702Y-100002795D01*
X121994780Y-100069459D01*
X121941138Y-100114228D01*
X121891723Y-100124500D01*
X121481163Y-100124500D01*
X121414124Y-100104815D01*
X121393482Y-100088181D01*
X120855609Y-99550307D01*
X120791546Y-99507501D01*
X120746742Y-99453888D01*
X120738035Y-99384563D01*
X120768190Y-99321536D01*
X120827633Y-99284817D01*
X120860431Y-99280399D01*
X121225673Y-99280399D01*
X121285284Y-99273991D01*
X121420132Y-99223696D01*
X121535347Y-99137446D01*
X121621597Y-99022231D01*
X121622253Y-99020471D01*
X121623379Y-99018966D01*
X121625848Y-99014446D01*
X121626497Y-99014800D01*
X121664120Y-98964537D01*
X121729583Y-98940116D01*
X121797856Y-98954963D01*
G37*
%TD.AperFunction*%
%TA.AperFunction,Conductor*%
G36*
X121894600Y-98129528D02*
G01*
X121917276Y-98156680D01*
X122001557Y-98293320D01*
X122004660Y-98298350D01*
X122044942Y-98338632D01*
X122045866Y-98339597D01*
X122061347Y-98369474D01*
X122077467Y-98398995D01*
X122077367Y-98400390D01*
X122078011Y-98401633D01*
X122074883Y-98435122D01*
X122072483Y-98468687D01*
X122071623Y-98470023D01*
X122071514Y-98471200D01*
X122067910Y-98475802D01*
X122043983Y-98513033D01*
X122005055Y-98551961D01*
X122005052Y-98551965D01*
X121910755Y-98704844D01*
X121909628Y-98704148D01*
X121868500Y-98750851D01*
X121801305Y-98769997D01*
X121734425Y-98749775D01*
X121689096Y-98696605D01*
X121678300Y-98646004D01*
X121678300Y-98235901D01*
X121683627Y-98217758D01*
X121683965Y-98198849D01*
X121697465Y-98170631D01*
X121697985Y-98168863D01*
X121699166Y-98167059D01*
X121708638Y-98152884D01*
X121762248Y-98108081D01*
X121831573Y-98099374D01*
X121894600Y-98129528D01*
G37*
%TD.AperFunction*%
%TA.AperFunction,Conductor*%
G36*
X129544381Y-95279850D02*
G01*
X129558975Y-95279308D01*
X129591602Y-95292768D01*
X129707600Y-95361370D01*
X129718429Y-95364516D01*
X129866637Y-95407575D01*
X129866640Y-95407575D01*
X129866642Y-95407576D01*
X129903797Y-95410500D01*
X129986336Y-95410499D01*
X130015778Y-95419144D01*
X130045763Y-95425667D01*
X130050776Y-95429420D01*
X130053374Y-95430183D01*
X130074017Y-95446818D01*
X130236853Y-95609654D01*
X130270338Y-95670977D01*
X130265354Y-95740669D01*
X130223482Y-95796602D01*
X130173364Y-95818952D01*
X130116508Y-95830261D01*
X130116498Y-95830264D01*
X129970827Y-95890602D01*
X129970814Y-95890609D01*
X129839711Y-95978210D01*
X129839707Y-95978213D01*
X129728213Y-96089707D01*
X129728210Y-96089711D01*
X129640609Y-96220814D01*
X129640602Y-96220827D01*
X129580264Y-96366498D01*
X129580261Y-96366510D01*
X129549500Y-96521153D01*
X129549500Y-96678846D01*
X129580261Y-96833489D01*
X129580264Y-96833501D01*
X129640602Y-96979172D01*
X129640609Y-96979185D01*
X129728210Y-97110289D01*
X129731962Y-97114860D01*
X129748485Y-97142425D01*
X129748508Y-97142413D01*
X129748757Y-97142879D01*
X129750667Y-97146066D01*
X129751380Y-97147786D01*
X129781586Y-97192993D01*
X129825306Y-97258425D01*
X129979700Y-97412819D01*
X130013185Y-97474142D01*
X130008201Y-97543834D01*
X129966329Y-97599767D01*
X129900865Y-97624184D01*
X129892019Y-97624500D01*
X128717520Y-97624500D01*
X128650481Y-97604815D01*
X128648628Y-97603601D01*
X128629186Y-97590610D01*
X128629172Y-97590602D01*
X128483501Y-97530264D01*
X128483489Y-97530261D01*
X128328845Y-97499500D01*
X128328842Y-97499500D01*
X128171158Y-97499500D01*
X128171155Y-97499500D01*
X128016511Y-97530260D01*
X128016501Y-97530263D01*
X127991646Y-97540559D01*
X127983469Y-97542185D01*
X127979129Y-97544975D01*
X127944194Y-97549998D01*
X127856660Y-97549998D01*
X127789621Y-97530313D01*
X127768979Y-97513679D01*
X127755608Y-97500308D01*
X127735505Y-97486876D01*
X127722374Y-97478102D01*
X127677571Y-97424492D01*
X127668862Y-97355167D01*
X127699017Y-97292139D01*
X127722372Y-97271901D01*
X127755606Y-97249695D01*
X127759098Y-97246203D01*
X127768983Y-97236319D01*
X127830306Y-97202834D01*
X127856664Y-97200000D01*
X127978413Y-97200000D01*
X127974059Y-97178111D01*
X127974058Y-97178107D01*
X127940921Y-97098106D01*
X127933452Y-97028636D01*
X127940917Y-97003209D01*
X127974541Y-96922037D01*
X128000500Y-96791532D01*
X128000500Y-96658470D01*
X127974541Y-96527965D01*
X127974540Y-96527963D01*
X127974247Y-96526489D01*
X127980474Y-96456897D01*
X128008181Y-96414618D01*
X128975982Y-95446818D01*
X129037305Y-95413333D01*
X129063663Y-95410499D01*
X129146190Y-95410499D01*
X129146202Y-95410499D01*
X129183358Y-95407576D01*
X129342400Y-95361370D01*
X129458399Y-95292768D01*
X129483352Y-95285941D01*
X129489153Y-95281902D01*
X129499527Y-95281516D01*
X129521520Y-95275500D01*
X129528480Y-95275500D01*
X129544381Y-95279850D01*
G37*
%TD.AperFunction*%
%TA.AperFunction,Conductor*%
G36*
X123125539Y-94619685D02*
G01*
X123171294Y-94672489D01*
X123182500Y-94724000D01*
X123182500Y-95410000D01*
X123211142Y-95410000D01*
X123211157Y-95409999D01*
X123248277Y-95407078D01*
X123248283Y-95407077D01*
X123407194Y-95360908D01*
X123407202Y-95360905D01*
X123436386Y-95343646D01*
X123504109Y-95326462D01*
X123562628Y-95343644D01*
X123592600Y-95361370D01*
X123603429Y-95364516D01*
X123751637Y-95407575D01*
X123751640Y-95407575D01*
X123751642Y-95407576D01*
X123788797Y-95410500D01*
X124346202Y-95410499D01*
X124383358Y-95407576D01*
X124542400Y-95361370D01*
X124636881Y-95305492D01*
X124704602Y-95288311D01*
X124763117Y-95305492D01*
X124857600Y-95361370D01*
X124857603Y-95361370D01*
X124857605Y-95361372D01*
X125016637Y-95407575D01*
X125016640Y-95407575D01*
X125016642Y-95407576D01*
X125053797Y-95410500D01*
X125136336Y-95410499D01*
X125165778Y-95419144D01*
X125195763Y-95425667D01*
X125200776Y-95429420D01*
X125203374Y-95430183D01*
X125224017Y-95446818D01*
X125366847Y-95589648D01*
X125400332Y-95650971D01*
X125395348Y-95720663D01*
X125382270Y-95746216D01*
X125376389Y-95755017D01*
X125376380Y-95755034D01*
X125325461Y-95877963D01*
X125325459Y-95877971D01*
X125311193Y-95949692D01*
X125278808Y-96011603D01*
X125218093Y-96046177D01*
X125189576Y-96049501D01*
X123695966Y-96049501D01*
X123565468Y-96075459D01*
X123565458Y-96075462D01*
X123442537Y-96126377D01*
X123442519Y-96126387D01*
X123354306Y-96185328D01*
X123354307Y-96185329D01*
X123331893Y-96200305D01*
X123331887Y-96200310D01*
X122944016Y-96588181D01*
X122882693Y-96621666D01*
X122856335Y-96624500D01*
X122538331Y-96624500D01*
X122538312Y-96624501D01*
X122437247Y-96634825D01*
X122273484Y-96689092D01*
X122273477Y-96689096D01*
X122229274Y-96716360D01*
X122161881Y-96734800D01*
X122095218Y-96713877D01*
X122050449Y-96660234D01*
X122041788Y-96590903D01*
X122058638Y-96545726D01*
X122085908Y-96501516D01*
X122140174Y-96337753D01*
X122150500Y-96236677D01*
X122150499Y-95663324D01*
X122148565Y-95644395D01*
X122140174Y-95562247D01*
X122133735Y-95542816D01*
X122085908Y-95398484D01*
X122077429Y-95384737D01*
X122058989Y-95317345D01*
X122079912Y-95250681D01*
X122133554Y-95205912D01*
X122202885Y-95197251D01*
X122265892Y-95227448D01*
X122270649Y-95231960D01*
X122315349Y-95276660D01*
X122315357Y-95276666D01*
X122457802Y-95360907D01*
X122457805Y-95360908D01*
X122616716Y-95407077D01*
X122616722Y-95407078D01*
X122653842Y-95409999D01*
X122653858Y-95410000D01*
X122682500Y-95410000D01*
X122682500Y-94724000D01*
X122702185Y-94656961D01*
X122754989Y-94611206D01*
X122806500Y-94600000D01*
X123058500Y-94600000D01*
X123125539Y-94619685D01*
G37*
%TD.AperFunction*%
%TA.AperFunction,Conductor*%
G36*
X122305000Y-85877230D02*
G01*
X122371126Y-85866757D01*
X122371129Y-85866757D01*
X122573217Y-85801095D01*
X122762557Y-85704620D01*
X122934459Y-85579727D01*
X122934464Y-85579723D01*
X123084721Y-85429466D01*
X123194371Y-85278545D01*
X123249701Y-85235879D01*
X123319314Y-85229900D01*
X123381110Y-85262505D01*
X123395008Y-85278545D01*
X123504890Y-85429785D01*
X123504894Y-85429790D01*
X123655211Y-85580107D01*
X123705713Y-85616798D01*
X123808385Y-85691393D01*
X123851051Y-85746721D01*
X123859500Y-85791710D01*
X123859500Y-88196260D01*
X123885457Y-88326753D01*
X123885459Y-88326761D01*
X123936378Y-88449690D01*
X123936383Y-88449700D01*
X124010304Y-88560330D01*
X124010307Y-88560334D01*
X127851378Y-92401404D01*
X127884863Y-92462727D01*
X127885314Y-92464892D01*
X127889877Y-92487834D01*
X127889879Y-92487840D01*
X127950218Y-92633513D01*
X127950225Y-92633526D01*
X128037826Y-92764629D01*
X128037829Y-92764633D01*
X128149323Y-92876127D01*
X128149327Y-92876130D01*
X128280430Y-92963731D01*
X128280443Y-92963738D01*
X128391651Y-93009801D01*
X128426119Y-93024078D01*
X128580769Y-93054840D01*
X128580772Y-93054841D01*
X128631488Y-93054841D01*
X128698527Y-93074526D01*
X128744282Y-93127330D01*
X128754226Y-93196488D01*
X128753105Y-93203033D01*
X128749500Y-93221155D01*
X128749500Y-93378846D01*
X128780261Y-93533489D01*
X128780264Y-93533501D01*
X128815284Y-93618048D01*
X128822753Y-93687518D01*
X128791477Y-93749997D01*
X128731388Y-93785649D01*
X128700724Y-93789500D01*
X128588810Y-93789500D01*
X128588784Y-93789501D01*
X128551641Y-93792424D01*
X128392604Y-93838628D01*
X128392596Y-93838631D01*
X128362627Y-93856355D01*
X128294903Y-93873536D01*
X128236389Y-93856355D01*
X128207199Y-93839093D01*
X128207194Y-93839091D01*
X128048283Y-93792922D01*
X128048277Y-93792921D01*
X128011157Y-93790000D01*
X127982500Y-93790000D01*
X127982500Y-94476000D01*
X127962815Y-94543039D01*
X127910011Y-94588794D01*
X127858500Y-94600000D01*
X127732500Y-94600000D01*
X127732500Y-94726000D01*
X127712815Y-94793039D01*
X127660011Y-94838794D01*
X127608500Y-94850000D01*
X126591500Y-94850000D01*
X126524461Y-94830315D01*
X126478706Y-94777511D01*
X126467500Y-94726000D01*
X126467500Y-94600000D01*
X126341500Y-94600000D01*
X126274461Y-94580315D01*
X126228706Y-94527511D01*
X126217500Y-94476000D01*
X126217500Y-94350000D01*
X126717500Y-94350000D01*
X127482500Y-94350000D01*
X127482500Y-93790000D01*
X127453842Y-93790000D01*
X127416722Y-93792921D01*
X127416716Y-93792922D01*
X127257805Y-93839091D01*
X127257798Y-93839094D01*
X127163120Y-93895086D01*
X127095396Y-93912269D01*
X127036880Y-93895086D01*
X126942201Y-93839094D01*
X126942194Y-93839091D01*
X126783283Y-93792922D01*
X126783277Y-93792921D01*
X126746157Y-93790000D01*
X126717500Y-93790000D01*
X126717500Y-94350000D01*
X126217500Y-94350000D01*
X126217500Y-93790000D01*
X126188842Y-93790000D01*
X126151722Y-93792921D01*
X126151716Y-93792922D01*
X125992804Y-93839091D01*
X125992800Y-93839093D01*
X125963609Y-93856356D01*
X125895884Y-93873536D01*
X125837369Y-93856354D01*
X125808184Y-93839094D01*
X125807400Y-93838630D01*
X125807399Y-93838629D01*
X125807398Y-93838629D01*
X125807395Y-93838628D01*
X125648362Y-93792424D01*
X125648356Y-93792423D01*
X125611203Y-93789500D01*
X125053809Y-93789500D01*
X125053784Y-93789501D01*
X125016645Y-93792423D01*
X124857599Y-93838630D01*
X124763121Y-93894505D01*
X124695397Y-93911688D01*
X124636879Y-93894505D01*
X124572369Y-93856354D01*
X124542400Y-93838630D01*
X124542399Y-93838629D01*
X124542398Y-93838629D01*
X124542395Y-93838628D01*
X124383362Y-93792424D01*
X124383356Y-93792423D01*
X124346210Y-93789500D01*
X124346203Y-93789500D01*
X124263663Y-93789500D01*
X124196624Y-93769815D01*
X124175982Y-93753181D01*
X123298109Y-92875307D01*
X123298105Y-92875304D01*
X123187475Y-92801383D01*
X123187465Y-92801378D01*
X123064536Y-92750459D01*
X123064528Y-92750457D01*
X122934035Y-92724500D01*
X122934031Y-92724500D01*
X122381286Y-92724500D01*
X122314247Y-92704815D01*
X122268492Y-92652011D01*
X122258548Y-92582853D01*
X122274552Y-92537381D01*
X122286370Y-92517400D01*
X122326217Y-92380248D01*
X122332575Y-92358362D01*
X122332576Y-92358356D01*
X122335500Y-92321203D01*
X122335499Y-91878798D01*
X122332576Y-91841642D01*
X122286370Y-91682600D01*
X122229938Y-91587179D01*
X122202065Y-91540049D01*
X122202058Y-91540040D01*
X122084959Y-91422941D01*
X122084950Y-91422934D01*
X121942398Y-91338629D01*
X121942395Y-91338628D01*
X121783362Y-91292424D01*
X121783356Y-91292423D01*
X121746210Y-91289500D01*
X121746203Y-91289500D01*
X121663663Y-91289500D01*
X121596624Y-91269815D01*
X121575982Y-91253181D01*
X121213109Y-90890307D01*
X121213105Y-90890304D01*
X121102475Y-90816383D01*
X121102465Y-90816378D01*
X120979536Y-90765459D01*
X120979528Y-90765457D01*
X120849035Y-90739500D01*
X120849031Y-90739500D01*
X120314500Y-90739500D01*
X120247461Y-90719815D01*
X120201706Y-90667011D01*
X120190500Y-90615500D01*
X120190500Y-85791710D01*
X120210185Y-85724671D01*
X120241612Y-85691394D01*
X120394792Y-85580104D01*
X120545104Y-85429792D01*
X120545106Y-85429788D01*
X120545109Y-85429786D01*
X120616871Y-85331013D01*
X120670051Y-85257816D01*
X120674793Y-85248508D01*
X120722763Y-85197711D01*
X120790583Y-85180911D01*
X120856719Y-85203445D01*
X120895763Y-85248500D01*
X120900377Y-85257555D01*
X121025272Y-85429459D01*
X121025276Y-85429464D01*
X121175535Y-85579723D01*
X121175540Y-85579727D01*
X121347442Y-85704620D01*
X121536782Y-85801095D01*
X121738871Y-85866757D01*
X121805000Y-85877231D01*
X121805000Y-84983012D01*
X121862007Y-85015925D01*
X121989174Y-85050000D01*
X122120826Y-85050000D01*
X122247993Y-85015925D01*
X122305000Y-84983012D01*
X122305000Y-85877230D01*
G37*
%TD.AperFunction*%
%TA.AperFunction,Conductor*%
G36*
X140552562Y-80500605D02*
G01*
X140999036Y-80519072D01*
X141009209Y-80519915D01*
X141450114Y-80574873D01*
X141460194Y-80576555D01*
X141895042Y-80667733D01*
X141904950Y-80670242D01*
X142330786Y-80797019D01*
X142340454Y-80800338D01*
X142651547Y-80921728D01*
X142754339Y-80961838D01*
X142763724Y-80965954D01*
X143162869Y-81161083D01*
X143171872Y-81165955D01*
X143425015Y-81316796D01*
X143553544Y-81393383D01*
X143562123Y-81398989D01*
X143641854Y-81455915D01*
X143923693Y-81657144D01*
X143931770Y-81663431D01*
X144020162Y-81738295D01*
X144270796Y-81950571D01*
X144278336Y-81957512D01*
X144592487Y-82271663D01*
X144599428Y-82279203D01*
X144886564Y-82618224D01*
X144892859Y-82626312D01*
X145151010Y-82987876D01*
X145156616Y-82996455D01*
X145384041Y-83378122D01*
X145388919Y-83387136D01*
X145584045Y-83786275D01*
X145588161Y-83795660D01*
X145749656Y-84209533D01*
X145752984Y-84219226D01*
X145879753Y-84645036D01*
X145882269Y-84654971D01*
X145973441Y-85089791D01*
X145975128Y-85099900D01*
X146030082Y-85540769D01*
X146030928Y-85550983D01*
X146049394Y-85997437D01*
X146049500Y-86002561D01*
X146049500Y-99260567D01*
X146029815Y-99327606D01*
X145977011Y-99373361D01*
X145907853Y-99383305D01*
X145844297Y-99354280D01*
X145815423Y-99311015D01*
X145812864Y-99312209D01*
X145809815Y-99305670D01*
X145809814Y-99305666D01*
X145717712Y-99156344D01*
X145593656Y-99032288D01*
X145500888Y-98975069D01*
X145444336Y-98940187D01*
X145444331Y-98940185D01*
X145398723Y-98925072D01*
X145277797Y-98885001D01*
X145277795Y-98885000D01*
X145175010Y-98874500D01*
X144124998Y-98874500D01*
X144124980Y-98874501D01*
X144022203Y-98885000D01*
X144022200Y-98885001D01*
X143921997Y-98918206D01*
X143882993Y-98924500D01*
X143503555Y-98924500D01*
X143439405Y-98906617D01*
X143318066Y-98833265D01*
X143164933Y-98785548D01*
X143164935Y-98785548D01*
X143138312Y-98783128D01*
X143098381Y-98779500D01*
X143098378Y-98779500D01*
X142986163Y-98779500D01*
X142919124Y-98759815D01*
X142898482Y-98743181D01*
X142437195Y-98281894D01*
X142403710Y-98220571D01*
X142408694Y-98150879D01*
X142450566Y-98094946D01*
X142451930Y-98093938D01*
X142539792Y-98030104D01*
X142653717Y-97916178D01*
X142715036Y-97882696D01*
X142784728Y-97887680D01*
X142840662Y-97929551D01*
X142857577Y-97960528D01*
X142906646Y-98092088D01*
X142906649Y-98092093D01*
X142992809Y-98207187D01*
X142992812Y-98207190D01*
X143107906Y-98293350D01*
X143107913Y-98293354D01*
X143242620Y-98343596D01*
X143242627Y-98343598D01*
X143302155Y-98349999D01*
X143302172Y-98350000D01*
X143950000Y-98350000D01*
X143950000Y-97433012D01*
X144007007Y-97465925D01*
X144134174Y-97500000D01*
X144265826Y-97500000D01*
X144392993Y-97465925D01*
X144450000Y-97433012D01*
X144450000Y-98350000D01*
X145097828Y-98350000D01*
X145097844Y-98349999D01*
X145157372Y-98343598D01*
X145157379Y-98343596D01*
X145292086Y-98293354D01*
X145292093Y-98293350D01*
X145407187Y-98207190D01*
X145407190Y-98207187D01*
X145493350Y-98092093D01*
X145493354Y-98092086D01*
X145543596Y-97957379D01*
X145543598Y-97957372D01*
X145549999Y-97897844D01*
X145550000Y-97897827D01*
X145550000Y-97250000D01*
X144633012Y-97250000D01*
X144665925Y-97192993D01*
X144700000Y-97065826D01*
X144700000Y-96934174D01*
X144665925Y-96807007D01*
X144633012Y-96750000D01*
X145550000Y-96750000D01*
X145550000Y-96102172D01*
X145549999Y-96102155D01*
X145543598Y-96042627D01*
X145543596Y-96042620D01*
X145493354Y-95907913D01*
X145493350Y-95907906D01*
X145407190Y-95792812D01*
X145407187Y-95792809D01*
X145292093Y-95706649D01*
X145292086Y-95706645D01*
X145157379Y-95656403D01*
X145157372Y-95656401D01*
X145097844Y-95650000D01*
X144450000Y-95650000D01*
X144450000Y-96566988D01*
X144392993Y-96534075D01*
X144265826Y-96500000D01*
X144134174Y-96500000D01*
X144007007Y-96534075D01*
X143950000Y-96566988D01*
X143950000Y-95650000D01*
X143302155Y-95650000D01*
X143242627Y-95656401D01*
X143242620Y-95656403D01*
X143107913Y-95706645D01*
X143107906Y-95706649D01*
X142992812Y-95792809D01*
X142992809Y-95792812D01*
X142906649Y-95907906D01*
X142906646Y-95907912D01*
X142857577Y-96039471D01*
X142815705Y-96095404D01*
X142750241Y-96119821D01*
X142681968Y-96104969D01*
X142653714Y-96083818D01*
X142539786Y-95969890D01*
X142367820Y-95844951D01*
X142178414Y-95748444D01*
X142178413Y-95748443D01*
X142178412Y-95748443D01*
X141976243Y-95682754D01*
X141976241Y-95682753D01*
X141880101Y-95667526D01*
X141816967Y-95637596D01*
X141780036Y-95578285D01*
X141775500Y-95545053D01*
X141775500Y-92092115D01*
X141795185Y-92025076D01*
X141847989Y-91979321D01*
X141856167Y-91975933D01*
X141942328Y-91943797D01*
X141942327Y-91943797D01*
X141942331Y-91943796D01*
X142057546Y-91857546D01*
X142143796Y-91742331D01*
X142194091Y-91607483D01*
X142200500Y-91547873D01*
X142200499Y-88952128D01*
X142194091Y-88892517D01*
X142171995Y-88833275D01*
X142143797Y-88757671D01*
X142143793Y-88757664D01*
X142057547Y-88642455D01*
X142057544Y-88642452D01*
X141942335Y-88556206D01*
X141942328Y-88556202D01*
X141807482Y-88505908D01*
X141807483Y-88505908D01*
X141747883Y-88499501D01*
X141747881Y-88499500D01*
X141747873Y-88499500D01*
X141747864Y-88499500D01*
X140452129Y-88499500D01*
X140452123Y-88499501D01*
X140392516Y-88505908D01*
X140257671Y-88556202D01*
X140257664Y-88556206D01*
X140142455Y-88642452D01*
X140142452Y-88642455D01*
X140056206Y-88757664D01*
X140056202Y-88757671D01*
X140005908Y-88892517D01*
X139999695Y-88950312D01*
X139999501Y-88952123D01*
X139999500Y-88952135D01*
X139999500Y-91547870D01*
X139999501Y-91547876D01*
X140005908Y-91607483D01*
X140056202Y-91742328D01*
X140056206Y-91742335D01*
X140142452Y-91857544D01*
X140142455Y-91857547D01*
X140257664Y-91943793D01*
X140257671Y-91943797D01*
X140343833Y-91975933D01*
X140399766Y-92017804D01*
X140424184Y-92083268D01*
X140424500Y-92092115D01*
X140424500Y-96116248D01*
X140404815Y-96183287D01*
X140352011Y-96229042D01*
X140282853Y-96238986D01*
X140219297Y-96209961D01*
X140200182Y-96189133D01*
X140150109Y-96120214D01*
X140150105Y-96120209D01*
X139999786Y-95969890D01*
X139827820Y-95844951D01*
X139638414Y-95748444D01*
X139638413Y-95748443D01*
X139638412Y-95748443D01*
X139436243Y-95682754D01*
X139436241Y-95682753D01*
X139436240Y-95682753D01*
X139274957Y-95657208D01*
X139226287Y-95649500D01*
X139226286Y-95649500D01*
X139196163Y-95649500D01*
X139129124Y-95629815D01*
X139108482Y-95613181D01*
X138811819Y-95316518D01*
X138778334Y-95255195D01*
X138775500Y-95228837D01*
X138775500Y-92092115D01*
X138795185Y-92025076D01*
X138847989Y-91979321D01*
X138856167Y-91975933D01*
X138942328Y-91943797D01*
X138942327Y-91943797D01*
X138942331Y-91943796D01*
X139057546Y-91857546D01*
X139143796Y-91742331D01*
X139194091Y-91607483D01*
X139200500Y-91547873D01*
X139200499Y-88952128D01*
X139194091Y-88892517D01*
X139171995Y-88833275D01*
X139143797Y-88757671D01*
X139143793Y-88757664D01*
X139057547Y-88642455D01*
X139057544Y-88642452D01*
X138942335Y-88556206D01*
X138942328Y-88556202D01*
X138807482Y-88505908D01*
X138807483Y-88505908D01*
X138747883Y-88499501D01*
X138747881Y-88499500D01*
X138747873Y-88499500D01*
X138747864Y-88499500D01*
X137452129Y-88499500D01*
X137452123Y-88499501D01*
X137392516Y-88505908D01*
X137257671Y-88556202D01*
X137257664Y-88556206D01*
X137142455Y-88642452D01*
X137142452Y-88642455D01*
X137056206Y-88757664D01*
X137056202Y-88757671D01*
X137005908Y-88892517D01*
X136999695Y-88950312D01*
X136999501Y-88952123D01*
X136999500Y-88952135D01*
X136999500Y-91547870D01*
X136999501Y-91547876D01*
X137005908Y-91607483D01*
X137056202Y-91742328D01*
X137056206Y-91742335D01*
X137142452Y-91857544D01*
X137142455Y-91857547D01*
X137257664Y-91943793D01*
X137257671Y-91943797D01*
X137343833Y-91975933D01*
X137348365Y-91979326D01*
X137353956Y-91980229D01*
X137376026Y-92000032D01*
X137399766Y-92017804D01*
X137401745Y-92023110D01*
X137405960Y-92026892D01*
X137414942Y-92058490D01*
X137424184Y-92083268D01*
X137423230Y-92087650D01*
X137424500Y-92092115D01*
X137424500Y-92380248D01*
X137404815Y-92447287D01*
X137352011Y-92493042D01*
X137282853Y-92502986D01*
X137219297Y-92473961D01*
X137185942Y-92427708D01*
X137184460Y-92424131D01*
X137180950Y-92415658D01*
X137179301Y-92411050D01*
X137104698Y-92299398D01*
X137104697Y-92299397D01*
X137104695Y-92299394D01*
X137010606Y-92205305D01*
X135236818Y-90431517D01*
X135203333Y-90370194D01*
X135200499Y-90343836D01*
X135200499Y-88952129D01*
X135200498Y-88952123D01*
X135200497Y-88952116D01*
X135194091Y-88892517D01*
X135171995Y-88833275D01*
X135143797Y-88757671D01*
X135143793Y-88757664D01*
X135057547Y-88642455D01*
X135057544Y-88642452D01*
X134942335Y-88556206D01*
X134942328Y-88556202D01*
X134807482Y-88505908D01*
X134807483Y-88505908D01*
X134747883Y-88499501D01*
X134747881Y-88499500D01*
X134747873Y-88499500D01*
X134747864Y-88499500D01*
X133452129Y-88499500D01*
X133452123Y-88499501D01*
X133392516Y-88505908D01*
X133257671Y-88556202D01*
X133257664Y-88556206D01*
X133142455Y-88642452D01*
X133142452Y-88642455D01*
X133056206Y-88757664D01*
X133056202Y-88757671D01*
X133005908Y-88892517D01*
X132999695Y-88950312D01*
X132999501Y-88952123D01*
X132999500Y-88952135D01*
X132999500Y-91547870D01*
X132999501Y-91547876D01*
X133005908Y-91607483D01*
X133056202Y-91742328D01*
X133056206Y-91742335D01*
X133142452Y-91857544D01*
X133142455Y-91857547D01*
X133257664Y-91943793D01*
X133257671Y-91943797D01*
X133392517Y-91994091D01*
X133392516Y-91994091D01*
X133399444Y-91994835D01*
X133452127Y-92000500D01*
X134747872Y-92000499D01*
X134807483Y-91994091D01*
X134807482Y-91994091D01*
X134815196Y-91993262D01*
X134815378Y-91994962D01*
X134875698Y-91998185D01*
X134922147Y-92027448D01*
X135868181Y-92973482D01*
X135901666Y-93034805D01*
X135904500Y-93061163D01*
X135904500Y-95758288D01*
X135884815Y-95825327D01*
X135853385Y-95858606D01*
X135700214Y-95969890D01*
X135700209Y-95969894D01*
X135549890Y-96120213D01*
X135424951Y-96292179D01*
X135328444Y-96481585D01*
X135328443Y-96481587D01*
X135328443Y-96481588D01*
X135315586Y-96521158D01*
X135262753Y-96683760D01*
X135229500Y-96893713D01*
X135229500Y-97106286D01*
X135262291Y-97313323D01*
X135262754Y-97316243D01*
X135322560Y-97500307D01*
X135328444Y-97518414D01*
X135424951Y-97707820D01*
X135549890Y-97879786D01*
X135700213Y-98030109D01*
X135872179Y-98155048D01*
X135872181Y-98155049D01*
X135872184Y-98155051D01*
X136061588Y-98251557D01*
X136263757Y-98317246D01*
X136473713Y-98350500D01*
X136473714Y-98350500D01*
X136686286Y-98350500D01*
X136686287Y-98350500D01*
X136852110Y-98324236D01*
X136873293Y-98320881D01*
X136899259Y-98324236D01*
X136925440Y-98323757D01*
X136933990Y-98328725D01*
X136942587Y-98329836D01*
X136957478Y-98342371D01*
X136980372Y-98355673D01*
X137192518Y-98567819D01*
X137226003Y-98629142D01*
X137221019Y-98698834D01*
X137179147Y-98754767D01*
X137113683Y-98779184D01*
X137104837Y-98779500D01*
X136994312Y-98779500D01*
X136971281Y-98774918D01*
X136961563Y-98775097D01*
X136956514Y-98771981D01*
X136946859Y-98770061D01*
X136946704Y-98769997D01*
X136899536Y-98750459D01*
X136899528Y-98750457D01*
X136769035Y-98724500D01*
X136769031Y-98724500D01*
X136597520Y-98724500D01*
X136530481Y-98704815D01*
X136528628Y-98703601D01*
X136509186Y-98690610D01*
X136509172Y-98690602D01*
X136363501Y-98630264D01*
X136363489Y-98630261D01*
X136208845Y-98599500D01*
X136208842Y-98599500D01*
X136051158Y-98599500D01*
X136051155Y-98599500D01*
X135896510Y-98630261D01*
X135896498Y-98630264D01*
X135750827Y-98690602D01*
X135750814Y-98690609D01*
X135619711Y-98778210D01*
X135619707Y-98778213D01*
X135508213Y-98889707D01*
X135508210Y-98889711D01*
X135420609Y-99020814D01*
X135420602Y-99020827D01*
X135360264Y-99166498D01*
X135360261Y-99166510D01*
X135329500Y-99321153D01*
X135329500Y-99478846D01*
X135360261Y-99633489D01*
X135360264Y-99633501D01*
X135420602Y-99779172D01*
X135420609Y-99779185D01*
X135508210Y-99910288D01*
X135508213Y-99910292D01*
X135619707Y-100021786D01*
X135619711Y-100021789D01*
X135750814Y-100109390D01*
X135750827Y-100109397D01*
X135896498Y-100169735D01*
X135896503Y-100169737D01*
X136049011Y-100200073D01*
X136051153Y-100200499D01*
X136051156Y-100200500D01*
X136160050Y-100200500D01*
X136227089Y-100220185D01*
X136247731Y-100236819D01*
X136294665Y-100283753D01*
X136294670Y-100283757D01*
X136431929Y-100366732D01*
X136431933Y-100366734D01*
X136474888Y-100380119D01*
X136585067Y-100414452D01*
X136651619Y-100420500D01*
X137153380Y-100420499D01*
X137153388Y-100420499D01*
X137219926Y-100414453D01*
X137219927Y-100414452D01*
X137219933Y-100414452D01*
X137373069Y-100366733D01*
X137435850Y-100328779D01*
X137503405Y-100310944D01*
X137564149Y-100328779D01*
X137626931Y-100366733D01*
X137626934Y-100366734D01*
X137626933Y-100366734D01*
X137669888Y-100380119D01*
X137780067Y-100414452D01*
X137846619Y-100420500D01*
X137911334Y-100420499D01*
X137978373Y-100440183D01*
X137999016Y-100456818D01*
X138029390Y-100487192D01*
X138029398Y-100487198D01*
X138140020Y-100561113D01*
X138140023Y-100561114D01*
X138140031Y-100561120D01*
X138140037Y-100561122D01*
X138140038Y-100561123D01*
X138259577Y-100610637D01*
X138262964Y-100612040D01*
X138262968Y-100612040D01*
X138262969Y-100612041D01*
X138393466Y-100638000D01*
X138393469Y-100638000D01*
X138526531Y-100638000D01*
X138532492Y-100638000D01*
X138599531Y-100657685D01*
X138638029Y-100696901D01*
X138682288Y-100768656D01*
X138806344Y-100892712D01*
X138809628Y-100894737D01*
X138809653Y-100894753D01*
X138811445Y-100896746D01*
X138812011Y-100897193D01*
X138811934Y-100897289D01*
X138856379Y-100946699D01*
X138867603Y-101015661D01*
X138839761Y-101079744D01*
X138809665Y-101105826D01*
X138806660Y-101107679D01*
X138806655Y-101107683D01*
X138682684Y-101231654D01*
X138590643Y-101380875D01*
X138590641Y-101380880D01*
X138535494Y-101547302D01*
X138535493Y-101547309D01*
X138525000Y-101650013D01*
X138525000Y-101787500D01*
X140974999Y-101787500D01*
X140974999Y-101650028D01*
X140974998Y-101650010D01*
X140968572Y-101587101D01*
X140981342Y-101518408D01*
X141029223Y-101467524D01*
X141091930Y-101450500D01*
X141128844Y-101450500D01*
X141128845Y-101450499D01*
X141283497Y-101419737D01*
X141429179Y-101359394D01*
X141560289Y-101271789D01*
X141671789Y-101160289D01*
X141759394Y-101029179D01*
X141819737Y-100883497D01*
X141850500Y-100728842D01*
X141850500Y-100571158D01*
X141848898Y-100563106D01*
X141855121Y-100493518D01*
X141897980Y-100438338D01*
X141959295Y-100415418D01*
X141969933Y-100414452D01*
X142123069Y-100366733D01*
X142185850Y-100328779D01*
X142253405Y-100310944D01*
X142314149Y-100328779D01*
X142376931Y-100366733D01*
X142376934Y-100366734D01*
X142376933Y-100366734D01*
X142419888Y-100380119D01*
X142530067Y-100414452D01*
X142596619Y-100420500D01*
X143098380Y-100420499D01*
X143098388Y-100420499D01*
X143164926Y-100414453D01*
X143164927Y-100414452D01*
X143164933Y-100414452D01*
X143275112Y-100380119D01*
X143281922Y-100377997D01*
X143351782Y-100376845D01*
X143411174Y-100413646D01*
X143436518Y-100457377D01*
X143464552Y-100541976D01*
X143487769Y-100612041D01*
X143490186Y-100619333D01*
X143490187Y-100619336D01*
X143518813Y-100665746D01*
X143582288Y-100768656D01*
X143706344Y-100892712D01*
X143709628Y-100894737D01*
X143709653Y-100894753D01*
X143711445Y-100896746D01*
X143712011Y-100897193D01*
X143711934Y-100897289D01*
X143756379Y-100946699D01*
X143767603Y-101015661D01*
X143739761Y-101079744D01*
X143709665Y-101105826D01*
X143706660Y-101107679D01*
X143706655Y-101107683D01*
X143582684Y-101231654D01*
X143490643Y-101380875D01*
X143490641Y-101380880D01*
X143435494Y-101547302D01*
X143435493Y-101547309D01*
X143425000Y-101650013D01*
X143425000Y-101787500D01*
X144526000Y-101787500D01*
X144593039Y-101807185D01*
X144638794Y-101859989D01*
X144650000Y-101911500D01*
X144650000Y-102037500D01*
X144776000Y-102037500D01*
X144843039Y-102057185D01*
X144888794Y-102109989D01*
X144900000Y-102161500D01*
X144900000Y-103124999D01*
X145174972Y-103124999D01*
X145174986Y-103124998D01*
X145277697Y-103114505D01*
X145444119Y-103059358D01*
X145444124Y-103059356D01*
X145593345Y-102967315D01*
X145717315Y-102843345D01*
X145809356Y-102694124D01*
X145812408Y-102687579D01*
X145814815Y-102688701D01*
X145847561Y-102641400D01*
X145912076Y-102614573D01*
X145980852Y-102626884D01*
X146032055Y-102674424D01*
X146049500Y-102737844D01*
X146049500Y-114926162D01*
X146049499Y-114934857D01*
X146049308Y-114935581D01*
X146049495Y-114999096D01*
X146049495Y-114999233D01*
X146049486Y-114999260D01*
X146049403Y-115004004D01*
X146032172Y-115450773D01*
X146031349Y-115461027D01*
X145977465Y-115902215D01*
X145975796Y-115912366D01*
X145885521Y-116347601D01*
X145883017Y-116357573D01*
X145756979Y-116783816D01*
X145753661Y-116793537D01*
X145592728Y-117207867D01*
X145588609Y-117217294D01*
X145393891Y-117616848D01*
X145389005Y-117625900D01*
X145161832Y-118007953D01*
X145156212Y-118016569D01*
X144898160Y-118378468D01*
X144891845Y-118386589D01*
X144604681Y-118725855D01*
X144597715Y-118733424D01*
X144283424Y-119047715D01*
X144275855Y-119054681D01*
X143936589Y-119341845D01*
X143928468Y-119348160D01*
X143566569Y-119606212D01*
X143557953Y-119611832D01*
X143175900Y-119839005D01*
X143166848Y-119843891D01*
X142767294Y-120038609D01*
X142757867Y-120042728D01*
X142343537Y-120203661D01*
X142333816Y-120206979D01*
X141907573Y-120333017D01*
X141897601Y-120335521D01*
X141462366Y-120425796D01*
X141452215Y-120427465D01*
X141011027Y-120481349D01*
X141000773Y-120482172D01*
X140554004Y-120499403D01*
X140549233Y-120499495D01*
X140549097Y-120499495D01*
X140485581Y-120499308D01*
X140484858Y-120499499D01*
X140476155Y-120499500D01*
X140476153Y-120499499D01*
X140476147Y-120499500D01*
X110202561Y-120499500D01*
X110197437Y-120499394D01*
X109750983Y-120480928D01*
X109740769Y-120480082D01*
X109299900Y-120425128D01*
X109289791Y-120423441D01*
X108854971Y-120332269D01*
X108845036Y-120329753D01*
X108419226Y-120202984D01*
X108409533Y-120199656D01*
X107995660Y-120038161D01*
X107986275Y-120034045D01*
X107587136Y-119838919D01*
X107578122Y-119834041D01*
X107196455Y-119606616D01*
X107187876Y-119601010D01*
X106826312Y-119342859D01*
X106818224Y-119336564D01*
X106479203Y-119049428D01*
X106471663Y-119042487D01*
X106157512Y-118728336D01*
X106150582Y-118720809D01*
X105863431Y-118381770D01*
X105857140Y-118373687D01*
X105743721Y-118214834D01*
X105655915Y-118091854D01*
X105598989Y-118012123D01*
X105593383Y-118003544D01*
X105546481Y-117924833D01*
X105365955Y-117621872D01*
X105361080Y-117612863D01*
X105165954Y-117213724D01*
X105161838Y-117204339D01*
X105063424Y-116952127D01*
X105000338Y-116790454D01*
X104997019Y-116780786D01*
X104870242Y-116354950D01*
X104867733Y-116345042D01*
X104776555Y-115910194D01*
X104774873Y-115900114D01*
X104719915Y-115459209D01*
X104719072Y-115449036D01*
X104700606Y-115002562D01*
X104700500Y-114997438D01*
X104700500Y-114790423D01*
X105400000Y-114790423D01*
X105400000Y-115209576D01*
X105436531Y-115627125D01*
X105509314Y-116039894D01*
X105509317Y-116039907D01*
X105617793Y-116444752D01*
X105761157Y-116838639D01*
X105761160Y-116838647D01*
X105938287Y-117218495D01*
X105938295Y-117218511D01*
X106147859Y-117581486D01*
X106147875Y-117581512D01*
X106388271Y-117924833D01*
X106631611Y-118214834D01*
X108513098Y-116333347D01*
X108580076Y-116420635D01*
X108779365Y-116619924D01*
X108866650Y-116686900D01*
X106985163Y-118568387D01*
X106985164Y-118568388D01*
X107275159Y-118811723D01*
X107618487Y-119052124D01*
X107618513Y-119052140D01*
X107981488Y-119261704D01*
X107981504Y-119261712D01*
X108361352Y-119438839D01*
X108361360Y-119438842D01*
X108755247Y-119582206D01*
X109160092Y-119690682D01*
X109160105Y-119690685D01*
X109572874Y-119763468D01*
X109990423Y-119799999D01*
X109990426Y-119800000D01*
X110409574Y-119800000D01*
X110409576Y-119799999D01*
X110827125Y-119763468D01*
X111239894Y-119690685D01*
X111239907Y-119690682D01*
X111644752Y-119582206D01*
X112038639Y-119438842D01*
X112038647Y-119438839D01*
X112418495Y-119261712D01*
X112418511Y-119261704D01*
X112781486Y-119052140D01*
X112781512Y-119052124D01*
X113124840Y-118811723D01*
X113414834Y-118568388D01*
X113414835Y-118568387D01*
X111533348Y-116686901D01*
X111620635Y-116619924D01*
X111819924Y-116420635D01*
X111886900Y-116333348D01*
X113768387Y-118214835D01*
X113768388Y-118214834D01*
X114011723Y-117924840D01*
X114252124Y-117581512D01*
X114252140Y-117581486D01*
X114461704Y-117218511D01*
X114461712Y-117218495D01*
X114638839Y-116838647D01*
X114638842Y-116838639D01*
X114782206Y-116444752D01*
X114890682Y-116039907D01*
X114890685Y-116039894D01*
X114963468Y-115627125D01*
X114999999Y-115209576D01*
X115000000Y-115209574D01*
X115000000Y-114790426D01*
X114999999Y-114790423D01*
X114963468Y-114372874D01*
X114894489Y-113981674D01*
X114890763Y-113960547D01*
X115418531Y-113960547D01*
X115423529Y-114044691D01*
X115444980Y-114117747D01*
X115464065Y-114182743D01*
X115464066Y-114182745D01*
X115541851Y-114303781D01*
X115541855Y-114303785D01*
X115628912Y-114379221D01*
X115650590Y-114398005D01*
X115691058Y-114416486D01*
X115781464Y-114457774D01*
X115781467Y-114457774D01*
X115781468Y-114457775D01*
X115923884Y-114478251D01*
X115923887Y-114478251D01*
X116315430Y-114478251D01*
X116341173Y-114476478D01*
X116384698Y-114473482D01*
X116522964Y-114433681D01*
X116644416Y-114356539D01*
X116739215Y-114248305D01*
X116799681Y-114117747D01*
X116820915Y-113975442D01*
X116822173Y-113739007D01*
X116822246Y-113735374D01*
X116830420Y-113505713D01*
X116830608Y-113502047D01*
X116849944Y-113209822D01*
X116850323Y-113205339D01*
X116853451Y-113174957D01*
X116885532Y-112863258D01*
X116885994Y-112859377D01*
X116889877Y-112830606D01*
X116899807Y-112757034D01*
X116913546Y-112726249D01*
X116926650Y-112695189D01*
X116927742Y-112694440D01*
X116928282Y-112693232D01*
X116956471Y-112674769D01*
X116984300Y-112655715D01*
X116986022Y-112655415D01*
X116986732Y-112654951D01*
X117019069Y-112649675D01*
X117065686Y-112648313D01*
X117070727Y-112648269D01*
X117206870Y-112649845D01*
X117211730Y-112649998D01*
X117351448Y-112657157D01*
X117356025Y-112657479D01*
X117501237Y-112670381D01*
X117505434Y-112670826D01*
X117658168Y-112689709D01*
X117661851Y-112690222D01*
X117823564Y-112715293D01*
X117826750Y-112715831D01*
X117999134Y-112747325D01*
X118001829Y-112747850D01*
X118185887Y-112785863D01*
X118188166Y-112786356D01*
X118383521Y-112830612D01*
X118386108Y-112831228D01*
X118827378Y-112941395D01*
X118829567Y-112941963D01*
X119132557Y-113023713D01*
X119132559Y-113023713D01*
X119140453Y-113025843D01*
X119140456Y-113025843D01*
X119331925Y-113077504D01*
X119334020Y-113078090D01*
X119872772Y-113233908D01*
X119874027Y-113234277D01*
X120412294Y-113396180D01*
X120417237Y-113397639D01*
X120967531Y-113557059D01*
X120977233Y-113559765D01*
X121260456Y-113635732D01*
X121269802Y-113638143D01*
X121560926Y-113710300D01*
X121572114Y-113712939D01*
X121572131Y-113712942D01*
X121572170Y-113712952D01*
X121688834Y-113739067D01*
X121873028Y-113780299D01*
X121885750Y-113782975D01*
X122198342Y-113844553D01*
X122198350Y-113844554D01*
X122198368Y-113844558D01*
X122205030Y-113845773D01*
X122212271Y-113847095D01*
X122538429Y-113901905D01*
X122551019Y-113903829D01*
X122553230Y-113904168D01*
X122627693Y-113914424D01*
X122894838Y-113951222D01*
X122910164Y-113953095D01*
X123269120Y-113991410D01*
X123284668Y-113992827D01*
X123662855Y-114021416D01*
X123662863Y-114021416D01*
X123662870Y-114021417D01*
X123664730Y-114021528D01*
X123678352Y-114022348D01*
X124077660Y-114040224D01*
X124077685Y-114040224D01*
X124077691Y-114040225D01*
X124079441Y-114040276D01*
X124092873Y-114040676D01*
X124515188Y-114046854D01*
X124540511Y-114046590D01*
X124743523Y-114039385D01*
X124776989Y-114037084D01*
X124776990Y-114037083D01*
X124777003Y-114037083D01*
X124921176Y-114022348D01*
X124982908Y-114016039D01*
X125013035Y-114012041D01*
X125221323Y-113978005D01*
X125248298Y-113972841D01*
X125248301Y-113972840D01*
X125248308Y-113972839D01*
X125458404Y-113926669D01*
X125458401Y-113926669D01*
X125458418Y-113926666D01*
X125482505Y-113920750D01*
X125693919Y-113863288D01*
X125715408Y-113856933D01*
X125927579Y-113789034D01*
X125955402Y-113779226D01*
X126379862Y-113615526D01*
X126410612Y-113602484D01*
X126831648Y-113407255D01*
X126856477Y-113394903D01*
X127269786Y-113174956D01*
X127290063Y-113163560D01*
X127485286Y-113047844D01*
X131950000Y-113047844D01*
X131956401Y-113107372D01*
X131956403Y-113107379D01*
X132006645Y-113242086D01*
X132006649Y-113242093D01*
X132092809Y-113357187D01*
X132092812Y-113357190D01*
X132207906Y-113443350D01*
X132207913Y-113443354D01*
X132342620Y-113493596D01*
X132342627Y-113493598D01*
X132402155Y-113499999D01*
X132402172Y-113500000D01*
X132800000Y-113500000D01*
X133300000Y-113500000D01*
X133697828Y-113500000D01*
X133697844Y-113499999D01*
X133757372Y-113493598D01*
X133757379Y-113493596D01*
X133892086Y-113443354D01*
X133892093Y-113443350D01*
X134007187Y-113357190D01*
X134007190Y-113357187D01*
X134093350Y-113242093D01*
X134093354Y-113242086D01*
X134143596Y-113107379D01*
X134143598Y-113107372D01*
X134149999Y-113047844D01*
X134150000Y-113047827D01*
X134150000Y-112000000D01*
X133300000Y-112000000D01*
X133300000Y-113500000D01*
X132800000Y-113500000D01*
X132800000Y-112000000D01*
X131950000Y-112000000D01*
X131950000Y-113047844D01*
X127485286Y-113047844D01*
X127691345Y-112925705D01*
X127708102Y-112915326D01*
X128093056Y-112666373D01*
X128107063Y-112656979D01*
X128324865Y-112505587D01*
X128471357Y-112403762D01*
X128471388Y-112403740D01*
X128483227Y-112395255D01*
X128822621Y-112144540D01*
X128836889Y-112133603D01*
X129423685Y-111666985D01*
X129438818Y-111654463D01*
X129874281Y-111279667D01*
X129885761Y-111269480D01*
X130135485Y-111040989D01*
X130155006Y-111022140D01*
X130156548Y-111020569D01*
X130183169Y-110991231D01*
X130184533Y-110989604D01*
X130209409Y-110957381D01*
X130210599Y-110955704D01*
X130233185Y-110920936D01*
X130234204Y-110919217D01*
X130253958Y-110882526D01*
X130254811Y-110880772D01*
X130271702Y-110841992D01*
X130272391Y-110840210D01*
X130285835Y-110800650D01*
X130286366Y-110798846D01*
X130296515Y-110758229D01*
X130296890Y-110756411D01*
X130303543Y-110715907D01*
X130303767Y-110714083D01*
X130307098Y-110673500D01*
X130307174Y-110671675D01*
X130307269Y-110632025D01*
X130307202Y-110630207D01*
X130304218Y-110590924D01*
X130304010Y-110589120D01*
X130298184Y-110551258D01*
X130297840Y-110549475D01*
X130289315Y-110512725D01*
X130288838Y-110510969D01*
X130277876Y-110475748D01*
X130277271Y-110474028D01*
X130268673Y-110452155D01*
X131950000Y-110452155D01*
X131950000Y-111500000D01*
X132800000Y-111500000D01*
X133300000Y-111500000D01*
X134150000Y-111500000D01*
X134150000Y-110452172D01*
X134149999Y-110452155D01*
X134143598Y-110392627D01*
X134143596Y-110392620D01*
X134093354Y-110257913D01*
X134093350Y-110257906D01*
X134007190Y-110142812D01*
X134007187Y-110142809D01*
X133892093Y-110056649D01*
X133892086Y-110056645D01*
X133757379Y-110006403D01*
X133757372Y-110006401D01*
X133697844Y-110000000D01*
X133300000Y-110000000D01*
X133300000Y-111500000D01*
X132800000Y-111500000D01*
X132800000Y-110000000D01*
X132402155Y-110000000D01*
X132342627Y-110006401D01*
X132342620Y-110006403D01*
X132207913Y-110056645D01*
X132207906Y-110056649D01*
X132092812Y-110142809D01*
X132092809Y-110142812D01*
X132006649Y-110257906D01*
X132006645Y-110257913D01*
X131956403Y-110392620D01*
X131956401Y-110392627D01*
X131950000Y-110452155D01*
X130268673Y-110452155D01*
X130263845Y-110439872D01*
X130263114Y-110438194D01*
X130247667Y-110405908D01*
X130246816Y-110404280D01*
X130229220Y-110373325D01*
X130228251Y-110371752D01*
X130208632Y-110342269D01*
X130208616Y-110342246D01*
X130207563Y-110340777D01*
X130205467Y-110338058D01*
X130186175Y-110313037D01*
X130184983Y-110311597D01*
X130184975Y-110311587D01*
X130161521Y-110285189D01*
X130160220Y-110283824D01*
X130135106Y-110259245D01*
X130135092Y-110259231D01*
X130133692Y-110257953D01*
X130106700Y-110234994D01*
X130106684Y-110234980D01*
X130105219Y-110233821D01*
X130105214Y-110233817D01*
X130105201Y-110233807D01*
X130076545Y-110212713D01*
X130076289Y-110212538D01*
X130074943Y-110211618D01*
X130044627Y-110192449D01*
X130042944Y-110191466D01*
X130011218Y-110174433D01*
X130009427Y-110173552D01*
X129976259Y-110158695D01*
X129974411Y-110157946D01*
X129939911Y-110145396D01*
X129937991Y-110144776D01*
X129902965Y-110134836D01*
X129900962Y-110134345D01*
X129864615Y-110126833D01*
X129862519Y-110126479D01*
X129826190Y-110121698D01*
X129824052Y-110121495D01*
X129787722Y-110119365D01*
X129785544Y-110119316D01*
X129769888Y-110119204D01*
X129521915Y-110121272D01*
X129454713Y-110102147D01*
X129408520Y-110049726D01*
X129398000Y-109980653D01*
X129410583Y-109940616D01*
X129528787Y-109710530D01*
X129541663Y-109683528D01*
X129542486Y-109681662D01*
X129563180Y-109626137D01*
X129563769Y-109624220D01*
X129577402Y-109568927D01*
X129577769Y-109566970D01*
X129584922Y-109512819D01*
X129585076Y-109510830D01*
X129585843Y-109481576D01*
X129586428Y-109459254D01*
X129586428Y-109459244D01*
X129586378Y-109457233D01*
X129582930Y-109409540D01*
X129582687Y-109407516D01*
X129575435Y-109363573D01*
X129575008Y-109361546D01*
X129564959Y-109321878D01*
X129564359Y-109319857D01*
X129552211Y-109283936D01*
X129551448Y-109281931D01*
X129537567Y-109249005D01*
X129536649Y-109247026D01*
X129521850Y-109217665D01*
X129521840Y-109217646D01*
X129520796Y-109215731D01*
X129504989Y-109188771D01*
X129503797Y-109186875D01*
X129503793Y-109186868D01*
X129487275Y-109162227D01*
X129485956Y-109160379D01*
X129468504Y-109137349D01*
X129467070Y-109135565D01*
X129466967Y-109135444D01*
X129449139Y-109114468D01*
X129447587Y-109112741D01*
X129433918Y-109098329D01*
X129428760Y-109092890D01*
X129427128Y-109091260D01*
X129407412Y-109072599D01*
X129405696Y-109071060D01*
X129405685Y-109071050D01*
X129384552Y-109053117D01*
X129382761Y-109051681D01*
X129382745Y-109051668D01*
X129360507Y-109034813D01*
X129358652Y-109033486D01*
X129355580Y-109031419D01*
X129334602Y-109017303D01*
X129332671Y-109016083D01*
X129306904Y-109000850D01*
X129306894Y-109000844D01*
X129304939Y-108999765D01*
X129276394Y-108985171D01*
X129275343Y-108984675D01*
X129274413Y-108984236D01*
X129274404Y-108984232D01*
X129243402Y-108970851D01*
X129243385Y-108970844D01*
X129243375Y-108970840D01*
X129241384Y-108970059D01*
X129240821Y-108969861D01*
X129233479Y-108967277D01*
X129207362Y-108958085D01*
X129205357Y-108957458D01*
X129167524Y-108947233D01*
X129165501Y-108946769D01*
X129124061Y-108939078D01*
X129122041Y-108938790D01*
X129122027Y-108938788D01*
X129076634Y-108934385D01*
X129074610Y-108934280D01*
X129025495Y-108934135D01*
X129023677Y-108934218D01*
X129023492Y-108934227D01*
X129023490Y-108934227D01*
X129023457Y-108934229D01*
X128970731Y-108939421D01*
X128970730Y-108939422D01*
X128968756Y-108939721D01*
X128914120Y-108951131D01*
X128914080Y-108951141D01*
X128912184Y-108951647D01*
X128912160Y-108951654D01*
X128856990Y-108969858D01*
X128856984Y-108969861D01*
X128855117Y-108970598D01*
X128855089Y-108970610D01*
X128800813Y-108995865D01*
X128799578Y-108996531D01*
X128799009Y-108996839D01*
X128798991Y-108996848D01*
X128798991Y-108996849D01*
X128787789Y-109003078D01*
X128472084Y-109183942D01*
X128467185Y-109186604D01*
X128244407Y-109301248D01*
X128240504Y-109303171D01*
X127967183Y-109431905D01*
X127962823Y-109433856D01*
X127697253Y-109546657D01*
X127627854Y-109554748D01*
X127565097Y-109524034D01*
X127528907Y-109464267D01*
X127525138Y-109428136D01*
X127525000Y-109428136D01*
X127525000Y-109426810D01*
X127524937Y-109426207D01*
X127525000Y-109424972D01*
X127525000Y-109287500D01*
X125075001Y-109287500D01*
X125075001Y-109424986D01*
X125085494Y-109527697D01*
X125140641Y-109694119D01*
X125140643Y-109694124D01*
X125232684Y-109843345D01*
X125304047Y-109914708D01*
X125313304Y-109931661D01*
X125326624Y-109945652D01*
X125329703Y-109961694D01*
X125337532Y-109976031D01*
X125336154Y-109995297D01*
X125339796Y-110014269D01*
X125333713Y-110029429D01*
X125332548Y-110045723D01*
X125320971Y-110061186D01*
X125313779Y-110079114D01*
X125300464Y-110088579D01*
X125290676Y-110101656D01*
X125272578Y-110108405D01*
X125256834Y-110119600D01*
X125227439Y-110125242D01*
X125225212Y-110126073D01*
X125222173Y-110126253D01*
X125048200Y-110134409D01*
X125043320Y-110134542D01*
X124796201Y-110136390D01*
X124791094Y-110136323D01*
X124540956Y-110127886D01*
X124535631Y-110127591D01*
X124282897Y-110108160D01*
X124277370Y-110107610D01*
X124022437Y-110076475D01*
X124016732Y-110075644D01*
X123759897Y-110032079D01*
X123754046Y-110030941D01*
X123495628Y-109974212D01*
X123489666Y-109972747D01*
X123229942Y-109902091D01*
X123223912Y-109900286D01*
X122963114Y-109814906D01*
X122957065Y-109812750D01*
X122695484Y-109711841D01*
X122689466Y-109709336D01*
X122416587Y-109587231D01*
X122414792Y-109586411D01*
X122252849Y-109510830D01*
X122152533Y-109464011D01*
X122142655Y-109459529D01*
X122019222Y-109405115D01*
X121884326Y-109345647D01*
X121874102Y-109341275D01*
X121624237Y-109237656D01*
X121613627Y-109233396D01*
X121372001Y-109139580D01*
X121360993Y-109135454D01*
X121127714Y-109051109D01*
X121116236Y-109047115D01*
X120891105Y-108971793D01*
X120879254Y-108967991D01*
X120662323Y-108901332D01*
X120659196Y-108900414D01*
X120649977Y-108897709D01*
X120545523Y-108868494D01*
X120441079Y-108839281D01*
X120428312Y-108835889D01*
X120227402Y-108785299D01*
X120214282Y-108782181D01*
X120021240Y-108739013D01*
X120007716Y-108736182D01*
X119822480Y-108700042D01*
X119808603Y-108697536D01*
X119631108Y-108668021D01*
X119609776Y-108664940D01*
X119277742Y-108624187D01*
X119277727Y-108624185D01*
X119277714Y-108624184D01*
X119247994Y-108621424D01*
X119247962Y-108621421D01*
X118946003Y-108602352D01*
X118920692Y-108601389D01*
X118742114Y-108599082D01*
X118722009Y-108599223D01*
X118555531Y-108603694D01*
X118542651Y-108604300D01*
X118535166Y-108604653D01*
X118443900Y-108610789D01*
X118380469Y-108615054D01*
X118360033Y-108616846D01*
X118217068Y-108632317D01*
X118196552Y-108634963D01*
X118065177Y-108654645D01*
X118044697Y-108658145D01*
X117924672Y-108681196D01*
X117904355Y-108685532D01*
X117795576Y-108711089D01*
X117775585Y-108716217D01*
X117679694Y-108742922D01*
X117677831Y-108743441D01*
X117658197Y-108749340D01*
X117658184Y-108749344D01*
X117658148Y-108749355D01*
X117625978Y-108759736D01*
X117571280Y-108764609D01*
X117545053Y-108761061D01*
X117540256Y-108760554D01*
X117540253Y-108760553D01*
X117540246Y-108760553D01*
X117537140Y-108760289D01*
X117519145Y-108758764D01*
X117514539Y-108758471D01*
X117493492Y-108757568D01*
X117488996Y-108757469D01*
X117468376Y-108757449D01*
X117467778Y-108757449D01*
X117467776Y-108757449D01*
X117467747Y-108757449D01*
X117463429Y-108757535D01*
X117442474Y-108758388D01*
X117438285Y-108758646D01*
X117417453Y-108760359D01*
X117413440Y-108760773D01*
X117392933Y-108763311D01*
X117389048Y-108763872D01*
X117369080Y-108767166D01*
X117365316Y-108767864D01*
X117350481Y-108770920D01*
X117345864Y-108771872D01*
X117345856Y-108771873D01*
X117345855Y-108771874D01*
X117342234Y-108772694D01*
X117329905Y-108775739D01*
X117323277Y-108777376D01*
X117322324Y-108777630D01*
X117319814Y-108778302D01*
X117301580Y-108783547D01*
X117298307Y-108784556D01*
X117280623Y-108790363D01*
X117277417Y-108791481D01*
X117260567Y-108797698D01*
X117257458Y-108798909D01*
X117241545Y-108805420D01*
X117238637Y-108806669D01*
X117223103Y-108813650D01*
X117220375Y-108814931D01*
X117205761Y-108822086D01*
X117203163Y-108823410D01*
X117189193Y-108830807D01*
X117186818Y-108832113D01*
X117173644Y-108839613D01*
X117171400Y-108840936D01*
X117158893Y-108848553D01*
X117156747Y-108849903D01*
X117146634Y-108856460D01*
X117145174Y-108857407D01*
X117144522Y-108857842D01*
X117143171Y-108858744D01*
X117126834Y-108870129D01*
X117123326Y-108872678D01*
X117103717Y-108887671D01*
X117100882Y-108889951D01*
X117083340Y-108904723D01*
X117081136Y-108906668D01*
X117081119Y-108906683D01*
X117066388Y-108920220D01*
X117065721Y-108920834D01*
X117064151Y-108922337D01*
X117052292Y-108934227D01*
X117047901Y-108938629D01*
X117047749Y-108938789D01*
X117046623Y-108939969D01*
X116998371Y-108998914D01*
X116998370Y-108998916D01*
X116955362Y-109060377D01*
X116931245Y-109098329D01*
X116846836Y-109245216D01*
X116838507Y-109260299D01*
X116721165Y-109481602D01*
X116715310Y-109492990D01*
X116573547Y-109777622D01*
X116568188Y-109788715D01*
X116410482Y-110125652D01*
X116405083Y-110137590D01*
X116239936Y-110515758D01*
X116234163Y-110529532D01*
X116234151Y-110529561D01*
X116234148Y-110529569D01*
X116205311Y-110601329D01*
X116070066Y-110937884D01*
X116063717Y-110954524D01*
X115909179Y-111381966D01*
X115903493Y-111398591D01*
X115833692Y-111614863D01*
X115829567Y-111628280D01*
X115766850Y-111842844D01*
X115763387Y-111855279D01*
X115707448Y-112066492D01*
X115704527Y-112078072D01*
X115654973Y-112284615D01*
X115652548Y-112295232D01*
X115609018Y-112495687D01*
X115606969Y-112505603D01*
X115569174Y-112698204D01*
X115569161Y-112698275D01*
X115567427Y-112707568D01*
X115560300Y-112747860D01*
X115534962Y-112891108D01*
X115533503Y-112899798D01*
X115506033Y-113072728D01*
X115504281Y-113084691D01*
X115504273Y-113084751D01*
X115467717Y-113357187D01*
X115462968Y-113392577D01*
X115461141Y-113407984D01*
X115435673Y-113655250D01*
X115434285Y-113671203D01*
X115421847Y-113846180D01*
X115420721Y-113869823D01*
X115419492Y-113920747D01*
X115418531Y-113960547D01*
X114890763Y-113960547D01*
X114890685Y-113960105D01*
X114890682Y-113960092D01*
X114782206Y-113555247D01*
X114638842Y-113161360D01*
X114638839Y-113161352D01*
X114461712Y-112781504D01*
X114461704Y-112781488D01*
X114252140Y-112418513D01*
X114252124Y-112418487D01*
X114011723Y-112075159D01*
X113768388Y-111785164D01*
X113768387Y-111785163D01*
X111886900Y-113666650D01*
X111819924Y-113579365D01*
X111620635Y-113380076D01*
X111533347Y-113313097D01*
X113414834Y-111431611D01*
X113124833Y-111188271D01*
X112781512Y-110947875D01*
X112781486Y-110947859D01*
X112418511Y-110738295D01*
X112418495Y-110738287D01*
X112038647Y-110561160D01*
X112038639Y-110561157D01*
X111644752Y-110417793D01*
X111239907Y-110309317D01*
X111239894Y-110309314D01*
X110827125Y-110236531D01*
X110409576Y-110200000D01*
X109990423Y-110200000D01*
X109572874Y-110236531D01*
X109160105Y-110309314D01*
X109160092Y-110309317D01*
X108755247Y-110417793D01*
X108361360Y-110561157D01*
X108361352Y-110561160D01*
X107981504Y-110738287D01*
X107981488Y-110738295D01*
X107618513Y-110947859D01*
X107618487Y-110947875D01*
X107275166Y-111188271D01*
X106985164Y-111431612D01*
X108866651Y-113313098D01*
X108779365Y-113380076D01*
X108580076Y-113579365D01*
X108513098Y-113666651D01*
X106631612Y-111785164D01*
X106388271Y-112075166D01*
X106147875Y-112418487D01*
X106147859Y-112418513D01*
X105938295Y-112781488D01*
X105938287Y-112781504D01*
X105761160Y-113161352D01*
X105761157Y-113161360D01*
X105617793Y-113555247D01*
X105509317Y-113960092D01*
X105509314Y-113960105D01*
X105436531Y-114372874D01*
X105400000Y-114790423D01*
X104700500Y-114790423D01*
X104700500Y-86113764D01*
X104701033Y-86111707D01*
X104700500Y-86047853D01*
X104700500Y-86047201D01*
X104700560Y-86043343D01*
X104704047Y-85931342D01*
X104708434Y-85790423D01*
X105400000Y-85790423D01*
X105400000Y-86209576D01*
X105436531Y-86627125D01*
X105509314Y-87039894D01*
X105509317Y-87039907D01*
X105617793Y-87444752D01*
X105761157Y-87838639D01*
X105761160Y-87838647D01*
X105938287Y-88218495D01*
X105938295Y-88218511D01*
X106147859Y-88581486D01*
X106147875Y-88581512D01*
X106388271Y-88924833D01*
X106631611Y-89214834D01*
X108513098Y-87333347D01*
X108580076Y-87420635D01*
X108779365Y-87619924D01*
X108866650Y-87686900D01*
X106985163Y-89568387D01*
X106985164Y-89568388D01*
X107275159Y-89811723D01*
X107618487Y-90052124D01*
X107618513Y-90052140D01*
X107981488Y-90261704D01*
X107981504Y-90261712D01*
X108361352Y-90438839D01*
X108361360Y-90438842D01*
X108755247Y-90582206D01*
X109160092Y-90690682D01*
X109160105Y-90690685D01*
X109572874Y-90763468D01*
X109990423Y-90799999D01*
X109990426Y-90800000D01*
X110409574Y-90800000D01*
X110409576Y-90799999D01*
X110827125Y-90763468D01*
X111239894Y-90690685D01*
X111239907Y-90690682D01*
X111644752Y-90582206D01*
X112038639Y-90438842D01*
X112038647Y-90438839D01*
X112418495Y-90261712D01*
X112418511Y-90261704D01*
X112630095Y-90139546D01*
X115241269Y-90139546D01*
X115277359Y-90145910D01*
X115277372Y-90145912D01*
X115378620Y-90153288D01*
X115549206Y-90128301D01*
X115549207Y-90128301D01*
X115709420Y-90064652D01*
X115709427Y-90064648D01*
X115850652Y-89965762D01*
X115965258Y-89836979D01*
X115965259Y-89836978D01*
X116047084Y-89685225D01*
X116047085Y-89685224D01*
X116074784Y-89587556D01*
X116074788Y-89587539D01*
X116092003Y-89489906D01*
X116092002Y-89489905D01*
X115378016Y-89364010D01*
X115241269Y-90139546D01*
X112630095Y-90139546D01*
X112781486Y-90052140D01*
X112781512Y-90052124D01*
X113124840Y-89811723D01*
X113414834Y-89568388D01*
X113414835Y-89568387D01*
X111533348Y-87686901D01*
X111620635Y-87619924D01*
X111819924Y-87420635D01*
X111886900Y-87333348D01*
X113768387Y-89214835D01*
X113768388Y-89214834D01*
X113967259Y-88977830D01*
X114025430Y-88939128D01*
X114095291Y-88938020D01*
X114154661Y-88974857D01*
X114184690Y-89037944D01*
X114184364Y-89079068D01*
X114154412Y-89248937D01*
X114147034Y-89350193D01*
X114172021Y-89520780D01*
X114235670Y-89680992D01*
X114235675Y-89681000D01*
X114334561Y-89822225D01*
X114463348Y-89936836D01*
X114615094Y-90018656D01*
X114615103Y-90018660D01*
X114712761Y-90046356D01*
X114712785Y-90046361D01*
X114748865Y-90052723D01*
X114907493Y-89153102D01*
X114938520Y-89090499D01*
X114998467Y-89054608D01*
X115051141Y-89052518D01*
X115175227Y-89074397D01*
X115197107Y-88950312D01*
X115228133Y-88887709D01*
X115288080Y-88851819D01*
X115340755Y-88849728D01*
X116178826Y-88997502D01*
X116196043Y-88899856D01*
X116203421Y-88798602D01*
X116178434Y-88628016D01*
X116114780Y-88467793D01*
X116103484Y-88451660D01*
X116081156Y-88385453D01*
X116098168Y-88317686D01*
X116133935Y-88278963D01*
X116150529Y-88267344D01*
X116150532Y-88267340D01*
X116150534Y-88267339D01*
X116213788Y-88196260D01*
X116265219Y-88138467D01*
X116347097Y-87986615D01*
X116374818Y-87888868D01*
X116450939Y-87457157D01*
X116459921Y-87439033D01*
X116464222Y-87419265D01*
X116480487Y-87397536D01*
X116481964Y-87394557D01*
X116485321Y-87391063D01*
X116642822Y-87233563D01*
X116704142Y-87200081D01*
X116773834Y-87205065D01*
X116829767Y-87246937D01*
X116854184Y-87312401D01*
X116854500Y-87321247D01*
X116854500Y-89328125D01*
X116834815Y-89395164D01*
X116818181Y-89415806D01*
X115898970Y-90335016D01*
X115898964Y-90335024D01*
X115851874Y-90405499D01*
X115851875Y-90405500D01*
X115819570Y-90453848D01*
X115764881Y-90585879D01*
X115764879Y-90585885D01*
X115737000Y-90726042D01*
X115737000Y-91240798D01*
X115719732Y-91303919D01*
X115643629Y-91432601D01*
X115643628Y-91432604D01*
X115597424Y-91591637D01*
X115597423Y-91591643D01*
X115594500Y-91628789D01*
X115594500Y-91711335D01*
X115574815Y-91778374D01*
X115558182Y-91799015D01*
X115445306Y-91911892D01*
X115445302Y-91911897D01*
X115371383Y-92022524D01*
X115371378Y-92022534D01*
X115320459Y-92145463D01*
X115320457Y-92145471D01*
X115294500Y-92275964D01*
X115294500Y-93502479D01*
X115274815Y-93569518D01*
X115273602Y-93571370D01*
X115260609Y-93590814D01*
X115260602Y-93590827D01*
X115200264Y-93736498D01*
X115200261Y-93736510D01*
X115169500Y-93891153D01*
X115169500Y-94048846D01*
X115200261Y-94203489D01*
X115200264Y-94203501D01*
X115260602Y-94349172D01*
X115260609Y-94349185D01*
X115348210Y-94480288D01*
X115348213Y-94480292D01*
X115459707Y-94591786D01*
X115459711Y-94591789D01*
X115590814Y-94679390D01*
X115590827Y-94679397D01*
X115736498Y-94739735D01*
X115736503Y-94739737D01*
X115891153Y-94770499D01*
X115891156Y-94770500D01*
X115891158Y-94770500D01*
X116048844Y-94770500D01*
X116048845Y-94770499D01*
X116203497Y-94739737D01*
X116349179Y-94679394D01*
X116480289Y-94591789D01*
X116591789Y-94480289D01*
X116679394Y-94349179D01*
X116682485Y-94341718D01*
X116726115Y-94236383D01*
X116739737Y-94203497D01*
X116770500Y-94048842D01*
X116770500Y-93891158D01*
X116770500Y-93891155D01*
X116770499Y-93891153D01*
X116760144Y-93839094D01*
X116739737Y-93736503D01*
X116714463Y-93675486D01*
X116679397Y-93590827D01*
X116679390Y-93590814D01*
X116666398Y-93571370D01*
X116645520Y-93504692D01*
X116645500Y-93502479D01*
X116645500Y-92782655D01*
X116665185Y-92715616D01*
X116717989Y-92669861D01*
X116759775Y-92659037D01*
X116778358Y-92657576D01*
X116937400Y-92611370D01*
X116967369Y-92593645D01*
X117035088Y-92576461D01*
X117093613Y-92593645D01*
X117122800Y-92610906D01*
X117122805Y-92610908D01*
X117281716Y-92657077D01*
X117281722Y-92657078D01*
X117318842Y-92659999D01*
X117318858Y-92660000D01*
X117347500Y-92660000D01*
X117347500Y-91600000D01*
X117847500Y-91600000D01*
X118462730Y-91600000D01*
X118462078Y-91591718D01*
X118415909Y-91432805D01*
X118415907Y-91432802D01*
X118331666Y-91290357D01*
X118331660Y-91290349D01*
X118214650Y-91173339D01*
X118214642Y-91173333D01*
X118072197Y-91089092D01*
X118072194Y-91089091D01*
X117913283Y-91042922D01*
X117913277Y-91042921D01*
X117876157Y-91040000D01*
X117847500Y-91040000D01*
X117847500Y-91600000D01*
X117347500Y-91600000D01*
X117347500Y-90989873D01*
X117350998Y-90977957D01*
X117349997Y-90970991D01*
X117357350Y-90954888D01*
X117362668Y-90930446D01*
X117366422Y-90925430D01*
X117367185Y-90922834D01*
X117378273Y-90909073D01*
X117379022Y-90907435D01*
X117383272Y-90902870D01*
X117383814Y-90902197D01*
X118143533Y-90142479D01*
X118222929Y-90023653D01*
X118277619Y-89891620D01*
X118287985Y-89839506D01*
X118305500Y-89751457D01*
X118305500Y-86408916D01*
X118277620Y-86268759D01*
X118277619Y-86268758D01*
X118277619Y-86268754D01*
X118222929Y-86136721D01*
X118143532Y-86017894D01*
X118143530Y-86017891D01*
X118112534Y-85986895D01*
X118079049Y-85925572D01*
X118084033Y-85855880D01*
X118125901Y-85799949D01*
X118182546Y-85757546D01*
X118268796Y-85642331D01*
X118317810Y-85510916D01*
X118359681Y-85454984D01*
X118425145Y-85430566D01*
X118493418Y-85445417D01*
X118521673Y-85466569D01*
X118635211Y-85580107D01*
X118685713Y-85616798D01*
X118788385Y-85691393D01*
X118831051Y-85746721D01*
X118839500Y-85791710D01*
X118839500Y-91328469D01*
X118839500Y-91461531D01*
X118856676Y-91547883D01*
X118857117Y-91550097D01*
X118859500Y-91574289D01*
X118859500Y-91593837D01*
X118839815Y-91660876D01*
X118823181Y-91681518D01*
X118441018Y-92063681D01*
X118379695Y-92097166D01*
X118353337Y-92100000D01*
X117847500Y-92100000D01*
X117847500Y-92605836D01*
X117827815Y-92672875D01*
X117811181Y-92693517D01*
X117785307Y-92719390D01*
X117785304Y-92719394D01*
X117711383Y-92830024D01*
X117711378Y-92830034D01*
X117660459Y-92952963D01*
X117660457Y-92952971D01*
X117637875Y-93066501D01*
X117637875Y-93066505D01*
X117634500Y-93083469D01*
X117634500Y-96350734D01*
X117655202Y-96454809D01*
X117653963Y-96468645D01*
X117657547Y-96482069D01*
X117650911Y-96502758D01*
X117648975Y-96524400D01*
X117640451Y-96535372D01*
X117636209Y-96548601D01*
X117619441Y-96562418D01*
X117606112Y-96579578D01*
X117591904Y-96585111D01*
X117582289Y-96593035D01*
X117559679Y-96597662D01*
X117548189Y-96602137D01*
X117540904Y-96603000D01*
X117524328Y-96603001D01*
X117464717Y-96609409D01*
X117454386Y-96613261D01*
X117439604Y-96615015D01*
X117419233Y-96611569D01*
X117398627Y-96613041D01*
X117390279Y-96610589D01*
X117385292Y-96609410D01*
X117385284Y-96609409D01*
X117325674Y-96603000D01*
X117325664Y-96603000D01*
X116874330Y-96603000D01*
X116874324Y-96603001D01*
X116814714Y-96609409D01*
X116807839Y-96611034D01*
X116738070Y-96607295D01*
X116691641Y-96578039D01*
X111883910Y-91770307D01*
X111883906Y-91770304D01*
X111773276Y-91696383D01*
X111773266Y-91696378D01*
X111650337Y-91645459D01*
X111650329Y-91645457D01*
X111519836Y-91619500D01*
X111519832Y-91619500D01*
X109591712Y-91619500D01*
X109524673Y-91599815D01*
X109491394Y-91568385D01*
X109380109Y-91415214D01*
X109380105Y-91415209D01*
X109229786Y-91264890D01*
X109057820Y-91139951D01*
X108868414Y-91043444D01*
X108868413Y-91043443D01*
X108868412Y-91043443D01*
X108666243Y-90977754D01*
X108666241Y-90977753D01*
X108666240Y-90977753D01*
X108504957Y-90952208D01*
X108456287Y-90944500D01*
X108243713Y-90944500D01*
X108195042Y-90952208D01*
X108033760Y-90977753D01*
X108033757Y-90977754D01*
X107833192Y-91042922D01*
X107831585Y-91043444D01*
X107642179Y-91139951D01*
X107470213Y-91264890D01*
X107319890Y-91415213D01*
X107194951Y-91587179D01*
X107098444Y-91776585D01*
X107032753Y-91978760D01*
X106999500Y-92188713D01*
X106999500Y-92401286D01*
X107032700Y-92610906D01*
X107032754Y-92611243D01*
X107088449Y-92782655D01*
X107098444Y-92813414D01*
X107194951Y-93002820D01*
X107319890Y-93174786D01*
X107470213Y-93325109D01*
X107642182Y-93450050D01*
X107650946Y-93454516D01*
X107701742Y-93502491D01*
X107718536Y-93570312D01*
X107695998Y-93636447D01*
X107650946Y-93675484D01*
X107642182Y-93679949D01*
X107470213Y-93804890D01*
X107319890Y-93955213D01*
X107194951Y-94127179D01*
X107098444Y-94316585D01*
X107098443Y-94316587D01*
X107098443Y-94316588D01*
X107087852Y-94349185D01*
X107032753Y-94518760D01*
X107019886Y-94600000D01*
X106999500Y-94728713D01*
X106999500Y-94941287D01*
X107004044Y-94969977D01*
X107029335Y-95129660D01*
X107032754Y-95151243D01*
X107095269Y-95343645D01*
X107098444Y-95353414D01*
X107194951Y-95542820D01*
X107319890Y-95714786D01*
X107433430Y-95828326D01*
X107466915Y-95889649D01*
X107461931Y-95959341D01*
X107420059Y-96015274D01*
X107389083Y-96032189D01*
X107257669Y-96081203D01*
X107257664Y-96081206D01*
X107142455Y-96167452D01*
X107142452Y-96167455D01*
X107056206Y-96282664D01*
X107056202Y-96282671D01*
X107005908Y-96417517D01*
X106999501Y-96477116D01*
X106999501Y-96477123D01*
X106999500Y-96477135D01*
X106999500Y-98272870D01*
X106999501Y-98272876D01*
X107005908Y-98332483D01*
X107056202Y-98467328D01*
X107056204Y-98467331D01*
X107127963Y-98563189D01*
X107152380Y-98628653D01*
X107137528Y-98696926D01*
X107127963Y-98711811D01*
X107056204Y-98807668D01*
X107056202Y-98807671D01*
X107005908Y-98942517D01*
X106999675Y-99000499D01*
X106999501Y-99002123D01*
X106999500Y-99002135D01*
X106999500Y-100797870D01*
X106999501Y-100797876D01*
X107005908Y-100857483D01*
X107056202Y-100992328D01*
X107056206Y-100992335D01*
X107142452Y-101107544D01*
X107142455Y-101107547D01*
X107257664Y-101193793D01*
X107257671Y-101193797D01*
X107389082Y-101242810D01*
X107445016Y-101284681D01*
X107469433Y-101350145D01*
X107454582Y-101418418D01*
X107433431Y-101446673D01*
X107319889Y-101560215D01*
X107194951Y-101732179D01*
X107098444Y-101921585D01*
X107098443Y-101921587D01*
X107098443Y-101921588D01*
X107070541Y-102007460D01*
X107032753Y-102123760D01*
X107012686Y-102250460D01*
X106999500Y-102333713D01*
X106999500Y-102546287D01*
X107000352Y-102551668D01*
X107021878Y-102687579D01*
X107032754Y-102756243D01*
X107095858Y-102950457D01*
X107098444Y-102958414D01*
X107194951Y-103147820D01*
X107319890Y-103319786D01*
X107470213Y-103470109D01*
X107642182Y-103595050D01*
X107650946Y-103599516D01*
X107701742Y-103647491D01*
X107718536Y-103715312D01*
X107695998Y-103781447D01*
X107650946Y-103820484D01*
X107642182Y-103824949D01*
X107470213Y-103949890D01*
X107319890Y-104100213D01*
X107194951Y-104272179D01*
X107098444Y-104461585D01*
X107032753Y-104663760D01*
X106999500Y-104873713D01*
X106999500Y-105086286D01*
X107030730Y-105283469D01*
X107032754Y-105296243D01*
X107087887Y-105465925D01*
X107098444Y-105498414D01*
X107194951Y-105687820D01*
X107319890Y-105859786D01*
X107401019Y-105940915D01*
X107434504Y-106002238D01*
X107429520Y-106071930D01*
X107387648Y-106127863D01*
X107356671Y-106144778D01*
X107257671Y-106181702D01*
X107257664Y-106181706D01*
X107142455Y-106267952D01*
X107142452Y-106267955D01*
X107056206Y-106383164D01*
X107056202Y-106383171D01*
X107005908Y-106518017D01*
X106999501Y-106577616D01*
X106999501Y-106577623D01*
X106999500Y-106577635D01*
X106999500Y-108373370D01*
X106999501Y-108373376D01*
X107005908Y-108432983D01*
X107056202Y-108567828D01*
X107056206Y-108567835D01*
X107142452Y-108683044D01*
X107142455Y-108683047D01*
X107257664Y-108769293D01*
X107257671Y-108769297D01*
X107392517Y-108819591D01*
X107392516Y-108819591D01*
X107399444Y-108820335D01*
X107452127Y-108826000D01*
X109247872Y-108825999D01*
X109307483Y-108819591D01*
X109442331Y-108769296D01*
X109557546Y-108683046D01*
X109643796Y-108567831D01*
X109694091Y-108432983D01*
X109700500Y-108373373D01*
X109700500Y-108275000D01*
X109720185Y-108207961D01*
X109772989Y-108162206D01*
X109824500Y-108151000D01*
X115109732Y-108151000D01*
X115109733Y-108150999D01*
X115240236Y-108125041D01*
X115363169Y-108074120D01*
X115473806Y-108000195D01*
X118274695Y-105199306D01*
X118294681Y-105169394D01*
X118348620Y-105088669D01*
X118389407Y-104990198D01*
X118392221Y-104984915D01*
X118412641Y-104964062D01*
X118430949Y-104941344D01*
X118436793Y-104939398D01*
X118441106Y-104934995D01*
X118469558Y-104928492D01*
X118497243Y-104919278D01*
X118501670Y-104919199D01*
X118625670Y-104919199D01*
X118625671Y-104919199D01*
X118685282Y-104912791D01*
X118692833Y-104911007D01*
X118693376Y-104913308D01*
X118751321Y-104909147D01*
X118759681Y-104911601D01*
X118764711Y-104912789D01*
X118764717Y-104912791D01*
X118824327Y-104919200D01*
X119275672Y-104919199D01*
X119335283Y-104912791D01*
X119342828Y-104911008D01*
X119343180Y-104912499D01*
X119384074Y-104906653D01*
X119401734Y-104907948D01*
X119414716Y-104912791D01*
X119474326Y-104919200D01*
X119555058Y-104919199D01*
X119559575Y-104919531D01*
X119588211Y-104930272D01*
X119617538Y-104938883D01*
X119620605Y-104942422D01*
X119624994Y-104944069D01*
X119643274Y-104968583D01*
X119663294Y-104991686D01*
X119664443Y-104996971D01*
X119666762Y-105000080D01*
X119667535Y-105011183D01*
X119674500Y-105043199D01*
X119674500Y-105416535D01*
X119700457Y-105547028D01*
X119700459Y-105547036D01*
X119751378Y-105669965D01*
X119751383Y-105669975D01*
X119825304Y-105780605D01*
X119825307Y-105780609D01*
X120725305Y-106680606D01*
X120819394Y-106774695D01*
X120819397Y-106774697D01*
X120819398Y-106774698D01*
X120930020Y-106848613D01*
X120930023Y-106848614D01*
X120930031Y-106848620D01*
X121044343Y-106895969D01*
X121044346Y-106895970D01*
X121044347Y-106895971D01*
X121052961Y-106899539D01*
X121052962Y-106899539D01*
X121052964Y-106899540D01*
X121052968Y-106899540D01*
X121052969Y-106899541D01*
X121183466Y-106925500D01*
X121183469Y-106925500D01*
X124066532Y-106925500D01*
X124066533Y-106925499D01*
X124197036Y-106899541D01*
X124319969Y-106848620D01*
X124430606Y-106774695D01*
X124597064Y-106608235D01*
X124658385Y-106574752D01*
X124660490Y-106574313D01*
X124683497Y-106569737D01*
X124829179Y-106509394D01*
X124829184Y-106509390D01*
X124829187Y-106509389D01*
X124881608Y-106474362D01*
X124948285Y-106453483D01*
X125015665Y-106471967D01*
X125062356Y-106523945D01*
X125074500Y-106577463D01*
X125074500Y-107350001D01*
X125074501Y-107350019D01*
X125085000Y-107452796D01*
X125085001Y-107452799D01*
X125108933Y-107525019D01*
X125140186Y-107619334D01*
X125232288Y-107768656D01*
X125356344Y-107892712D01*
X125358588Y-107894096D01*
X125359653Y-107894753D01*
X125361445Y-107896746D01*
X125362011Y-107897193D01*
X125361934Y-107897289D01*
X125406379Y-107946699D01*
X125417603Y-108015661D01*
X125389761Y-108079744D01*
X125359665Y-108105826D01*
X125356660Y-108107679D01*
X125356655Y-108107683D01*
X125232684Y-108231654D01*
X125140643Y-108380875D01*
X125140641Y-108380880D01*
X125085494Y-108547302D01*
X125085493Y-108547309D01*
X125075000Y-108650013D01*
X125075000Y-108787500D01*
X127524999Y-108787500D01*
X127524999Y-108650028D01*
X127524998Y-108650013D01*
X127514505Y-108547302D01*
X127459358Y-108380880D01*
X127459356Y-108380875D01*
X127367315Y-108231654D01*
X127243344Y-108107683D01*
X127243341Y-108107681D01*
X127240339Y-108105829D01*
X127238713Y-108104021D01*
X127237677Y-108103202D01*
X127237817Y-108103024D01*
X127193617Y-108053880D01*
X127182397Y-107984917D01*
X127210243Y-107920836D01*
X127240344Y-107894754D01*
X127243656Y-107892712D01*
X127367712Y-107768656D01*
X127459814Y-107619334D01*
X127514999Y-107452797D01*
X127525500Y-107350009D01*
X127525499Y-106743661D01*
X127545183Y-106676623D01*
X127561813Y-106655986D01*
X128065920Y-106151879D01*
X128127241Y-106118396D01*
X128141000Y-106116204D01*
X128152797Y-106114999D01*
X128319334Y-106059814D01*
X128468656Y-105967712D01*
X128592712Y-105843656D01*
X128594461Y-105840819D01*
X128596169Y-105839283D01*
X128597193Y-105837989D01*
X128597414Y-105838163D01*
X128646406Y-105794096D01*
X128715368Y-105782872D01*
X128779451Y-105810713D01*
X128805537Y-105840817D01*
X128807288Y-105843656D01*
X128931344Y-105967712D01*
X129080666Y-106059814D01*
X129247203Y-106114999D01*
X129349991Y-106125500D01*
X130125008Y-106125499D01*
X130125016Y-106125498D01*
X130125019Y-106125498D01*
X130194542Y-106118396D01*
X130227797Y-106114999D01*
X130394334Y-106059814D01*
X130543656Y-105967712D01*
X130558914Y-105952453D01*
X130620234Y-105918968D01*
X130689926Y-105923951D01*
X130745860Y-105965821D01*
X130770279Y-106031285D01*
X130755429Y-106099558D01*
X130752134Y-106105230D01*
X130690190Y-106205659D01*
X130690185Y-106205668D01*
X130674980Y-106251554D01*
X130635001Y-106372203D01*
X130635001Y-106372204D01*
X130635000Y-106372204D01*
X130624500Y-106474983D01*
X130624500Y-107525001D01*
X130624501Y-107525019D01*
X130635000Y-107627796D01*
X130635001Y-107627799D01*
X130675000Y-107748505D01*
X130690186Y-107794334D01*
X130782288Y-107943656D01*
X130906344Y-108067712D01*
X131055666Y-108159814D01*
X131222203Y-108214999D01*
X131324991Y-108225500D01*
X132100008Y-108225499D01*
X132100016Y-108225498D01*
X132100019Y-108225498D01*
X132156302Y-108219748D01*
X132202797Y-108214999D01*
X132369334Y-108159814D01*
X132518656Y-108067712D01*
X132642712Y-107943656D01*
X132644461Y-107940819D01*
X132646169Y-107939283D01*
X132647193Y-107937989D01*
X132647414Y-107938163D01*
X132696406Y-107894096D01*
X132765368Y-107882872D01*
X132829451Y-107910713D01*
X132855537Y-107940817D01*
X132857288Y-107943656D01*
X132981344Y-108067712D01*
X133130666Y-108159814D01*
X133297203Y-108214999D01*
X133399991Y-108225500D01*
X134175008Y-108225499D01*
X134175016Y-108225498D01*
X134175019Y-108225498D01*
X134231302Y-108219748D01*
X134277797Y-108214999D01*
X134444334Y-108159814D01*
X134593656Y-108067712D01*
X134717712Y-107943656D01*
X134809814Y-107794334D01*
X134864999Y-107627797D01*
X134875500Y-107525009D01*
X134875499Y-107481163D01*
X134895182Y-107414125D01*
X134911813Y-107393486D01*
X135674695Y-106630606D01*
X135748620Y-106519969D01*
X135799541Y-106397036D01*
X135822574Y-106281240D01*
X135854958Y-106219330D01*
X135915674Y-106184756D01*
X135985443Y-106188495D01*
X136000486Y-106194948D01*
X136111579Y-106251553D01*
X136111580Y-106251554D01*
X136111585Y-106251555D01*
X136111588Y-106251557D01*
X136313757Y-106317246D01*
X136523713Y-106350500D01*
X136523714Y-106350500D01*
X136736280Y-106350500D01*
X136736287Y-106350500D01*
X136736293Y-106350498D01*
X136740760Y-106350147D01*
X136809138Y-106364505D01*
X136858900Y-106413552D01*
X136874500Y-106473764D01*
X136874500Y-114518837D01*
X136854815Y-114585876D01*
X136838181Y-114606518D01*
X136620835Y-114823863D01*
X136559512Y-114857348D01*
X136489820Y-114852364D01*
X136433887Y-114810492D01*
X136418598Y-114783645D01*
X136370775Y-114668189D01*
X136370773Y-114668186D01*
X136370771Y-114668182D01*
X136294114Y-114553458D01*
X136294111Y-114553454D01*
X136196545Y-114455888D01*
X136196541Y-114455885D01*
X136081817Y-114379228D01*
X136081804Y-114379221D01*
X135954332Y-114326421D01*
X135954322Y-114326418D01*
X135818995Y-114299500D01*
X135818993Y-114299500D01*
X135681007Y-114299500D01*
X135681005Y-114299500D01*
X135545677Y-114326418D01*
X135545667Y-114326421D01*
X135418195Y-114379221D01*
X135418182Y-114379228D01*
X135303458Y-114455885D01*
X135303454Y-114455888D01*
X135205888Y-114553454D01*
X135205885Y-114553458D01*
X135129228Y-114668182D01*
X135129221Y-114668195D01*
X135076421Y-114795667D01*
X135076418Y-114795677D01*
X135049500Y-114931004D01*
X135049500Y-114931007D01*
X135049500Y-115068993D01*
X135049500Y-115068995D01*
X135049499Y-115068995D01*
X135076418Y-115204322D01*
X135076421Y-115204332D01*
X135129221Y-115331804D01*
X135129228Y-115331817D01*
X135205885Y-115446541D01*
X135205888Y-115446545D01*
X135303454Y-115544111D01*
X135303458Y-115544114D01*
X135418182Y-115620771D01*
X135418195Y-115620778D01*
X135491069Y-115650962D01*
X135533633Y-115668593D01*
X135588037Y-115712433D01*
X135610102Y-115778727D01*
X135592823Y-115846427D01*
X135573862Y-115870835D01*
X134972146Y-116472551D01*
X134910823Y-116506036D01*
X134865315Y-116505630D01*
X134865196Y-116506738D01*
X134797883Y-116499501D01*
X134797881Y-116499500D01*
X134797873Y-116499500D01*
X134797864Y-116499500D01*
X133502129Y-116499500D01*
X133502123Y-116499501D01*
X133442516Y-116505908D01*
X133307671Y-116556202D01*
X133307664Y-116556206D01*
X133192455Y-116642452D01*
X133192452Y-116642455D01*
X133106206Y-116757664D01*
X133106202Y-116757671D01*
X133055908Y-116892517D01*
X133051619Y-116932414D01*
X133049501Y-116952123D01*
X133049500Y-116952135D01*
X133049500Y-119547870D01*
X133049501Y-119547876D01*
X133055908Y-119607483D01*
X133106202Y-119742328D01*
X133106206Y-119742335D01*
X133192452Y-119857544D01*
X133192455Y-119857547D01*
X133307664Y-119943793D01*
X133307671Y-119943797D01*
X133442517Y-119994091D01*
X133442516Y-119994091D01*
X133449444Y-119994835D01*
X133502127Y-120000500D01*
X134797872Y-120000499D01*
X134857483Y-119994091D01*
X134992331Y-119943796D01*
X135107546Y-119857546D01*
X135193796Y-119742331D01*
X135244091Y-119607483D01*
X135250500Y-119547873D01*
X135250499Y-118156161D01*
X135270184Y-118089123D01*
X135286813Y-118068486D01*
X138074695Y-115280606D01*
X138148620Y-115169969D01*
X138199540Y-115047036D01*
X138222004Y-114934108D01*
X138225500Y-114916533D01*
X138225500Y-106226453D01*
X138229046Y-106214374D01*
X138227969Y-106201829D01*
X138238705Y-106181481D01*
X138245185Y-106159414D01*
X138254699Y-106151169D01*
X138260575Y-106140034D01*
X138280605Y-106128721D01*
X138297989Y-106113659D01*
X138310450Y-106111867D01*
X138321413Y-106105676D01*
X138344377Y-106106988D01*
X138367147Y-106103715D01*
X138380269Y-106109040D01*
X138391169Y-106109664D01*
X138422379Y-106126131D01*
X138443385Y-106141393D01*
X138486051Y-106196720D01*
X138494500Y-106241710D01*
X138494500Y-116375500D01*
X138474815Y-116442539D01*
X138422011Y-116488294D01*
X138370500Y-116499500D01*
X137502129Y-116499500D01*
X137502123Y-116499501D01*
X137442516Y-116505908D01*
X137307671Y-116556202D01*
X137307664Y-116556206D01*
X137192455Y-116642452D01*
X137192452Y-116642455D01*
X137106206Y-116757664D01*
X137106202Y-116757671D01*
X137055908Y-116892517D01*
X137051619Y-116932414D01*
X137049501Y-116952123D01*
X137049500Y-116952135D01*
X137049500Y-119547870D01*
X137049501Y-119547876D01*
X137055908Y-119607483D01*
X137106202Y-119742328D01*
X137106206Y-119742335D01*
X137192452Y-119857544D01*
X137192455Y-119857547D01*
X137307664Y-119943793D01*
X137307671Y-119943797D01*
X137442517Y-119994091D01*
X137442516Y-119994091D01*
X137449444Y-119994835D01*
X137502127Y-120000500D01*
X138797872Y-120000499D01*
X138857483Y-119994091D01*
X138992331Y-119943796D01*
X139107546Y-119857546D01*
X139193796Y-119742331D01*
X139244091Y-119607483D01*
X139250500Y-119547873D01*
X139250499Y-118156162D01*
X139270184Y-118089124D01*
X139286818Y-118068482D01*
X139694692Y-117660609D01*
X139694692Y-117660608D01*
X139694695Y-117660606D01*
X139768620Y-117549969D01*
X139810939Y-117447801D01*
X139854780Y-117393399D01*
X139921074Y-117371334D01*
X139988773Y-117388613D01*
X140036384Y-117439750D01*
X140049500Y-117495255D01*
X140049500Y-119547870D01*
X140049501Y-119547876D01*
X140055908Y-119607483D01*
X140106202Y-119742328D01*
X140106206Y-119742335D01*
X140192452Y-119857544D01*
X140192455Y-119857547D01*
X140307664Y-119943793D01*
X140307671Y-119943797D01*
X140442517Y-119994091D01*
X140442516Y-119994091D01*
X140449444Y-119994835D01*
X140502127Y-120000500D01*
X141797872Y-120000499D01*
X141857483Y-119994091D01*
X141992331Y-119943796D01*
X142107546Y-119857546D01*
X142193796Y-119742331D01*
X142244091Y-119607483D01*
X142250500Y-119547873D01*
X142250499Y-116952128D01*
X142244091Y-116892517D01*
X142235179Y-116868624D01*
X142193797Y-116757671D01*
X142193793Y-116757664D01*
X142107547Y-116642455D01*
X142107544Y-116642452D01*
X141992335Y-116556206D01*
X141992330Y-116556203D01*
X141906166Y-116524066D01*
X141850233Y-116482194D01*
X141825816Y-116416730D01*
X141825500Y-116407884D01*
X141825500Y-115201861D01*
X141845185Y-115134822D01*
X141897989Y-115089067D01*
X141967147Y-115079123D01*
X142030703Y-115108148D01*
X142068477Y-115166926D01*
X142071117Y-115177670D01*
X142076418Y-115204320D01*
X142076421Y-115204332D01*
X142129221Y-115331804D01*
X142129228Y-115331817D01*
X142205885Y-115446541D01*
X142205888Y-115446545D01*
X142303454Y-115544111D01*
X142303458Y-115544114D01*
X142418182Y-115620771D01*
X142418195Y-115620778D01*
X142533632Y-115668593D01*
X142545672Y-115673580D01*
X142545676Y-115673580D01*
X142545677Y-115673581D01*
X142681004Y-115700500D01*
X142681007Y-115700500D01*
X142818995Y-115700500D01*
X142910041Y-115682389D01*
X142954328Y-115673580D01*
X143081811Y-115620775D01*
X143196542Y-115544114D01*
X143294114Y-115446542D01*
X143370775Y-115331811D01*
X143423580Y-115204328D01*
X143450500Y-115068993D01*
X143450500Y-114931007D01*
X143450500Y-114931004D01*
X143423581Y-114795677D01*
X143423580Y-114795676D01*
X143423580Y-114795672D01*
X143418525Y-114783469D01*
X143370778Y-114668195D01*
X143370771Y-114668182D01*
X143294114Y-114553458D01*
X143294111Y-114553454D01*
X143196545Y-114455888D01*
X143196541Y-114455885D01*
X143081817Y-114379228D01*
X143081804Y-114379221D01*
X142954332Y-114326421D01*
X142954322Y-114326418D01*
X142818995Y-114299500D01*
X142818993Y-114299500D01*
X142681007Y-114299500D01*
X142681005Y-114299500D01*
X142545677Y-114326418D01*
X142545667Y-114326421D01*
X142418195Y-114379221D01*
X142418182Y-114379228D01*
X142303458Y-114455885D01*
X142303454Y-114455888D01*
X142205888Y-114553454D01*
X142205885Y-114553458D01*
X142129228Y-114668182D01*
X142129221Y-114668195D01*
X142076421Y-114795667D01*
X142076418Y-114795677D01*
X142071117Y-114822330D01*
X142038732Y-114884240D01*
X141978016Y-114918815D01*
X141908247Y-114915075D01*
X141851575Y-114874208D01*
X141825994Y-114809190D01*
X141825500Y-114798138D01*
X141825500Y-106454946D01*
X141845185Y-106387907D01*
X141897989Y-106342152D01*
X141930103Y-106332473D01*
X141982758Y-106324133D01*
X142026243Y-106317246D01*
X142228412Y-106251557D01*
X142417816Y-106155051D01*
X142504478Y-106092088D01*
X142589784Y-106030110D01*
X142589784Y-106030109D01*
X142589792Y-106030104D01*
X142703717Y-105916178D01*
X142765036Y-105882696D01*
X142834728Y-105887680D01*
X142890662Y-105929551D01*
X142907577Y-105960528D01*
X142956646Y-106092088D01*
X142956649Y-106092093D01*
X143042809Y-106207187D01*
X143042812Y-106207190D01*
X143157906Y-106293350D01*
X143157913Y-106293354D01*
X143292620Y-106343596D01*
X143292627Y-106343598D01*
X143352155Y-106349999D01*
X143352172Y-106350000D01*
X144000000Y-106350000D01*
X144000000Y-105433012D01*
X144057007Y-105465925D01*
X144184174Y-105500000D01*
X144315826Y-105500000D01*
X144442993Y-105465925D01*
X144500000Y-105433012D01*
X144500000Y-106350000D01*
X145147828Y-106350000D01*
X145147844Y-106349999D01*
X145207372Y-106343598D01*
X145207379Y-106343596D01*
X145342086Y-106293354D01*
X145342093Y-106293350D01*
X145457187Y-106207190D01*
X145457190Y-106207187D01*
X145543350Y-106092093D01*
X145543354Y-106092086D01*
X145593596Y-105957379D01*
X145593598Y-105957372D01*
X145599999Y-105897844D01*
X145600000Y-105897827D01*
X145600000Y-105250000D01*
X144683012Y-105250000D01*
X144715925Y-105192993D01*
X144750000Y-105065826D01*
X144750000Y-104934174D01*
X144715925Y-104807007D01*
X144683012Y-104750000D01*
X145600000Y-104750000D01*
X145600000Y-104102172D01*
X145599999Y-104102155D01*
X145593598Y-104042627D01*
X145593596Y-104042620D01*
X145543354Y-103907913D01*
X145543350Y-103907906D01*
X145457190Y-103792812D01*
X145457187Y-103792809D01*
X145342093Y-103706649D01*
X145342086Y-103706645D01*
X145207379Y-103656403D01*
X145207372Y-103656401D01*
X145147844Y-103650000D01*
X144500000Y-103650000D01*
X144500000Y-104566988D01*
X144442993Y-104534075D01*
X144315826Y-104500000D01*
X144184174Y-104500000D01*
X144057007Y-104534075D01*
X144000000Y-104566988D01*
X144000000Y-103650000D01*
X143352155Y-103650000D01*
X143292627Y-103656401D01*
X143292620Y-103656403D01*
X143157913Y-103706645D01*
X143157906Y-103706649D01*
X143042812Y-103792809D01*
X143042809Y-103792812D01*
X142956649Y-103907906D01*
X142956646Y-103907912D01*
X142907577Y-104039471D01*
X142865705Y-104095404D01*
X142800241Y-104119821D01*
X142731968Y-104104969D01*
X142703714Y-104083818D01*
X142589786Y-103969890D01*
X142417820Y-103844951D01*
X142228414Y-103748444D01*
X142228413Y-103748443D01*
X142228412Y-103748443D01*
X142026243Y-103682754D01*
X142026241Y-103682753D01*
X142026240Y-103682753D01*
X141864957Y-103657208D01*
X141816287Y-103649500D01*
X141603713Y-103649500D01*
X141555042Y-103657208D01*
X141393760Y-103682753D01*
X141191585Y-103748444D01*
X141002179Y-103844951D01*
X140830213Y-103969890D01*
X140679890Y-104120213D01*
X140554949Y-104292182D01*
X140550484Y-104300946D01*
X140502509Y-104351742D01*
X140434688Y-104368536D01*
X140368553Y-104345998D01*
X140329516Y-104300946D01*
X140325050Y-104292182D01*
X140200109Y-104120213D01*
X140049786Y-103969890D01*
X139877820Y-103844951D01*
X139688414Y-103748444D01*
X139688413Y-103748443D01*
X139688412Y-103748443D01*
X139486243Y-103682754D01*
X139486241Y-103682753D01*
X139486240Y-103682753D01*
X139324957Y-103657208D01*
X139276287Y-103649500D01*
X139063713Y-103649500D01*
X138876707Y-103679119D01*
X138807413Y-103670164D01*
X138769628Y-103644327D01*
X138200609Y-103075307D01*
X138200605Y-103075304D01*
X138089975Y-103001383D01*
X138089965Y-103001378D01*
X137967036Y-102950459D01*
X137967028Y-102950457D01*
X137836535Y-102924500D01*
X137836531Y-102924500D01*
X136066531Y-102924500D01*
X135933469Y-102924500D01*
X135933464Y-102924500D01*
X135802971Y-102950457D01*
X135802963Y-102950459D01*
X135723426Y-102983404D01*
X135723427Y-102983405D01*
X135680031Y-103001380D01*
X135680025Y-103001383D01*
X135598578Y-103055805D01*
X135598577Y-103055806D01*
X135569391Y-103075306D01*
X134815360Y-103829337D01*
X134754037Y-103862822D01*
X134684345Y-103857838D01*
X134639998Y-103829337D01*
X134593345Y-103782684D01*
X134444124Y-103690643D01*
X134444119Y-103690641D01*
X134277697Y-103635494D01*
X134277690Y-103635493D01*
X134174986Y-103625000D01*
X134037500Y-103625000D01*
X134037500Y-104726000D01*
X134017815Y-104793039D01*
X133965011Y-104838794D01*
X133913500Y-104850000D01*
X133661500Y-104850000D01*
X133594461Y-104830315D01*
X133548706Y-104777511D01*
X133537500Y-104726000D01*
X133537500Y-103625000D01*
X133400027Y-103625000D01*
X133400012Y-103625001D01*
X133297302Y-103635494D01*
X133130880Y-103690641D01*
X133130875Y-103690643D01*
X132981654Y-103782684D01*
X132857683Y-103906655D01*
X132857679Y-103906660D01*
X132855826Y-103909665D01*
X132854018Y-103911290D01*
X132853202Y-103912323D01*
X132853025Y-103912183D01*
X132803874Y-103956385D01*
X132734911Y-103967601D01*
X132670831Y-103939752D01*
X132644753Y-103909653D01*
X132643709Y-103907961D01*
X132642712Y-103906344D01*
X132518656Y-103782288D01*
X132445865Y-103737390D01*
X132423750Y-103712803D01*
X132400894Y-103688956D01*
X132400202Y-103686622D01*
X132399141Y-103685443D01*
X132389265Y-103655632D01*
X132388000Y-103649158D01*
X132388000Y-103648469D01*
X132380399Y-103610256D01*
X132362041Y-103517964D01*
X132311120Y-103395031D01*
X132311118Y-103395028D01*
X132311116Y-103395024D01*
X132237195Y-103284394D01*
X132237192Y-103284390D01*
X132091818Y-103139016D01*
X132058333Y-103077693D01*
X132055499Y-103051335D01*
X132055499Y-102986611D01*
X132049453Y-102920074D01*
X132049452Y-102920072D01*
X132049452Y-102920067D01*
X132001733Y-102766931D01*
X132001732Y-102766930D01*
X131999850Y-102760889D01*
X131998700Y-102691029D01*
X132035501Y-102631636D01*
X132098570Y-102601568D01*
X132118236Y-102599999D01*
X132175000Y-102599999D01*
X132175000Y-102074499D01*
X132177550Y-102065813D01*
X132176262Y-102056852D01*
X132187240Y-102032811D01*
X132194685Y-102007460D01*
X132201525Y-102001532D01*
X132205287Y-101993296D01*
X132227521Y-101979006D01*
X132247489Y-101961705D01*
X132258003Y-101959417D01*
X132264065Y-101955522D01*
X132299000Y-101950499D01*
X132400998Y-101950499D01*
X132468037Y-101970184D01*
X132513792Y-102022988D01*
X132524998Y-102074499D01*
X132524998Y-102599999D01*
X133091483Y-102599999D01*
X133221883Y-102574060D01*
X133221889Y-102574058D01*
X133344729Y-102523176D01*
X133455288Y-102449304D01*
X133455289Y-102449303D01*
X133479606Y-102424986D01*
X138525001Y-102424986D01*
X138535494Y-102527697D01*
X138590641Y-102694119D01*
X138590643Y-102694124D01*
X138682684Y-102843345D01*
X138806654Y-102967315D01*
X138955875Y-103059356D01*
X138955880Y-103059358D01*
X139122302Y-103114505D01*
X139122309Y-103114506D01*
X139225019Y-103124999D01*
X139499999Y-103124999D01*
X140000000Y-103124999D01*
X140274972Y-103124999D01*
X140274986Y-103124998D01*
X140377697Y-103114505D01*
X140544119Y-103059358D01*
X140544124Y-103059356D01*
X140693345Y-102967315D01*
X140817315Y-102843345D01*
X140909356Y-102694124D01*
X140909358Y-102694119D01*
X140964505Y-102527697D01*
X140964506Y-102527690D01*
X140974999Y-102424986D01*
X143425001Y-102424986D01*
X143435494Y-102527697D01*
X143490641Y-102694119D01*
X143490643Y-102694124D01*
X143582684Y-102843345D01*
X143706654Y-102967315D01*
X143855875Y-103059356D01*
X143855880Y-103059358D01*
X144022302Y-103114505D01*
X144022309Y-103114506D01*
X144125019Y-103124999D01*
X144399999Y-103124999D01*
X144400000Y-103124998D01*
X144400000Y-102287500D01*
X143425001Y-102287500D01*
X143425001Y-102424986D01*
X140974999Y-102424986D01*
X140975000Y-102424973D01*
X140975000Y-102287500D01*
X140000000Y-102287500D01*
X140000000Y-103124999D01*
X139499999Y-103124999D01*
X139500000Y-103124998D01*
X139500000Y-102287500D01*
X138525001Y-102287500D01*
X138525001Y-102424986D01*
X133479606Y-102424986D01*
X133529470Y-102375121D01*
X133590792Y-102341635D01*
X133660484Y-102346619D01*
X133664590Y-102348234D01*
X133716503Y-102369737D01*
X133871153Y-102400499D01*
X133871156Y-102400500D01*
X133871158Y-102400500D01*
X134028844Y-102400500D01*
X134028845Y-102400499D01*
X134183497Y-102369737D01*
X134329179Y-102309394D01*
X134460289Y-102221789D01*
X134493897Y-102188181D01*
X134533622Y-102148457D01*
X134571786Y-102110292D01*
X134571789Y-102110289D01*
X134659394Y-101979179D01*
X134719737Y-101833497D01*
X134750500Y-101678842D01*
X134750500Y-101521158D01*
X134750500Y-101521155D01*
X134750499Y-101521153D01*
X134739831Y-101467524D01*
X134719737Y-101366503D01*
X134712961Y-101350145D01*
X134659397Y-101220827D01*
X134659390Y-101220814D01*
X134571789Y-101089711D01*
X134571786Y-101089707D01*
X134460292Y-100978213D01*
X134460288Y-100978210D01*
X134329185Y-100890609D01*
X134329172Y-100890602D01*
X134183499Y-100830263D01*
X134183493Y-100830261D01*
X134160551Y-100825698D01*
X134098640Y-100793312D01*
X134097062Y-100791761D01*
X134055608Y-100750306D01*
X134055604Y-100750303D01*
X133944974Y-100676382D01*
X133944964Y-100676377D01*
X133852314Y-100638000D01*
X133822035Y-100625458D01*
X133822033Y-100625457D01*
X133822032Y-100625457D01*
X133790624Y-100619209D01*
X133777986Y-100612597D01*
X133763858Y-100610637D01*
X133747642Y-100596723D01*
X133728714Y-100586822D01*
X133720635Y-100573552D01*
X133710831Y-100565140D01*
X133701412Y-100541976D01*
X133696013Y-100533108D01*
X133694339Y-100527511D01*
X133674539Y-100427965D01*
X133638760Y-100341588D01*
X133636945Y-100335516D01*
X133636804Y-100306670D01*
X133633720Y-100277984D01*
X133636616Y-100268120D01*
X133636604Y-100265647D01*
X133637976Y-100263488D01*
X133641187Y-100252551D01*
X133670138Y-100182658D01*
X133713980Y-100128255D01*
X133780274Y-100106191D01*
X133819295Y-100111036D01*
X133891721Y-100132078D01*
X133891724Y-100132079D01*
X133899998Y-100132729D01*
X133900000Y-100132728D01*
X134400000Y-100132728D01*
X134400001Y-100132729D01*
X134408275Y-100132079D01*
X134408282Y-100132077D01*
X134567194Y-100085909D01*
X134567197Y-100085907D01*
X134709642Y-100001666D01*
X134709650Y-100001660D01*
X134826660Y-99884650D01*
X134826666Y-99884642D01*
X134910907Y-99742197D01*
X134910908Y-99742194D01*
X134957077Y-99583283D01*
X134957078Y-99583277D01*
X134959999Y-99546157D01*
X134960000Y-99546142D01*
X134960000Y-99517500D01*
X134400000Y-99517500D01*
X134400000Y-100132728D01*
X133900000Y-100132728D01*
X133900000Y-99391500D01*
X133919685Y-99324461D01*
X133972489Y-99278706D01*
X134024000Y-99267500D01*
X134150000Y-99267500D01*
X134150000Y-99141500D01*
X134169685Y-99074461D01*
X134222489Y-99028706D01*
X134274000Y-99017500D01*
X134960000Y-99017500D01*
X134960000Y-98988857D01*
X134959999Y-98988842D01*
X134957078Y-98951722D01*
X134957077Y-98951716D01*
X134910908Y-98792805D01*
X134910906Y-98792800D01*
X134893645Y-98763613D01*
X134876461Y-98695889D01*
X134893645Y-98637370D01*
X134911370Y-98607400D01*
X134954903Y-98457559D01*
X134957575Y-98448362D01*
X134957576Y-98448356D01*
X134960500Y-98411203D01*
X134960499Y-97853798D01*
X134957576Y-97816642D01*
X134911370Y-97657600D01*
X134885063Y-97613120D01*
X134867881Y-97545400D01*
X134885063Y-97486880D01*
X134911370Y-97442400D01*
X134957576Y-97283358D01*
X134960500Y-97246203D01*
X134960499Y-96688798D01*
X134957576Y-96651642D01*
X134911370Y-96492600D01*
X134893644Y-96462628D01*
X134876462Y-96394905D01*
X134893646Y-96336386D01*
X134910905Y-96307202D01*
X134910908Y-96307194D01*
X134957077Y-96148283D01*
X134957078Y-96148277D01*
X134959999Y-96111157D01*
X134960000Y-96111142D01*
X134960000Y-96082500D01*
X134274000Y-96082500D01*
X134206961Y-96062815D01*
X134161206Y-96010011D01*
X134150000Y-95958500D01*
X134150000Y-95832500D01*
X134024000Y-95832500D01*
X133956961Y-95812815D01*
X133911206Y-95760011D01*
X133900000Y-95708500D01*
X133900000Y-95582500D01*
X134400000Y-95582500D01*
X134960000Y-95582500D01*
X134960000Y-95553857D01*
X134959999Y-95553842D01*
X134957078Y-95516722D01*
X134957077Y-95516716D01*
X134910908Y-95357805D01*
X134910907Y-95357802D01*
X134826666Y-95215357D01*
X134826660Y-95215349D01*
X134709650Y-95098339D01*
X134709642Y-95098333D01*
X134567197Y-95014092D01*
X134567194Y-95014090D01*
X134408280Y-94967921D01*
X134408281Y-94967921D01*
X134400000Y-94967269D01*
X134400000Y-95582500D01*
X133900000Y-95582500D01*
X133900000Y-94967269D01*
X133891718Y-94967921D01*
X133732805Y-95014090D01*
X133732802Y-95014092D01*
X133590357Y-95098333D01*
X133590349Y-95098339D01*
X133473339Y-95215349D01*
X133473333Y-95215357D01*
X133389088Y-95357809D01*
X133387344Y-95361839D01*
X133385136Y-95364491D01*
X133385122Y-95364516D01*
X133385118Y-95364513D01*
X133342649Y-95415543D01*
X133276014Y-95436556D01*
X133226097Y-95427142D01*
X133222035Y-95425460D01*
X133222031Y-95425459D01*
X133222027Y-95425458D01*
X133091534Y-95399501D01*
X133091530Y-95399501D01*
X132422664Y-95399501D01*
X132422644Y-95399500D01*
X132416530Y-95399500D01*
X132111173Y-95399500D01*
X132044134Y-95379815D01*
X131998379Y-95327011D01*
X131988435Y-95257853D01*
X132017460Y-95194297D01*
X132023492Y-95187819D01*
X132051660Y-95159650D01*
X132051666Y-95159642D01*
X132135907Y-95017197D01*
X132135909Y-95017194D01*
X132182078Y-94858281D01*
X132182730Y-94850000D01*
X131441500Y-94850000D01*
X131374461Y-94830315D01*
X131328706Y-94777511D01*
X131317500Y-94726000D01*
X131317500Y-94600000D01*
X131191500Y-94600000D01*
X131124461Y-94580315D01*
X131078706Y-94527511D01*
X131067500Y-94476000D01*
X131067500Y-94350000D01*
X131567500Y-94350000D01*
X132182730Y-94350000D01*
X132182078Y-94341718D01*
X132135909Y-94182805D01*
X132135907Y-94182802D01*
X132051666Y-94040357D01*
X132051660Y-94040349D01*
X131934650Y-93923339D01*
X131934642Y-93923333D01*
X131792197Y-93839092D01*
X131792194Y-93839091D01*
X131633283Y-93792922D01*
X131633277Y-93792921D01*
X131596157Y-93790000D01*
X131567500Y-93790000D01*
X131567500Y-94350000D01*
X131067500Y-94350000D01*
X131067500Y-93790000D01*
X131038842Y-93790000D01*
X131001722Y-93792921D01*
X131001716Y-93792922D01*
X130842804Y-93839091D01*
X130842800Y-93839093D01*
X130813609Y-93856356D01*
X130745884Y-93873536D01*
X130687369Y-93856354D01*
X130658184Y-93839094D01*
X130657400Y-93838630D01*
X130657399Y-93838629D01*
X130657398Y-93838629D01*
X130657395Y-93838628D01*
X130498362Y-93792424D01*
X130498356Y-93792423D01*
X130461210Y-93789500D01*
X130461203Y-93789500D01*
X130399277Y-93789500D01*
X130332238Y-93769815D01*
X130286483Y-93717011D01*
X130276539Y-93647853D01*
X130284716Y-93618048D01*
X130319735Y-93533501D01*
X130319737Y-93533497D01*
X130350500Y-93378842D01*
X130350500Y-93221158D01*
X130350500Y-93221155D01*
X130350499Y-93221153D01*
X130331836Y-93127330D01*
X130319737Y-93066503D01*
X130317525Y-93061163D01*
X130259397Y-92920827D01*
X130259390Y-92920814D01*
X130246398Y-92901370D01*
X130225520Y-92834692D01*
X130225500Y-92832479D01*
X130225500Y-91393468D01*
X130225499Y-91393467D01*
X130216549Y-91348469D01*
X130199541Y-91262964D01*
X130162250Y-91172937D01*
X130148620Y-91140031D01*
X130148565Y-91139949D01*
X130074698Y-91029398D01*
X130074697Y-91029397D01*
X130074695Y-91029394D01*
X129980606Y-90935305D01*
X128195287Y-89149986D01*
X129050001Y-89149986D01*
X129060494Y-89252697D01*
X129115641Y-89419119D01*
X129115643Y-89419124D01*
X129207684Y-89568345D01*
X129331654Y-89692315D01*
X129480875Y-89784356D01*
X129480880Y-89784358D01*
X129647302Y-89839505D01*
X129647309Y-89839506D01*
X129750019Y-89849999D01*
X129999999Y-89849999D01*
X130500000Y-89849999D01*
X130749972Y-89849999D01*
X130749986Y-89849998D01*
X130852697Y-89839505D01*
X131019119Y-89784358D01*
X131019124Y-89784356D01*
X131168345Y-89692315D01*
X131292315Y-89568345D01*
X131384356Y-89419124D01*
X131384358Y-89419119D01*
X131439505Y-89252697D01*
X131439506Y-89252690D01*
X131449999Y-89149986D01*
X131450000Y-89149973D01*
X131450000Y-89025000D01*
X130500000Y-89025000D01*
X130500000Y-89849999D01*
X129999999Y-89849999D01*
X130000000Y-89849998D01*
X130000000Y-89025000D01*
X129050001Y-89025000D01*
X129050001Y-89149986D01*
X128195287Y-89149986D01*
X127786819Y-88741518D01*
X127753334Y-88680195D01*
X127750500Y-88653837D01*
X127750500Y-86024499D01*
X127770185Y-85957460D01*
X127822989Y-85911705D01*
X127874500Y-85900499D01*
X127972871Y-85900499D01*
X127972872Y-85900499D01*
X128032483Y-85894091D01*
X128167331Y-85843796D01*
X128282546Y-85757546D01*
X128368796Y-85642331D01*
X128419091Y-85507483D01*
X128425500Y-85447873D01*
X128425499Y-84000872D01*
X128445184Y-83933834D01*
X128497987Y-83888079D01*
X128567146Y-83878135D01*
X128630702Y-83907160D01*
X128637180Y-83913192D01*
X129039832Y-84315844D01*
X129073317Y-84377167D01*
X129068333Y-84446859D01*
X129058269Y-84467674D01*
X128998265Y-84566934D01*
X128950548Y-84720065D01*
X128944500Y-84786621D01*
X128944500Y-85213388D01*
X128950546Y-85279926D01*
X128950548Y-85279933D01*
X128998265Y-85433066D01*
X128998267Y-85433070D01*
X129081242Y-85570329D01*
X129081246Y-85570334D01*
X129081247Y-85570335D01*
X129194665Y-85683753D01*
X129221391Y-85699909D01*
X129268579Y-85751437D01*
X129280418Y-85820296D01*
X129253150Y-85884625D01*
X129244924Y-85893707D01*
X129207289Y-85931342D01*
X129115187Y-86080663D01*
X129115186Y-86080666D01*
X129060001Y-86247203D01*
X129060001Y-86247204D01*
X129060000Y-86247204D01*
X129049500Y-86349983D01*
X129049500Y-87100001D01*
X129049501Y-87100019D01*
X129060000Y-87202796D01*
X129060001Y-87202799D01*
X129115185Y-87369331D01*
X129115187Y-87369336D01*
X129146829Y-87420635D01*
X129207288Y-87518656D01*
X129331344Y-87642712D01*
X129334628Y-87644737D01*
X129334653Y-87644753D01*
X129336445Y-87646746D01*
X129337011Y-87647193D01*
X129336934Y-87647289D01*
X129381379Y-87696699D01*
X129392603Y-87765661D01*
X129364761Y-87829744D01*
X129334665Y-87855826D01*
X129331660Y-87857679D01*
X129331655Y-87857683D01*
X129207684Y-87981654D01*
X129115643Y-88130875D01*
X129115641Y-88130880D01*
X129060494Y-88297302D01*
X129060493Y-88297309D01*
X129050000Y-88400013D01*
X129050000Y-88525000D01*
X131449999Y-88525000D01*
X131449999Y-88400028D01*
X131449998Y-88400013D01*
X131439505Y-88297302D01*
X131384358Y-88130880D01*
X131384356Y-88130875D01*
X131292315Y-87981654D01*
X131168344Y-87857683D01*
X131168341Y-87857681D01*
X131165339Y-87855829D01*
X131163713Y-87854021D01*
X131162677Y-87853202D01*
X131162817Y-87853024D01*
X131118617Y-87803880D01*
X131107397Y-87734917D01*
X131135243Y-87670836D01*
X131165344Y-87644754D01*
X131168656Y-87642712D01*
X131292712Y-87518656D01*
X131384814Y-87369334D01*
X131439999Y-87202797D01*
X131450500Y-87100009D01*
X131450500Y-87068995D01*
X134999499Y-87068995D01*
X135026418Y-87204322D01*
X135026421Y-87204332D01*
X135079221Y-87331804D01*
X135079228Y-87331817D01*
X135155885Y-87446541D01*
X135155888Y-87446545D01*
X135253454Y-87544111D01*
X135253458Y-87544114D01*
X135368182Y-87620771D01*
X135368195Y-87620778D01*
X135442158Y-87651414D01*
X135495672Y-87673580D01*
X135495676Y-87673580D01*
X135495677Y-87673581D01*
X135631004Y-87700500D01*
X135631007Y-87700500D01*
X135768995Y-87700500D01*
X135860041Y-87682389D01*
X135904328Y-87673580D01*
X136031811Y-87620775D01*
X136146542Y-87544114D01*
X136244114Y-87446542D01*
X136320775Y-87331811D01*
X136373580Y-87204328D01*
X136394329Y-87100016D01*
X136400500Y-87068995D01*
X141999499Y-87068995D01*
X142026418Y-87204322D01*
X142026421Y-87204332D01*
X142079221Y-87331804D01*
X142079228Y-87331817D01*
X142155885Y-87446541D01*
X142155888Y-87446545D01*
X142253454Y-87544111D01*
X142253458Y-87544114D01*
X142368182Y-87620771D01*
X142368195Y-87620778D01*
X142442158Y-87651414D01*
X142495672Y-87673580D01*
X142495676Y-87673580D01*
X142495677Y-87673581D01*
X142631004Y-87700500D01*
X142631007Y-87700500D01*
X142768995Y-87700500D01*
X142860041Y-87682389D01*
X142904328Y-87673580D01*
X143031811Y-87620775D01*
X143146542Y-87544114D01*
X143244114Y-87446542D01*
X143320775Y-87331811D01*
X143373580Y-87204328D01*
X143394329Y-87100016D01*
X143400500Y-87068995D01*
X143400500Y-86931004D01*
X143373581Y-86795677D01*
X143373580Y-86795676D01*
X143373580Y-86795672D01*
X143360705Y-86764589D01*
X143320778Y-86668195D01*
X143320771Y-86668182D01*
X143244114Y-86553458D01*
X143244111Y-86553454D01*
X143146545Y-86455888D01*
X143146541Y-86455885D01*
X143031817Y-86379228D01*
X143031804Y-86379221D01*
X142904332Y-86326421D01*
X142904322Y-86326418D01*
X142768995Y-86299500D01*
X142768993Y-86299500D01*
X142631007Y-86299500D01*
X142631005Y-86299500D01*
X142495677Y-86326418D01*
X142495667Y-86326421D01*
X142368195Y-86379221D01*
X142368182Y-86379228D01*
X142253458Y-86455885D01*
X142253454Y-86455888D01*
X142155888Y-86553454D01*
X142155885Y-86553458D01*
X142079228Y-86668182D01*
X142079221Y-86668195D01*
X142026421Y-86795667D01*
X142026418Y-86795677D01*
X141999500Y-86931004D01*
X141999500Y-86931007D01*
X141999500Y-87068993D01*
X141999500Y-87068995D01*
X141999499Y-87068995D01*
X136400500Y-87068995D01*
X136400500Y-86931004D01*
X136373581Y-86795677D01*
X136373580Y-86795676D01*
X136373580Y-86795672D01*
X136360705Y-86764589D01*
X136320778Y-86668195D01*
X136320771Y-86668182D01*
X136244114Y-86553458D01*
X136244111Y-86553454D01*
X136146545Y-86455888D01*
X136146541Y-86455885D01*
X136031817Y-86379228D01*
X136031804Y-86379221D01*
X135904332Y-86326421D01*
X135904322Y-86326418D01*
X135768995Y-86299500D01*
X135768993Y-86299500D01*
X135631007Y-86299500D01*
X135631005Y-86299500D01*
X135495677Y-86326418D01*
X135495667Y-86326421D01*
X135368195Y-86379221D01*
X135368182Y-86379228D01*
X135253458Y-86455885D01*
X135253454Y-86455888D01*
X135155888Y-86553454D01*
X135155885Y-86553458D01*
X135079228Y-86668182D01*
X135079221Y-86668195D01*
X135026421Y-86795667D01*
X135026418Y-86795677D01*
X134999500Y-86931004D01*
X134999500Y-86931007D01*
X134999500Y-87068993D01*
X134999500Y-87068995D01*
X134999499Y-87068995D01*
X131450500Y-87068995D01*
X131450499Y-86795677D01*
X131450499Y-86601875D01*
X131470183Y-86534836D01*
X131486818Y-86514193D01*
X131561033Y-86439979D01*
X131640429Y-86321153D01*
X131695119Y-86189120D01*
X131705542Y-86136721D01*
X131723000Y-86048957D01*
X131723000Y-85597876D01*
X131725961Y-85585316D01*
X131724948Y-85575980D01*
X131733524Y-85553236D01*
X131736061Y-85542481D01*
X131738291Y-85538013D01*
X131801733Y-85433069D01*
X131820059Y-85374257D01*
X131824526Y-85365312D01*
X131841771Y-85346752D01*
X131855816Y-85325670D01*
X131865151Y-85321591D01*
X131872086Y-85314128D01*
X131896624Y-85307838D01*
X131919841Y-85297695D01*
X131929900Y-85299310D01*
X131939768Y-85296782D01*
X131963811Y-85304757D01*
X131988826Y-85308776D01*
X131997600Y-85315966D01*
X132006084Y-85318781D01*
X132015961Y-85331013D01*
X132034732Y-85346396D01*
X132042813Y-85357190D01*
X132157906Y-85443350D01*
X132157913Y-85443354D01*
X132292620Y-85493596D01*
X132292627Y-85493598D01*
X132352155Y-85499999D01*
X132352172Y-85500000D01*
X132750000Y-85500000D01*
X133250000Y-85500000D01*
X133647828Y-85500000D01*
X133647844Y-85499999D01*
X133707372Y-85493598D01*
X133707379Y-85493596D01*
X133842086Y-85443354D01*
X133842093Y-85443350D01*
X133957187Y-85357190D01*
X133957190Y-85357187D01*
X134043350Y-85242093D01*
X134043354Y-85242086D01*
X134093596Y-85107379D01*
X134093598Y-85107372D01*
X134099999Y-85047844D01*
X134100000Y-85047827D01*
X134100000Y-84000000D01*
X133250000Y-84000000D01*
X133250000Y-85500000D01*
X132750000Y-85500000D01*
X132750000Y-84000000D01*
X131900000Y-84000000D01*
X131900000Y-84311550D01*
X131880315Y-84378589D01*
X131827511Y-84424344D01*
X131758353Y-84434288D01*
X131694797Y-84405263D01*
X131688319Y-84399231D01*
X131605334Y-84316246D01*
X131605329Y-84316242D01*
X131468070Y-84233267D01*
X131468066Y-84233265D01*
X131314933Y-84185548D01*
X131314935Y-84185548D01*
X131288312Y-84183128D01*
X131248381Y-84179500D01*
X131248378Y-84179500D01*
X130746611Y-84179500D01*
X130680070Y-84185546D01*
X130676189Y-84186319D01*
X130673864Y-84186110D01*
X130673533Y-84186141D01*
X130673527Y-84186080D01*
X130606598Y-84180090D01*
X130551421Y-84137226D01*
X130528178Y-84071336D01*
X130528000Y-84064701D01*
X130528000Y-83981042D01*
X130500120Y-83840885D01*
X130500119Y-83840884D01*
X130500119Y-83840880D01*
X130447756Y-83714465D01*
X130446110Y-83709864D01*
X130366035Y-83590024D01*
X130366029Y-83590016D01*
X129228168Y-82452155D01*
X131900000Y-82452155D01*
X131900000Y-83500000D01*
X132750000Y-83500000D01*
X133250000Y-83500000D01*
X134100000Y-83500000D01*
X134100000Y-82452172D01*
X134099999Y-82452155D01*
X134093598Y-82392627D01*
X134093596Y-82392620D01*
X134043354Y-82257913D01*
X134043350Y-82257906D01*
X133957190Y-82142812D01*
X133957187Y-82142809D01*
X133842093Y-82056649D01*
X133842086Y-82056645D01*
X133707379Y-82006403D01*
X133707372Y-82006401D01*
X133647844Y-82000000D01*
X133250000Y-82000000D01*
X133250000Y-83500000D01*
X132750000Y-83500000D01*
X132750000Y-82000000D01*
X132352155Y-82000000D01*
X132292627Y-82006401D01*
X132292620Y-82006403D01*
X132157913Y-82056645D01*
X132157906Y-82056649D01*
X132042812Y-82142809D01*
X132042809Y-82142812D01*
X131956649Y-82257906D01*
X131956645Y-82257913D01*
X131906403Y-82392620D01*
X131906401Y-82392627D01*
X131900000Y-82452155D01*
X129228168Y-82452155D01*
X129012482Y-82236469D01*
X128940347Y-82188271D01*
X128893653Y-82157071D01*
X128893648Y-82157069D01*
X128761620Y-82102381D01*
X128761614Y-82102379D01*
X128621457Y-82074500D01*
X128621455Y-82074500D01*
X118796455Y-82074500D01*
X118653545Y-82074500D01*
X118653543Y-82074500D01*
X118513385Y-82102379D01*
X118513379Y-82102381D01*
X118381349Y-82157069D01*
X118381340Y-82157074D01*
X118262521Y-82236467D01*
X118262517Y-82236470D01*
X117335806Y-83163181D01*
X117274483Y-83196666D01*
X117248125Y-83199500D01*
X116077129Y-83199500D01*
X116077123Y-83199501D01*
X116017516Y-83205908D01*
X115882671Y-83256202D01*
X115882664Y-83256206D01*
X115767455Y-83342452D01*
X115767452Y-83342455D01*
X115681206Y-83457664D01*
X115681202Y-83457671D01*
X115630908Y-83592517D01*
X115624501Y-83652116D01*
X115624500Y-83652135D01*
X115624500Y-85447870D01*
X115624501Y-85447876D01*
X115630908Y-85507483D01*
X115681202Y-85642328D01*
X115681206Y-85642335D01*
X115767452Y-85757544D01*
X115767455Y-85757547D01*
X115824095Y-85799948D01*
X115865966Y-85855881D01*
X115870950Y-85925573D01*
X115837465Y-85986895D01*
X115544217Y-86280143D01*
X115482894Y-86313628D01*
X115435004Y-86314578D01*
X115372693Y-86303591D01*
X115271365Y-86296208D01*
X115271364Y-86296208D01*
X115208607Y-86305401D01*
X115141972Y-86315162D01*
X115072787Y-86305401D01*
X115019863Y-86259787D01*
X115000000Y-86192799D01*
X115000000Y-85790426D01*
X114999999Y-85790423D01*
X114963468Y-85372874D01*
X114890685Y-84960105D01*
X114890682Y-84960092D01*
X114782206Y-84555247D01*
X114638842Y-84161360D01*
X114638839Y-84161352D01*
X114461712Y-83781504D01*
X114461704Y-83781488D01*
X114252140Y-83418513D01*
X114252124Y-83418487D01*
X114011723Y-83075159D01*
X113768388Y-82785164D01*
X113768387Y-82785163D01*
X111886900Y-84666650D01*
X111819924Y-84579365D01*
X111620635Y-84380076D01*
X111533347Y-84313097D01*
X113414834Y-82431611D01*
X113124833Y-82188271D01*
X112781512Y-81947875D01*
X112781486Y-81947859D01*
X112418511Y-81738295D01*
X112418495Y-81738287D01*
X112038647Y-81561160D01*
X112038639Y-81561157D01*
X111644752Y-81417793D01*
X111239907Y-81309317D01*
X111239894Y-81309314D01*
X110827125Y-81236531D01*
X110409576Y-81200000D01*
X109990423Y-81200000D01*
X109572874Y-81236531D01*
X109160105Y-81309314D01*
X109160092Y-81309317D01*
X108755247Y-81417793D01*
X108361360Y-81561157D01*
X108361352Y-81561160D01*
X107981504Y-81738287D01*
X107981488Y-81738295D01*
X107618513Y-81947859D01*
X107618487Y-81947875D01*
X107275166Y-82188271D01*
X106985164Y-82431612D01*
X108866651Y-84313098D01*
X108779365Y-84380076D01*
X108580076Y-84579365D01*
X108513098Y-84666651D01*
X106631612Y-82785164D01*
X106388271Y-83075166D01*
X106147875Y-83418487D01*
X106147859Y-83418513D01*
X105938295Y-83781488D01*
X105938287Y-83781504D01*
X105761160Y-84161352D01*
X105761157Y-84161360D01*
X105617793Y-84555247D01*
X105509317Y-84960092D01*
X105509314Y-84960105D01*
X105436531Y-85372874D01*
X105400000Y-85790423D01*
X104708434Y-85790423D01*
X104713840Y-85616778D01*
X104714528Y-85607054D01*
X104761147Y-85185283D01*
X104762604Y-85175611D01*
X104777090Y-85099900D01*
X104842349Y-84758813D01*
X104844557Y-84749321D01*
X104956927Y-84340127D01*
X104959881Y-84330823D01*
X105104186Y-83931742D01*
X105107872Y-83922687D01*
X105114917Y-83907160D01*
X105283192Y-83536263D01*
X105287562Y-83527562D01*
X105492835Y-83156139D01*
X105497885Y-83147797D01*
X105731810Y-82793731D01*
X105737496Y-82785821D01*
X105998621Y-82451308D01*
X106004915Y-82443870D01*
X106291618Y-82130991D01*
X106298489Y-82124064D01*
X106608961Y-81834789D01*
X106616351Y-81828429D01*
X106948694Y-81564531D01*
X106956562Y-81558775D01*
X107308660Y-81321930D01*
X107316967Y-81316806D01*
X107686672Y-81108459D01*
X107695347Y-81104013D01*
X108080303Y-80925491D01*
X108089330Y-80921729D01*
X108487181Y-80774125D01*
X108496450Y-80771096D01*
X108904728Y-80655326D01*
X108914204Y-80653039D01*
X109330319Y-80569840D01*
X109339951Y-80568306D01*
X109761324Y-80518188D01*
X109771070Y-80517417D01*
X110197565Y-80500595D01*
X110202438Y-80500500D01*
X110265863Y-80500504D01*
X110265878Y-80500500D01*
X140484108Y-80500500D01*
X140547439Y-80500500D01*
X140552562Y-80500605D01*
G37*
%TD.AperFunction*%
%TD*%
%TA.AperFunction,NonConductor*%
G36*
X120525539Y-92119685D02*
G01*
X120571294Y-92172489D01*
X120582500Y-92224000D01*
X120582500Y-94091406D01*
X120581276Y-94095878D01*
X120582196Y-94100077D01*
X120574743Y-94134575D01*
X120570879Y-94144978D01*
X120548630Y-94182600D01*
X120518878Y-94285005D01*
X120517304Y-94289245D01*
X120488743Y-94333756D01*
X120482500Y-94339999D01*
X120482500Y-94476000D01*
X120462815Y-94543039D01*
X120410011Y-94588794D01*
X120358500Y-94600000D01*
X120232500Y-94600000D01*
X120232500Y-94726000D01*
X120212815Y-94793039D01*
X120160011Y-94838794D01*
X120108500Y-94850000D01*
X119367270Y-94850000D01*
X119364004Y-94853531D01*
X119363722Y-94854877D01*
X119365702Y-94868647D01*
X119356682Y-94888397D01*
X119352220Y-94909644D01*
X119342455Y-94919549D01*
X119336677Y-94932203D01*
X119318412Y-94943940D01*
X119303171Y-94959403D01*
X119288397Y-94963230D01*
X119277899Y-94969977D01*
X119242964Y-94975000D01*
X119109500Y-94975000D01*
X119042461Y-94955315D01*
X118996706Y-94902511D01*
X118985500Y-94851000D01*
X118985500Y-94350000D01*
X119367270Y-94350000D01*
X119982500Y-94350000D01*
X119982500Y-93784000D01*
X120002185Y-93716961D01*
X120054989Y-93671206D01*
X120075827Y-93666672D01*
X120082500Y-93660000D01*
X120082500Y-93650000D01*
X119467270Y-93650000D01*
X119467921Y-93658281D01*
X119514090Y-93817194D01*
X119514091Y-93817195D01*
X119542205Y-93864734D01*
X119559386Y-93932458D01*
X119537226Y-93998720D01*
X119523156Y-94015532D01*
X119498339Y-94040349D01*
X119498331Y-94040360D01*
X119414092Y-94182802D01*
X119414090Y-94182805D01*
X119367921Y-94341718D01*
X119367270Y-94350000D01*
X118985500Y-94350000D01*
X118985500Y-93481162D01*
X119005185Y-93414123D01*
X119021814Y-93393486D01*
X119279061Y-93136239D01*
X119340382Y-93102756D01*
X119410074Y-93107740D01*
X119457798Y-93139753D01*
X119467270Y-93150000D01*
X120082500Y-93150000D01*
X120082500Y-92359089D01*
X120085906Y-92345336D01*
X120084973Y-92334447D01*
X120093937Y-92312918D01*
X120096838Y-92301208D01*
X120099829Y-92295540D01*
X120133620Y-92244969D01*
X120157296Y-92187810D01*
X120159503Y-92182482D01*
X120161963Y-92176545D01*
X120205805Y-92122142D01*
X120272100Y-92100079D01*
X120276523Y-92100000D01*
X120458500Y-92100000D01*
X120525539Y-92119685D01*
G37*
%TD.AperFunction*%
%TA.AperFunction,NonConductor*%
G36*
X124410618Y-102576856D02*
G01*
X124422350Y-102576421D01*
X124454976Y-102589881D01*
X124532802Y-102635907D01*
X124532805Y-102635908D01*
X124689468Y-102681424D01*
X124748354Y-102719030D01*
X124777560Y-102782503D01*
X124767814Y-102851689D01*
X124722210Y-102904624D01*
X124655227Y-102924499D01*
X124654873Y-102924500D01*
X122956163Y-102924500D01*
X122926722Y-102915855D01*
X122896736Y-102909332D01*
X122891720Y-102905577D01*
X122889124Y-102904815D01*
X122868482Y-102888181D01*
X122851982Y-102871681D01*
X122818497Y-102810358D01*
X122823481Y-102740666D01*
X122865353Y-102684733D01*
X122930817Y-102660316D01*
X122939663Y-102660000D01*
X122961142Y-102660000D01*
X122961157Y-102659999D01*
X122998277Y-102657078D01*
X122998283Y-102657077D01*
X123157194Y-102610908D01*
X123157202Y-102610905D01*
X123186386Y-102593646D01*
X123254109Y-102576462D01*
X123312628Y-102593644D01*
X123342600Y-102611370D01*
X123353625Y-102614573D01*
X123501637Y-102657575D01*
X123501640Y-102657575D01*
X123501642Y-102657576D01*
X123538797Y-102660500D01*
X124096202Y-102660499D01*
X124133358Y-102657576D01*
X124292400Y-102611370D01*
X124328733Y-102589882D01*
X124341618Y-102586612D01*
X124352528Y-102579015D01*
X124374824Y-102578186D01*
X124396455Y-102572698D01*
X124410618Y-102576856D01*
G37*
%TD.AperFunction*%
M02*
