%TF.GenerationSoftware,KiCad,Pcbnew,9.0.1-9.0.1-0~ubuntu24.04.1*%
%TF.CreationDate,2025-05-01T05:33:58-07:00*%
%TF.ProjectId,tobydio,746f6279-6469-46f2-9e6b-696361645f70,rev?*%
%TF.SameCoordinates,Original*%
%TF.FileFunction,Legend,Bot*%
%TF.FilePolarity,Positive*%
%FSLAX46Y46*%
G04 Gerber Fmt 4.6, Leading zero omitted, Abs format (unit mm)*
G04 Created by KiCad (PCBNEW 9.0.1-9.0.1-0~ubuntu24.04.1) date 2025-05-01 05:33:58*
%MOMM*%
%LPD*%
G01*
G04 APERTURE LIST*
%ADD10C,0.000000*%
%ADD11C,0.300000*%
%ADD12C,0.200000*%
%ADD13C,0.150000*%
%ADD14R,1.700000X1.700000*%
%ADD15O,1.700000X1.700000*%
%ADD16C,0.900000*%
%ADD17C,8.600000*%
%ADD18C,1.000000*%
G04 APERTURE END LIST*
D10*
G36*
X128833002Y-100400000D02*
G01*
X128898714Y-100405021D01*
X128963462Y-100413290D01*
X129027166Y-100424726D01*
X129089744Y-100439247D01*
X129151116Y-100456773D01*
X129211201Y-100477221D01*
X129269919Y-100500510D01*
X129327189Y-100526560D01*
X129382929Y-100555289D01*
X129437060Y-100586615D01*
X129489501Y-100620458D01*
X129540170Y-100656735D01*
X129588987Y-100695366D01*
X129635872Y-100736270D01*
X129680744Y-100779364D01*
X129723521Y-100824568D01*
X129764124Y-100871801D01*
X129802471Y-100920981D01*
X129838482Y-100972026D01*
X129872076Y-101024856D01*
X129903172Y-101079389D01*
X129931690Y-101135544D01*
X129957549Y-101193240D01*
X129980668Y-101252395D01*
X130000966Y-101312928D01*
X130018363Y-101374757D01*
X130032778Y-101437802D01*
X130044130Y-101501980D01*
X130052338Y-101567212D01*
X130057323Y-101633415D01*
X130059002Y-101700508D01*
X130057924Y-101754207D01*
X130054719Y-101807347D01*
X130042090Y-101911783D01*
X130021450Y-102013485D01*
X129993128Y-102112121D01*
X129957459Y-102207359D01*
X129914774Y-102298867D01*
X129865405Y-102386313D01*
X129809685Y-102469367D01*
X129747946Y-102547696D01*
X129680521Y-102620969D01*
X129607742Y-102688853D01*
X129529940Y-102751018D01*
X129447449Y-102807132D01*
X129360601Y-102856862D01*
X129269728Y-102899878D01*
X129175161Y-102935847D01*
X129169260Y-102936906D01*
X129163594Y-102937661D01*
X129158160Y-102938121D01*
X129152955Y-102938298D01*
X129147976Y-102938204D01*
X129143219Y-102937848D01*
X129138683Y-102937243D01*
X129134362Y-102936400D01*
X129130255Y-102935329D01*
X129126358Y-102934041D01*
X129122668Y-102932548D01*
X129119182Y-102930861D01*
X129115897Y-102928990D01*
X129112809Y-102926948D01*
X129109915Y-102924744D01*
X129107213Y-102922390D01*
X129104699Y-102919897D01*
X129102370Y-102917276D01*
X129100223Y-102914538D01*
X129098254Y-102911695D01*
X129096461Y-102908757D01*
X129094841Y-102905735D01*
X129093389Y-102902641D01*
X129092104Y-102899485D01*
X129090020Y-102893033D01*
X129088562Y-102886468D01*
X129087705Y-102879878D01*
X129087426Y-102873353D01*
X129088484Y-102781721D01*
X129089212Y-102710840D01*
X129089542Y-102631867D01*
X129122424Y-102638252D01*
X129153676Y-102642917D01*
X129183337Y-102645961D01*
X129211445Y-102647485D01*
X129238039Y-102647588D01*
X129263157Y-102646368D01*
X129286837Y-102643927D01*
X129309117Y-102640362D01*
X129330038Y-102635774D01*
X129349635Y-102630263D01*
X129367949Y-102623927D01*
X129385017Y-102616866D01*
X129400878Y-102609179D01*
X129415571Y-102600967D01*
X129429133Y-102592328D01*
X129441603Y-102583363D01*
X129463422Y-102564849D01*
X129481335Y-102546221D01*
X129495648Y-102528275D01*
X129506670Y-102511808D01*
X129514708Y-102497614D01*
X129520068Y-102486491D01*
X129523988Y-102476637D01*
X129535121Y-102449635D01*
X129546741Y-102425155D01*
X129558680Y-102403088D01*
X129570773Y-102383326D01*
X129582854Y-102365763D01*
X129594756Y-102350291D01*
X129606313Y-102336802D01*
X129617360Y-102325189D01*
X129627729Y-102315345D01*
X129637255Y-102307162D01*
X129645771Y-102300532D01*
X129653111Y-102295349D01*
X129663600Y-102288892D01*
X129667392Y-102286930D01*
X129677722Y-102279683D01*
X129686690Y-102272888D01*
X129694365Y-102266532D01*
X129700813Y-102260599D01*
X129706103Y-102255076D01*
X129710303Y-102249946D01*
X129713480Y-102245197D01*
X129715702Y-102240812D01*
X129717037Y-102236778D01*
X129717553Y-102233080D01*
X129717317Y-102229704D01*
X129716398Y-102226634D01*
X129714862Y-102223856D01*
X129712779Y-102221356D01*
X129710215Y-102219119D01*
X129707239Y-102217130D01*
X129703917Y-102215375D01*
X129700319Y-102213839D01*
X129692563Y-102211365D01*
X129684512Y-102209593D01*
X129676709Y-102208405D01*
X129664015Y-102207314D01*
X129658820Y-102207158D01*
X129646763Y-102208301D01*
X129635071Y-102210081D01*
X129623745Y-102212455D01*
X129612786Y-102215378D01*
X129602196Y-102218807D01*
X129591974Y-102222697D01*
X129582124Y-102227004D01*
X129572645Y-102231683D01*
X129563539Y-102236691D01*
X129554808Y-102241982D01*
X129538472Y-102253242D01*
X129523647Y-102265108D01*
X129510342Y-102277227D01*
X129498567Y-102289244D01*
X129488332Y-102300807D01*
X129479645Y-102311561D01*
X129472517Y-102321153D01*
X129462972Y-102335436D01*
X129459774Y-102340826D01*
X129448740Y-102358683D01*
X129437326Y-102375100D01*
X129425564Y-102390127D01*
X129413489Y-102403816D01*
X129401133Y-102416216D01*
X129388529Y-102427378D01*
X129375711Y-102437353D01*
X129362713Y-102446191D01*
X129349567Y-102453943D01*
X129336307Y-102460659D01*
X129322966Y-102466390D01*
X129309578Y-102471186D01*
X129296176Y-102475098D01*
X129282793Y-102478177D01*
X129269462Y-102480472D01*
X129256217Y-102482034D01*
X129243090Y-102482914D01*
X129230117Y-102483163D01*
X129204760Y-102481968D01*
X129180412Y-102478852D01*
X129157340Y-102474221D01*
X129135810Y-102468477D01*
X129116089Y-102462026D01*
X129098443Y-102455271D01*
X129083139Y-102448617D01*
X129080864Y-102433155D01*
X129078068Y-102418298D01*
X129074782Y-102404049D01*
X129071038Y-102390406D01*
X129066867Y-102377369D01*
X129062300Y-102364939D01*
X129057370Y-102353115D01*
X129052107Y-102341897D01*
X129046543Y-102331287D01*
X129040710Y-102321282D01*
X129034638Y-102311884D01*
X129028359Y-102303093D01*
X129021906Y-102294908D01*
X129015308Y-102287330D01*
X129008598Y-102280358D01*
X129001806Y-102273992D01*
X129055676Y-102267297D01*
X129109432Y-102258234D01*
X129162610Y-102246353D01*
X129214748Y-102231207D01*
X129265380Y-102212348D01*
X129289986Y-102201385D01*
X129314043Y-102189326D01*
X129337491Y-102176114D01*
X129360273Y-102161693D01*
X129382330Y-102146007D01*
X129403606Y-102129001D01*
X129424041Y-102110617D01*
X129443578Y-102090800D01*
X129462159Y-102069495D01*
X129479726Y-102046644D01*
X129496221Y-102022192D01*
X129511586Y-101996082D01*
X129525762Y-101968260D01*
X129538693Y-101938668D01*
X129550319Y-101907250D01*
X129560583Y-101873951D01*
X129569428Y-101838714D01*
X129576794Y-101801484D01*
X129582624Y-101762204D01*
X129586860Y-101720818D01*
X129589445Y-101677270D01*
X129590319Y-101631505D01*
X129589723Y-101605128D01*
X129587955Y-101579358D01*
X129585046Y-101554194D01*
X129581028Y-101529637D01*
X129575932Y-101505686D01*
X129569789Y-101482342D01*
X129562631Y-101459604D01*
X129554488Y-101437472D01*
X129545392Y-101415947D01*
X129535374Y-101395029D01*
X129524466Y-101374717D01*
X129512698Y-101355012D01*
X129500102Y-101335913D01*
X129486709Y-101317420D01*
X129472550Y-101299534D01*
X129457657Y-101282255D01*
X129463686Y-101265488D01*
X129467289Y-101253747D01*
X129470996Y-101239877D01*
X129474590Y-101223960D01*
X129477854Y-101206078D01*
X129480574Y-101186314D01*
X129482531Y-101164750D01*
X129483510Y-101141467D01*
X129483295Y-101116549D01*
X129482672Y-101103502D01*
X129481669Y-101090077D01*
X129480259Y-101076284D01*
X129478415Y-101062134D01*
X129476110Y-101047636D01*
X129473317Y-101032802D01*
X129470009Y-101017640D01*
X129466160Y-101002162D01*
X129461741Y-100986378D01*
X129456725Y-100970298D01*
X129451087Y-100953932D01*
X129444798Y-100937291D01*
X129439628Y-100936137D01*
X129433104Y-100935215D01*
X129423900Y-100934528D01*
X129411975Y-100934421D01*
X129404979Y-100934694D01*
X129397288Y-100935243D01*
X129388896Y-100936110D01*
X129379799Y-100937340D01*
X129369991Y-100938976D01*
X129359467Y-100941061D01*
X129348222Y-100943639D01*
X129336251Y-100946753D01*
X129323549Y-100950446D01*
X129310110Y-100954763D01*
X129295930Y-100959745D01*
X129281004Y-100965438D01*
X129265326Y-100971884D01*
X129248892Y-100979126D01*
X129231696Y-100987209D01*
X129213733Y-100996175D01*
X129194999Y-101006068D01*
X129175487Y-101016932D01*
X129155193Y-101028809D01*
X129134112Y-101041744D01*
X129112239Y-101055779D01*
X129089569Y-101070958D01*
X129049910Y-101060926D01*
X129009975Y-101052211D01*
X128969797Y-101044818D01*
X128929408Y-101038751D01*
X128888842Y-101034014D01*
X128848131Y-101030613D01*
X128807308Y-101028550D01*
X128766407Y-101027831D01*
X128725401Y-101028535D01*
X128684321Y-101030630D01*
X128643291Y-101034089D01*
X128602438Y-101038887D01*
X128561884Y-101044999D01*
X128521756Y-101052399D01*
X128482176Y-101061061D01*
X128443271Y-101070958D01*
X128398723Y-101041744D01*
X128357344Y-101016932D01*
X128319094Y-100996175D01*
X128283932Y-100979126D01*
X128251818Y-100965438D01*
X128222709Y-100954763D01*
X128196567Y-100946753D01*
X128173350Y-100941061D01*
X128153016Y-100937340D01*
X128135526Y-100935243D01*
X128120839Y-100934421D01*
X128108914Y-100934528D01*
X128093185Y-100936137D01*
X128088015Y-100937291D01*
X128076088Y-100970298D01*
X128066655Y-101002162D01*
X128059498Y-101032802D01*
X128054403Y-101062134D01*
X128051151Y-101090077D01*
X128049527Y-101116549D01*
X128049314Y-101141467D01*
X128050295Y-101164750D01*
X128052255Y-101186314D01*
X128054977Y-101206078D01*
X128058244Y-101223960D01*
X128061840Y-101239877D01*
X128069152Y-101265488D01*
X128075183Y-101282255D01*
X128059936Y-101299534D01*
X128045514Y-101317420D01*
X128031940Y-101335913D01*
X128019234Y-101355012D01*
X128007418Y-101374717D01*
X127996515Y-101395029D01*
X127986547Y-101415947D01*
X127977535Y-101437472D01*
X127969501Y-101459604D01*
X127962467Y-101482342D01*
X127956456Y-101505686D01*
X127951488Y-101529637D01*
X127947586Y-101554194D01*
X127944772Y-101579358D01*
X127943067Y-101605128D01*
X127942494Y-101631505D01*
X127943368Y-101677264D01*
X127945953Y-101720794D01*
X127950191Y-101762152D01*
X127956023Y-101801395D01*
X127963394Y-101838580D01*
X127972244Y-101873765D01*
X127982517Y-101907007D01*
X127994154Y-101938363D01*
X128007099Y-101967890D01*
X128021293Y-101995645D01*
X128036679Y-102021687D01*
X128053200Y-102046072D01*
X128070797Y-102068857D01*
X128089414Y-102090100D01*
X128108993Y-102109857D01*
X128129475Y-102128187D01*
X128150804Y-102145146D01*
X128172922Y-102160792D01*
X128195771Y-102175182D01*
X128219294Y-102188372D01*
X128268130Y-102211386D01*
X128318970Y-102230292D01*
X128371352Y-102245548D01*
X128424817Y-102257611D01*
X128478903Y-102266940D01*
X128533150Y-102273992D01*
X128524403Y-102282103D01*
X128515858Y-102291086D01*
X128507565Y-102300953D01*
X128499573Y-102311716D01*
X128491932Y-102323390D01*
X128484693Y-102335985D01*
X128477906Y-102349516D01*
X128471621Y-102363993D01*
X128465888Y-102379432D01*
X128460756Y-102395843D01*
X128456277Y-102413240D01*
X128452500Y-102431635D01*
X128449475Y-102451041D01*
X128447252Y-102471470D01*
X128445882Y-102492936D01*
X128445532Y-102504062D01*
X128445414Y-102515451D01*
X128447531Y-102873326D01*
X128447251Y-102879857D01*
X128446393Y-102886450D01*
X128445741Y-102889743D01*
X128444934Y-102893019D01*
X128443971Y-102896266D01*
X128442848Y-102899474D01*
X128441562Y-102902632D01*
X128440110Y-102905727D01*
X128438489Y-102908751D01*
X128436695Y-102911690D01*
X128434726Y-102914535D01*
X128432578Y-102917274D01*
X128430248Y-102919896D01*
X128427733Y-102922390D01*
X128425030Y-102924745D01*
X128422136Y-102926950D01*
X128419048Y-102928994D01*
X128415763Y-102930866D01*
X128412276Y-102932555D01*
X128408586Y-102934049D01*
X128404690Y-102935338D01*
X128400583Y-102936411D01*
X128396263Y-102937256D01*
X128391727Y-102937863D01*
X128386972Y-102938220D01*
X128381994Y-102938316D01*
X128376790Y-102938141D01*
X128371358Y-102937683D01*
X128365694Y-102936931D01*
X128359795Y-102935874D01*
X128312071Y-102918786D01*
X128265229Y-102899896D01*
X128219310Y-102879244D01*
X128174355Y-102856873D01*
X128130407Y-102832823D01*
X128087507Y-102807136D01*
X128045696Y-102779855D01*
X128005016Y-102751019D01*
X127965508Y-102720670D01*
X127927214Y-102688851D01*
X127890176Y-102655601D01*
X127854435Y-102620964D01*
X127820032Y-102584980D01*
X127787010Y-102547690D01*
X127755409Y-102509137D01*
X127725271Y-102469361D01*
X127696638Y-102428404D01*
X127669551Y-102386307D01*
X127644052Y-102343112D01*
X127620183Y-102298861D01*
X127597984Y-102253595D01*
X127577498Y-102207354D01*
X127558765Y-102160181D01*
X127541828Y-102112118D01*
X127526728Y-102063205D01*
X127513507Y-102013483D01*
X127502205Y-101962995D01*
X127492866Y-101911783D01*
X127485529Y-101859886D01*
X127480238Y-101807347D01*
X127477032Y-101754207D01*
X127475954Y-101700508D01*
X127477447Y-101633415D01*
X127482269Y-101567212D01*
X127490336Y-101501981D01*
X127501567Y-101437802D01*
X127515879Y-101374757D01*
X127533190Y-101312928D01*
X127553419Y-101252395D01*
X127576481Y-101193240D01*
X127602296Y-101135544D01*
X127630781Y-101079389D01*
X127661853Y-101024856D01*
X127695431Y-100972026D01*
X127731432Y-100920981D01*
X127769774Y-100871801D01*
X127810374Y-100824568D01*
X127853151Y-100779364D01*
X127898022Y-100736270D01*
X127944904Y-100695366D01*
X127993716Y-100656735D01*
X128044374Y-100620458D01*
X128096798Y-100586615D01*
X128150904Y-100555289D01*
X128206611Y-100526560D01*
X128263836Y-100500510D01*
X128322496Y-100477221D01*
X128382510Y-100456773D01*
X128443795Y-100439247D01*
X128506268Y-100424726D01*
X128569849Y-100413290D01*
X128634453Y-100405021D01*
X128700000Y-100400000D01*
X128766407Y-100398308D01*
X128833002Y-100400000D01*
G37*
D11*
X113693082Y-105774161D02*
X113693082Y-104274161D01*
X113693082Y-104274161D02*
X113193082Y-105345590D01*
X113193082Y-105345590D02*
X112693082Y-104274161D01*
X112693082Y-104274161D02*
X112693082Y-105774161D01*
X111978796Y-105774161D02*
X111978796Y-104274161D01*
X111978796Y-104274161D02*
X111621653Y-104274161D01*
X111621653Y-104274161D02*
X111407367Y-104345590D01*
X111407367Y-104345590D02*
X111264510Y-104488447D01*
X111264510Y-104488447D02*
X111193081Y-104631304D01*
X111193081Y-104631304D02*
X111121653Y-104917018D01*
X111121653Y-104917018D02*
X111121653Y-105131304D01*
X111121653Y-105131304D02*
X111193081Y-105417018D01*
X111193081Y-105417018D02*
X111264510Y-105559875D01*
X111264510Y-105559875D02*
X111407367Y-105702733D01*
X111407367Y-105702733D02*
X111621653Y-105774161D01*
X111621653Y-105774161D02*
X111978796Y-105774161D01*
X109693081Y-105774161D02*
X110550224Y-105774161D01*
X110121653Y-105774161D02*
X110121653Y-104274161D01*
X110121653Y-104274161D02*
X110264510Y-104488447D01*
X110264510Y-104488447D02*
X110407367Y-104631304D01*
X110407367Y-104631304D02*
X110550224Y-104702733D01*
X113050225Y-97378447D02*
X112835939Y-97449875D01*
X112835939Y-97449875D02*
X112764510Y-97521304D01*
X112764510Y-97521304D02*
X112693082Y-97664161D01*
X112693082Y-97664161D02*
X112693082Y-97878447D01*
X112693082Y-97878447D02*
X112764510Y-98021304D01*
X112764510Y-98021304D02*
X112835939Y-98092733D01*
X112835939Y-98092733D02*
X112978796Y-98164161D01*
X112978796Y-98164161D02*
X113550225Y-98164161D01*
X113550225Y-98164161D02*
X113550225Y-96664161D01*
X113550225Y-96664161D02*
X113050225Y-96664161D01*
X113050225Y-96664161D02*
X112907368Y-96735590D01*
X112907368Y-96735590D02*
X112835939Y-96807018D01*
X112835939Y-96807018D02*
X112764510Y-96949875D01*
X112764510Y-96949875D02*
X112764510Y-97092733D01*
X112764510Y-97092733D02*
X112835939Y-97235590D01*
X112835939Y-97235590D02*
X112907368Y-97307018D01*
X112907368Y-97307018D02*
X113050225Y-97378447D01*
X113050225Y-97378447D02*
X113550225Y-97378447D01*
X111193082Y-98021304D02*
X111264510Y-98092733D01*
X111264510Y-98092733D02*
X111478796Y-98164161D01*
X111478796Y-98164161D02*
X111621653Y-98164161D01*
X111621653Y-98164161D02*
X111835939Y-98092733D01*
X111835939Y-98092733D02*
X111978796Y-97949875D01*
X111978796Y-97949875D02*
X112050225Y-97807018D01*
X112050225Y-97807018D02*
X112121653Y-97521304D01*
X112121653Y-97521304D02*
X112121653Y-97307018D01*
X112121653Y-97307018D02*
X112050225Y-97021304D01*
X112050225Y-97021304D02*
X111978796Y-96878447D01*
X111978796Y-96878447D02*
X111835939Y-96735590D01*
X111835939Y-96735590D02*
X111621653Y-96664161D01*
X111621653Y-96664161D02*
X111478796Y-96664161D01*
X111478796Y-96664161D02*
X111264510Y-96735590D01*
X111264510Y-96735590D02*
X111193082Y-96807018D01*
X110550225Y-98164161D02*
X110550225Y-96664161D01*
X109693082Y-98164161D02*
X110335939Y-97307018D01*
X109693082Y-96664161D02*
X110550225Y-97521304D01*
X114835940Y-108310828D02*
X114835940Y-106810828D01*
X114835940Y-106810828D02*
X114478797Y-106810828D01*
X114478797Y-106810828D02*
X114264511Y-106882257D01*
X114264511Y-106882257D02*
X114121654Y-107025114D01*
X114121654Y-107025114D02*
X114050225Y-107167971D01*
X114050225Y-107167971D02*
X113978797Y-107453685D01*
X113978797Y-107453685D02*
X113978797Y-107667971D01*
X113978797Y-107667971D02*
X114050225Y-107953685D01*
X114050225Y-107953685D02*
X114121654Y-108096542D01*
X114121654Y-108096542D02*
X114264511Y-108239400D01*
X114264511Y-108239400D02*
X114478797Y-108310828D01*
X114478797Y-108310828D02*
X114835940Y-108310828D01*
X113050225Y-106810828D02*
X112764511Y-106810828D01*
X112764511Y-106810828D02*
X112621654Y-106882257D01*
X112621654Y-106882257D02*
X112478797Y-107025114D01*
X112478797Y-107025114D02*
X112407368Y-107310828D01*
X112407368Y-107310828D02*
X112407368Y-107810828D01*
X112407368Y-107810828D02*
X112478797Y-108096542D01*
X112478797Y-108096542D02*
X112621654Y-108239400D01*
X112621654Y-108239400D02*
X112764511Y-108310828D01*
X112764511Y-108310828D02*
X113050225Y-108310828D01*
X113050225Y-108310828D02*
X113193083Y-108239400D01*
X113193083Y-108239400D02*
X113335940Y-108096542D01*
X113335940Y-108096542D02*
X113407368Y-107810828D01*
X113407368Y-107810828D02*
X113407368Y-107310828D01*
X113407368Y-107310828D02*
X113335940Y-107025114D01*
X113335940Y-107025114D02*
X113193083Y-106882257D01*
X113193083Y-106882257D02*
X113050225Y-106810828D01*
X111764511Y-106810828D02*
X111764511Y-108025114D01*
X111764511Y-108025114D02*
X111693082Y-108167971D01*
X111693082Y-108167971D02*
X111621654Y-108239400D01*
X111621654Y-108239400D02*
X111478796Y-108310828D01*
X111478796Y-108310828D02*
X111193082Y-108310828D01*
X111193082Y-108310828D02*
X111050225Y-108239400D01*
X111050225Y-108239400D02*
X110978796Y-108167971D01*
X110978796Y-108167971D02*
X110907368Y-108025114D01*
X110907368Y-108025114D02*
X110907368Y-106810828D01*
X110407367Y-106810828D02*
X109550225Y-106810828D01*
X109978796Y-108310828D02*
X109978796Y-106810828D01*
X122670242Y-89135939D02*
X122741671Y-89278797D01*
X122741671Y-89278797D02*
X122741671Y-89493082D01*
X122741671Y-89493082D02*
X122670242Y-89707368D01*
X122670242Y-89707368D02*
X122527385Y-89850225D01*
X122527385Y-89850225D02*
X122384528Y-89921654D01*
X122384528Y-89921654D02*
X122098814Y-89993082D01*
X122098814Y-89993082D02*
X121884528Y-89993082D01*
X121884528Y-89993082D02*
X121598814Y-89921654D01*
X121598814Y-89921654D02*
X121455957Y-89850225D01*
X121455957Y-89850225D02*
X121313100Y-89707368D01*
X121313100Y-89707368D02*
X121241671Y-89493082D01*
X121241671Y-89493082D02*
X121241671Y-89350225D01*
X121241671Y-89350225D02*
X121313100Y-89135939D01*
X121313100Y-89135939D02*
X121384528Y-89064511D01*
X121384528Y-89064511D02*
X121884528Y-89064511D01*
X121884528Y-89064511D02*
X121884528Y-89350225D01*
X121241671Y-88421654D02*
X122741671Y-88421654D01*
X122741671Y-88421654D02*
X121241671Y-87564511D01*
X121241671Y-87564511D02*
X122741671Y-87564511D01*
X121241671Y-86850225D02*
X122741671Y-86850225D01*
X122741671Y-86850225D02*
X122741671Y-86493082D01*
X122741671Y-86493082D02*
X122670242Y-86278796D01*
X122670242Y-86278796D02*
X122527385Y-86135939D01*
X122527385Y-86135939D02*
X122384528Y-86064510D01*
X122384528Y-86064510D02*
X122098814Y-85993082D01*
X122098814Y-85993082D02*
X121884528Y-85993082D01*
X121884528Y-85993082D02*
X121598814Y-86064510D01*
X121598814Y-86064510D02*
X121455957Y-86135939D01*
X121455957Y-86135939D02*
X121313100Y-86278796D01*
X121313100Y-86278796D02*
X121241671Y-86493082D01*
X121241671Y-86493082D02*
X121241671Y-86850225D01*
X120216671Y-90350224D02*
X120216671Y-89421652D01*
X120216671Y-89421652D02*
X119645242Y-89921652D01*
X119645242Y-89921652D02*
X119645242Y-89707367D01*
X119645242Y-89707367D02*
X119573814Y-89564510D01*
X119573814Y-89564510D02*
X119502385Y-89493081D01*
X119502385Y-89493081D02*
X119359528Y-89421652D01*
X119359528Y-89421652D02*
X119002385Y-89421652D01*
X119002385Y-89421652D02*
X118859528Y-89493081D01*
X118859528Y-89493081D02*
X118788100Y-89564510D01*
X118788100Y-89564510D02*
X118716671Y-89707367D01*
X118716671Y-89707367D02*
X118716671Y-90135938D01*
X118716671Y-90135938D02*
X118788100Y-90278795D01*
X118788100Y-90278795D02*
X118859528Y-90350224D01*
X118859528Y-88778796D02*
X118788100Y-88707367D01*
X118788100Y-88707367D02*
X118716671Y-88778796D01*
X118716671Y-88778796D02*
X118788100Y-88850224D01*
X118788100Y-88850224D02*
X118859528Y-88778796D01*
X118859528Y-88778796D02*
X118716671Y-88778796D01*
X120216671Y-88207367D02*
X120216671Y-87278795D01*
X120216671Y-87278795D02*
X119645242Y-87778795D01*
X119645242Y-87778795D02*
X119645242Y-87564510D01*
X119645242Y-87564510D02*
X119573814Y-87421653D01*
X119573814Y-87421653D02*
X119502385Y-87350224D01*
X119502385Y-87350224D02*
X119359528Y-87278795D01*
X119359528Y-87278795D02*
X119002385Y-87278795D01*
X119002385Y-87278795D02*
X118859528Y-87350224D01*
X118859528Y-87350224D02*
X118788100Y-87421653D01*
X118788100Y-87421653D02*
X118716671Y-87564510D01*
X118716671Y-87564510D02*
X118716671Y-87993081D01*
X118716671Y-87993081D02*
X118788100Y-88135938D01*
X118788100Y-88135938D02*
X118859528Y-88207367D01*
X120216671Y-86850224D02*
X118716671Y-86350224D01*
X118716671Y-86350224D02*
X120216671Y-85850224D01*
X123766671Y-89135940D02*
X125266671Y-89135940D01*
X125266671Y-89135940D02*
X125266671Y-88778797D01*
X125266671Y-88778797D02*
X125195242Y-88564511D01*
X125195242Y-88564511D02*
X125052385Y-88421654D01*
X125052385Y-88421654D02*
X124909528Y-88350225D01*
X124909528Y-88350225D02*
X124623814Y-88278797D01*
X124623814Y-88278797D02*
X124409528Y-88278797D01*
X124409528Y-88278797D02*
X124123814Y-88350225D01*
X124123814Y-88350225D02*
X123980957Y-88421654D01*
X123980957Y-88421654D02*
X123838100Y-88564511D01*
X123838100Y-88564511D02*
X123766671Y-88778797D01*
X123766671Y-88778797D02*
X123766671Y-89135940D01*
X123766671Y-87635940D02*
X125266671Y-87635940D01*
X123766671Y-86921654D02*
X125266671Y-86921654D01*
X125266671Y-86921654D02*
X123766671Y-86064511D01*
X123766671Y-86064511D02*
X125266671Y-86064511D01*
D12*
X136082780Y-107061279D02*
X136082780Y-107632707D01*
X136082780Y-107632707D02*
X137082780Y-107632707D01*
D11*
X134704509Y-97306304D02*
X134018795Y-97306304D01*
X134447366Y-96639638D02*
X134447366Y-98353923D01*
X134447366Y-98353923D02*
X134361652Y-98544400D01*
X134361652Y-98544400D02*
X134190223Y-98639638D01*
X134190223Y-98639638D02*
X134018795Y-98639638D01*
X133161652Y-98639638D02*
X133333081Y-98544400D01*
X133333081Y-98544400D02*
X133418795Y-98449161D01*
X133418795Y-98449161D02*
X133504509Y-98258685D01*
X133504509Y-98258685D02*
X133504509Y-97687257D01*
X133504509Y-97687257D02*
X133418795Y-97496780D01*
X133418795Y-97496780D02*
X133333081Y-97401542D01*
X133333081Y-97401542D02*
X133161652Y-97306304D01*
X133161652Y-97306304D02*
X132904509Y-97306304D01*
X132904509Y-97306304D02*
X132733081Y-97401542D01*
X132733081Y-97401542D02*
X132647367Y-97496780D01*
X132647367Y-97496780D02*
X132561652Y-97687257D01*
X132561652Y-97687257D02*
X132561652Y-98258685D01*
X132561652Y-98258685D02*
X132647367Y-98449161D01*
X132647367Y-98449161D02*
X132733081Y-98544400D01*
X132733081Y-98544400D02*
X132904509Y-98639638D01*
X132904509Y-98639638D02*
X133161652Y-98639638D01*
X131790224Y-98639638D02*
X131790224Y-96639638D01*
X131790224Y-97401542D02*
X131618796Y-97306304D01*
X131618796Y-97306304D02*
X131275938Y-97306304D01*
X131275938Y-97306304D02*
X131104510Y-97401542D01*
X131104510Y-97401542D02*
X131018796Y-97496780D01*
X131018796Y-97496780D02*
X130933081Y-97687257D01*
X130933081Y-97687257D02*
X130933081Y-98258685D01*
X130933081Y-98258685D02*
X131018796Y-98449161D01*
X131018796Y-98449161D02*
X131104510Y-98544400D01*
X131104510Y-98544400D02*
X131275938Y-98639638D01*
X131275938Y-98639638D02*
X131618796Y-98639638D01*
X131618796Y-98639638D02*
X131790224Y-98544400D01*
X130333082Y-97306304D02*
X129904510Y-98639638D01*
X129475939Y-97306304D02*
X129904510Y-98639638D01*
X129904510Y-98639638D02*
X130075939Y-99115828D01*
X130075939Y-99115828D02*
X130161653Y-99211066D01*
X130161653Y-99211066D02*
X130333082Y-99306304D01*
X127675938Y-97687257D02*
X127761653Y-97592019D01*
X127761653Y-97592019D02*
X127933081Y-97496780D01*
X127933081Y-97496780D02*
X128104510Y-97496780D01*
X128104510Y-97496780D02*
X128275938Y-97592019D01*
X128275938Y-97592019D02*
X128361653Y-97687257D01*
X128361653Y-97687257D02*
X128447367Y-97877733D01*
X128447367Y-97877733D02*
X128447367Y-98068209D01*
X128447367Y-98068209D02*
X128361653Y-98258685D01*
X128361653Y-98258685D02*
X128275938Y-98353923D01*
X128275938Y-98353923D02*
X128104510Y-98449161D01*
X128104510Y-98449161D02*
X127933081Y-98449161D01*
X127933081Y-98449161D02*
X127761653Y-98353923D01*
X127761653Y-98353923D02*
X127675938Y-98258685D01*
X127675938Y-97496780D02*
X127675938Y-98258685D01*
X127675938Y-98258685D02*
X127590224Y-98353923D01*
X127590224Y-98353923D02*
X127504510Y-98353923D01*
X127504510Y-98353923D02*
X127333081Y-98258685D01*
X127333081Y-98258685D02*
X127247367Y-98068209D01*
X127247367Y-98068209D02*
X127247367Y-97592019D01*
X127247367Y-97592019D02*
X127418796Y-97306304D01*
X127418796Y-97306304D02*
X127675938Y-97115828D01*
X127675938Y-97115828D02*
X128018796Y-97020590D01*
X128018796Y-97020590D02*
X128361653Y-97115828D01*
X128361653Y-97115828D02*
X128618796Y-97306304D01*
X128618796Y-97306304D02*
X128790224Y-97592019D01*
X128790224Y-97592019D02*
X128875938Y-97972971D01*
X128875938Y-97972971D02*
X128790224Y-98353923D01*
X128790224Y-98353923D02*
X128618796Y-98639638D01*
X128618796Y-98639638D02*
X128361653Y-98830114D01*
X128361653Y-98830114D02*
X128018796Y-98925352D01*
X128018796Y-98925352D02*
X127675938Y-98830114D01*
X127675938Y-98830114D02*
X127418796Y-98639638D01*
X126647367Y-97306304D02*
X126218795Y-98639638D01*
X126218795Y-98639638D02*
X125790224Y-97306304D01*
X125190223Y-98544400D02*
X125018795Y-98639638D01*
X125018795Y-98639638D02*
X124675938Y-98639638D01*
X124675938Y-98639638D02*
X124504509Y-98544400D01*
X124504509Y-98544400D02*
X124418795Y-98353923D01*
X124418795Y-98353923D02*
X124418795Y-98258685D01*
X124418795Y-98258685D02*
X124504509Y-98068209D01*
X124504509Y-98068209D02*
X124675938Y-97972971D01*
X124675938Y-97972971D02*
X124933081Y-97972971D01*
X124933081Y-97972971D02*
X125104509Y-97877733D01*
X125104509Y-97877733D02*
X125190223Y-97687257D01*
X125190223Y-97687257D02*
X125190223Y-97592019D01*
X125190223Y-97592019D02*
X125104509Y-97401542D01*
X125104509Y-97401542D02*
X124933081Y-97306304D01*
X124933081Y-97306304D02*
X124675938Y-97306304D01*
X124675938Y-97306304D02*
X124504509Y-97401542D01*
X122875938Y-97306304D02*
X122875938Y-98639638D01*
X123647366Y-97306304D02*
X123647366Y-98353923D01*
X123647366Y-98353923D02*
X123561652Y-98544400D01*
X123561652Y-98544400D02*
X123390223Y-98639638D01*
X123390223Y-98639638D02*
X123133080Y-98639638D01*
X123133080Y-98639638D02*
X122961652Y-98544400D01*
X122961652Y-98544400D02*
X122875938Y-98449161D01*
X122104509Y-98544400D02*
X121933081Y-98639638D01*
X121933081Y-98639638D02*
X121590224Y-98639638D01*
X121590224Y-98639638D02*
X121418795Y-98544400D01*
X121418795Y-98544400D02*
X121333081Y-98353923D01*
X121333081Y-98353923D02*
X121333081Y-98258685D01*
X121333081Y-98258685D02*
X121418795Y-98068209D01*
X121418795Y-98068209D02*
X121590224Y-97972971D01*
X121590224Y-97972971D02*
X121847367Y-97972971D01*
X121847367Y-97972971D02*
X122018795Y-97877733D01*
X122018795Y-97877733D02*
X122104509Y-97687257D01*
X122104509Y-97687257D02*
X122104509Y-97592019D01*
X122104509Y-97592019D02*
X122018795Y-97401542D01*
X122018795Y-97401542D02*
X121847367Y-97306304D01*
X121847367Y-97306304D02*
X121590224Y-97306304D01*
X121590224Y-97306304D02*
X121418795Y-97401542D01*
X120561652Y-98449161D02*
X120475938Y-98544400D01*
X120475938Y-98544400D02*
X120561652Y-98639638D01*
X120561652Y-98639638D02*
X120647366Y-98544400D01*
X120647366Y-98544400D02*
X120561652Y-98449161D01*
X120561652Y-98449161D02*
X120561652Y-98639638D01*
X118933081Y-98639638D02*
X118933081Y-97592019D01*
X118933081Y-97592019D02*
X119018795Y-97401542D01*
X119018795Y-97401542D02*
X119190223Y-97306304D01*
X119190223Y-97306304D02*
X119533081Y-97306304D01*
X119533081Y-97306304D02*
X119704509Y-97401542D01*
X118933081Y-98544400D02*
X119104509Y-98639638D01*
X119104509Y-98639638D02*
X119533081Y-98639638D01*
X119533081Y-98639638D02*
X119704509Y-98544400D01*
X119704509Y-98544400D02*
X119790223Y-98353923D01*
X119790223Y-98353923D02*
X119790223Y-98163447D01*
X119790223Y-98163447D02*
X119704509Y-97972971D01*
X119704509Y-97972971D02*
X119533081Y-97877733D01*
X119533081Y-97877733D02*
X119104509Y-97877733D01*
X119104509Y-97877733D02*
X118933081Y-97782495D01*
X118075938Y-97306304D02*
X118075938Y-99306304D01*
X118075938Y-97401542D02*
X117904510Y-97306304D01*
X117904510Y-97306304D02*
X117561652Y-97306304D01*
X117561652Y-97306304D02*
X117390224Y-97401542D01*
X117390224Y-97401542D02*
X117304510Y-97496780D01*
X117304510Y-97496780D02*
X117218795Y-97687257D01*
X117218795Y-97687257D02*
X117218795Y-98258685D01*
X117218795Y-98258685D02*
X117304510Y-98449161D01*
X117304510Y-98449161D02*
X117390224Y-98544400D01*
X117390224Y-98544400D02*
X117561652Y-98639638D01*
X117561652Y-98639638D02*
X117904510Y-98639638D01*
X117904510Y-98639638D02*
X118075938Y-98544400D01*
X116447367Y-97306304D02*
X116447367Y-99306304D01*
X116447367Y-97401542D02*
X116275939Y-97306304D01*
X116275939Y-97306304D02*
X115933081Y-97306304D01*
X115933081Y-97306304D02*
X115761653Y-97401542D01*
X115761653Y-97401542D02*
X115675939Y-97496780D01*
X115675939Y-97496780D02*
X115590224Y-97687257D01*
X115590224Y-97687257D02*
X115590224Y-98258685D01*
X115590224Y-98258685D02*
X115675939Y-98449161D01*
X115675939Y-98449161D02*
X115761653Y-98544400D01*
X115761653Y-98544400D02*
X115933081Y-98639638D01*
X115933081Y-98639638D02*
X116275939Y-98639638D01*
X116275939Y-98639638D02*
X116447367Y-98544400D01*
X113693082Y-103237495D02*
X113693082Y-101737495D01*
X113693082Y-101737495D02*
X113193082Y-102808924D01*
X113193082Y-102808924D02*
X112693082Y-101737495D01*
X112693082Y-101737495D02*
X112693082Y-103237495D01*
X111978796Y-103237495D02*
X111978796Y-101737495D01*
X111978796Y-101737495D02*
X111621653Y-101737495D01*
X111621653Y-101737495D02*
X111407367Y-101808924D01*
X111407367Y-101808924D02*
X111264510Y-101951781D01*
X111264510Y-101951781D02*
X111193081Y-102094638D01*
X111193081Y-102094638D02*
X111121653Y-102380352D01*
X111121653Y-102380352D02*
X111121653Y-102594638D01*
X111121653Y-102594638D02*
X111193081Y-102880352D01*
X111193081Y-102880352D02*
X111264510Y-103023209D01*
X111264510Y-103023209D02*
X111407367Y-103166067D01*
X111407367Y-103166067D02*
X111621653Y-103237495D01*
X111621653Y-103237495D02*
X111978796Y-103237495D01*
X110193081Y-101737495D02*
X110050224Y-101737495D01*
X110050224Y-101737495D02*
X109907367Y-101808924D01*
X109907367Y-101808924D02*
X109835939Y-101880352D01*
X109835939Y-101880352D02*
X109764510Y-102023209D01*
X109764510Y-102023209D02*
X109693081Y-102308924D01*
X109693081Y-102308924D02*
X109693081Y-102666067D01*
X109693081Y-102666067D02*
X109764510Y-102951781D01*
X109764510Y-102951781D02*
X109835939Y-103094638D01*
X109835939Y-103094638D02*
X109907367Y-103166067D01*
X109907367Y-103166067D02*
X110050224Y-103237495D01*
X110050224Y-103237495D02*
X110193081Y-103237495D01*
X110193081Y-103237495D02*
X110335939Y-103166067D01*
X110335939Y-103166067D02*
X110407367Y-103094638D01*
X110407367Y-103094638D02*
X110478796Y-102951781D01*
X110478796Y-102951781D02*
X110550224Y-102666067D01*
X110550224Y-102666067D02*
X110550224Y-102308924D01*
X110550224Y-102308924D02*
X110478796Y-102023209D01*
X110478796Y-102023209D02*
X110407367Y-101880352D01*
X110407367Y-101880352D02*
X110335939Y-101808924D01*
X110335939Y-101808924D02*
X110193081Y-101737495D01*
X125568795Y-101437257D02*
X125654510Y-101342019D01*
X125654510Y-101342019D02*
X125825938Y-101246780D01*
X125825938Y-101246780D02*
X125997367Y-101246780D01*
X125997367Y-101246780D02*
X126168795Y-101342019D01*
X126168795Y-101342019D02*
X126254510Y-101437257D01*
X126254510Y-101437257D02*
X126340224Y-101627733D01*
X126340224Y-101627733D02*
X126340224Y-101818209D01*
X126340224Y-101818209D02*
X126254510Y-102008685D01*
X126254510Y-102008685D02*
X126168795Y-102103923D01*
X126168795Y-102103923D02*
X125997367Y-102199161D01*
X125997367Y-102199161D02*
X125825938Y-102199161D01*
X125825938Y-102199161D02*
X125654510Y-102103923D01*
X125654510Y-102103923D02*
X125568795Y-102008685D01*
X125568795Y-101246780D02*
X125568795Y-102008685D01*
X125568795Y-102008685D02*
X125483081Y-102103923D01*
X125483081Y-102103923D02*
X125397367Y-102103923D01*
X125397367Y-102103923D02*
X125225938Y-102008685D01*
X125225938Y-102008685D02*
X125140224Y-101818209D01*
X125140224Y-101818209D02*
X125140224Y-101342019D01*
X125140224Y-101342019D02*
X125311653Y-101056304D01*
X125311653Y-101056304D02*
X125568795Y-100865828D01*
X125568795Y-100865828D02*
X125911653Y-100770590D01*
X125911653Y-100770590D02*
X126254510Y-100865828D01*
X126254510Y-100865828D02*
X126511653Y-101056304D01*
X126511653Y-101056304D02*
X126683081Y-101342019D01*
X126683081Y-101342019D02*
X126768795Y-101722971D01*
X126768795Y-101722971D02*
X126683081Y-102103923D01*
X126683081Y-102103923D02*
X126511653Y-102389638D01*
X126511653Y-102389638D02*
X126254510Y-102580114D01*
X126254510Y-102580114D02*
X125911653Y-102675352D01*
X125911653Y-102675352D02*
X125568795Y-102580114D01*
X125568795Y-102580114D02*
X125311653Y-102389638D01*
X124625938Y-101056304D02*
X123940224Y-101056304D01*
X124368795Y-100389638D02*
X124368795Y-102103923D01*
X124368795Y-102103923D02*
X124283081Y-102294400D01*
X124283081Y-102294400D02*
X124111652Y-102389638D01*
X124111652Y-102389638D02*
X123940224Y-102389638D01*
X123083081Y-102389638D02*
X123254510Y-102294400D01*
X123254510Y-102294400D02*
X123340224Y-102199161D01*
X123340224Y-102199161D02*
X123425938Y-102008685D01*
X123425938Y-102008685D02*
X123425938Y-101437257D01*
X123425938Y-101437257D02*
X123340224Y-101246780D01*
X123340224Y-101246780D02*
X123254510Y-101151542D01*
X123254510Y-101151542D02*
X123083081Y-101056304D01*
X123083081Y-101056304D02*
X122825938Y-101056304D01*
X122825938Y-101056304D02*
X122654510Y-101151542D01*
X122654510Y-101151542D02*
X122568796Y-101246780D01*
X122568796Y-101246780D02*
X122483081Y-101437257D01*
X122483081Y-101437257D02*
X122483081Y-102008685D01*
X122483081Y-102008685D02*
X122568796Y-102199161D01*
X122568796Y-102199161D02*
X122654510Y-102294400D01*
X122654510Y-102294400D02*
X122825938Y-102389638D01*
X122825938Y-102389638D02*
X123083081Y-102389638D01*
X121711653Y-102389638D02*
X121711653Y-100389638D01*
X121711653Y-101151542D02*
X121540225Y-101056304D01*
X121540225Y-101056304D02*
X121197367Y-101056304D01*
X121197367Y-101056304D02*
X121025939Y-101151542D01*
X121025939Y-101151542D02*
X120940225Y-101246780D01*
X120940225Y-101246780D02*
X120854510Y-101437257D01*
X120854510Y-101437257D02*
X120854510Y-102008685D01*
X120854510Y-102008685D02*
X120940225Y-102199161D01*
X120940225Y-102199161D02*
X121025939Y-102294400D01*
X121025939Y-102294400D02*
X121197367Y-102389638D01*
X121197367Y-102389638D02*
X121540225Y-102389638D01*
X121540225Y-102389638D02*
X121711653Y-102294400D01*
X120254511Y-101056304D02*
X119825939Y-102389638D01*
X119397368Y-101056304D02*
X119825939Y-102389638D01*
X119825939Y-102389638D02*
X119997368Y-102865828D01*
X119997368Y-102865828D02*
X120083082Y-102961066D01*
X120083082Y-102961066D02*
X120254511Y-103056304D01*
X117940225Y-102294400D02*
X118111653Y-102389638D01*
X118111653Y-102389638D02*
X118454510Y-102389638D01*
X118454510Y-102389638D02*
X118625939Y-102294400D01*
X118625939Y-102294400D02*
X118711653Y-102199161D01*
X118711653Y-102199161D02*
X118797367Y-102008685D01*
X118797367Y-102008685D02*
X118797367Y-101437257D01*
X118797367Y-101437257D02*
X118711653Y-101246780D01*
X118711653Y-101246780D02*
X118625939Y-101151542D01*
X118625939Y-101151542D02*
X118454510Y-101056304D01*
X118454510Y-101056304D02*
X118111653Y-101056304D01*
X118111653Y-101056304D02*
X117940225Y-101151542D01*
X117168796Y-102389638D02*
X117168796Y-101056304D01*
X117168796Y-101246780D02*
X117083082Y-101151542D01*
X117083082Y-101151542D02*
X116911653Y-101056304D01*
X116911653Y-101056304D02*
X116654510Y-101056304D01*
X116654510Y-101056304D02*
X116483082Y-101151542D01*
X116483082Y-101151542D02*
X116397368Y-101342019D01*
X116397368Y-101342019D02*
X116397368Y-102389638D01*
X116397368Y-101342019D02*
X116311653Y-101151542D01*
X116311653Y-101151542D02*
X116140225Y-101056304D01*
X116140225Y-101056304D02*
X115883082Y-101056304D01*
X115883082Y-101056304D02*
X115711653Y-101151542D01*
X115711653Y-101151542D02*
X115625939Y-101342019D01*
X115625939Y-101342019D02*
X115625939Y-102389638D01*
D12*
X138682780Y-94196993D02*
X139158971Y-94596993D01*
X138682780Y-94882707D02*
X139682780Y-94882707D01*
X139682780Y-94882707D02*
X139682780Y-94425564D01*
X139682780Y-94425564D02*
X139635161Y-94311279D01*
X139635161Y-94311279D02*
X139587542Y-94254136D01*
X139587542Y-94254136D02*
X139492304Y-94196993D01*
X139492304Y-94196993D02*
X139349447Y-94196993D01*
X139349447Y-94196993D02*
X139254209Y-94254136D01*
X139254209Y-94254136D02*
X139206590Y-94311279D01*
X139206590Y-94311279D02*
X139158971Y-94425564D01*
X139158971Y-94425564D02*
X139158971Y-94882707D01*
D11*
X112693082Y-99915114D02*
X113193082Y-99915114D01*
X113193082Y-100700828D02*
X113193082Y-99200828D01*
X113193082Y-99200828D02*
X112478796Y-99200828D01*
X111907368Y-100700828D02*
X111907368Y-99200828D01*
X111907368Y-99200828D02*
X111407368Y-100272257D01*
X111407368Y-100272257D02*
X110907368Y-99200828D01*
X110907368Y-99200828D02*
X110907368Y-100700828D01*
X110407367Y-99200828D02*
X109550225Y-99200828D01*
X109978796Y-100700828D02*
X109978796Y-99200828D01*
X114050225Y-93138328D02*
X114764511Y-93138328D01*
X114764511Y-93138328D02*
X114764511Y-91638328D01*
X112693082Y-93138328D02*
X113193082Y-92424042D01*
X113550225Y-93138328D02*
X113550225Y-91638328D01*
X113550225Y-91638328D02*
X112978796Y-91638328D01*
X112978796Y-91638328D02*
X112835939Y-91709757D01*
X112835939Y-91709757D02*
X112764510Y-91781185D01*
X112764510Y-91781185D02*
X112693082Y-91924042D01*
X112693082Y-91924042D02*
X112693082Y-92138328D01*
X112693082Y-92138328D02*
X112764510Y-92281185D01*
X112764510Y-92281185D02*
X112835939Y-92352614D01*
X112835939Y-92352614D02*
X112978796Y-92424042D01*
X112978796Y-92424042D02*
X113550225Y-92424042D01*
X111193082Y-92995471D02*
X111264510Y-93066900D01*
X111264510Y-93066900D02*
X111478796Y-93138328D01*
X111478796Y-93138328D02*
X111621653Y-93138328D01*
X111621653Y-93138328D02*
X111835939Y-93066900D01*
X111835939Y-93066900D02*
X111978796Y-92924042D01*
X111978796Y-92924042D02*
X112050225Y-92781185D01*
X112050225Y-92781185D02*
X112121653Y-92495471D01*
X112121653Y-92495471D02*
X112121653Y-92281185D01*
X112121653Y-92281185D02*
X112050225Y-91995471D01*
X112050225Y-91995471D02*
X111978796Y-91852614D01*
X111978796Y-91852614D02*
X111835939Y-91709757D01*
X111835939Y-91709757D02*
X111621653Y-91638328D01*
X111621653Y-91638328D02*
X111478796Y-91638328D01*
X111478796Y-91638328D02*
X111264510Y-91709757D01*
X111264510Y-91709757D02*
X111193082Y-91781185D01*
X110550225Y-93138328D02*
X110550225Y-91638328D01*
X109693082Y-93138328D02*
X110335939Y-92281185D01*
X109693082Y-91638328D02*
X110550225Y-92495471D01*
X144081203Y-99800828D02*
X144795489Y-99800828D01*
X144795489Y-99800828D02*
X144795489Y-98300828D01*
X143581203Y-99800828D02*
X143581203Y-98300828D01*
X142866917Y-99800828D02*
X142866917Y-98300828D01*
X142866917Y-98300828D02*
X142009774Y-99800828D01*
X142009774Y-99800828D02*
X142009774Y-98300828D01*
X141295488Y-99015114D02*
X140795488Y-99015114D01*
X140581202Y-99800828D02*
X141295488Y-99800828D01*
X141295488Y-99800828D02*
X141295488Y-98300828D01*
X141295488Y-98300828D02*
X140581202Y-98300828D01*
X138509773Y-98300828D02*
X138224059Y-98300828D01*
X138224059Y-98300828D02*
X138081202Y-98372257D01*
X138081202Y-98372257D02*
X137938345Y-98515114D01*
X137938345Y-98515114D02*
X137866916Y-98800828D01*
X137866916Y-98800828D02*
X137866916Y-99300828D01*
X137866916Y-99300828D02*
X137938345Y-99586542D01*
X137938345Y-99586542D02*
X138081202Y-99729400D01*
X138081202Y-99729400D02*
X138224059Y-99800828D01*
X138224059Y-99800828D02*
X138509773Y-99800828D01*
X138509773Y-99800828D02*
X138652631Y-99729400D01*
X138652631Y-99729400D02*
X138795488Y-99586542D01*
X138795488Y-99586542D02*
X138866916Y-99300828D01*
X138866916Y-99300828D02*
X138866916Y-98800828D01*
X138866916Y-98800828D02*
X138795488Y-98515114D01*
X138795488Y-98515114D02*
X138652631Y-98372257D01*
X138652631Y-98372257D02*
X138509773Y-98300828D01*
X137224059Y-98300828D02*
X137224059Y-99515114D01*
X137224059Y-99515114D02*
X137152630Y-99657971D01*
X137152630Y-99657971D02*
X137081202Y-99729400D01*
X137081202Y-99729400D02*
X136938344Y-99800828D01*
X136938344Y-99800828D02*
X136652630Y-99800828D01*
X136652630Y-99800828D02*
X136509773Y-99729400D01*
X136509773Y-99729400D02*
X136438344Y-99657971D01*
X136438344Y-99657971D02*
X136366916Y-99515114D01*
X136366916Y-99515114D02*
X136366916Y-98300828D01*
X135866915Y-98300828D02*
X135009773Y-98300828D01*
X135438344Y-99800828D02*
X135438344Y-98300828D01*
D12*
X144785161Y-94354136D02*
X144832780Y-94468422D01*
X144832780Y-94468422D02*
X144832780Y-94639850D01*
X144832780Y-94639850D02*
X144785161Y-94811279D01*
X144785161Y-94811279D02*
X144689923Y-94925564D01*
X144689923Y-94925564D02*
X144594685Y-94982707D01*
X144594685Y-94982707D02*
X144404209Y-95039850D01*
X144404209Y-95039850D02*
X144261352Y-95039850D01*
X144261352Y-95039850D02*
X144070876Y-94982707D01*
X144070876Y-94982707D02*
X143975638Y-94925564D01*
X143975638Y-94925564D02*
X143880400Y-94811279D01*
X143880400Y-94811279D02*
X143832780Y-94639850D01*
X143832780Y-94639850D02*
X143832780Y-94525564D01*
X143832780Y-94525564D02*
X143880400Y-94354136D01*
X143880400Y-94354136D02*
X143928019Y-94296993D01*
X143928019Y-94296993D02*
X144261352Y-94296993D01*
X144261352Y-94296993D02*
X144261352Y-94525564D01*
X143832780Y-93782707D02*
X144832780Y-93782707D01*
X144832780Y-93782707D02*
X143832780Y-93096993D01*
X143832780Y-93096993D02*
X144832780Y-93096993D01*
X143832780Y-92525564D02*
X144832780Y-92525564D01*
X144832780Y-92525564D02*
X144832780Y-92239850D01*
X144832780Y-92239850D02*
X144785161Y-92068421D01*
X144785161Y-92068421D02*
X144689923Y-91954136D01*
X144689923Y-91954136D02*
X144594685Y-91896993D01*
X144594685Y-91896993D02*
X144404209Y-91839850D01*
X144404209Y-91839850D02*
X144261352Y-91839850D01*
X144261352Y-91839850D02*
X144070876Y-91896993D01*
X144070876Y-91896993D02*
X143975638Y-91954136D01*
X143975638Y-91954136D02*
X143880400Y-92068421D01*
X143880400Y-92068421D02*
X143832780Y-92239850D01*
X143832780Y-92239850D02*
X143832780Y-92525564D01*
D11*
X144081203Y-103350828D02*
X144795489Y-103350828D01*
X144795489Y-103350828D02*
X144795489Y-101850828D01*
X143581203Y-103350828D02*
X143581203Y-101850828D01*
X142866917Y-103350828D02*
X142866917Y-101850828D01*
X142866917Y-101850828D02*
X142009774Y-103350828D01*
X142009774Y-103350828D02*
X142009774Y-101850828D01*
X141295488Y-102565114D02*
X140795488Y-102565114D01*
X140581202Y-103350828D02*
X141295488Y-103350828D01*
X141295488Y-103350828D02*
X141295488Y-101850828D01*
X141295488Y-101850828D02*
X140581202Y-101850828D01*
X138795488Y-103350828D02*
X138795488Y-101850828D01*
X138081202Y-103350828D02*
X138081202Y-101850828D01*
X138081202Y-101850828D02*
X137224059Y-103350828D01*
X137224059Y-103350828D02*
X137224059Y-101850828D01*
D12*
X141332780Y-94982707D02*
X142332780Y-94982707D01*
X142332780Y-94982707D02*
X141618495Y-94582707D01*
X141618495Y-94582707D02*
X142332780Y-94182707D01*
X142332780Y-94182707D02*
X141332780Y-94182707D01*
X141332780Y-93611278D02*
X142332780Y-93611278D01*
X141428019Y-92354135D02*
X141380400Y-92411278D01*
X141380400Y-92411278D02*
X141332780Y-92582706D01*
X141332780Y-92582706D02*
X141332780Y-92696992D01*
X141332780Y-92696992D02*
X141380400Y-92868421D01*
X141380400Y-92868421D02*
X141475638Y-92982706D01*
X141475638Y-92982706D02*
X141570876Y-93039849D01*
X141570876Y-93039849D02*
X141761352Y-93096992D01*
X141761352Y-93096992D02*
X141904209Y-93096992D01*
X141904209Y-93096992D02*
X142094685Y-93039849D01*
X142094685Y-93039849D02*
X142189923Y-92982706D01*
X142189923Y-92982706D02*
X142285161Y-92868421D01*
X142285161Y-92868421D02*
X142332780Y-92696992D01*
X142332780Y-92696992D02*
X142332780Y-92582706D01*
X142332780Y-92582706D02*
X142285161Y-92411278D01*
X142285161Y-92411278D02*
X142237542Y-92354135D01*
D11*
X127791671Y-90474033D02*
X126291671Y-89607367D01*
X127791671Y-89607367D02*
X126291671Y-90474033D01*
X126363100Y-89174033D02*
X126291671Y-88988319D01*
X126291671Y-88988319D02*
X126291671Y-88678795D01*
X126291671Y-88678795D02*
X126363100Y-88554986D01*
X126363100Y-88554986D02*
X126434528Y-88493081D01*
X126434528Y-88493081D02*
X126577385Y-88431176D01*
X126577385Y-88431176D02*
X126720242Y-88431176D01*
X126720242Y-88431176D02*
X126863100Y-88493081D01*
X126863100Y-88493081D02*
X126934528Y-88554986D01*
X126934528Y-88554986D02*
X127005957Y-88678795D01*
X127005957Y-88678795D02*
X127077385Y-88926414D01*
X127077385Y-88926414D02*
X127148814Y-89050224D01*
X127148814Y-89050224D02*
X127220242Y-89112129D01*
X127220242Y-89112129D02*
X127363100Y-89174033D01*
X127363100Y-89174033D02*
X127505957Y-89174033D01*
X127505957Y-89174033D02*
X127648814Y-89112129D01*
X127648814Y-89112129D02*
X127720242Y-89050224D01*
X127720242Y-89050224D02*
X127791671Y-88926414D01*
X127791671Y-88926414D02*
X127791671Y-88616891D01*
X127791671Y-88616891D02*
X127720242Y-88431176D01*
X126291671Y-87874034D02*
X127791671Y-87874034D01*
X127791671Y-87874034D02*
X126720242Y-87440700D01*
X126720242Y-87440700D02*
X127791671Y-87007367D01*
X127791671Y-87007367D02*
X126291671Y-87007367D01*
X127791671Y-86574034D02*
X127791671Y-85831177D01*
X126291671Y-86202605D02*
X127791671Y-86202605D01*
D12*
X141382780Y-109582707D02*
X142382780Y-109582707D01*
X142382780Y-109582707D02*
X141668495Y-109182707D01*
X141668495Y-109182707D02*
X142382780Y-108782707D01*
X142382780Y-108782707D02*
X141382780Y-108782707D01*
X141382780Y-108211278D02*
X142382780Y-108211278D01*
X141478019Y-106954135D02*
X141430400Y-107011278D01*
X141430400Y-107011278D02*
X141382780Y-107182706D01*
X141382780Y-107182706D02*
X141382780Y-107296992D01*
X141382780Y-107296992D02*
X141430400Y-107468421D01*
X141430400Y-107468421D02*
X141525638Y-107582706D01*
X141525638Y-107582706D02*
X141620876Y-107639849D01*
X141620876Y-107639849D02*
X141811352Y-107696992D01*
X141811352Y-107696992D02*
X141954209Y-107696992D01*
X141954209Y-107696992D02*
X142144685Y-107639849D01*
X142144685Y-107639849D02*
X142239923Y-107582706D01*
X142239923Y-107582706D02*
X142335161Y-107468421D01*
X142335161Y-107468421D02*
X142382780Y-107296992D01*
X142382780Y-107296992D02*
X142382780Y-107182706D01*
X142382780Y-107182706D02*
X142335161Y-107011278D01*
X142335161Y-107011278D02*
X142287542Y-106954135D01*
X144785161Y-109254136D02*
X144832780Y-109368422D01*
X144832780Y-109368422D02*
X144832780Y-109539850D01*
X144832780Y-109539850D02*
X144785161Y-109711279D01*
X144785161Y-109711279D02*
X144689923Y-109825564D01*
X144689923Y-109825564D02*
X144594685Y-109882707D01*
X144594685Y-109882707D02*
X144404209Y-109939850D01*
X144404209Y-109939850D02*
X144261352Y-109939850D01*
X144261352Y-109939850D02*
X144070876Y-109882707D01*
X144070876Y-109882707D02*
X143975638Y-109825564D01*
X143975638Y-109825564D02*
X143880400Y-109711279D01*
X143880400Y-109711279D02*
X143832780Y-109539850D01*
X143832780Y-109539850D02*
X143832780Y-109425564D01*
X143832780Y-109425564D02*
X143880400Y-109254136D01*
X143880400Y-109254136D02*
X143928019Y-109196993D01*
X143928019Y-109196993D02*
X144261352Y-109196993D01*
X144261352Y-109196993D02*
X144261352Y-109425564D01*
X143832780Y-108682707D02*
X144832780Y-108682707D01*
X144832780Y-108682707D02*
X143832780Y-107996993D01*
X143832780Y-107996993D02*
X144832780Y-107996993D01*
X143832780Y-107425564D02*
X144832780Y-107425564D01*
X144832780Y-107425564D02*
X144832780Y-107139850D01*
X144832780Y-107139850D02*
X144785161Y-106968421D01*
X144785161Y-106968421D02*
X144689923Y-106854136D01*
X144689923Y-106854136D02*
X144594685Y-106796993D01*
X144594685Y-106796993D02*
X144404209Y-106739850D01*
X144404209Y-106739850D02*
X144261352Y-106739850D01*
X144261352Y-106739850D02*
X144070876Y-106796993D01*
X144070876Y-106796993D02*
X143975638Y-106854136D01*
X143975638Y-106854136D02*
X143880400Y-106968421D01*
X143880400Y-106968421D02*
X143832780Y-107139850D01*
X143832780Y-107139850D02*
X143832780Y-107425564D01*
D11*
X113550224Y-95556067D02*
X113335939Y-95627495D01*
X113335939Y-95627495D02*
X112978796Y-95627495D01*
X112978796Y-95627495D02*
X112835939Y-95556067D01*
X112835939Y-95556067D02*
X112764510Y-95484638D01*
X112764510Y-95484638D02*
X112693081Y-95341781D01*
X112693081Y-95341781D02*
X112693081Y-95198924D01*
X112693081Y-95198924D02*
X112764510Y-95056067D01*
X112764510Y-95056067D02*
X112835939Y-94984638D01*
X112835939Y-94984638D02*
X112978796Y-94913209D01*
X112978796Y-94913209D02*
X113264510Y-94841781D01*
X113264510Y-94841781D02*
X113407367Y-94770352D01*
X113407367Y-94770352D02*
X113478796Y-94698924D01*
X113478796Y-94698924D02*
X113550224Y-94556067D01*
X113550224Y-94556067D02*
X113550224Y-94413209D01*
X113550224Y-94413209D02*
X113478796Y-94270352D01*
X113478796Y-94270352D02*
X113407367Y-94198924D01*
X113407367Y-94198924D02*
X113264510Y-94127495D01*
X113264510Y-94127495D02*
X112907367Y-94127495D01*
X112907367Y-94127495D02*
X112693081Y-94198924D01*
X111193082Y-95484638D02*
X111264510Y-95556067D01*
X111264510Y-95556067D02*
X111478796Y-95627495D01*
X111478796Y-95627495D02*
X111621653Y-95627495D01*
X111621653Y-95627495D02*
X111835939Y-95556067D01*
X111835939Y-95556067D02*
X111978796Y-95413209D01*
X111978796Y-95413209D02*
X112050225Y-95270352D01*
X112050225Y-95270352D02*
X112121653Y-94984638D01*
X112121653Y-94984638D02*
X112121653Y-94770352D01*
X112121653Y-94770352D02*
X112050225Y-94484638D01*
X112050225Y-94484638D02*
X111978796Y-94341781D01*
X111978796Y-94341781D02*
X111835939Y-94198924D01*
X111835939Y-94198924D02*
X111621653Y-94127495D01*
X111621653Y-94127495D02*
X111478796Y-94127495D01*
X111478796Y-94127495D02*
X111264510Y-94198924D01*
X111264510Y-94198924D02*
X111193082Y-94270352D01*
X110550225Y-95627495D02*
X110550225Y-94127495D01*
X109693082Y-95627495D02*
X110335939Y-94770352D01*
X109693082Y-94127495D02*
X110550225Y-94984638D01*
D12*
X138682780Y-106946993D02*
X139158971Y-107346993D01*
X138682780Y-107632707D02*
X139682780Y-107632707D01*
X139682780Y-107632707D02*
X139682780Y-107175564D01*
X139682780Y-107175564D02*
X139635161Y-107061279D01*
X139635161Y-107061279D02*
X139587542Y-107004136D01*
X139587542Y-107004136D02*
X139492304Y-106946993D01*
X139492304Y-106946993D02*
X139349447Y-106946993D01*
X139349447Y-106946993D02*
X139254209Y-107004136D01*
X139254209Y-107004136D02*
X139206590Y-107061279D01*
X139206590Y-107061279D02*
X139158971Y-107175564D01*
X139158971Y-107175564D02*
X139158971Y-107632707D01*
D13*
X128246667Y-82912295D02*
X128246667Y-82378961D01*
X128246667Y-82112295D02*
X128284763Y-82150390D01*
X128284763Y-82150390D02*
X128246667Y-82188485D01*
X128246667Y-82188485D02*
X128208572Y-82150390D01*
X128208572Y-82150390D02*
X128246667Y-82112295D01*
X128246667Y-82112295D02*
X128246667Y-82188485D01*
X127141906Y-82912295D02*
X127218096Y-82874200D01*
X127218096Y-82874200D02*
X127256191Y-82798009D01*
X127256191Y-82798009D02*
X127256191Y-82112295D01*
X126722858Y-82912295D02*
X126799048Y-82874200D01*
X126799048Y-82874200D02*
X126837143Y-82836104D01*
X126837143Y-82836104D02*
X126875239Y-82759914D01*
X126875239Y-82759914D02*
X126875239Y-82531342D01*
X126875239Y-82531342D02*
X126837143Y-82455152D01*
X126837143Y-82455152D02*
X126799048Y-82417057D01*
X126799048Y-82417057D02*
X126722858Y-82378961D01*
X126722858Y-82378961D02*
X126608572Y-82378961D01*
X126608572Y-82378961D02*
X126532381Y-82417057D01*
X126532381Y-82417057D02*
X126494286Y-82455152D01*
X126494286Y-82455152D02*
X126456191Y-82531342D01*
X126456191Y-82531342D02*
X126456191Y-82759914D01*
X126456191Y-82759914D02*
X126494286Y-82836104D01*
X126494286Y-82836104D02*
X126532381Y-82874200D01*
X126532381Y-82874200D02*
X126608572Y-82912295D01*
X126608572Y-82912295D02*
X126722858Y-82912295D01*
X126189524Y-82378961D02*
X125999048Y-82912295D01*
X125999048Y-82912295D02*
X125808571Y-82378961D01*
X125199047Y-82874200D02*
X125275238Y-82912295D01*
X125275238Y-82912295D02*
X125427619Y-82912295D01*
X125427619Y-82912295D02*
X125503809Y-82874200D01*
X125503809Y-82874200D02*
X125541905Y-82798009D01*
X125541905Y-82798009D02*
X125541905Y-82493247D01*
X125541905Y-82493247D02*
X125503809Y-82417057D01*
X125503809Y-82417057D02*
X125427619Y-82378961D01*
X125427619Y-82378961D02*
X125275238Y-82378961D01*
X125275238Y-82378961D02*
X125199047Y-82417057D01*
X125199047Y-82417057D02*
X125160952Y-82493247D01*
X125160952Y-82493247D02*
X125160952Y-82569438D01*
X125160952Y-82569438D02*
X125541905Y-82645628D01*
X124284762Y-82378961D02*
X124094286Y-82912295D01*
X123903809Y-82378961D02*
X124094286Y-82912295D01*
X124094286Y-82912295D02*
X124170476Y-83102771D01*
X124170476Y-83102771D02*
X124208571Y-83140866D01*
X124208571Y-83140866D02*
X124284762Y-83178961D01*
X123484762Y-82912295D02*
X123560952Y-82874200D01*
X123560952Y-82874200D02*
X123599047Y-82836104D01*
X123599047Y-82836104D02*
X123637143Y-82759914D01*
X123637143Y-82759914D02*
X123637143Y-82531342D01*
X123637143Y-82531342D02*
X123599047Y-82455152D01*
X123599047Y-82455152D02*
X123560952Y-82417057D01*
X123560952Y-82417057D02*
X123484762Y-82378961D01*
X123484762Y-82378961D02*
X123370476Y-82378961D01*
X123370476Y-82378961D02*
X123294285Y-82417057D01*
X123294285Y-82417057D02*
X123256190Y-82455152D01*
X123256190Y-82455152D02*
X123218095Y-82531342D01*
X123218095Y-82531342D02*
X123218095Y-82759914D01*
X123218095Y-82759914D02*
X123256190Y-82836104D01*
X123256190Y-82836104D02*
X123294285Y-82874200D01*
X123294285Y-82874200D02*
X123370476Y-82912295D01*
X123370476Y-82912295D02*
X123484762Y-82912295D01*
X122532380Y-82378961D02*
X122532380Y-82912295D01*
X122875237Y-82378961D02*
X122875237Y-82798009D01*
X122875237Y-82798009D02*
X122837142Y-82874200D01*
X122837142Y-82874200D02*
X122760952Y-82912295D01*
X122760952Y-82912295D02*
X122646666Y-82912295D01*
X122646666Y-82912295D02*
X122570475Y-82874200D01*
X122570475Y-82874200D02*
X122532380Y-82836104D01*
X121618094Y-82378961D02*
X121427618Y-82912295D01*
X121427618Y-82912295D02*
X121237141Y-82378961D01*
X120627617Y-82874200D02*
X120703808Y-82912295D01*
X120703808Y-82912295D02*
X120856189Y-82912295D01*
X120856189Y-82912295D02*
X120932379Y-82874200D01*
X120932379Y-82874200D02*
X120970475Y-82798009D01*
X120970475Y-82798009D02*
X120970475Y-82493247D01*
X120970475Y-82493247D02*
X120932379Y-82417057D01*
X120932379Y-82417057D02*
X120856189Y-82378961D01*
X120856189Y-82378961D02*
X120703808Y-82378961D01*
X120703808Y-82378961D02*
X120627617Y-82417057D01*
X120627617Y-82417057D02*
X120589522Y-82493247D01*
X120589522Y-82493247D02*
X120589522Y-82569438D01*
X120589522Y-82569438D02*
X120970475Y-82645628D01*
X120246665Y-82912295D02*
X120246665Y-82378961D01*
X120246665Y-82531342D02*
X120208570Y-82455152D01*
X120208570Y-82455152D02*
X120170475Y-82417057D01*
X120170475Y-82417057D02*
X120094284Y-82378961D01*
X120094284Y-82378961D02*
X120018094Y-82378961D01*
X119827618Y-82378961D02*
X119637142Y-82912295D01*
X119446665Y-82378961D02*
X119637142Y-82912295D01*
X119637142Y-82912295D02*
X119713332Y-83102771D01*
X119713332Y-83102771D02*
X119751427Y-83140866D01*
X119751427Y-83140866D02*
X119827618Y-83178961D01*
X118532379Y-82912295D02*
X118532379Y-82378961D01*
X118532379Y-82455152D02*
X118494284Y-82417057D01*
X118494284Y-82417057D02*
X118418094Y-82378961D01*
X118418094Y-82378961D02*
X118303808Y-82378961D01*
X118303808Y-82378961D02*
X118227617Y-82417057D01*
X118227617Y-82417057D02*
X118189522Y-82493247D01*
X118189522Y-82493247D02*
X118189522Y-82912295D01*
X118189522Y-82493247D02*
X118151427Y-82417057D01*
X118151427Y-82417057D02*
X118075236Y-82378961D01*
X118075236Y-82378961D02*
X117960951Y-82378961D01*
X117960951Y-82378961D02*
X117884760Y-82417057D01*
X117884760Y-82417057D02*
X117846665Y-82493247D01*
X117846665Y-82493247D02*
X117846665Y-82912295D01*
X117122855Y-82378961D02*
X117122855Y-82912295D01*
X117465712Y-82378961D02*
X117465712Y-82798009D01*
X117465712Y-82798009D02*
X117427617Y-82874200D01*
X117427617Y-82874200D02*
X117351427Y-82912295D01*
X117351427Y-82912295D02*
X117237141Y-82912295D01*
X117237141Y-82912295D02*
X117160950Y-82874200D01*
X117160950Y-82874200D02*
X117122855Y-82836104D01*
X116399045Y-82874200D02*
X116475236Y-82912295D01*
X116475236Y-82912295D02*
X116627617Y-82912295D01*
X116627617Y-82912295D02*
X116703807Y-82874200D01*
X116703807Y-82874200D02*
X116741902Y-82836104D01*
X116741902Y-82836104D02*
X116779998Y-82759914D01*
X116779998Y-82759914D02*
X116779998Y-82531342D01*
X116779998Y-82531342D02*
X116741902Y-82455152D01*
X116741902Y-82455152D02*
X116703807Y-82417057D01*
X116703807Y-82417057D02*
X116627617Y-82378961D01*
X116627617Y-82378961D02*
X116475236Y-82378961D01*
X116475236Y-82378961D02*
X116399045Y-82417057D01*
X116056188Y-82912295D02*
X116056188Y-82112295D01*
X115713331Y-82912295D02*
X115713331Y-82493247D01*
X115713331Y-82493247D02*
X115751426Y-82417057D01*
X115751426Y-82417057D02*
X115827617Y-82378961D01*
X115827617Y-82378961D02*
X115941903Y-82378961D01*
X115941903Y-82378961D02*
X116018093Y-82417057D01*
X116018093Y-82417057D02*
X116056188Y-82455152D01*
D12*
X136132780Y-94311279D02*
X136132780Y-94882707D01*
X136132780Y-94882707D02*
X137132780Y-94882707D01*
D11*
X117691671Y-87350224D02*
X117691671Y-88064510D01*
X117691671Y-88064510D02*
X116977385Y-88135938D01*
X116977385Y-88135938D02*
X117048814Y-88064510D01*
X117048814Y-88064510D02*
X117120242Y-87921653D01*
X117120242Y-87921653D02*
X117120242Y-87564510D01*
X117120242Y-87564510D02*
X117048814Y-87421653D01*
X117048814Y-87421653D02*
X116977385Y-87350224D01*
X116977385Y-87350224D02*
X116834528Y-87278795D01*
X116834528Y-87278795D02*
X116477385Y-87278795D01*
X116477385Y-87278795D02*
X116334528Y-87350224D01*
X116334528Y-87350224D02*
X116263100Y-87421653D01*
X116263100Y-87421653D02*
X116191671Y-87564510D01*
X116191671Y-87564510D02*
X116191671Y-87921653D01*
X116191671Y-87921653D02*
X116263100Y-88064510D01*
X116263100Y-88064510D02*
X116334528Y-88135938D01*
X117691671Y-86850224D02*
X116191671Y-86350224D01*
X116191671Y-86350224D02*
X117691671Y-85850224D01*
%LPC*%
D10*
G36*
X124779166Y-118979166D02*
G01*
X124250000Y-118979166D01*
X124250000Y-118450000D01*
X124779166Y-118450000D01*
X124779166Y-118979166D01*
G37*
G36*
X129557078Y-118056344D02*
G01*
X129523528Y-118251977D01*
X129458017Y-118634035D01*
X129798060Y-118455283D01*
X129798113Y-118455230D01*
X129973797Y-118362838D01*
X130090901Y-118600169D01*
X129554749Y-118882056D01*
X129547799Y-118885582D01*
X129540781Y-118888878D01*
X129533701Y-118891944D01*
X129526564Y-118894780D01*
X129519374Y-118897387D01*
X129512137Y-118899765D01*
X129504857Y-118901915D01*
X129497540Y-118903838D01*
X129490190Y-118905532D01*
X129482811Y-118906999D01*
X129475410Y-118908240D01*
X129467990Y-118909254D01*
X129460557Y-118910042D01*
X129453116Y-118910605D01*
X129445671Y-118910942D01*
X129438227Y-118911054D01*
X129428559Y-118910865D01*
X129418910Y-118910296D01*
X129409291Y-118909350D01*
X129399711Y-118908027D01*
X129390181Y-118906328D01*
X129380711Y-118904254D01*
X129371312Y-118901805D01*
X129361994Y-118898983D01*
X129352767Y-118895788D01*
X129343641Y-118892221D01*
X129334627Y-118888283D01*
X129325735Y-118883975D01*
X129316976Y-118879298D01*
X129308359Y-118874252D01*
X129299895Y-118868839D01*
X129291595Y-118863059D01*
X129277534Y-118852073D01*
X129264418Y-118840266D01*
X129252268Y-118827690D01*
X129241107Y-118814399D01*
X129230956Y-118800447D01*
X129221837Y-118785888D01*
X129213772Y-118770775D01*
X129206782Y-118755162D01*
X129200891Y-118739102D01*
X129196118Y-118722650D01*
X129192487Y-118705858D01*
X129190019Y-118688781D01*
X129188737Y-118671472D01*
X129188661Y-118653985D01*
X129189814Y-118636373D01*
X129192217Y-118618690D01*
X129295193Y-118018298D01*
X129557078Y-118056344D01*
G37*
G36*
X130701738Y-118016556D02*
G01*
X130709214Y-118016893D01*
X130716682Y-118017454D01*
X130724135Y-118018240D01*
X130731568Y-118019250D01*
X130738976Y-118020485D01*
X130746353Y-118021944D01*
X130753695Y-118023628D01*
X130760996Y-118025536D01*
X130768251Y-118027669D01*
X130775454Y-118030026D01*
X130782601Y-118032607D01*
X130789685Y-118035413D01*
X130796703Y-118038444D01*
X130803647Y-118041699D01*
X130810514Y-118045178D01*
X131163521Y-118230757D01*
X131046417Y-118468088D01*
X130694256Y-118282933D01*
X130342096Y-118468088D01*
X130224991Y-118230757D01*
X130577999Y-118045178D01*
X130584865Y-118041708D01*
X130591808Y-118038461D01*
X130598823Y-118035438D01*
X130605905Y-118032638D01*
X130613048Y-118030061D01*
X130620248Y-118027709D01*
X130627500Y-118025580D01*
X130634798Y-118023674D01*
X130642138Y-118021993D01*
X130649514Y-118020535D01*
X130656922Y-118019302D01*
X130664356Y-118018292D01*
X130671812Y-118017507D01*
X130679284Y-118016946D01*
X130686767Y-118016609D01*
X130694256Y-118016497D01*
X130694257Y-118016444D01*
X130701738Y-118016556D01*
G37*
G36*
X131488059Y-115839929D02*
G01*
X131883506Y-115897397D01*
X131838791Y-116158223D01*
X131442392Y-116100597D01*
X131442340Y-116100650D01*
X131427215Y-116097972D01*
X131412383Y-116094399D01*
X131397877Y-116089956D01*
X131383731Y-116084666D01*
X131369978Y-116078554D01*
X131356652Y-116071644D01*
X131343786Y-116063959D01*
X131331413Y-116055525D01*
X131319568Y-116046366D01*
X131308283Y-116036505D01*
X131297592Y-116025967D01*
X131287529Y-116014776D01*
X131278126Y-116002957D01*
X131269419Y-115990532D01*
X131261439Y-115977527D01*
X131254221Y-115963966D01*
X131073986Y-115598735D01*
X131308249Y-115475598D01*
X131488059Y-115839929D01*
G37*
G36*
X120545834Y-116333333D02*
G01*
X120016667Y-116333333D01*
X120016667Y-115804166D01*
X120545834Y-115804166D01*
X120545834Y-116333333D01*
G37*
G36*
X130703259Y-114546378D02*
G01*
X130712144Y-114546842D01*
X130720959Y-114547612D01*
X130729698Y-114548682D01*
X130738353Y-114550050D01*
X130746920Y-114551711D01*
X130755393Y-114553662D01*
X130763764Y-114555899D01*
X130772028Y-114558419D01*
X130780178Y-114561216D01*
X130788209Y-114564288D01*
X130796115Y-114567631D01*
X130803888Y-114571241D01*
X130811524Y-114575114D01*
X130819015Y-114579246D01*
X130826357Y-114583634D01*
X130833541Y-114588274D01*
X130840564Y-114593162D01*
X130847417Y-114598294D01*
X130854096Y-114603666D01*
X130860593Y-114609275D01*
X130866904Y-114615116D01*
X130873021Y-114621187D01*
X130878938Y-114627483D01*
X130884650Y-114634000D01*
X130890151Y-114640734D01*
X130895433Y-114647683D01*
X130900491Y-114654841D01*
X130905319Y-114662206D01*
X130909910Y-114669773D01*
X130914259Y-114677539D01*
X130918359Y-114685499D01*
X131182677Y-115221068D01*
X130948415Y-115344206D01*
X130860574Y-115166194D01*
X130694256Y-114829274D01*
X130527939Y-115166194D01*
X130527992Y-115166221D01*
X130528045Y-115166247D01*
X130440204Y-115344259D01*
X130205941Y-115221122D01*
X130470260Y-114685499D01*
X130478709Y-114669782D01*
X130488129Y-114654856D01*
X130498469Y-114640754D01*
X130509681Y-114627505D01*
X130521716Y-114615140D01*
X130534524Y-114603689D01*
X130548056Y-114593184D01*
X130562263Y-114583654D01*
X130577096Y-114575131D01*
X130592505Y-114567645D01*
X130608441Y-114561227D01*
X130624856Y-114555907D01*
X130641699Y-114551716D01*
X130658922Y-114548684D01*
X130676475Y-114546843D01*
X130694310Y-114546222D01*
X130703259Y-114546378D01*
G37*
G36*
X129600045Y-117165756D02*
G01*
X129600046Y-117165702D01*
X129610711Y-117176757D01*
X129620614Y-117188365D01*
X129629740Y-117200488D01*
X129638078Y-117213085D01*
X129645614Y-117226117D01*
X129652335Y-117239544D01*
X129658228Y-117253328D01*
X129663281Y-117267428D01*
X129667481Y-117281805D01*
X129670815Y-117296420D01*
X129673269Y-117311234D01*
X129674832Y-117326206D01*
X129675490Y-117341297D01*
X129675230Y-117356469D01*
X129674040Y-117371681D01*
X129671907Y-117386893D01*
X129605073Y-117776572D01*
X129343188Y-117738525D01*
X129409863Y-117349800D01*
X129119668Y-117066961D01*
X129309163Y-116882228D01*
X129600045Y-117165756D01*
G37*
G36*
X132196349Y-118618742D02*
G01*
X132197704Y-118627589D01*
X132198744Y-118636425D01*
X132199472Y-118645243D01*
X132199890Y-118654037D01*
X132200002Y-118662799D01*
X132199810Y-118671524D01*
X132199316Y-118680204D01*
X132198524Y-118688833D01*
X132196054Y-118705910D01*
X132192422Y-118722702D01*
X132187649Y-118739154D01*
X132181757Y-118755214D01*
X132174768Y-118770827D01*
X132166702Y-118785940D01*
X132157582Y-118800499D01*
X132147429Y-118814451D01*
X132141972Y-118821182D01*
X132136265Y-118827741D01*
X132130310Y-118834122D01*
X132124111Y-118840317D01*
X132117669Y-118846321D01*
X132110988Y-118852125D01*
X132104070Y-118857724D01*
X132096919Y-118863111D01*
X132082119Y-118873092D01*
X132066831Y-118881920D01*
X132051111Y-118889590D01*
X132035017Y-118896098D01*
X132018607Y-118901440D01*
X132001939Y-118905612D01*
X131985071Y-118908611D01*
X131968060Y-118910432D01*
X131950964Y-118911070D01*
X131933841Y-118910523D01*
X131916748Y-118908786D01*
X131899744Y-118905854D01*
X131882886Y-118901725D01*
X131866231Y-118896393D01*
X131849838Y-118889855D01*
X131833764Y-118882108D01*
X131297665Y-118600273D01*
X131414770Y-118362943D01*
X131590453Y-118455282D01*
X131930495Y-118634034D01*
X131864984Y-118251976D01*
X131864985Y-118252029D01*
X131831436Y-118056396D01*
X132093374Y-118018349D01*
X132196349Y-118618742D01*
G37*
G36*
X124250000Y-116862500D02*
G01*
X123720834Y-116862500D01*
X123720834Y-116333333D01*
X124250000Y-116333333D01*
X124250000Y-116862500D01*
G37*
G36*
X125837500Y-110512500D02*
G01*
X125837500Y-111041667D01*
X125837500Y-111570833D01*
X125308334Y-111570833D01*
X124779166Y-111570833D01*
X124250000Y-111570833D01*
X124250000Y-111041667D01*
X124250000Y-110512500D01*
X124250000Y-109983333D01*
X124779166Y-109983333D01*
X125308334Y-109983333D01*
X125837500Y-109983333D01*
X125837500Y-110512500D01*
G37*
G36*
X120545834Y-115274999D02*
G01*
X120016667Y-115274999D01*
X120016667Y-114745833D01*
X120545834Y-114745833D01*
X120545834Y-115274999D01*
G37*
G36*
X119487500Y-109454167D02*
G01*
X119487500Y-109983333D01*
X119487500Y-110512500D01*
X119487500Y-111041667D01*
X119487500Y-111570833D01*
X119487500Y-112100000D01*
X119487500Y-112629166D01*
X118958334Y-112629166D01*
X118429167Y-112629166D01*
X117900001Y-112629166D01*
X117370834Y-112629166D01*
X116841667Y-112629166D01*
X116312501Y-112629166D01*
X115783334Y-112629166D01*
X115783334Y-112100000D01*
X115783334Y-111570833D01*
X115783334Y-111041667D01*
X115783334Y-110512500D01*
X116312501Y-110512500D01*
X116312501Y-111041667D01*
X116312501Y-111570833D01*
X116312501Y-112100000D01*
X116841667Y-112100000D01*
X117370834Y-112100000D01*
X117900001Y-112100000D01*
X118429167Y-112100000D01*
X118958334Y-112100000D01*
X118958334Y-111570833D01*
X118958334Y-111041667D01*
X118958334Y-110512500D01*
X118958334Y-109983333D01*
X118958334Y-109454167D01*
X118429167Y-109454167D01*
X117900001Y-109454167D01*
X117370834Y-109454167D01*
X116841667Y-109454167D01*
X116312501Y-109454167D01*
X116312501Y-109983333D01*
X116312501Y-110512500D01*
X115783334Y-110512500D01*
X115783334Y-109983333D01*
X115783334Y-109454167D01*
X115783334Y-108925000D01*
X116312501Y-108925000D01*
X116841667Y-108925000D01*
X117370834Y-108925000D01*
X117900001Y-108925000D01*
X118429167Y-108925000D01*
X118958334Y-108925000D01*
X119487500Y-108925000D01*
X119487500Y-109454167D01*
G37*
G36*
X123720834Y-114745833D02*
G01*
X123191667Y-114745833D01*
X123191667Y-114216667D01*
X123720834Y-114216667D01*
X123720834Y-114745833D01*
G37*
G36*
X126895833Y-109454167D02*
G01*
X126895833Y-109983333D01*
X126895833Y-110512500D01*
X126895833Y-111041667D01*
X126895833Y-111570833D01*
X126895833Y-112100000D01*
X126895833Y-112629166D01*
X126366667Y-112629166D01*
X125837500Y-112629166D01*
X125308334Y-112629166D01*
X124779166Y-112629166D01*
X124250000Y-112629166D01*
X123720834Y-112629166D01*
X123191667Y-112629166D01*
X123191667Y-112100000D01*
X123191667Y-111570833D01*
X123191667Y-111041667D01*
X123191667Y-110512500D01*
X123720834Y-110512500D01*
X123720834Y-111041667D01*
X123720834Y-111570833D01*
X123720834Y-112100000D01*
X124250000Y-112100000D01*
X124779166Y-112100000D01*
X125308334Y-112100000D01*
X125837500Y-112100000D01*
X126366667Y-112100000D01*
X126366667Y-111570833D01*
X126366667Y-111041667D01*
X126366667Y-110512500D01*
X126366667Y-109983333D01*
X126366667Y-109454167D01*
X125837500Y-109454167D01*
X125308334Y-109454167D01*
X124779166Y-109454167D01*
X124250000Y-109454167D01*
X123720834Y-109454167D01*
X123720834Y-109983333D01*
X123720834Y-110512500D01*
X123191667Y-110512500D01*
X123191667Y-109983333D01*
X123191667Y-109454167D01*
X123191667Y-108925000D01*
X123720834Y-108925000D01*
X124250000Y-108925000D01*
X124779166Y-108925000D01*
X125308334Y-108925000D01*
X125837500Y-108925000D01*
X126366667Y-108925000D01*
X126895833Y-108925000D01*
X126895833Y-109454167D01*
G37*
G36*
X137453717Y-108017086D02*
G01*
X137618452Y-108033922D01*
X137785082Y-108061151D01*
X137953178Y-108098091D01*
X138122310Y-108144061D01*
X138292046Y-108198380D01*
X138631615Y-108329340D01*
X138968443Y-108485523D01*
X139299091Y-108661481D01*
X139620116Y-108851765D01*
X139928079Y-109050926D01*
X140219539Y-109253518D01*
X140491055Y-109454090D01*
X140960491Y-109827384D01*
X141308862Y-110127221D01*
X141508641Y-110310014D01*
X141509875Y-110311271D01*
X141510966Y-110312573D01*
X141511918Y-110313914D01*
X141512733Y-110315289D01*
X141513415Y-110316692D01*
X141513967Y-110318118D01*
X141514391Y-110319561D01*
X141514692Y-110321015D01*
X141514871Y-110322475D01*
X141514932Y-110323935D01*
X141514878Y-110325389D01*
X141514711Y-110326833D01*
X141514436Y-110328259D01*
X141514055Y-110329663D01*
X141513570Y-110331039D01*
X141512986Y-110332382D01*
X141512305Y-110333685D01*
X141511530Y-110334943D01*
X141510664Y-110336151D01*
X141509710Y-110337302D01*
X141508671Y-110338392D01*
X141507551Y-110339415D01*
X141506352Y-110340364D01*
X141505077Y-110341235D01*
X141503730Y-110342022D01*
X141502313Y-110342719D01*
X141500829Y-110343320D01*
X141499282Y-110343821D01*
X141497674Y-110344214D01*
X141496009Y-110344496D01*
X141494289Y-110344659D01*
X141492518Y-110344699D01*
X141159292Y-110341921D01*
X140867532Y-110341908D01*
X140500165Y-110344947D01*
X140498714Y-110345015D01*
X140497300Y-110345175D01*
X140495923Y-110345424D01*
X140494587Y-110345759D01*
X140493293Y-110346175D01*
X140492044Y-110346671D01*
X140490841Y-110347241D01*
X140489687Y-110347883D01*
X140488583Y-110348593D01*
X140487532Y-110349367D01*
X140486536Y-110350203D01*
X140485596Y-110351097D01*
X140484715Y-110352044D01*
X140483894Y-110353042D01*
X140483137Y-110354088D01*
X140482444Y-110355177D01*
X140481818Y-110356306D01*
X140481262Y-110357472D01*
X140480776Y-110358672D01*
X140480363Y-110359901D01*
X140480026Y-110361156D01*
X140479765Y-110362435D01*
X140479584Y-110363732D01*
X140479484Y-110365046D01*
X140479467Y-110366371D01*
X140479535Y-110367706D01*
X140479691Y-110369046D01*
X140479936Y-110370388D01*
X140480273Y-110371728D01*
X140480703Y-110373063D01*
X140481228Y-110374390D01*
X140481852Y-110375705D01*
X140936562Y-111260819D01*
X140937221Y-111262312D01*
X140937692Y-111263845D01*
X140937986Y-111265411D01*
X140938109Y-111267002D01*
X140938069Y-111268611D01*
X140937875Y-111270230D01*
X140937533Y-111271852D01*
X140937053Y-111273468D01*
X140936442Y-111275072D01*
X140935708Y-111276656D01*
X140934859Y-111278212D01*
X140933903Y-111279733D01*
X140932848Y-111281210D01*
X140931701Y-111282638D01*
X140930471Y-111284007D01*
X140929166Y-111285311D01*
X140927793Y-111286542D01*
X140926360Y-111287692D01*
X140924876Y-111288753D01*
X140923348Y-111289719D01*
X140921784Y-111290582D01*
X140920192Y-111291333D01*
X140918580Y-111291966D01*
X140916957Y-111292473D01*
X140915329Y-111292846D01*
X140913704Y-111293078D01*
X140912092Y-111293161D01*
X140910499Y-111293088D01*
X140908934Y-111292851D01*
X140907404Y-111292442D01*
X140905917Y-111291855D01*
X140904482Y-111291080D01*
X140642099Y-111140764D01*
X140445941Y-111039819D01*
X140210545Y-110928947D01*
X139938968Y-110813595D01*
X139634266Y-110699212D01*
X139299495Y-110591245D01*
X138937710Y-110495143D01*
X138747643Y-110453243D01*
X138551968Y-110416352D01*
X138351067Y-110385152D01*
X138145324Y-110360322D01*
X137935119Y-110342544D01*
X137720834Y-110332500D01*
X137502852Y-110330869D01*
X137281554Y-110338333D01*
X137057323Y-110355573D01*
X136830540Y-110383270D01*
X136601588Y-110422105D01*
X136370848Y-110472759D01*
X136138703Y-110535912D01*
X135905534Y-110612247D01*
X135671723Y-110702443D01*
X135437653Y-110807182D01*
X135224239Y-110906786D01*
X135017617Y-110997873D01*
X134817727Y-111080767D01*
X134624510Y-111155787D01*
X134437906Y-111223257D01*
X134257854Y-111283496D01*
X134084296Y-111336827D01*
X133917170Y-111383571D01*
X133756417Y-111424050D01*
X133601977Y-111458585D01*
X133453790Y-111487497D01*
X133311796Y-111511108D01*
X133046148Y-111543713D01*
X132804553Y-111558971D01*
X132661721Y-111560816D01*
X132528504Y-111557237D01*
X132404775Y-111548918D01*
X132290408Y-111536541D01*
X132185273Y-111520790D01*
X132089245Y-111502347D01*
X132002195Y-111481896D01*
X131923996Y-111460119D01*
X131854522Y-111437700D01*
X131793644Y-111415321D01*
X131697168Y-111373416D01*
X131633551Y-111339869D01*
X131601774Y-111320143D01*
X131601206Y-111319742D01*
X131600664Y-111319327D01*
X131600146Y-111318898D01*
X131599652Y-111318454D01*
X131599179Y-111317994D01*
X131598729Y-111317520D01*
X131598298Y-111317031D01*
X131597888Y-111316527D01*
X131597496Y-111316007D01*
X131597122Y-111315471D01*
X131596765Y-111314919D01*
X131596424Y-111314351D01*
X131596098Y-111313767D01*
X131595786Y-111313167D01*
X131595487Y-111312550D01*
X131595201Y-111311916D01*
X131057724Y-110081397D01*
X130975835Y-109793829D01*
X131914960Y-109793829D01*
X131916353Y-109823661D01*
X131920467Y-109856768D01*
X131927472Y-109893242D01*
X131937535Y-109933179D01*
X131950828Y-109976671D01*
X131967518Y-110023814D01*
X131987776Y-110074700D01*
X132027610Y-110203285D01*
X132062263Y-110323984D01*
X132092128Y-110436393D01*
X132117598Y-110540111D01*
X132139067Y-110634735D01*
X132156928Y-110719863D01*
X132183402Y-110860016D01*
X132185100Y-110868692D01*
X132187086Y-110877169D01*
X132189352Y-110885441D01*
X132191889Y-110893503D01*
X132194689Y-110901349D01*
X132197743Y-110908973D01*
X132201044Y-110916370D01*
X132204582Y-110923533D01*
X132208350Y-110930457D01*
X132212338Y-110937136D01*
X132216539Y-110943565D01*
X132220944Y-110949736D01*
X132225545Y-110955646D01*
X132230333Y-110961288D01*
X132235300Y-110966655D01*
X132240438Y-110971743D01*
X132245738Y-110976546D01*
X132251191Y-110981058D01*
X132256790Y-110985272D01*
X132262525Y-110989184D01*
X132268389Y-110992788D01*
X132274373Y-110996077D01*
X132280469Y-110999047D01*
X132286668Y-111001690D01*
X132292962Y-111004002D01*
X132299342Y-111005976D01*
X132305800Y-111007608D01*
X132312328Y-111008890D01*
X132318918Y-111009818D01*
X132325560Y-111010385D01*
X132332246Y-111010586D01*
X132338969Y-111010415D01*
X132347652Y-111009640D01*
X132356362Y-111008227D01*
X132365082Y-111006165D01*
X132373794Y-111003442D01*
X132382479Y-111000045D01*
X132391121Y-110995962D01*
X132399700Y-110991181D01*
X132408200Y-110985690D01*
X132416602Y-110979476D01*
X132424889Y-110972527D01*
X132433042Y-110964830D01*
X132441043Y-110956374D01*
X132448876Y-110947147D01*
X132456521Y-110937135D01*
X132463961Y-110926327D01*
X132471179Y-110914710D01*
X132478156Y-110902273D01*
X132484874Y-110889002D01*
X132491315Y-110874886D01*
X132497462Y-110859912D01*
X132503297Y-110844069D01*
X132508801Y-110827343D01*
X132513957Y-110809723D01*
X132518748Y-110791196D01*
X132523154Y-110771750D01*
X132527159Y-110751373D01*
X132530744Y-110730053D01*
X132533891Y-110707777D01*
X132536583Y-110684532D01*
X132538802Y-110660308D01*
X132540529Y-110635091D01*
X132541747Y-110608869D01*
X132541057Y-110595085D01*
X132539669Y-110581261D01*
X132537707Y-110567474D01*
X132535291Y-110553801D01*
X132529586Y-110527111D01*
X132523528Y-110501810D01*
X132518091Y-110478520D01*
X132515910Y-110467824D01*
X132514250Y-110457862D01*
X132513232Y-110448715D01*
X132512977Y-110440457D01*
X132513609Y-110433169D01*
X132514295Y-110429912D01*
X132515248Y-110426926D01*
X132516426Y-110425524D01*
X132519221Y-110423584D01*
X132529233Y-110418246D01*
X132563893Y-110402801D01*
X132612283Y-110383032D01*
X132667453Y-110361382D01*
X132816997Y-110304805D01*
X132834592Y-110345144D01*
X132878202Y-110442344D01*
X132905460Y-110501103D01*
X132934059Y-110560681D01*
X132962278Y-110616612D01*
X132975708Y-110641815D01*
X132988397Y-110664431D01*
X133000271Y-110691750D01*
X133012920Y-110716346D01*
X133026254Y-110738303D01*
X133040182Y-110757707D01*
X133054612Y-110774641D01*
X133069454Y-110789190D01*
X133084616Y-110801440D01*
X133100008Y-110811475D01*
X133115539Y-110819380D01*
X133131117Y-110825239D01*
X133146652Y-110829137D01*
X133162053Y-110831159D01*
X133177229Y-110831390D01*
X133192088Y-110829915D01*
X133206540Y-110826817D01*
X133220494Y-110822183D01*
X133233859Y-110816096D01*
X133246543Y-110808641D01*
X133258457Y-110799904D01*
X133269508Y-110789968D01*
X133279606Y-110778919D01*
X133288661Y-110766841D01*
X133296580Y-110753819D01*
X133303273Y-110739938D01*
X133308649Y-110725282D01*
X133312617Y-110709937D01*
X133315086Y-110693987D01*
X133315965Y-110677516D01*
X133315164Y-110660610D01*
X133312590Y-110643353D01*
X133308153Y-110625829D01*
X133301763Y-110608125D01*
X133276250Y-110486045D01*
X133241210Y-110347309D01*
X133200000Y-110200000D01*
X133155977Y-110052202D01*
X133018907Y-109617798D01*
X133009648Y-109593992D01*
X132999112Y-109571498D01*
X132987424Y-109550350D01*
X132974709Y-109530578D01*
X132961092Y-109512216D01*
X132946699Y-109495295D01*
X132931655Y-109479849D01*
X132916084Y-109465910D01*
X132900113Y-109453510D01*
X132883865Y-109442681D01*
X132867468Y-109433456D01*
X132851045Y-109425868D01*
X132834721Y-109419948D01*
X132821638Y-109416520D01*
X133227470Y-109416520D01*
X133228942Y-109432292D01*
X133232008Y-109448659D01*
X133236722Y-109465509D01*
X133243137Y-109482730D01*
X133251309Y-109500209D01*
X133261290Y-109517835D01*
X133376577Y-109724720D01*
X133518233Y-109982967D01*
X133659885Y-110245512D01*
X133775160Y-110465291D01*
X133791456Y-110495921D01*
X133799693Y-110510103D01*
X133807983Y-110523550D01*
X133816318Y-110536282D01*
X133824693Y-110548315D01*
X133833101Y-110559666D01*
X133841537Y-110570352D01*
X133849994Y-110580390D01*
X133858465Y-110589797D01*
X133866946Y-110598591D01*
X133875429Y-110606789D01*
X133883909Y-110614407D01*
X133892379Y-110621462D01*
X133909266Y-110633955D01*
X133926041Y-110644404D01*
X133942654Y-110652945D01*
X133959056Y-110659715D01*
X133975199Y-110664851D01*
X133991033Y-110668490D01*
X134006508Y-110670768D01*
X134021577Y-110671823D01*
X134036188Y-110671790D01*
X134039998Y-110671609D01*
X134043767Y-110671357D01*
X134047499Y-110671042D01*
X134051195Y-110670674D01*
X134054405Y-110670220D01*
X134057682Y-110669391D01*
X134061022Y-110668201D01*
X134064421Y-110666661D01*
X134067875Y-110664784D01*
X134071378Y-110662584D01*
X134074928Y-110660072D01*
X134078520Y-110657260D01*
X134082149Y-110654163D01*
X134085812Y-110650792D01*
X134093221Y-110643279D01*
X134100713Y-110634821D01*
X134108255Y-110625521D01*
X134115812Y-110615477D01*
X134123352Y-110604792D01*
X134130841Y-110593566D01*
X134138244Y-110581900D01*
X134145528Y-110569893D01*
X134152660Y-110557648D01*
X134159605Y-110545264D01*
X134166330Y-110532842D01*
X134184299Y-110447121D01*
X134195443Y-110354460D01*
X134200482Y-110256489D01*
X134200137Y-110154839D01*
X134195130Y-110051141D01*
X134186181Y-109947027D01*
X134174010Y-109844126D01*
X134159340Y-109744071D01*
X134125381Y-109559019D01*
X134090070Y-109404918D01*
X134089028Y-109401205D01*
X134370320Y-109401205D01*
X134370951Y-109444251D01*
X134375486Y-109521727D01*
X134382110Y-109583432D01*
X134390688Y-109638964D01*
X134397283Y-109668491D01*
X134418010Y-109746358D01*
X134434116Y-109798397D01*
X134454286Y-109856495D01*
X134478698Y-109918644D01*
X134507527Y-109982835D01*
X134540951Y-110047058D01*
X134559442Y-110078555D01*
X134579148Y-110109306D01*
X134600091Y-110139062D01*
X134622293Y-110167570D01*
X134645777Y-110194580D01*
X134670565Y-110219841D01*
X134696678Y-110243102D01*
X134724139Y-110264111D01*
X134752970Y-110282617D01*
X134783193Y-110298370D01*
X134814831Y-110311119D01*
X134847904Y-110320611D01*
X134882436Y-110326596D01*
X134918449Y-110328824D01*
X134924758Y-110329703D01*
X134930995Y-110330482D01*
X134937160Y-110331164D01*
X134943255Y-110331748D01*
X134949280Y-110332235D01*
X134955236Y-110332627D01*
X134961123Y-110332922D01*
X134966943Y-110333124D01*
X134966943Y-110333123D01*
X134988158Y-110333063D01*
X135008415Y-110331770D01*
X135027726Y-110329305D01*
X135046102Y-110325729D01*
X135063557Y-110321106D01*
X135080100Y-110315497D01*
X135095745Y-110308963D01*
X135110503Y-110301566D01*
X135124385Y-110293368D01*
X135137405Y-110284432D01*
X135149573Y-110274818D01*
X135160901Y-110264588D01*
X135171402Y-110253805D01*
X135181087Y-110242530D01*
X135189967Y-110230825D01*
X135198055Y-110218751D01*
X135205363Y-110206371D01*
X135211903Y-110193747D01*
X135217685Y-110180939D01*
X135222723Y-110168011D01*
X135227027Y-110155023D01*
X135230610Y-110142037D01*
X135233484Y-110129116D01*
X135235660Y-110116321D01*
X135237151Y-110103714D01*
X135237967Y-110091357D01*
X135238122Y-110079311D01*
X135237626Y-110067639D01*
X135236491Y-110056401D01*
X135234731Y-110045661D01*
X135232355Y-110035479D01*
X135229376Y-110025917D01*
X135227332Y-110020471D01*
X135224949Y-110015019D01*
X135222231Y-110009600D01*
X135219183Y-110004255D01*
X135215810Y-109999021D01*
X135212117Y-109993941D01*
X135208107Y-109989053D01*
X135203786Y-109984396D01*
X135199159Y-109980011D01*
X135194229Y-109975938D01*
X135189001Y-109972215D01*
X135183481Y-109968884D01*
X135177672Y-109965982D01*
X135171580Y-109963552D01*
X135165208Y-109961630D01*
X135158562Y-109960259D01*
X135151646Y-109959477D01*
X135144465Y-109959324D01*
X135137024Y-109959840D01*
X135129326Y-109961064D01*
X135121377Y-109963036D01*
X135113181Y-109965796D01*
X135104742Y-109969384D01*
X135096066Y-109973840D01*
X135087158Y-109979202D01*
X135078021Y-109985511D01*
X135068660Y-109992807D01*
X135059080Y-110001128D01*
X135049285Y-110010516D01*
X135039281Y-110021009D01*
X135029071Y-110032648D01*
X135018660Y-110045472D01*
X135001352Y-110052871D01*
X134984451Y-110057603D01*
X134967956Y-110059789D01*
X134951865Y-110059552D01*
X134936179Y-110057014D01*
X134920895Y-110052295D01*
X134906013Y-110045519D01*
X134891532Y-110036808D01*
X134877450Y-110026282D01*
X134863767Y-110014065D01*
X134850482Y-110000278D01*
X134837593Y-109985042D01*
X134825099Y-109968481D01*
X134813000Y-109950715D01*
X134801295Y-109931867D01*
X134789981Y-109912059D01*
X134768528Y-109870049D01*
X134748631Y-109825660D01*
X134730282Y-109779869D01*
X134713474Y-109733651D01*
X134698197Y-109687981D01*
X134684444Y-109643834D01*
X134661473Y-109564013D01*
X134653418Y-109516899D01*
X134649967Y-109490715D01*
X134647132Y-109463224D01*
X134645087Y-109434759D01*
X134644006Y-109405653D01*
X134644061Y-109376240D01*
X134645428Y-109346853D01*
X134648279Y-109317824D01*
X134652788Y-109289488D01*
X134659130Y-109262177D01*
X134667477Y-109236225D01*
X134672457Y-109223863D01*
X134678003Y-109211965D01*
X134684138Y-109200574D01*
X134690882Y-109189730D01*
X134698258Y-109179476D01*
X134706288Y-109169853D01*
X134714993Y-109160904D01*
X134724394Y-109152668D01*
X134730191Y-109148147D01*
X134736066Y-109143959D01*
X134742015Y-109140092D01*
X134748030Y-109136534D01*
X134754105Y-109133270D01*
X134760234Y-109130288D01*
X134772629Y-109125117D01*
X134785164Y-109120917D01*
X134797787Y-109117584D01*
X134810449Y-109115012D01*
X134823099Y-109113098D01*
X134835687Y-109111737D01*
X134848160Y-109110825D01*
X134872566Y-109109930D01*
X134895910Y-109109576D01*
X134917788Y-109108929D01*
X134922031Y-109107933D01*
X134926461Y-109106012D01*
X134931007Y-109103215D01*
X134935598Y-109099587D01*
X134940161Y-109095178D01*
X134944627Y-109090035D01*
X134948923Y-109084205D01*
X134952979Y-109077735D01*
X134956722Y-109070675D01*
X134960082Y-109063071D01*
X134962986Y-109054970D01*
X134965365Y-109046421D01*
X134967146Y-109037471D01*
X134968258Y-109028168D01*
X134968630Y-109018559D01*
X134968191Y-109008691D01*
X134966868Y-108998613D01*
X134964591Y-108988373D01*
X134961289Y-108978017D01*
X134956890Y-108967593D01*
X134951322Y-108957149D01*
X134944515Y-108946733D01*
X134936396Y-108936392D01*
X134926896Y-108926173D01*
X134915941Y-108916125D01*
X134903462Y-108906295D01*
X134889386Y-108896730D01*
X134873643Y-108887479D01*
X134856161Y-108878588D01*
X134836868Y-108870106D01*
X134815693Y-108862080D01*
X134792565Y-108854557D01*
X134768109Y-108856845D01*
X134730228Y-108861289D01*
X134707410Y-108865136D01*
X134682624Y-108870501D01*
X134656333Y-108877710D01*
X134629000Y-108887091D01*
X134615087Y-108892697D01*
X134601087Y-108898969D01*
X134587058Y-108905946D01*
X134573058Y-108913670D01*
X134559144Y-108922182D01*
X134545375Y-108931522D01*
X134531808Y-108941731D01*
X134518501Y-108952850D01*
X134505512Y-108964919D01*
X134492899Y-108977980D01*
X134480719Y-108992074D01*
X134469031Y-109007240D01*
X134457892Y-109023521D01*
X134447360Y-109040956D01*
X134437494Y-109059586D01*
X134428350Y-109079453D01*
X134410978Y-109123109D01*
X134397203Y-109168605D01*
X134386683Y-109215299D01*
X134379076Y-109262549D01*
X134374041Y-109309712D01*
X134371236Y-109356145D01*
X134370320Y-109401205D01*
X134089028Y-109401205D01*
X134059175Y-109294816D01*
X134047186Y-109260341D01*
X134038462Y-109241759D01*
X134026405Y-109223418D01*
X134013865Y-109206483D01*
X134000915Y-109190940D01*
X133987628Y-109176780D01*
X133974078Y-109163991D01*
X133960337Y-109152562D01*
X133946479Y-109142482D01*
X133932577Y-109133740D01*
X133918704Y-109126325D01*
X133904933Y-109120225D01*
X133891337Y-109115431D01*
X133877989Y-109111929D01*
X133864963Y-109109711D01*
X133852331Y-109108763D01*
X133840168Y-109109076D01*
X133828545Y-109110639D01*
X133817536Y-109113439D01*
X133807215Y-109117467D01*
X133797653Y-109122710D01*
X133788925Y-109129159D01*
X133781104Y-109136801D01*
X133774263Y-109145627D01*
X133768474Y-109155623D01*
X133763811Y-109166781D01*
X133760348Y-109179088D01*
X133758156Y-109192534D01*
X133757310Y-109207107D01*
X133757883Y-109222796D01*
X133759947Y-109239590D01*
X133763576Y-109257479D01*
X133768844Y-109276450D01*
X133775822Y-109296494D01*
X133805015Y-109392514D01*
X133831062Y-109473761D01*
X133856933Y-109551032D01*
X133571266Y-109582947D01*
X133550297Y-109543858D01*
X133529515Y-109508283D01*
X133508974Y-109476108D01*
X133488728Y-109447221D01*
X133468831Y-109421510D01*
X133449338Y-109398863D01*
X133430301Y-109379167D01*
X133411777Y-109362312D01*
X133393818Y-109348183D01*
X133376478Y-109336669D01*
X133359812Y-109327658D01*
X133343875Y-109321038D01*
X133328719Y-109316696D01*
X133314399Y-109314520D01*
X133300970Y-109314398D01*
X133288484Y-109316218D01*
X133276997Y-109319867D01*
X133266563Y-109325233D01*
X133257235Y-109332205D01*
X133249068Y-109340669D01*
X133242116Y-109350514D01*
X133236432Y-109361627D01*
X133232072Y-109373897D01*
X133229089Y-109387210D01*
X133227537Y-109401455D01*
X133227470Y-109416520D01*
X132821638Y-109416520D01*
X132818623Y-109415730D01*
X132802875Y-109413245D01*
X132787602Y-109412527D01*
X132772930Y-109413606D01*
X132758984Y-109416517D01*
X132745889Y-109421291D01*
X132733770Y-109427960D01*
X132722752Y-109436558D01*
X132712960Y-109447116D01*
X132704521Y-109459667D01*
X132697558Y-109474243D01*
X132692197Y-109490877D01*
X132688564Y-109509601D01*
X132686783Y-109530448D01*
X132686980Y-109553450D01*
X132689279Y-109578639D01*
X132693807Y-109606048D01*
X132700688Y-109635709D01*
X132710047Y-109667655D01*
X132731785Y-109772051D01*
X132750614Y-109869013D01*
X132768876Y-109968288D01*
X132407595Y-110106781D01*
X132363976Y-110020556D01*
X132319596Y-109934027D01*
X132269185Y-109837443D01*
X132257581Y-109815942D01*
X132244466Y-109795368D01*
X132230007Y-109775814D01*
X132214376Y-109757374D01*
X132197741Y-109740142D01*
X132180271Y-109724212D01*
X132162137Y-109709678D01*
X132143506Y-109696634D01*
X132124548Y-109685174D01*
X132105434Y-109675391D01*
X132086331Y-109667380D01*
X132067409Y-109661234D01*
X132048838Y-109657048D01*
X132030787Y-109654914D01*
X132013426Y-109654929D01*
X131996922Y-109657184D01*
X131981447Y-109661774D01*
X131967168Y-109668794D01*
X131954256Y-109678336D01*
X131942880Y-109690495D01*
X131933209Y-109705365D01*
X131925412Y-109723039D01*
X131919658Y-109743612D01*
X131916118Y-109767177D01*
X131914960Y-109793829D01*
X130975835Y-109793829D01*
X130781235Y-109110459D01*
X130780884Y-109109055D01*
X130780632Y-109107657D01*
X130780476Y-109106270D01*
X130780413Y-109104896D01*
X130780440Y-109103538D01*
X130780555Y-109102198D01*
X130780755Y-109100881D01*
X130781037Y-109099588D01*
X130781399Y-109098324D01*
X130781837Y-109097090D01*
X130782350Y-109095889D01*
X130782934Y-109094726D01*
X130783586Y-109093602D01*
X130784304Y-109092520D01*
X130785085Y-109091484D01*
X130785927Y-109090497D01*
X130786826Y-109089561D01*
X130787780Y-109088680D01*
X130788787Y-109087856D01*
X130789843Y-109087092D01*
X130790945Y-109086392D01*
X130792092Y-109085758D01*
X130793280Y-109085193D01*
X130794506Y-109084700D01*
X130795768Y-109084282D01*
X130797064Y-109083943D01*
X130798390Y-109083684D01*
X130799743Y-109083510D01*
X130801121Y-109083422D01*
X130802522Y-109083425D01*
X130803941Y-109083520D01*
X130805378Y-109083711D01*
X130937681Y-109103290D01*
X131067522Y-109117573D01*
X131196011Y-109126578D01*
X131324259Y-109130324D01*
X131453375Y-109128829D01*
X131584470Y-109122111D01*
X131718653Y-109110189D01*
X131857036Y-109093080D01*
X132000728Y-109070804D01*
X132150838Y-109043378D01*
X132308479Y-109010821D01*
X132474758Y-108973151D01*
X132837677Y-108882546D01*
X133084631Y-108815916D01*
X135153513Y-108815916D01*
X135153888Y-108829516D01*
X135155712Y-108843871D01*
X135159035Y-108858916D01*
X135163905Y-108874588D01*
X135170372Y-108890822D01*
X135178486Y-108907556D01*
X135244483Y-109031856D01*
X135268755Y-109078320D01*
X135292652Y-109125418D01*
X135314433Y-109170386D01*
X135323986Y-109191208D01*
X135332357Y-109210463D01*
X135361750Y-109283556D01*
X135385684Y-109352699D01*
X135404764Y-109418137D01*
X135419598Y-109480116D01*
X135430793Y-109538883D01*
X135438955Y-109594682D01*
X135444691Y-109647760D01*
X135448608Y-109698362D01*
X135458219Y-109880935D01*
X135462141Y-109922848D01*
X135467884Y-109963761D01*
X135476056Y-110003920D01*
X135487262Y-110043570D01*
X135490937Y-110053347D01*
X135494959Y-110062417D01*
X135499310Y-110070791D01*
X135503973Y-110078480D01*
X135508930Y-110085496D01*
X135511513Y-110088756D01*
X135514163Y-110091851D01*
X135516877Y-110094784D01*
X135519654Y-110097556D01*
X135522491Y-110100169D01*
X135525386Y-110102623D01*
X135528336Y-110104921D01*
X135531340Y-110107064D01*
X135534395Y-110109053D01*
X135537499Y-110110889D01*
X135543845Y-110114112D01*
X135550361Y-110116743D01*
X135557027Y-110118793D01*
X135563828Y-110120275D01*
X135570744Y-110121200D01*
X135577758Y-110121580D01*
X135577758Y-110121581D01*
X135585566Y-110121383D01*
X135593446Y-110120556D01*
X135601376Y-110119116D01*
X135609332Y-110117077D01*
X135617290Y-110114455D01*
X135625226Y-110111266D01*
X135633117Y-110107526D01*
X135640938Y-110103250D01*
X135648667Y-110098454D01*
X135656279Y-110093152D01*
X135663751Y-110087362D01*
X135671059Y-110081098D01*
X135674218Y-110078116D01*
X139153968Y-110078116D01*
X139154088Y-110082495D01*
X139154448Y-110086927D01*
X139155074Y-110091415D01*
X139155994Y-110095959D01*
X139157235Y-110100564D01*
X139158826Y-110105232D01*
X139160795Y-110109964D01*
X139163168Y-110114764D01*
X139165974Y-110119633D01*
X139169240Y-110124574D01*
X139172994Y-110129590D01*
X139177264Y-110134683D01*
X139182078Y-110139855D01*
X139187463Y-110145109D01*
X139193447Y-110150447D01*
X139200057Y-110155872D01*
X139207321Y-110161385D01*
X139215268Y-110166990D01*
X139223925Y-110172689D01*
X139233319Y-110178484D01*
X139243478Y-110184378D01*
X139269545Y-110199831D01*
X139295005Y-110214299D01*
X139319867Y-110227782D01*
X139344140Y-110240275D01*
X139367836Y-110251776D01*
X139390963Y-110262282D01*
X139413532Y-110271792D01*
X139435553Y-110280302D01*
X139457035Y-110287809D01*
X139477990Y-110294312D01*
X139498426Y-110299807D01*
X139518354Y-110304293D01*
X139537783Y-110307765D01*
X139556725Y-110310223D01*
X139575188Y-110311662D01*
X139593182Y-110312081D01*
X139604924Y-110311793D01*
X139616464Y-110311050D01*
X139627807Y-110309851D01*
X139638955Y-110308196D01*
X139649911Y-110306084D01*
X139655317Y-110304856D01*
X139660677Y-110303513D01*
X139665990Y-110302055D01*
X139671256Y-110300482D01*
X139676477Y-110298794D01*
X139681652Y-110296991D01*
X139687617Y-110293085D01*
X139693442Y-110288789D01*
X139699120Y-110284119D01*
X139704645Y-110279091D01*
X139710011Y-110273719D01*
X139715210Y-110268019D01*
X139720236Y-110262007D01*
X139725082Y-110255698D01*
X139729742Y-110249107D01*
X139734209Y-110242250D01*
X139742538Y-110227799D01*
X139750015Y-110212469D01*
X139756588Y-110196383D01*
X139762203Y-110179664D01*
X139766808Y-110162435D01*
X139770350Y-110144820D01*
X139772775Y-110126942D01*
X139773552Y-110117943D01*
X139774030Y-110108925D01*
X139774202Y-110099902D01*
X139774062Y-110090891D01*
X139773603Y-110081907D01*
X139772819Y-110072965D01*
X139771702Y-110064081D01*
X139770246Y-110055270D01*
X139766342Y-110040209D01*
X139762193Y-110025573D01*
X139753432Y-109997880D01*
X139744512Y-109972793D01*
X139735982Y-109950916D01*
X139728392Y-109932851D01*
X139722291Y-109919201D01*
X139716751Y-109907558D01*
X139727093Y-109906216D01*
X139737254Y-109904301D01*
X139747229Y-109901826D01*
X139757013Y-109898802D01*
X139766601Y-109895241D01*
X139775985Y-109891155D01*
X139785161Y-109886557D01*
X139794124Y-109881457D01*
X139802867Y-109875869D01*
X139811386Y-109869804D01*
X139819674Y-109863274D01*
X139827726Y-109856291D01*
X139835536Y-109848868D01*
X139843099Y-109841015D01*
X139850410Y-109832746D01*
X139857462Y-109824071D01*
X139864250Y-109815004D01*
X139870768Y-109805556D01*
X139877012Y-109795738D01*
X139882975Y-109785564D01*
X139888652Y-109775045D01*
X139894036Y-109764193D01*
X139899124Y-109753020D01*
X139903908Y-109741538D01*
X139908384Y-109729759D01*
X139912546Y-109717695D01*
X139916388Y-109705358D01*
X139919905Y-109692760D01*
X139925941Y-109666829D01*
X139930608Y-109639998D01*
X139932131Y-109626399D01*
X139932735Y-109612859D01*
X139932427Y-109599384D01*
X139931215Y-109585984D01*
X139929107Y-109572666D01*
X139926109Y-109559438D01*
X139922230Y-109546307D01*
X139917476Y-109533283D01*
X139911855Y-109520372D01*
X139905374Y-109507584D01*
X139898041Y-109494925D01*
X139889863Y-109482404D01*
X139880848Y-109470029D01*
X139871003Y-109457808D01*
X139860335Y-109445749D01*
X139848851Y-109433859D01*
X139836560Y-109422147D01*
X139823468Y-109410621D01*
X139809584Y-109399288D01*
X139794913Y-109388157D01*
X139779464Y-109377236D01*
X139763245Y-109366532D01*
X139746261Y-109356054D01*
X139728522Y-109345810D01*
X139710034Y-109335807D01*
X139690804Y-109326053D01*
X139650151Y-109307327D01*
X139606622Y-109289694D01*
X139560275Y-109273219D01*
X139544153Y-109268978D01*
X139528043Y-109265317D01*
X139512077Y-109262243D01*
X139496393Y-109259764D01*
X139481126Y-109257887D01*
X139466409Y-109256620D01*
X139452380Y-109255971D01*
X139439174Y-109255947D01*
X139426925Y-109256556D01*
X139415769Y-109257805D01*
X139405841Y-109259702D01*
X139397277Y-109262255D01*
X139390213Y-109265471D01*
X139387285Y-109267330D01*
X139384782Y-109269357D01*
X139382722Y-109271554D01*
X139381121Y-109273922D01*
X139379997Y-109276461D01*
X139379366Y-109279172D01*
X139376457Y-109297252D01*
X139369176Y-109328307D01*
X139344011Y-109421536D01*
X139268891Y-109677839D01*
X139160464Y-110032739D01*
X139157477Y-110048737D01*
X139155974Y-110056927D01*
X139154760Y-110065271D01*
X139154058Y-110073787D01*
X139153968Y-110078116D01*
X135674218Y-110078116D01*
X135678179Y-110074376D01*
X135685088Y-110067212D01*
X135691762Y-110059621D01*
X135698177Y-110051618D01*
X135704309Y-110043220D01*
X135710135Y-110034442D01*
X135715631Y-110025299D01*
X135720774Y-110015807D01*
X135725539Y-110005982D01*
X135729903Y-109995838D01*
X135733842Y-109985393D01*
X135737333Y-109974661D01*
X135740351Y-109963658D01*
X135742873Y-109952400D01*
X135744876Y-109940901D01*
X135746335Y-109929178D01*
X135747228Y-109917247D01*
X135747529Y-109905122D01*
X135747216Y-109892820D01*
X135746265Y-109880355D01*
X135746609Y-109845254D01*
X135746283Y-109832032D01*
X138286199Y-109832032D01*
X138286814Y-109841895D01*
X138288080Y-109851421D01*
X138289965Y-109860582D01*
X138292437Y-109869352D01*
X138295463Y-109877704D01*
X138299012Y-109885610D01*
X138303053Y-109893045D01*
X138307552Y-109899981D01*
X138312477Y-109906391D01*
X138317798Y-109912250D01*
X138323482Y-109917528D01*
X138329496Y-109922202D01*
X138335809Y-109926242D01*
X138342389Y-109929622D01*
X138349203Y-109932317D01*
X138356221Y-109934298D01*
X138363409Y-109935539D01*
X138370736Y-109936013D01*
X138378170Y-109935693D01*
X138385678Y-109934553D01*
X138393229Y-109932566D01*
X138400791Y-109929705D01*
X138408331Y-109925943D01*
X138415819Y-109921253D01*
X138423220Y-109915608D01*
X138430505Y-109908982D01*
X138437640Y-109901348D01*
X138444594Y-109892679D01*
X138451335Y-109882948D01*
X138457830Y-109872128D01*
X138467596Y-109850946D01*
X138477580Y-109823203D01*
X138487807Y-109789706D01*
X138498299Y-109751262D01*
X138520174Y-109662763D01*
X138543391Y-109564165D01*
X138568137Y-109461925D01*
X138594599Y-109362501D01*
X138608531Y-109315864D01*
X138622963Y-109272353D01*
X138637916Y-109232775D01*
X138653415Y-109197937D01*
X138657881Y-109191586D01*
X138662615Y-109185572D01*
X138667598Y-109179900D01*
X138672812Y-109174572D01*
X138678240Y-109169592D01*
X138683863Y-109164964D01*
X138689663Y-109160691D01*
X138695622Y-109156776D01*
X138701722Y-109153224D01*
X138707944Y-109150038D01*
X138714271Y-109147222D01*
X138720684Y-109144778D01*
X138727166Y-109142710D01*
X138733698Y-109141023D01*
X138740262Y-109139719D01*
X138746840Y-109138802D01*
X138753414Y-109138276D01*
X138759966Y-109138144D01*
X138766477Y-109138410D01*
X138772930Y-109139076D01*
X138779306Y-109140148D01*
X138785587Y-109141628D01*
X138791756Y-109143520D01*
X138797793Y-109145827D01*
X138803682Y-109148553D01*
X138809403Y-109151702D01*
X138814938Y-109155277D01*
X138820271Y-109159281D01*
X138825381Y-109163718D01*
X138830252Y-109168592D01*
X138834865Y-109173906D01*
X138839202Y-109179664D01*
X138843890Y-109189124D01*
X138848062Y-109199396D01*
X138854933Y-109222233D01*
X138859954Y-109247894D01*
X138863268Y-109276098D01*
X138865016Y-109306562D01*
X138865339Y-109339006D01*
X138864379Y-109373148D01*
X138862275Y-109408706D01*
X138859170Y-109445400D01*
X138855205Y-109482948D01*
X138845260Y-109559478D01*
X138833568Y-109636047D01*
X138821260Y-109710402D01*
X138812489Y-109744111D01*
X138803757Y-109775806D01*
X138787887Y-109833286D01*
X138781487Y-109859134D01*
X138776601Y-109883098D01*
X138774841Y-109894383D01*
X138773599Y-109905209D01*
X138772920Y-109915580D01*
X138772850Y-109925500D01*
X138774773Y-109939301D01*
X138777209Y-109952146D01*
X138780132Y-109964045D01*
X138783519Y-109975006D01*
X138787347Y-109985039D01*
X138791591Y-109994155D01*
X138796228Y-110002362D01*
X138801235Y-110009670D01*
X138806587Y-110016088D01*
X138812260Y-110021626D01*
X138818232Y-110026295D01*
X138824478Y-110030102D01*
X138830974Y-110033058D01*
X138837697Y-110035172D01*
X138844624Y-110036454D01*
X138851729Y-110036914D01*
X138856380Y-110036780D01*
X138861090Y-110036312D01*
X138865850Y-110035513D01*
X138870656Y-110034386D01*
X138875501Y-110032933D01*
X138880379Y-110031157D01*
X138885282Y-110029060D01*
X138890206Y-110026645D01*
X138895143Y-110023915D01*
X138900088Y-110020872D01*
X138905033Y-110017518D01*
X138909973Y-110013856D01*
X138914902Y-110009889D01*
X138919812Y-110005619D01*
X138924698Y-110001049D01*
X138929554Y-109996182D01*
X138934372Y-109991019D01*
X138939148Y-109985564D01*
X138943873Y-109979818D01*
X138948543Y-109973785D01*
X138953150Y-109967468D01*
X138957689Y-109960868D01*
X138966535Y-109946831D01*
X138975031Y-109931695D01*
X138983126Y-109915481D01*
X138990770Y-109898210D01*
X138997911Y-109879900D01*
X139018215Y-109800238D01*
X139037710Y-109712963D01*
X139055372Y-109621935D01*
X139070181Y-109531014D01*
X139081114Y-109444060D01*
X139084807Y-109403277D01*
X139087147Y-109364933D01*
X139088007Y-109329512D01*
X139087259Y-109297494D01*
X139084775Y-109269364D01*
X139080428Y-109245603D01*
X139070004Y-109203738D01*
X139058150Y-109160741D01*
X139051280Y-109139303D01*
X139043564Y-109118165D01*
X139034839Y-109097519D01*
X139024942Y-109077560D01*
X139013709Y-109058482D01*
X139000979Y-109040479D01*
X138994002Y-109031941D01*
X138986588Y-109023744D01*
X138978719Y-109015913D01*
X138970373Y-109008472D01*
X138961531Y-109001445D01*
X138952171Y-108994857D01*
X138942275Y-108988731D01*
X138931820Y-108983092D01*
X138920787Y-108977964D01*
X138909156Y-108973371D01*
X138896906Y-108969338D01*
X138884016Y-108965889D01*
X138858621Y-108961992D01*
X138838194Y-108960298D01*
X138813524Y-108959580D01*
X138785295Y-108960445D01*
X138754189Y-108963499D01*
X138720889Y-108969346D01*
X138703630Y-108973506D01*
X138686078Y-108978592D01*
X138668320Y-108984680D01*
X138650439Y-108991844D01*
X138632523Y-109000161D01*
X138614655Y-109009707D01*
X138596921Y-109020557D01*
X138579408Y-109032786D01*
X138562199Y-109046471D01*
X138545381Y-109061688D01*
X138529039Y-109078511D01*
X138513257Y-109097017D01*
X138498123Y-109117281D01*
X138483720Y-109139380D01*
X138470134Y-109163388D01*
X138457451Y-109189382D01*
X138445756Y-109217437D01*
X138435134Y-109247629D01*
X138370164Y-109467498D01*
X138326977Y-109618406D01*
X138312076Y-109675661D01*
X138300848Y-109724868D01*
X138292703Y-109769092D01*
X138287050Y-109811398D01*
X138286267Y-109821857D01*
X138286199Y-109832032D01*
X135746283Y-109832032D01*
X135745721Y-109809215D01*
X135743767Y-109772680D01*
X135740915Y-109736090D01*
X135733185Y-109664514D01*
X135723864Y-109598025D01*
X135714290Y-109540156D01*
X135705797Y-109494444D01*
X135697400Y-109453632D01*
X135698984Y-109456659D01*
X135701350Y-109460594D01*
X135705108Y-109466279D01*
X135710513Y-109473816D01*
X135717824Y-109483306D01*
X135727296Y-109494850D01*
X135739187Y-109508549D01*
X135746119Y-109516239D01*
X135753752Y-109524506D01*
X135762119Y-109533363D01*
X135771250Y-109542821D01*
X135781179Y-109552895D01*
X135791937Y-109563596D01*
X135803556Y-109574938D01*
X135816068Y-109586933D01*
X135829507Y-109599593D01*
X135843902Y-109612932D01*
X135859288Y-109626962D01*
X135875695Y-109641696D01*
X135893157Y-109657146D01*
X135911704Y-109673325D01*
X135931369Y-109690246D01*
X135952185Y-109707921D01*
X135973078Y-109725179D01*
X135992962Y-109740870D01*
X136011854Y-109755040D01*
X136029771Y-109767731D01*
X136046730Y-109778988D01*
X136062748Y-109788854D01*
X136077841Y-109797373D01*
X136092028Y-109804589D01*
X136105324Y-109810545D01*
X136117747Y-109815285D01*
X136129314Y-109818852D01*
X136140042Y-109821291D01*
X136149948Y-109822646D01*
X136159048Y-109822959D01*
X136167360Y-109822275D01*
X136174901Y-109820637D01*
X136181688Y-109818089D01*
X136187737Y-109814675D01*
X136193067Y-109810438D01*
X136197693Y-109805423D01*
X136201632Y-109799672D01*
X136204902Y-109793230D01*
X136207520Y-109786140D01*
X136209503Y-109778447D01*
X136210867Y-109770192D01*
X136211630Y-109761422D01*
X136211420Y-109742505D01*
X136209009Y-109722047D01*
X136204531Y-109700397D01*
X136201165Y-109689326D01*
X136196353Y-109677300D01*
X136182798Y-109650725D01*
X136164681Y-109621357D01*
X136142818Y-109589881D01*
X136118022Y-109556985D01*
X136091108Y-109523352D01*
X136034186Y-109456621D01*
X135978569Y-109395172D01*
X135930773Y-109344489D01*
X135884716Y-109297362D01*
X135888578Y-109295529D01*
X135892441Y-109293101D01*
X135896296Y-109290121D01*
X135900135Y-109286633D01*
X135903950Y-109282679D01*
X135907733Y-109278301D01*
X135915171Y-109268447D01*
X135922385Y-109257415D01*
X135929309Y-109245545D01*
X135935880Y-109233180D01*
X135942033Y-109220664D01*
X135952827Y-109196544D01*
X135961176Y-109175924D01*
X135962198Y-109173153D01*
X136804517Y-109173153D01*
X136805580Y-109221596D01*
X136808156Y-109267870D01*
X136812195Y-109311989D01*
X136817652Y-109353965D01*
X136824479Y-109393809D01*
X136832629Y-109431535D01*
X136842054Y-109467154D01*
X136852708Y-109500679D01*
X136864544Y-109532122D01*
X136877513Y-109561495D01*
X136891570Y-109588810D01*
X136906667Y-109614081D01*
X136922757Y-109637318D01*
X136939792Y-109658534D01*
X136957726Y-109677742D01*
X136971101Y-109688254D01*
X136984373Y-109698039D01*
X136997540Y-109707103D01*
X137010600Y-109715452D01*
X137023552Y-109723090D01*
X137036395Y-109730023D01*
X137049127Y-109736256D01*
X137061746Y-109741795D01*
X137074251Y-109746645D01*
X137086641Y-109750811D01*
X137098914Y-109754299D01*
X137111069Y-109757113D01*
X137123105Y-109759260D01*
X137135019Y-109760745D01*
X137146811Y-109761572D01*
X137158478Y-109761747D01*
X137173295Y-109761024D01*
X137187900Y-109759245D01*
X137202291Y-109756420D01*
X137216465Y-109752562D01*
X137230418Y-109747682D01*
X137244148Y-109741791D01*
X137257651Y-109734901D01*
X137270923Y-109727024D01*
X137283963Y-109718171D01*
X137296767Y-109708352D01*
X137309331Y-109697581D01*
X137321652Y-109685868D01*
X137333728Y-109673225D01*
X137335196Y-109671541D01*
X137608807Y-109671541D01*
X137609194Y-109686973D01*
X137610599Y-109702074D01*
X137612964Y-109716747D01*
X137616228Y-109730897D01*
X137620334Y-109744428D01*
X137625223Y-109757247D01*
X137630837Y-109769256D01*
X137637116Y-109780361D01*
X137644002Y-109790466D01*
X137651436Y-109799477D01*
X137659360Y-109807297D01*
X137663487Y-109810731D01*
X137667714Y-109813831D01*
X137672034Y-109816587D01*
X137676440Y-109818985D01*
X137680924Y-109821014D01*
X137685480Y-109822662D01*
X137690099Y-109823917D01*
X137694774Y-109824767D01*
X137699498Y-109825201D01*
X137704264Y-109825206D01*
X137708498Y-109824845D01*
X137712753Y-109824132D01*
X137717026Y-109823060D01*
X137721309Y-109821621D01*
X137725600Y-109819805D01*
X137729892Y-109817606D01*
X137734180Y-109815014D01*
X137738460Y-109812022D01*
X137742726Y-109808621D01*
X137746974Y-109804803D01*
X137751198Y-109800561D01*
X137755393Y-109795886D01*
X137759554Y-109790769D01*
X137763676Y-109785202D01*
X137767755Y-109779178D01*
X137771784Y-109772689D01*
X137775759Y-109765725D01*
X137779676Y-109758279D01*
X137783528Y-109750343D01*
X137787311Y-109741908D01*
X137791020Y-109732966D01*
X137794649Y-109723509D01*
X137798195Y-109713530D01*
X137801651Y-109703018D01*
X137805012Y-109691968D01*
X137808274Y-109680370D01*
X137811432Y-109668216D01*
X137814480Y-109655498D01*
X137817414Y-109642208D01*
X137820227Y-109628337D01*
X137822917Y-109613878D01*
X137825476Y-109598822D01*
X137837617Y-109554161D01*
X137847902Y-109505449D01*
X137856536Y-109453575D01*
X137863723Y-109399427D01*
X137874570Y-109287868D01*
X137882077Y-109177885D01*
X137893597Y-108991102D01*
X137896940Y-108956505D01*
X137900875Y-108928527D01*
X137905608Y-108908056D01*
X137911342Y-108895981D01*
X137915116Y-108892471D01*
X137920085Y-108889504D01*
X137926178Y-108887057D01*
X137933320Y-108885105D01*
X137941439Y-108883625D01*
X137950462Y-108882594D01*
X137970926Y-108881779D01*
X137994129Y-108882469D01*
X138019486Y-108884474D01*
X138046411Y-108887601D01*
X138074321Y-108891661D01*
X138102632Y-108896461D01*
X138130757Y-108901812D01*
X138184118Y-108913398D01*
X138229726Y-108924890D01*
X138262907Y-108934759D01*
X138276225Y-108938419D01*
X138290574Y-108940865D01*
X138305646Y-108942119D01*
X138321133Y-108942202D01*
X138336727Y-108941136D01*
X138352121Y-108938942D01*
X138367006Y-108935643D01*
X138381074Y-108931259D01*
X138394018Y-108925813D01*
X138399972Y-108922699D01*
X138405530Y-108919327D01*
X138410652Y-108915700D01*
X138415301Y-108911821D01*
X138419438Y-108907693D01*
X138423025Y-108903318D01*
X138426022Y-108898700D01*
X138428392Y-108893840D01*
X138430096Y-108888741D01*
X138431096Y-108883407D01*
X138431352Y-108877840D01*
X138430827Y-108872042D01*
X138429483Y-108866017D01*
X138427280Y-108859766D01*
X138425019Y-108853457D01*
X138422531Y-108847503D01*
X138419832Y-108841893D01*
X138416939Y-108836615D01*
X138413870Y-108831657D01*
X138410641Y-108827008D01*
X138407270Y-108822655D01*
X138403773Y-108818587D01*
X138400168Y-108814793D01*
X138396471Y-108811259D01*
X138392699Y-108807976D01*
X138388870Y-108804930D01*
X138385000Y-108802110D01*
X138381107Y-108799505D01*
X138373319Y-108794889D01*
X138365640Y-108790991D01*
X138358208Y-108787714D01*
X138351158Y-108784965D01*
X138344627Y-108782649D01*
X138333663Y-108778944D01*
X138329504Y-108777365D01*
X138326407Y-108775844D01*
X138297621Y-108766182D01*
X138229927Y-108746703D01*
X138136176Y-108722551D01*
X138029220Y-108698869D01*
X137974807Y-108688810D01*
X137921911Y-108680798D01*
X137872141Y-108675474D01*
X137827101Y-108673481D01*
X137806857Y-108673935D01*
X137788399Y-108675463D01*
X137771926Y-108678145D01*
X137757640Y-108682062D01*
X137745742Y-108687294D01*
X137736433Y-108693921D01*
X137729912Y-108702023D01*
X137726382Y-108711682D01*
X137719352Y-108751108D01*
X137713704Y-108787216D01*
X137708974Y-108822338D01*
X137704700Y-108858805D01*
X137682891Y-109064777D01*
X137673689Y-109139023D01*
X137662588Y-109217810D01*
X137638451Y-109380840D01*
X137627299Y-109460998D01*
X137618013Y-109537529D01*
X137611536Y-109608391D01*
X137609644Y-109641057D01*
X137608807Y-109671541D01*
X137335196Y-109671541D01*
X137345555Y-109659662D01*
X137357130Y-109645193D01*
X137368450Y-109629828D01*
X137373245Y-109619745D01*
X137377546Y-109609627D01*
X137381346Y-109599520D01*
X137384637Y-109589467D01*
X137387413Y-109579513D01*
X137389667Y-109569703D01*
X137391392Y-109560081D01*
X137392581Y-109550692D01*
X137393227Y-109541579D01*
X137393324Y-109532789D01*
X137392863Y-109524364D01*
X137391840Y-109516350D01*
X137390245Y-109508790D01*
X137388073Y-109501731D01*
X137385317Y-109495215D01*
X137381970Y-109489288D01*
X137378024Y-109483994D01*
X137373474Y-109479378D01*
X137368311Y-109475484D01*
X137362529Y-109472356D01*
X137356122Y-109470039D01*
X137349082Y-109468577D01*
X137341402Y-109468016D01*
X137333076Y-109468399D01*
X137324096Y-109469772D01*
X137314456Y-109472177D01*
X137304148Y-109475661D01*
X137293167Y-109480267D01*
X137281504Y-109486040D01*
X137269153Y-109493025D01*
X137256107Y-109501266D01*
X137242360Y-109510807D01*
X137240070Y-109512610D01*
X137236782Y-109514834D01*
X137232562Y-109517352D01*
X137227479Y-109520034D01*
X137221603Y-109522750D01*
X137215002Y-109525373D01*
X137207745Y-109527773D01*
X137203892Y-109528850D01*
X137199901Y-109529822D01*
X137195780Y-109530674D01*
X137191538Y-109531390D01*
X137187183Y-109531954D01*
X137182725Y-109532349D01*
X137178171Y-109532559D01*
X137173531Y-109532569D01*
X137168812Y-109532362D01*
X137164024Y-109531922D01*
X137159175Y-109531233D01*
X137154274Y-109530279D01*
X137149329Y-109529043D01*
X137144348Y-109527510D01*
X137139342Y-109525664D01*
X137134317Y-109523488D01*
X137129283Y-109520966D01*
X137124248Y-109518083D01*
X137112090Y-109511019D01*
X137108462Y-109508807D01*
X137104629Y-109506341D01*
X137100608Y-109503581D01*
X137096414Y-109500490D01*
X137092063Y-109497029D01*
X137087570Y-109493161D01*
X137082951Y-109488848D01*
X137078222Y-109484050D01*
X137073398Y-109478730D01*
X137070956Y-109475862D01*
X137068495Y-109472849D01*
X137066019Y-109469687D01*
X137063529Y-109466370D01*
X137061027Y-109462894D01*
X137058516Y-109459254D01*
X137050431Y-109446372D01*
X137043014Y-109432908D01*
X137036247Y-109418905D01*
X137030113Y-109404403D01*
X137019674Y-109374065D01*
X137011560Y-109342220D01*
X137005633Y-109309194D01*
X137001754Y-109275313D01*
X136999788Y-109240903D01*
X136999594Y-109206291D01*
X137001037Y-109171802D01*
X137003978Y-109137762D01*
X137008279Y-109104498D01*
X137013803Y-109072334D01*
X137020411Y-109041599D01*
X137027967Y-109012617D01*
X137036332Y-108985714D01*
X137045369Y-108961218D01*
X137059661Y-108928474D01*
X137074317Y-108898736D01*
X137089361Y-108871954D01*
X137097034Y-108859657D01*
X137104813Y-108848081D01*
X137112698Y-108837220D01*
X137120695Y-108827069D01*
X137128804Y-108817620D01*
X137137029Y-108808868D01*
X137145372Y-108800808D01*
X137153837Y-108793432D01*
X137162426Y-108786735D01*
X137171141Y-108780711D01*
X137179986Y-108775354D01*
X137188962Y-108770658D01*
X137198074Y-108766617D01*
X137207324Y-108763224D01*
X137216713Y-108760474D01*
X137226246Y-108758361D01*
X137235925Y-108756879D01*
X137245752Y-108756021D01*
X137255730Y-108755782D01*
X137265863Y-108756156D01*
X137276152Y-108757136D01*
X137286600Y-108758717D01*
X137297211Y-108760892D01*
X137307987Y-108763656D01*
X137318930Y-108767002D01*
X137330044Y-108770924D01*
X137351131Y-108778552D01*
X137369736Y-108784679D01*
X137386049Y-108789435D01*
X137400261Y-108792949D01*
X137412562Y-108795352D01*
X137423144Y-108796774D01*
X137432197Y-108797344D01*
X137439911Y-108797193D01*
X137446478Y-108796451D01*
X137452086Y-108795246D01*
X137456928Y-108793710D01*
X137461194Y-108791972D01*
X137468760Y-108788410D01*
X137472442Y-108786846D01*
X137476309Y-108785600D01*
X137478935Y-108784363D01*
X137481733Y-108782003D01*
X137484627Y-108778585D01*
X137487546Y-108774179D01*
X137490415Y-108768850D01*
X137493161Y-108762665D01*
X137495711Y-108755693D01*
X137497990Y-108747999D01*
X137499926Y-108739651D01*
X137501445Y-108730716D01*
X137502472Y-108721260D01*
X137502936Y-108711352D01*
X137502762Y-108701058D01*
X137501876Y-108690445D01*
X137500206Y-108679581D01*
X137497677Y-108668531D01*
X137494216Y-108657364D01*
X137489750Y-108646147D01*
X137484205Y-108634946D01*
X137477508Y-108623828D01*
X137469584Y-108612862D01*
X137460361Y-108602112D01*
X137449764Y-108591648D01*
X137437722Y-108581535D01*
X137424158Y-108571842D01*
X137409002Y-108562634D01*
X137392178Y-108553979D01*
X137373613Y-108545944D01*
X137353234Y-108538597D01*
X137330967Y-108532003D01*
X137306739Y-108526231D01*
X137280476Y-108521348D01*
X137253526Y-108517760D01*
X137227289Y-108515815D01*
X137201773Y-108515492D01*
X137176984Y-108516771D01*
X137152929Y-108519634D01*
X137129614Y-108524058D01*
X137107047Y-108530026D01*
X137085232Y-108537517D01*
X137064178Y-108546511D01*
X137043891Y-108556988D01*
X137024378Y-108568928D01*
X137005644Y-108582312D01*
X136987697Y-108597120D01*
X136970544Y-108613332D01*
X136954190Y-108630927D01*
X136938644Y-108649886D01*
X136923910Y-108670190D01*
X136909997Y-108691818D01*
X136896910Y-108714750D01*
X136884656Y-108738967D01*
X136873242Y-108764448D01*
X136862674Y-108791174D01*
X136852960Y-108819126D01*
X136844105Y-108848282D01*
X136836117Y-108878624D01*
X136829001Y-108910130D01*
X136822765Y-108942783D01*
X136817415Y-108976561D01*
X136812959Y-109011444D01*
X136809401Y-109047414D01*
X136806750Y-109084449D01*
X136805011Y-109122531D01*
X136804517Y-109173153D01*
X135962198Y-109173153D01*
X135968473Y-109156141D01*
X135991484Y-109093840D01*
X136011693Y-109034929D01*
X136029162Y-108979390D01*
X136043954Y-108927208D01*
X136056129Y-108878368D01*
X136065749Y-108832854D01*
X136072877Y-108790650D01*
X136077573Y-108751742D01*
X136076475Y-108725648D01*
X136073958Y-108701688D01*
X136070114Y-108679806D01*
X136065032Y-108659945D01*
X136058806Y-108642047D01*
X136051526Y-108626057D01*
X136043284Y-108611917D01*
X136034172Y-108599570D01*
X136024280Y-108588960D01*
X136013701Y-108580030D01*
X136002525Y-108572722D01*
X135990845Y-108566981D01*
X135978752Y-108562750D01*
X135966336Y-108559970D01*
X135953691Y-108558587D01*
X135940906Y-108558543D01*
X135928075Y-108559780D01*
X135915287Y-108562244D01*
X135902635Y-108565875D01*
X135890210Y-108570619D01*
X135878103Y-108576417D01*
X135866406Y-108583213D01*
X135855211Y-108590951D01*
X135844609Y-108599573D01*
X135834691Y-108609023D01*
X135825549Y-108619244D01*
X135817274Y-108630178D01*
X135809959Y-108641770D01*
X135803693Y-108653963D01*
X135798569Y-108666699D01*
X135794678Y-108679922D01*
X135792112Y-108693575D01*
X135782454Y-108759456D01*
X135768621Y-108837904D01*
X135735163Y-109006177D01*
X135692232Y-109203972D01*
X135599297Y-109193513D01*
X135589579Y-109163470D01*
X135578528Y-109131149D01*
X135564320Y-109091948D01*
X135547686Y-109049356D01*
X135538688Y-109027879D01*
X135529357Y-109006862D01*
X135519784Y-108986742D01*
X135510061Y-108967954D01*
X135500279Y-108950936D01*
X135490528Y-108936123D01*
X135470568Y-108907714D01*
X135450772Y-108881719D01*
X135431191Y-108858073D01*
X135411873Y-108836713D01*
X135392868Y-108817574D01*
X135374225Y-108800593D01*
X135355993Y-108785707D01*
X135338223Y-108772851D01*
X135320964Y-108761962D01*
X135304264Y-108752976D01*
X135288173Y-108745828D01*
X135272741Y-108740456D01*
X135258018Y-108736796D01*
X135244051Y-108734782D01*
X135230891Y-108734353D01*
X135218588Y-108735444D01*
X135207190Y-108737991D01*
X135196748Y-108741930D01*
X135187309Y-108747198D01*
X135178925Y-108753731D01*
X135171643Y-108761465D01*
X135165515Y-108770336D01*
X135160588Y-108780280D01*
X135156912Y-108791234D01*
X135154538Y-108803134D01*
X135153513Y-108815916D01*
X133084631Y-108815916D01*
X133248474Y-108771710D01*
X133686481Y-108645029D01*
X134119560Y-108514766D01*
X134559795Y-108387230D01*
X134786373Y-108326456D01*
X135019272Y-108268731D01*
X135260003Y-108214843D01*
X135510077Y-108165580D01*
X135771004Y-108121733D01*
X136044294Y-108084088D01*
X136331459Y-108053436D01*
X136634009Y-108030565D01*
X136953455Y-108016264D01*
X137291307Y-108011322D01*
X137453717Y-108017086D01*
G37*
G36*
X122662500Y-114216667D02*
G01*
X122662500Y-114745833D01*
X122662500Y-115274999D01*
X122662500Y-115804166D01*
X122662500Y-116333333D01*
X122662500Y-116862500D01*
X123191667Y-116862500D01*
X123720834Y-116862500D01*
X123720834Y-117391666D01*
X123191667Y-117391666D01*
X122662500Y-117391666D01*
X122133333Y-117391666D01*
X121604167Y-117391666D01*
X121604167Y-116862500D01*
X121604167Y-116333333D01*
X121604167Y-115804166D01*
X122133333Y-115804166D01*
X122133333Y-115274999D01*
X122133333Y-114745833D01*
X122133333Y-114216667D01*
X122133333Y-113687500D01*
X122662500Y-113687500D01*
X122662500Y-114216667D01*
G37*
G36*
X126895833Y-117920832D02*
G01*
X126366667Y-117920832D01*
X126366667Y-117391666D01*
X126895833Y-117391666D01*
X126895833Y-117920832D01*
G37*
G36*
X124250000Y-115804166D02*
G01*
X123720834Y-115804166D01*
X123720834Y-116333333D01*
X123191667Y-116333333D01*
X123191667Y-115804166D01*
X123191667Y-115274999D01*
X123720834Y-115274999D01*
X124250000Y-115274999D01*
X124250000Y-115804166D01*
G37*
G36*
X126895833Y-114216667D02*
G01*
X126895833Y-114745833D01*
X126366667Y-114745833D01*
X126366667Y-114216667D01*
X126366667Y-113687500D01*
X126895833Y-113687500D01*
X126895833Y-114216667D01*
G37*
G36*
X139510089Y-109414874D02*
G01*
X139512745Y-109416968D01*
X139522996Y-109422090D01*
X139559460Y-109436366D01*
X139609985Y-109456591D01*
X139637813Y-109469149D01*
X139665907Y-109483453D01*
X139693183Y-109499587D01*
X139706177Y-109508367D01*
X139718559Y-109517637D01*
X139730196Y-109527408D01*
X139740952Y-109537691D01*
X139750691Y-109548495D01*
X139759277Y-109559833D01*
X139766576Y-109571714D01*
X139772453Y-109584149D01*
X139776771Y-109597150D01*
X139779395Y-109610726D01*
X139780190Y-109624889D01*
X139779020Y-109639649D01*
X139775751Y-109655017D01*
X139770246Y-109671004D01*
X139767891Y-109676486D01*
X139765414Y-109681732D01*
X139762819Y-109686745D01*
X139760108Y-109691529D01*
X139757285Y-109696088D01*
X139754354Y-109700426D01*
X139751316Y-109704546D01*
X139748176Y-109708453D01*
X139744937Y-109712150D01*
X139741602Y-109715642D01*
X139738174Y-109718931D01*
X139734657Y-109722022D01*
X139731053Y-109724920D01*
X139727366Y-109727627D01*
X139723599Y-109730147D01*
X139719755Y-109732485D01*
X139715838Y-109734645D01*
X139711850Y-109736629D01*
X139707795Y-109738443D01*
X139703677Y-109740090D01*
X139699498Y-109741573D01*
X139695261Y-109742897D01*
X139690970Y-109744066D01*
X139686628Y-109745083D01*
X139677804Y-109746678D01*
X139668814Y-109747714D01*
X139659684Y-109748220D01*
X139650440Y-109748229D01*
X139632568Y-109746976D01*
X139614553Y-109744239D01*
X139596573Y-109740233D01*
X139578808Y-109735175D01*
X139561435Y-109729281D01*
X139544635Y-109722766D01*
X139528586Y-109715847D01*
X139513467Y-109708739D01*
X139486733Y-109694821D01*
X139465866Y-109682741D01*
X139447455Y-109671004D01*
X139509260Y-109413076D01*
X139510089Y-109414874D01*
G37*
G36*
X120545834Y-120037499D02*
G01*
X120016667Y-120037499D01*
X120016667Y-119508333D01*
X120545834Y-119508333D01*
X120545834Y-120037499D01*
G37*
G36*
X118429167Y-110512500D02*
G01*
X118429167Y-111041667D01*
X118429167Y-111570833D01*
X117900001Y-111570833D01*
X117370834Y-111570833D01*
X116841667Y-111570833D01*
X116841667Y-111041667D01*
X116841667Y-110512500D01*
X116841667Y-109983333D01*
X117370834Y-109983333D01*
X117900001Y-109983333D01*
X118429167Y-109983333D01*
X118429167Y-110512500D01*
G37*
G36*
X123720834Y-118450000D02*
G01*
X123720834Y-118979166D01*
X123720834Y-119508333D01*
X123720834Y-120037499D01*
X123191667Y-120037499D01*
X122662500Y-120037499D01*
X122133333Y-120037499D01*
X121604167Y-120037499D01*
X121075001Y-120037499D01*
X121075001Y-119508333D01*
X120545834Y-119508333D01*
X120545834Y-118979166D01*
X121075001Y-118979166D01*
X121604167Y-118979166D01*
X122133333Y-118979166D01*
X122133333Y-119508333D01*
X123191667Y-119508333D01*
X123191667Y-118979166D01*
X122662500Y-118979166D01*
X122662500Y-118450000D01*
X123191667Y-118450000D01*
X123191667Y-117920832D01*
X123720834Y-117920832D01*
X123720834Y-118450000D01*
G37*
G36*
X119487500Y-116862500D02*
G01*
X119487500Y-117391666D01*
X119487500Y-117920832D01*
X119487500Y-118450000D01*
X119487500Y-118979166D01*
X119487500Y-119508333D01*
X119487500Y-120037499D01*
X118958334Y-120037499D01*
X118429167Y-120037499D01*
X117900001Y-120037499D01*
X117370834Y-120037499D01*
X116841667Y-120037499D01*
X116312501Y-120037499D01*
X115783334Y-120037499D01*
X115783334Y-119508333D01*
X115783334Y-118979166D01*
X115783334Y-118450000D01*
X115783334Y-117920832D01*
X116312501Y-117920832D01*
X116312501Y-118450000D01*
X116312501Y-118979166D01*
X116312501Y-119508333D01*
X116841667Y-119508333D01*
X117370834Y-119508333D01*
X117900001Y-119508333D01*
X118429167Y-119508333D01*
X118958334Y-119508333D01*
X118958334Y-118979166D01*
X118958334Y-118450000D01*
X118958334Y-117920832D01*
X118958334Y-117391666D01*
X118958334Y-116862500D01*
X118429167Y-116862500D01*
X117900001Y-116862500D01*
X117370834Y-116862500D01*
X116841667Y-116862500D01*
X116312501Y-116862500D01*
X116312501Y-117391666D01*
X116312501Y-117920832D01*
X115783334Y-117920832D01*
X115783334Y-117391666D01*
X115783334Y-116862500D01*
X115783334Y-116333333D01*
X116312501Y-116333333D01*
X116841667Y-116333333D01*
X117370834Y-116333333D01*
X117900001Y-116333333D01*
X118429167Y-116333333D01*
X118958334Y-116333333D01*
X119487500Y-116333333D01*
X119487500Y-116862500D01*
G37*
G36*
X122662500Y-112629166D02*
G01*
X122133333Y-112629166D01*
X122133333Y-112100000D01*
X122662500Y-112100000D01*
X122662500Y-112629166D01*
G37*
G36*
X119487500Y-114745833D02*
G01*
X118958334Y-114745833D01*
X118958334Y-114216667D01*
X119487500Y-114216667D01*
X119487500Y-114745833D01*
G37*
G36*
X121075001Y-109454167D02*
G01*
X121604167Y-109454167D01*
X122133333Y-109454167D01*
X122133333Y-108925000D01*
X122662500Y-108925000D01*
X122662500Y-109454167D01*
X122662500Y-109983333D01*
X122662500Y-110512500D01*
X122662500Y-111041667D01*
X122662500Y-111570833D01*
X122133333Y-111570833D01*
X122133333Y-111041667D01*
X121604167Y-111041667D01*
X121604167Y-110512500D01*
X122133333Y-110512500D01*
X122133333Y-109983333D01*
X121604167Y-109983333D01*
X121604167Y-110512500D01*
X121075001Y-110512500D01*
X121075001Y-111041667D01*
X120545834Y-111041667D01*
X120545834Y-111570833D01*
X120545834Y-112100000D01*
X120545834Y-112629166D01*
X121075001Y-112629166D01*
X121075001Y-113158333D01*
X121075001Y-113687500D01*
X121604167Y-113687500D01*
X121604167Y-114216667D01*
X121604167Y-114745833D01*
X121604167Y-115274999D01*
X121604167Y-115804166D01*
X121075001Y-115804166D01*
X121075001Y-115274999D01*
X121075001Y-114745833D01*
X120545834Y-114745833D01*
X120545834Y-114216667D01*
X120016667Y-114216667D01*
X120016667Y-113687500D01*
X120545834Y-113687500D01*
X120545834Y-113158333D01*
X120016667Y-113158333D01*
X120016667Y-112629166D01*
X120016667Y-112100000D01*
X120016667Y-111570833D01*
X120016667Y-111041667D01*
X120016667Y-110512500D01*
X120016667Y-109983333D01*
X120545834Y-109983333D01*
X120545834Y-110512500D01*
X121075001Y-110512500D01*
X121075001Y-109983333D01*
X120545834Y-109983333D01*
X120545834Y-109454167D01*
X120545834Y-108925000D01*
X121075001Y-108925000D01*
X121075001Y-109454167D01*
G37*
G36*
X139424944Y-109844840D02*
G01*
X139450382Y-109856882D01*
X139467223Y-109865631D01*
X139485868Y-109876079D01*
X139505612Y-109888137D01*
X139525748Y-109901717D01*
X139545569Y-109916728D01*
X139555140Y-109924743D01*
X139564368Y-109933082D01*
X139573163Y-109941735D01*
X139581438Y-109950690D01*
X139589105Y-109959935D01*
X139596074Y-109969461D01*
X139602257Y-109979255D01*
X139607567Y-109989307D01*
X139611914Y-109999605D01*
X139615211Y-110010139D01*
X139617369Y-110020896D01*
X139618300Y-110031866D01*
X139617915Y-110043039D01*
X139616127Y-110054401D01*
X139614960Y-110059303D01*
X139613665Y-110063989D01*
X139612243Y-110068464D01*
X139610697Y-110072730D01*
X139609028Y-110076791D01*
X139607240Y-110080650D01*
X139605333Y-110084311D01*
X139603309Y-110087778D01*
X139601172Y-110091054D01*
X139598923Y-110094142D01*
X139596564Y-110097045D01*
X139594097Y-110099768D01*
X139591524Y-110102314D01*
X139588848Y-110104686D01*
X139586069Y-110106887D01*
X139583192Y-110108921D01*
X139580217Y-110110792D01*
X139577146Y-110112503D01*
X139573982Y-110114057D01*
X139570727Y-110115458D01*
X139567383Y-110116709D01*
X139563951Y-110117814D01*
X139560435Y-110118776D01*
X139556835Y-110119599D01*
X139553155Y-110120286D01*
X139549395Y-110120841D01*
X139541649Y-110121566D01*
X139533611Y-110121804D01*
X139525300Y-110121581D01*
X139514239Y-110120661D01*
X139502787Y-110119084D01*
X139490980Y-110116908D01*
X139478853Y-110114192D01*
X139466442Y-110110993D01*
X139453781Y-110107371D01*
X139427854Y-110099090D01*
X139321240Y-110060727D01*
X139415209Y-109840668D01*
X139424944Y-109844840D01*
G37*
G36*
X125837500Y-113687500D02*
G01*
X125308334Y-113687500D01*
X124779166Y-113687500D01*
X124250000Y-113687500D01*
X124250000Y-114216667D01*
X123720834Y-114216667D01*
X123720834Y-113687500D01*
X123191667Y-113687500D01*
X123191667Y-113158333D01*
X123720834Y-113158333D01*
X124250000Y-113158333D01*
X124779166Y-113158333D01*
X125308334Y-113158333D01*
X125837500Y-113158333D01*
X125837500Y-113687500D01*
G37*
G36*
X133972091Y-109924982D02*
G01*
X133980725Y-109995202D01*
X133988724Y-110076036D01*
X133991748Y-110117284D01*
X133993729Y-110157404D01*
X133994372Y-110195138D01*
X133993381Y-110229224D01*
X133990462Y-110258403D01*
X133988188Y-110270758D01*
X133985321Y-110281415D01*
X133981824Y-110290214D01*
X133977662Y-110296999D01*
X133972796Y-110301612D01*
X133967190Y-110303895D01*
X133966385Y-110304015D01*
X133965566Y-110304091D01*
X133964733Y-110304121D01*
X133963886Y-110304106D01*
X133963025Y-110304046D01*
X133962150Y-110303939D01*
X133961261Y-110303786D01*
X133960358Y-110303587D01*
X133959439Y-110303340D01*
X133958507Y-110303045D01*
X133957559Y-110302702D01*
X133956597Y-110302312D01*
X133955620Y-110301872D01*
X133954627Y-110301383D01*
X133953620Y-110300845D01*
X133952597Y-110300257D01*
X133680737Y-109904788D01*
X133962353Y-109856708D01*
X133972091Y-109924982D01*
G37*
G36*
X130726626Y-107862978D02*
G01*
X130733706Y-108061868D01*
X130750285Y-108312436D01*
X130780210Y-108603175D01*
X130801380Y-108760015D01*
X130827329Y-108922583D01*
X130858538Y-109089441D01*
X130895488Y-109259152D01*
X130938660Y-109430278D01*
X130988535Y-109601380D01*
X131043076Y-109770617D01*
X131099452Y-109936449D01*
X131156951Y-110097891D01*
X131214859Y-110253960D01*
X131272464Y-110403671D01*
X131329054Y-110546038D01*
X131436335Y-110804802D01*
X131531002Y-111022375D01*
X131607353Y-111190879D01*
X131682304Y-111349165D01*
X131685158Y-111355191D01*
X131687818Y-111361521D01*
X131690216Y-111368069D01*
X131692284Y-111374747D01*
X131693955Y-111381468D01*
X131694620Y-111384818D01*
X131695160Y-111388146D01*
X131695566Y-111391442D01*
X131695831Y-111394694D01*
X131695946Y-111397892D01*
X131695902Y-111401025D01*
X131695691Y-111404082D01*
X131695304Y-111407052D01*
X131694732Y-111409925D01*
X131693968Y-111412689D01*
X131693003Y-111415334D01*
X131691828Y-111417849D01*
X131690436Y-111420223D01*
X131688816Y-111422444D01*
X131686962Y-111424503D01*
X131684863Y-111426389D01*
X131682513Y-111428090D01*
X131679903Y-111429596D01*
X131677023Y-111430895D01*
X131673866Y-111431978D01*
X131670423Y-111432833D01*
X131666685Y-111433449D01*
X131662855Y-111433854D01*
X131659139Y-111434091D01*
X131655539Y-111434170D01*
X131652055Y-111434100D01*
X131648686Y-111433893D01*
X131645435Y-111433558D01*
X131642300Y-111433105D01*
X131639283Y-111432545D01*
X131636384Y-111431888D01*
X131633603Y-111431145D01*
X131630942Y-111430324D01*
X131628399Y-111429437D01*
X131625976Y-111428494D01*
X131623673Y-111427505D01*
X131621491Y-111426480D01*
X131619430Y-111425430D01*
X131617491Y-111424364D01*
X131615673Y-111423292D01*
X131613978Y-111422226D01*
X131612405Y-111421175D01*
X131609631Y-111419160D01*
X131607352Y-111417328D01*
X131605574Y-111415760D01*
X131604300Y-111414540D01*
X131603276Y-111413466D01*
X131568869Y-111364295D01*
X131501335Y-111246774D01*
X131407467Y-111069743D01*
X131294059Y-110842045D01*
X131167904Y-110572518D01*
X131035796Y-110270004D01*
X130904528Y-109943345D01*
X130780894Y-109601380D01*
X130725049Y-109428350D01*
X130674882Y-109256720D01*
X130630113Y-109087677D01*
X130590462Y-108922410D01*
X130555652Y-108762107D01*
X130525402Y-108607956D01*
X130499434Y-108461146D01*
X130477468Y-108322865D01*
X130444429Y-108076643D01*
X130424051Y-107878795D01*
X130414102Y-107738828D01*
X130412349Y-107666248D01*
X130725579Y-107666248D01*
X130726626Y-107862978D01*
G37*
G36*
X122133333Y-113687500D02*
G01*
X121604167Y-113687500D01*
X121604167Y-113158333D01*
X122133333Y-113158333D01*
X122133333Y-113687500D01*
G37*
G36*
X125308334Y-120037499D02*
G01*
X124779166Y-120037499D01*
X124250000Y-120037499D01*
X124250000Y-119508333D01*
X124779166Y-119508333D01*
X125308334Y-119508333D01*
X125308334Y-120037499D01*
G37*
G36*
X132060299Y-114804965D02*
G01*
X132078539Y-114806920D01*
X132096625Y-114810139D01*
X132114497Y-114814617D01*
X132132091Y-114820350D01*
X132149346Y-114827332D01*
X132166202Y-114835559D01*
X132182595Y-114845028D01*
X132198465Y-114855732D01*
X132213553Y-114867521D01*
X132227626Y-114880190D01*
X132240663Y-114893680D01*
X132252638Y-114907936D01*
X132263529Y-114922899D01*
X132273312Y-114938512D01*
X132281964Y-114954718D01*
X132289462Y-114971461D01*
X132295782Y-114988682D01*
X132300902Y-115006324D01*
X132304797Y-115024331D01*
X132307444Y-115042645D01*
X132308821Y-115061209D01*
X132308903Y-115079966D01*
X132307668Y-115098858D01*
X132305092Y-115117828D01*
X132164387Y-115938195D01*
X132119673Y-116199021D01*
X132071730Y-116478580D01*
X132282602Y-116684109D01*
X132472097Y-116868840D01*
X132472202Y-116868788D01*
X133060477Y-117442246D01*
X133073708Y-117456073D01*
X133085810Y-117470626D01*
X133096767Y-117485846D01*
X133106564Y-117501671D01*
X133115187Y-117518042D01*
X133122620Y-117534899D01*
X133128849Y-117552181D01*
X133133859Y-117569828D01*
X133137635Y-117587780D01*
X133140162Y-117605977D01*
X133141425Y-117624359D01*
X133141410Y-117642866D01*
X133140101Y-117661437D01*
X133137483Y-117680013D01*
X133133542Y-117698532D01*
X133128263Y-117716936D01*
X133121719Y-117734920D01*
X133114024Y-117752212D01*
X133105225Y-117768773D01*
X133095371Y-117784563D01*
X133084507Y-117799541D01*
X133072682Y-117813668D01*
X133059942Y-117826903D01*
X133046335Y-117839206D01*
X133031909Y-117850538D01*
X133016709Y-117860858D01*
X133000785Y-117870126D01*
X132984183Y-117878303D01*
X132966950Y-117885347D01*
X132949134Y-117891219D01*
X132930781Y-117895879D01*
X132911940Y-117899287D01*
X132093372Y-118018243D01*
X131831435Y-118056290D01*
X131545578Y-118097830D01*
X131414768Y-118362889D01*
X131297664Y-118600220D01*
X130934550Y-119335974D01*
X130925489Y-119352833D01*
X130915389Y-119368843D01*
X130904301Y-119383970D01*
X130892279Y-119398181D01*
X130879374Y-119411444D01*
X130865640Y-119423726D01*
X130851129Y-119434993D01*
X130835893Y-119445213D01*
X130819987Y-119454354D01*
X130803461Y-119462383D01*
X130786369Y-119469266D01*
X130768763Y-119474971D01*
X130750696Y-119479466D01*
X130732221Y-119482717D01*
X130713390Y-119484692D01*
X130694256Y-119485357D01*
X130684654Y-119485190D01*
X130675121Y-119484692D01*
X130665665Y-119483866D01*
X130656290Y-119482717D01*
X130647005Y-119481249D01*
X130637815Y-119479466D01*
X130628727Y-119477372D01*
X130619748Y-119474971D01*
X130610884Y-119472268D01*
X130602142Y-119469266D01*
X130593529Y-119465970D01*
X130585050Y-119462383D01*
X130576713Y-119458510D01*
X130568524Y-119454354D01*
X130560490Y-119449921D01*
X130552618Y-119445213D01*
X130544913Y-119440236D01*
X130537382Y-119434993D01*
X130530033Y-119429488D01*
X130522871Y-119423726D01*
X130515904Y-119417710D01*
X130509137Y-119411444D01*
X130502578Y-119404933D01*
X130496232Y-119398181D01*
X130490107Y-119391192D01*
X130484210Y-119383970D01*
X130478546Y-119376519D01*
X130473122Y-119368843D01*
X130467945Y-119360947D01*
X130463021Y-119352833D01*
X130458358Y-119344508D01*
X130453961Y-119335974D01*
X130090847Y-118600220D01*
X129973742Y-118362889D01*
X129842932Y-118097883D01*
X129557076Y-118056343D01*
X129295192Y-118018297D01*
X128476624Y-117899340D01*
X128457783Y-117895933D01*
X128439430Y-117891274D01*
X128421614Y-117885405D01*
X128404381Y-117878363D01*
X128387779Y-117870190D01*
X128371855Y-117860926D01*
X128356656Y-117850609D01*
X128342229Y-117839280D01*
X128328622Y-117826978D01*
X128315882Y-117813744D01*
X128304057Y-117799618D01*
X128293193Y-117784638D01*
X128283339Y-117768846D01*
X128274540Y-117752280D01*
X128266845Y-117734981D01*
X128260301Y-117716989D01*
X128255022Y-117698585D01*
X128251081Y-117680066D01*
X128248463Y-117661490D01*
X128247154Y-117642919D01*
X128247139Y-117624412D01*
X128247224Y-117623167D01*
X128549173Y-117623167D01*
X129146814Y-117710004D01*
X129343241Y-117738526D01*
X129605125Y-117776573D01*
X129892039Y-117818271D01*
X129908255Y-117821141D01*
X129924158Y-117824971D01*
X129939711Y-117829735D01*
X129954878Y-117835407D01*
X129969625Y-117841961D01*
X129983913Y-117849371D01*
X129997709Y-117857612D01*
X130010976Y-117866656D01*
X130023678Y-117876479D01*
X130035779Y-117887055D01*
X130047243Y-117898356D01*
X130058035Y-117910358D01*
X130068118Y-117923035D01*
X130077457Y-117936359D01*
X130086015Y-117950306D01*
X130093758Y-117964850D01*
X130224991Y-118230809D01*
X130342095Y-118468140D01*
X130429884Y-118646046D01*
X130694256Y-119181721D01*
X130958628Y-118646046D01*
X131046416Y-118468140D01*
X131163521Y-118230809D01*
X131294807Y-117964850D01*
X131302550Y-117950306D01*
X131311108Y-117936359D01*
X131320448Y-117923035D01*
X131330531Y-117910358D01*
X131341324Y-117898356D01*
X131352789Y-117887055D01*
X131364892Y-117876480D01*
X131377596Y-117866657D01*
X131390865Y-117857612D01*
X131404664Y-117849371D01*
X131418957Y-117841961D01*
X131433709Y-117835407D01*
X131448882Y-117829735D01*
X131464442Y-117824971D01*
X131480353Y-117821141D01*
X131496579Y-117818271D01*
X131783440Y-117776573D01*
X132045377Y-117738526D01*
X132241804Y-117710004D01*
X132242016Y-117710004D01*
X132839657Y-117623167D01*
X132411138Y-117205496D01*
X132269057Y-117067013D01*
X132079562Y-116882281D01*
X131867948Y-116676012D01*
X131856516Y-116664153D01*
X131845903Y-116651702D01*
X131836121Y-116638702D01*
X131827186Y-116625195D01*
X131819110Y-116611222D01*
X131811907Y-116596825D01*
X131805591Y-116582048D01*
X131800175Y-116566931D01*
X131795673Y-116551517D01*
X131792099Y-116535848D01*
X131789466Y-116519967D01*
X131787789Y-116503915D01*
X131787080Y-116487734D01*
X131787353Y-116471466D01*
X131788622Y-116455154D01*
X131790901Y-116438839D01*
X131839002Y-116158275D01*
X131883717Y-115897449D01*
X131917266Y-115701710D01*
X132020241Y-115101424D01*
X131484195Y-115383258D01*
X131308459Y-115475651D01*
X131074197Y-115598788D01*
X130819139Y-115732879D01*
X130811773Y-115736608D01*
X130804323Y-115740097D01*
X130796796Y-115743345D01*
X130789196Y-115746353D01*
X130781529Y-115749120D01*
X130773801Y-115751646D01*
X130766018Y-115753932D01*
X130758185Y-115755977D01*
X130750309Y-115757781D01*
X130742394Y-115759345D01*
X130734446Y-115760669D01*
X130726471Y-115761751D01*
X130718475Y-115762593D01*
X130710463Y-115763195D01*
X130702441Y-115763556D01*
X130694414Y-115763676D01*
X130686388Y-115763556D01*
X130678368Y-115763195D01*
X130670359Y-115762593D01*
X130662366Y-115761751D01*
X130654395Y-115760669D01*
X130646452Y-115759345D01*
X130638542Y-115757781D01*
X130630670Y-115755977D01*
X130622842Y-115753932D01*
X130615064Y-115751646D01*
X130607341Y-115749120D01*
X130599678Y-115746353D01*
X130592081Y-115743345D01*
X130584556Y-115740097D01*
X130577108Y-115736608D01*
X130569743Y-115732879D01*
X130314684Y-115598788D01*
X130080422Y-115475651D01*
X129904686Y-115383258D01*
X129368587Y-115101424D01*
X129471563Y-115701710D01*
X129505112Y-115897449D01*
X129549827Y-116158275D01*
X129597928Y-116438839D01*
X129600216Y-116455154D01*
X129601494Y-116471466D01*
X129601774Y-116487734D01*
X129601070Y-116503915D01*
X129599397Y-116519967D01*
X129596768Y-116535848D01*
X129593195Y-116551517D01*
X129588694Y-116566931D01*
X129583278Y-116582048D01*
X129576960Y-116596825D01*
X129569754Y-116611222D01*
X129561674Y-116625195D01*
X129552733Y-116638702D01*
X129542945Y-116651702D01*
X129532323Y-116664153D01*
X129520882Y-116676012D01*
X129309268Y-116882281D01*
X129119774Y-117067013D01*
X128977692Y-117205496D01*
X128549173Y-117623167D01*
X128247224Y-117623167D01*
X128248402Y-117606030D01*
X128250929Y-117587833D01*
X128254705Y-117569881D01*
X128259715Y-117552234D01*
X128265944Y-117534952D01*
X128273377Y-117518095D01*
X128282000Y-117501724D01*
X128291797Y-117485899D01*
X128302754Y-117470679D01*
X128314856Y-117456126D01*
X128328087Y-117442299D01*
X128916361Y-116868893D01*
X129105856Y-116684162D01*
X129316729Y-116478633D01*
X129268786Y-116199074D01*
X129224072Y-115938248D01*
X129083366Y-115117881D01*
X129081904Y-115108390D01*
X129080781Y-115098910D01*
X129079993Y-115089450D01*
X129079537Y-115080016D01*
X129079412Y-115070617D01*
X129079613Y-115061257D01*
X129080138Y-115051946D01*
X129080983Y-115042691D01*
X129082147Y-115033497D01*
X129083626Y-115024373D01*
X129087517Y-115006363D01*
X129092633Y-114988717D01*
X129098950Y-114971494D01*
X129106446Y-114954749D01*
X129115097Y-114938541D01*
X129124879Y-114922928D01*
X129130187Y-114915362D01*
X129135769Y-114907966D01*
X129141622Y-114900748D01*
X129147743Y-114893714D01*
X129154130Y-114886871D01*
X129160779Y-114880227D01*
X129167687Y-114873790D01*
X129174853Y-114867565D01*
X129182271Y-114861561D01*
X129189940Y-114855785D01*
X129198833Y-114849582D01*
X129207902Y-114843773D01*
X129217135Y-114838359D01*
X129226523Y-114833341D01*
X129236054Y-114828719D01*
X129245716Y-114824495D01*
X129255500Y-114820669D01*
X129265393Y-114817242D01*
X129275384Y-114814215D01*
X129285464Y-114811589D01*
X129295619Y-114809364D01*
X129305840Y-114807542D01*
X129316115Y-114806124D01*
X129326434Y-114805109D01*
X129336784Y-114804500D01*
X129347156Y-114804297D01*
X129355144Y-114804417D01*
X129363133Y-114804779D01*
X129371116Y-114805381D01*
X129379089Y-114806226D01*
X129387047Y-114807313D01*
X129394984Y-114808642D01*
X129402895Y-114810214D01*
X129410775Y-114812029D01*
X129418619Y-114814089D01*
X129426422Y-114816392D01*
X129434179Y-114818940D01*
X129441885Y-114821732D01*
X129449534Y-114824770D01*
X129457122Y-114828053D01*
X129464643Y-114831583D01*
X129472092Y-114835359D01*
X130205782Y-115221068D01*
X130440044Y-115344206D01*
X130694150Y-115477820D01*
X130948309Y-115344206D01*
X131182571Y-115221068D01*
X131916261Y-114835359D01*
X131933507Y-114827041D01*
X131951093Y-114820023D01*
X131968958Y-114814301D01*
X131987040Y-114809870D01*
X132005276Y-114806726D01*
X132023606Y-114804863D01*
X132041968Y-114804278D01*
X132060299Y-114804965D01*
G37*
G36*
X121604167Y-111570833D02*
G01*
X122133333Y-111570833D01*
X122133333Y-112100000D01*
X121604167Y-112100000D01*
X121604167Y-112629166D01*
X121075001Y-112629166D01*
X121075001Y-112100000D01*
X121075001Y-111570833D01*
X121075001Y-111041667D01*
X121604167Y-111041667D01*
X121604167Y-111570833D01*
G37*
G36*
X125837500Y-119508333D02*
G01*
X125308334Y-119508333D01*
X125308334Y-118979166D01*
X125837500Y-118979166D01*
X125837500Y-119508333D01*
G37*
G36*
X116312501Y-113687500D02*
G01*
X116841667Y-113687500D01*
X116841667Y-113158333D01*
X117370834Y-113158333D01*
X117900001Y-113158333D01*
X118429167Y-113158333D01*
X118958334Y-113158333D01*
X119487500Y-113158333D01*
X119487500Y-113687500D01*
X118958334Y-113687500D01*
X118429167Y-113687500D01*
X118429167Y-114216667D01*
X118429167Y-114745833D01*
X118958334Y-114745833D01*
X118958334Y-115274999D01*
X119487500Y-115274999D01*
X120016667Y-115274999D01*
X120016667Y-115804166D01*
X119487500Y-115804166D01*
X118958334Y-115804166D01*
X118429167Y-115804166D01*
X117900001Y-115804166D01*
X117900001Y-115274999D01*
X117370834Y-115274999D01*
X117370834Y-115804166D01*
X116841667Y-115804166D01*
X116312501Y-115804166D01*
X115783334Y-115804166D01*
X115783334Y-115274999D01*
X116312501Y-115274999D01*
X116312501Y-114745833D01*
X116841667Y-114745833D01*
X117370834Y-114745833D01*
X117900001Y-114745833D01*
X117900001Y-114216667D01*
X117900001Y-113687500D01*
X117370834Y-113687500D01*
X116841667Y-113687500D01*
X116841667Y-114216667D01*
X116841667Y-114745833D01*
X116312501Y-114745833D01*
X116312501Y-114216667D01*
X115783334Y-114216667D01*
X115783334Y-113687500D01*
X115783334Y-113158333D01*
X116312501Y-113158333D01*
X116312501Y-113687500D01*
G37*
G36*
X126895833Y-119508333D02*
G01*
X126366667Y-119508333D01*
X126366667Y-118979166D01*
X126895833Y-118979166D01*
X126895833Y-119508333D01*
G37*
G36*
X130314473Y-115598682D02*
G01*
X130134239Y-115963913D01*
X130134239Y-115963859D01*
X130127021Y-115977420D01*
X130119041Y-115990425D01*
X130110334Y-116002849D01*
X130100932Y-116014669D01*
X130090868Y-116025860D01*
X130080177Y-116036398D01*
X130068893Y-116046259D01*
X130057047Y-116055418D01*
X130044675Y-116063852D01*
X130031808Y-116071536D01*
X130018482Y-116078447D01*
X130004729Y-116084559D01*
X129990583Y-116089849D01*
X129976077Y-116094292D01*
X129961245Y-116097865D01*
X129946121Y-116100543D01*
X129549669Y-116158169D01*
X129504955Y-115897343D01*
X129900400Y-115839876D01*
X130080211Y-115475544D01*
X130314473Y-115598682D01*
G37*
G36*
X126895833Y-116333333D02*
G01*
X126366667Y-116333333D01*
X125837500Y-116333333D01*
X125837500Y-116862500D01*
X126366667Y-116862500D01*
X126366667Y-117391666D01*
X125837500Y-117391666D01*
X125837500Y-117920832D01*
X125837500Y-118450000D01*
X125308334Y-118450000D01*
X124779166Y-118450000D01*
X124779166Y-117920832D01*
X125308334Y-117920832D01*
X125308334Y-117391666D01*
X124779166Y-117391666D01*
X124779166Y-116862500D01*
X124779166Y-116333333D01*
X124250000Y-116333333D01*
X124250000Y-115804166D01*
X124779166Y-115804166D01*
X125308334Y-115804166D01*
X125837500Y-115804166D01*
X126366667Y-115804166D01*
X126895833Y-115804166D01*
X126895833Y-116333333D01*
G37*
G36*
X129268840Y-116199074D02*
G01*
X129072414Y-116227596D01*
X128693954Y-116282577D01*
X128963776Y-116545573D01*
X128963776Y-116545678D01*
X129105910Y-116684214D01*
X128916415Y-116868946D01*
X128487949Y-116451275D01*
X128475603Y-116438386D01*
X128464313Y-116424819D01*
X128454092Y-116410630D01*
X128444954Y-116395875D01*
X128436912Y-116380611D01*
X128429980Y-116364894D01*
X128424172Y-116348780D01*
X128419501Y-116332325D01*
X128415981Y-116315585D01*
X128413626Y-116298617D01*
X128412449Y-116281477D01*
X128412463Y-116264220D01*
X128413683Y-116246904D01*
X128416123Y-116229584D01*
X128419795Y-116212317D01*
X128424713Y-116195158D01*
X128430820Y-116178383D01*
X128438000Y-116162252D01*
X128446207Y-116146805D01*
X128455398Y-116132077D01*
X128465530Y-116118106D01*
X128476558Y-116104929D01*
X128488437Y-116092585D01*
X128501125Y-116081109D01*
X128514577Y-116070541D01*
X128528748Y-116060916D01*
X128543596Y-116052273D01*
X128559076Y-116044648D01*
X128575143Y-116038080D01*
X128591754Y-116032605D01*
X128608865Y-116028260D01*
X128626432Y-116025084D01*
X129224126Y-115938248D01*
X129268840Y-116199074D01*
G37*
G36*
X121075001Y-116862500D02*
G01*
X121075001Y-117391666D01*
X120545834Y-117391666D01*
X120545834Y-117920832D01*
X121075001Y-117920832D01*
X121604167Y-117920832D01*
X121604167Y-118450000D01*
X121075001Y-118450000D01*
X120545834Y-118450000D01*
X120545834Y-118979166D01*
X120016667Y-118979166D01*
X120016667Y-118450000D01*
X120016667Y-117920832D01*
X120016667Y-117391666D01*
X120016667Y-116862500D01*
X120545834Y-116862500D01*
X120545834Y-116333333D01*
X121075001Y-116333333D01*
X121075001Y-116862500D01*
G37*
G36*
X132268845Y-117066961D02*
G01*
X132268858Y-117066961D01*
X132268871Y-117066961D01*
X132268898Y-117066961D01*
X131978703Y-117349801D01*
X132045378Y-117738527D01*
X131783440Y-117776574D01*
X131716607Y-117386895D01*
X131714473Y-117371683D01*
X131713283Y-117356472D01*
X131713023Y-117341303D01*
X131713681Y-117326215D01*
X131715244Y-117311247D01*
X131717699Y-117296438D01*
X131721032Y-117281828D01*
X131725232Y-117267455D01*
X131730285Y-117253360D01*
X131736178Y-117239581D01*
X131742899Y-117226158D01*
X131750435Y-117213130D01*
X131758773Y-117200537D01*
X131767899Y-117188417D01*
X131777801Y-117176810D01*
X131788467Y-117165756D01*
X132079350Y-116882228D01*
X132268845Y-117066961D01*
G37*
G36*
X126366667Y-115274999D02*
G01*
X125837500Y-115274999D01*
X125308334Y-115274999D01*
X124779166Y-115274999D01*
X124779166Y-114745833D01*
X125308334Y-114745833D01*
X125837500Y-114745833D01*
X126366667Y-114745833D01*
X126366667Y-115274999D01*
G37*
G36*
X118429167Y-117920832D02*
G01*
X118429167Y-118450000D01*
X118429167Y-118979166D01*
X117900001Y-118979166D01*
X117370834Y-118979166D01*
X116841667Y-118979166D01*
X116841667Y-118450000D01*
X116841667Y-117920832D01*
X116841667Y-117391666D01*
X117370834Y-117391666D01*
X117900001Y-117391666D01*
X118429167Y-117391666D01*
X118429167Y-117920832D01*
G37*
G36*
X132762081Y-116025031D02*
G01*
X132779648Y-116028207D01*
X132796759Y-116032550D01*
X132813370Y-116038022D01*
X132829437Y-116044587D01*
X132844917Y-116052208D01*
X132859764Y-116060847D01*
X132873936Y-116070467D01*
X132887388Y-116081031D01*
X132900075Y-116092501D01*
X132911955Y-116104841D01*
X132922983Y-116118012D01*
X132933114Y-116131979D01*
X132942306Y-116146704D01*
X132950513Y-116162149D01*
X132957692Y-116178278D01*
X132963799Y-116195053D01*
X132968717Y-116212211D01*
X132972388Y-116229476D01*
X132974825Y-116246794D01*
X132976042Y-116264107D01*
X132976054Y-116281360D01*
X132974873Y-116298498D01*
X132972515Y-116315463D01*
X132968992Y-116332199D01*
X132964319Y-116348652D01*
X132958509Y-116364765D01*
X132951577Y-116380482D01*
X132943537Y-116395747D01*
X132934401Y-116410505D01*
X132924185Y-116424698D01*
X132912901Y-116438272D01*
X132900564Y-116451169D01*
X132472098Y-116868840D01*
X132282603Y-116684109D01*
X132424737Y-116545573D01*
X132694559Y-116282524D01*
X132316099Y-116227544D01*
X132316100Y-116227544D01*
X132119673Y-116199021D01*
X132164387Y-115938195D01*
X132762081Y-116025031D01*
G37*
D12*
X127230952Y-93787219D02*
X127230952Y-92787219D01*
X126802381Y-93787219D02*
X126802381Y-93263409D01*
X126802381Y-93263409D02*
X126850000Y-93168171D01*
X126850000Y-93168171D02*
X126945238Y-93120552D01*
X126945238Y-93120552D02*
X127088095Y-93120552D01*
X127088095Y-93120552D02*
X127183333Y-93168171D01*
X127183333Y-93168171D02*
X127230952Y-93215790D01*
X125897619Y-93787219D02*
X125897619Y-93263409D01*
X125897619Y-93263409D02*
X125945238Y-93168171D01*
X125945238Y-93168171D02*
X126040476Y-93120552D01*
X126040476Y-93120552D02*
X126230952Y-93120552D01*
X126230952Y-93120552D02*
X126326190Y-93168171D01*
X125897619Y-93739600D02*
X125992857Y-93787219D01*
X125992857Y-93787219D02*
X126230952Y-93787219D01*
X126230952Y-93787219D02*
X126326190Y-93739600D01*
X126326190Y-93739600D02*
X126373809Y-93644361D01*
X126373809Y-93644361D02*
X126373809Y-93549123D01*
X126373809Y-93549123D02*
X126326190Y-93453885D01*
X126326190Y-93453885D02*
X126230952Y-93406266D01*
X126230952Y-93406266D02*
X125992857Y-93406266D01*
X125992857Y-93406266D02*
X125897619Y-93358647D01*
X124992857Y-93739600D02*
X125088095Y-93787219D01*
X125088095Y-93787219D02*
X125278571Y-93787219D01*
X125278571Y-93787219D02*
X125373809Y-93739600D01*
X125373809Y-93739600D02*
X125421428Y-93691980D01*
X125421428Y-93691980D02*
X125469047Y-93596742D01*
X125469047Y-93596742D02*
X125469047Y-93311028D01*
X125469047Y-93311028D02*
X125421428Y-93215790D01*
X125421428Y-93215790D02*
X125373809Y-93168171D01*
X125373809Y-93168171D02*
X125278571Y-93120552D01*
X125278571Y-93120552D02*
X125088095Y-93120552D01*
X125088095Y-93120552D02*
X124992857Y-93168171D01*
X124564285Y-93787219D02*
X124564285Y-92787219D01*
X124469047Y-93406266D02*
X124183333Y-93787219D01*
X124183333Y-93120552D02*
X124564285Y-93501504D01*
X123326190Y-93739600D02*
X123421428Y-93787219D01*
X123421428Y-93787219D02*
X123611904Y-93787219D01*
X123611904Y-93787219D02*
X123707142Y-93739600D01*
X123707142Y-93739600D02*
X123754761Y-93691980D01*
X123754761Y-93691980D02*
X123802380Y-93596742D01*
X123802380Y-93596742D02*
X123802380Y-93311028D01*
X123802380Y-93311028D02*
X123754761Y-93215790D01*
X123754761Y-93215790D02*
X123707142Y-93168171D01*
X123707142Y-93168171D02*
X123611904Y-93120552D01*
X123611904Y-93120552D02*
X123421428Y-93120552D01*
X123421428Y-93120552D02*
X123326190Y-93168171D01*
X122754761Y-93787219D02*
X122849999Y-93739600D01*
X122849999Y-93739600D02*
X122897618Y-93644361D01*
X122897618Y-93644361D02*
X122897618Y-92787219D01*
X121945237Y-93120552D02*
X121945237Y-93787219D01*
X122373808Y-93120552D02*
X122373808Y-93644361D01*
X122373808Y-93644361D02*
X122326189Y-93739600D01*
X122326189Y-93739600D02*
X122230951Y-93787219D01*
X122230951Y-93787219D02*
X122088094Y-93787219D01*
X122088094Y-93787219D02*
X121992856Y-93739600D01*
X121992856Y-93739600D02*
X121945237Y-93691980D01*
X121469046Y-93787219D02*
X121469046Y-92787219D01*
X121469046Y-93168171D02*
X121373808Y-93120552D01*
X121373808Y-93120552D02*
X121183332Y-93120552D01*
X121183332Y-93120552D02*
X121088094Y-93168171D01*
X121088094Y-93168171D02*
X121040475Y-93215790D01*
X121040475Y-93215790D02*
X120992856Y-93311028D01*
X120992856Y-93311028D02*
X120992856Y-93596742D01*
X120992856Y-93596742D02*
X121040475Y-93691980D01*
X121040475Y-93691980D02*
X121088094Y-93739600D01*
X121088094Y-93739600D02*
X121183332Y-93787219D01*
X121183332Y-93787219D02*
X121373808Y-93787219D01*
X121373808Y-93787219D02*
X121469046Y-93739600D01*
X120564284Y-93691980D02*
X120516665Y-93739600D01*
X120516665Y-93739600D02*
X120564284Y-93787219D01*
X120564284Y-93787219D02*
X120611903Y-93739600D01*
X120611903Y-93739600D02*
X120564284Y-93691980D01*
X120564284Y-93691980D02*
X120564284Y-93787219D01*
X119659523Y-93739600D02*
X119754761Y-93787219D01*
X119754761Y-93787219D02*
X119945237Y-93787219D01*
X119945237Y-93787219D02*
X120040475Y-93739600D01*
X120040475Y-93739600D02*
X120088094Y-93691980D01*
X120088094Y-93691980D02*
X120135713Y-93596742D01*
X120135713Y-93596742D02*
X120135713Y-93311028D01*
X120135713Y-93311028D02*
X120088094Y-93215790D01*
X120088094Y-93215790D02*
X120040475Y-93168171D01*
X120040475Y-93168171D02*
X119945237Y-93120552D01*
X119945237Y-93120552D02*
X119754761Y-93120552D01*
X119754761Y-93120552D02*
X119659523Y-93168171D01*
X119088094Y-93787219D02*
X119183332Y-93739600D01*
X119183332Y-93739600D02*
X119230951Y-93691980D01*
X119230951Y-93691980D02*
X119278570Y-93596742D01*
X119278570Y-93596742D02*
X119278570Y-93311028D01*
X119278570Y-93311028D02*
X119230951Y-93215790D01*
X119230951Y-93215790D02*
X119183332Y-93168171D01*
X119183332Y-93168171D02*
X119088094Y-93120552D01*
X119088094Y-93120552D02*
X118945237Y-93120552D01*
X118945237Y-93120552D02*
X118849999Y-93168171D01*
X118849999Y-93168171D02*
X118802380Y-93215790D01*
X118802380Y-93215790D02*
X118754761Y-93311028D01*
X118754761Y-93311028D02*
X118754761Y-93596742D01*
X118754761Y-93596742D02*
X118802380Y-93691980D01*
X118802380Y-93691980D02*
X118849999Y-93739600D01*
X118849999Y-93739600D02*
X118945237Y-93787219D01*
X118945237Y-93787219D02*
X119088094Y-93787219D01*
X118326189Y-93787219D02*
X118326189Y-93120552D01*
X118326189Y-93215790D02*
X118278570Y-93168171D01*
X118278570Y-93168171D02*
X118183332Y-93120552D01*
X118183332Y-93120552D02*
X118040475Y-93120552D01*
X118040475Y-93120552D02*
X117945237Y-93168171D01*
X117945237Y-93168171D02*
X117897618Y-93263409D01*
X117897618Y-93263409D02*
X117897618Y-93787219D01*
X117897618Y-93263409D02*
X117849999Y-93168171D01*
X117849999Y-93168171D02*
X117754761Y-93120552D01*
X117754761Y-93120552D02*
X117611904Y-93120552D01*
X117611904Y-93120552D02*
X117516665Y-93168171D01*
X117516665Y-93168171D02*
X117469046Y-93263409D01*
X117469046Y-93263409D02*
X117469046Y-93787219D01*
X124945238Y-94349544D02*
X125802380Y-95635258D01*
X124469047Y-95397163D02*
X124564285Y-95349544D01*
X124564285Y-95349544D02*
X124611904Y-95301924D01*
X124611904Y-95301924D02*
X124659523Y-95206686D01*
X124659523Y-95206686D02*
X124659523Y-94920972D01*
X124659523Y-94920972D02*
X124611904Y-94825734D01*
X124611904Y-94825734D02*
X124564285Y-94778115D01*
X124564285Y-94778115D02*
X124469047Y-94730496D01*
X124469047Y-94730496D02*
X124326190Y-94730496D01*
X124326190Y-94730496D02*
X124230952Y-94778115D01*
X124230952Y-94778115D02*
X124183333Y-94825734D01*
X124183333Y-94825734D02*
X124135714Y-94920972D01*
X124135714Y-94920972D02*
X124135714Y-95206686D01*
X124135714Y-95206686D02*
X124183333Y-95301924D01*
X124183333Y-95301924D02*
X124230952Y-95349544D01*
X124230952Y-95349544D02*
X124326190Y-95397163D01*
X124326190Y-95397163D02*
X124469047Y-95397163D01*
X123707142Y-94730496D02*
X123707142Y-95397163D01*
X123707142Y-94825734D02*
X123659523Y-94778115D01*
X123659523Y-94778115D02*
X123564285Y-94730496D01*
X123564285Y-94730496D02*
X123421428Y-94730496D01*
X123421428Y-94730496D02*
X123326190Y-94778115D01*
X123326190Y-94778115D02*
X123278571Y-94873353D01*
X123278571Y-94873353D02*
X123278571Y-95397163D01*
X122802380Y-95397163D02*
X122802380Y-94397163D01*
X122802380Y-94778115D02*
X122707142Y-94730496D01*
X122707142Y-94730496D02*
X122516666Y-94730496D01*
X122516666Y-94730496D02*
X122421428Y-94778115D01*
X122421428Y-94778115D02*
X122373809Y-94825734D01*
X122373809Y-94825734D02*
X122326190Y-94920972D01*
X122326190Y-94920972D02*
X122326190Y-95206686D01*
X122326190Y-95206686D02*
X122373809Y-95301924D01*
X122373809Y-95301924D02*
X122421428Y-95349544D01*
X122421428Y-95349544D02*
X122516666Y-95397163D01*
X122516666Y-95397163D02*
X122707142Y-95397163D01*
X122707142Y-95397163D02*
X122802380Y-95349544D01*
X121754761Y-95397163D02*
X121849999Y-95349544D01*
X121849999Y-95349544D02*
X121897618Y-95301924D01*
X121897618Y-95301924D02*
X121945237Y-95206686D01*
X121945237Y-95206686D02*
X121945237Y-94920972D01*
X121945237Y-94920972D02*
X121897618Y-94825734D01*
X121897618Y-94825734D02*
X121849999Y-94778115D01*
X121849999Y-94778115D02*
X121754761Y-94730496D01*
X121754761Y-94730496D02*
X121611904Y-94730496D01*
X121611904Y-94730496D02*
X121516666Y-94778115D01*
X121516666Y-94778115D02*
X121469047Y-94825734D01*
X121469047Y-94825734D02*
X121421428Y-94920972D01*
X121421428Y-94920972D02*
X121421428Y-95206686D01*
X121421428Y-95206686D02*
X121469047Y-95301924D01*
X121469047Y-95301924D02*
X121516666Y-95349544D01*
X121516666Y-95349544D02*
X121611904Y-95397163D01*
X121611904Y-95397163D02*
X121754761Y-95397163D01*
X120564285Y-95397163D02*
X120564285Y-94873353D01*
X120564285Y-94873353D02*
X120611904Y-94778115D01*
X120611904Y-94778115D02*
X120707142Y-94730496D01*
X120707142Y-94730496D02*
X120897618Y-94730496D01*
X120897618Y-94730496D02*
X120992856Y-94778115D01*
X120564285Y-95349544D02*
X120659523Y-95397163D01*
X120659523Y-95397163D02*
X120897618Y-95397163D01*
X120897618Y-95397163D02*
X120992856Y-95349544D01*
X120992856Y-95349544D02*
X121040475Y-95254305D01*
X121040475Y-95254305D02*
X121040475Y-95159067D01*
X121040475Y-95159067D02*
X120992856Y-95063829D01*
X120992856Y-95063829D02*
X120897618Y-95016210D01*
X120897618Y-95016210D02*
X120659523Y-95016210D01*
X120659523Y-95016210D02*
X120564285Y-94968591D01*
X120088094Y-95397163D02*
X120088094Y-94730496D01*
X120088094Y-94920972D02*
X120040475Y-94825734D01*
X120040475Y-94825734D02*
X119992856Y-94778115D01*
X119992856Y-94778115D02*
X119897618Y-94730496D01*
X119897618Y-94730496D02*
X119802380Y-94730496D01*
X119040475Y-95397163D02*
X119040475Y-94397163D01*
X119040475Y-95349544D02*
X119135713Y-95397163D01*
X119135713Y-95397163D02*
X119326189Y-95397163D01*
X119326189Y-95397163D02*
X119421427Y-95349544D01*
X119421427Y-95349544D02*
X119469046Y-95301924D01*
X119469046Y-95301924D02*
X119516665Y-95206686D01*
X119516665Y-95206686D02*
X119516665Y-94920972D01*
X119516665Y-94920972D02*
X119469046Y-94825734D01*
X119469046Y-94825734D02*
X119421427Y-94778115D01*
X119421427Y-94778115D02*
X119326189Y-94730496D01*
X119326189Y-94730496D02*
X119135713Y-94730496D01*
X119135713Y-94730496D02*
X119040475Y-94778115D01*
D11*
X144042857Y-112476304D02*
X143280953Y-112476304D01*
X143757143Y-111809638D02*
X143757143Y-113523923D01*
X143757143Y-113523923D02*
X143661905Y-113714400D01*
X143661905Y-113714400D02*
X143471429Y-113809638D01*
X143471429Y-113809638D02*
X143280953Y-113809638D01*
X142328572Y-113809638D02*
X142519048Y-113714400D01*
X142519048Y-113714400D02*
X142614286Y-113619161D01*
X142614286Y-113619161D02*
X142709524Y-113428685D01*
X142709524Y-113428685D02*
X142709524Y-112857257D01*
X142709524Y-112857257D02*
X142614286Y-112666780D01*
X142614286Y-112666780D02*
X142519048Y-112571542D01*
X142519048Y-112571542D02*
X142328572Y-112476304D01*
X142328572Y-112476304D02*
X142042857Y-112476304D01*
X142042857Y-112476304D02*
X141852381Y-112571542D01*
X141852381Y-112571542D02*
X141757143Y-112666780D01*
X141757143Y-112666780D02*
X141661905Y-112857257D01*
X141661905Y-112857257D02*
X141661905Y-113428685D01*
X141661905Y-113428685D02*
X141757143Y-113619161D01*
X141757143Y-113619161D02*
X141852381Y-113714400D01*
X141852381Y-113714400D02*
X142042857Y-113809638D01*
X142042857Y-113809638D02*
X142328572Y-113809638D01*
X140804762Y-113809638D02*
X140804762Y-111809638D01*
X140804762Y-112571542D02*
X140614286Y-112476304D01*
X140614286Y-112476304D02*
X140233333Y-112476304D01*
X140233333Y-112476304D02*
X140042857Y-112571542D01*
X140042857Y-112571542D02*
X139947619Y-112666780D01*
X139947619Y-112666780D02*
X139852381Y-112857257D01*
X139852381Y-112857257D02*
X139852381Y-113428685D01*
X139852381Y-113428685D02*
X139947619Y-113619161D01*
X139947619Y-113619161D02*
X140042857Y-113714400D01*
X140042857Y-113714400D02*
X140233333Y-113809638D01*
X140233333Y-113809638D02*
X140614286Y-113809638D01*
X140614286Y-113809638D02*
X140804762Y-113714400D01*
X139185714Y-112476304D02*
X138709524Y-113809638D01*
X138233333Y-112476304D02*
X138709524Y-113809638D01*
X138709524Y-113809638D02*
X138900000Y-114285828D01*
X138900000Y-114285828D02*
X138995238Y-114381066D01*
X138995238Y-114381066D02*
X139185714Y-114476304D01*
X136614285Y-113714400D02*
X136804761Y-113809638D01*
X136804761Y-113809638D02*
X137185714Y-113809638D01*
X137185714Y-113809638D02*
X137376190Y-113714400D01*
X137376190Y-113714400D02*
X137471428Y-113619161D01*
X137471428Y-113619161D02*
X137566666Y-113428685D01*
X137566666Y-113428685D02*
X137566666Y-112857257D01*
X137566666Y-112857257D02*
X137471428Y-112666780D01*
X137471428Y-112666780D02*
X137376190Y-112571542D01*
X137376190Y-112571542D02*
X137185714Y-112476304D01*
X137185714Y-112476304D02*
X136804761Y-112476304D01*
X136804761Y-112476304D02*
X136614285Y-112571542D01*
X135757142Y-113809638D02*
X135757142Y-112476304D01*
X135757142Y-112666780D02*
X135661904Y-112571542D01*
X135661904Y-112571542D02*
X135471428Y-112476304D01*
X135471428Y-112476304D02*
X135185713Y-112476304D01*
X135185713Y-112476304D02*
X134995237Y-112571542D01*
X134995237Y-112571542D02*
X134899999Y-112762019D01*
X134899999Y-112762019D02*
X134899999Y-113809638D01*
X134899999Y-112762019D02*
X134804761Y-112571542D01*
X134804761Y-112571542D02*
X134614285Y-112476304D01*
X134614285Y-112476304D02*
X134328571Y-112476304D01*
X134328571Y-112476304D02*
X134138094Y-112571542D01*
X134138094Y-112571542D02*
X134042856Y-112762019D01*
X134042856Y-112762019D02*
X134042856Y-113809638D01*
X133090475Y-113619161D02*
X132995237Y-113714400D01*
X132995237Y-113714400D02*
X133090475Y-113809638D01*
X133090475Y-113809638D02*
X133185713Y-113714400D01*
X133185713Y-113714400D02*
X133090475Y-113619161D01*
X133090475Y-113619161D02*
X133090475Y-113809638D01*
X131280951Y-113809638D02*
X131280951Y-111809638D01*
X131280951Y-113714400D02*
X131471427Y-113809638D01*
X131471427Y-113809638D02*
X131852380Y-113809638D01*
X131852380Y-113809638D02*
X132042856Y-113714400D01*
X132042856Y-113714400D02*
X132138094Y-113619161D01*
X132138094Y-113619161D02*
X132233332Y-113428685D01*
X132233332Y-113428685D02*
X132233332Y-112857257D01*
X132233332Y-112857257D02*
X132138094Y-112666780D01*
X132138094Y-112666780D02*
X132042856Y-112571542D01*
X132042856Y-112571542D02*
X131852380Y-112476304D01*
X131852380Y-112476304D02*
X131471427Y-112476304D01*
X131471427Y-112476304D02*
X131280951Y-112571542D01*
X129566665Y-113714400D02*
X129757141Y-113809638D01*
X129757141Y-113809638D02*
X130138094Y-113809638D01*
X130138094Y-113809638D02*
X130328570Y-113714400D01*
X130328570Y-113714400D02*
X130423808Y-113523923D01*
X130423808Y-113523923D02*
X130423808Y-112762019D01*
X130423808Y-112762019D02*
X130328570Y-112571542D01*
X130328570Y-112571542D02*
X130138094Y-112476304D01*
X130138094Y-112476304D02*
X129757141Y-112476304D01*
X129757141Y-112476304D02*
X129566665Y-112571542D01*
X129566665Y-112571542D02*
X129471427Y-112762019D01*
X129471427Y-112762019D02*
X129471427Y-112952495D01*
X129471427Y-112952495D02*
X130423808Y-113142971D01*
X128804760Y-112476304D02*
X128328570Y-113809638D01*
X128328570Y-113809638D02*
X127852379Y-112476304D01*
D12*
X139719047Y-93552219D02*
X139719047Y-92552219D01*
X139719047Y-93028409D02*
X139147619Y-93028409D01*
X139147619Y-93552219D02*
X139147619Y-92552219D01*
X138242857Y-93552219D02*
X138242857Y-93028409D01*
X138242857Y-93028409D02*
X138290476Y-92933171D01*
X138290476Y-92933171D02*
X138385714Y-92885552D01*
X138385714Y-92885552D02*
X138576190Y-92885552D01*
X138576190Y-92885552D02*
X138671428Y-92933171D01*
X138242857Y-93504600D02*
X138338095Y-93552219D01*
X138338095Y-93552219D02*
X138576190Y-93552219D01*
X138576190Y-93552219D02*
X138671428Y-93504600D01*
X138671428Y-93504600D02*
X138719047Y-93409361D01*
X138719047Y-93409361D02*
X138719047Y-93314123D01*
X138719047Y-93314123D02*
X138671428Y-93218885D01*
X138671428Y-93218885D02*
X138576190Y-93171266D01*
X138576190Y-93171266D02*
X138338095Y-93171266D01*
X138338095Y-93171266D02*
X138242857Y-93123647D01*
X137338095Y-93504600D02*
X137433333Y-93552219D01*
X137433333Y-93552219D02*
X137623809Y-93552219D01*
X137623809Y-93552219D02*
X137719047Y-93504600D01*
X137719047Y-93504600D02*
X137766666Y-93456980D01*
X137766666Y-93456980D02*
X137814285Y-93361742D01*
X137814285Y-93361742D02*
X137814285Y-93076028D01*
X137814285Y-93076028D02*
X137766666Y-92980790D01*
X137766666Y-92980790D02*
X137719047Y-92933171D01*
X137719047Y-92933171D02*
X137623809Y-92885552D01*
X137623809Y-92885552D02*
X137433333Y-92885552D01*
X137433333Y-92885552D02*
X137338095Y-92933171D01*
X136909523Y-93552219D02*
X136909523Y-92552219D01*
X136814285Y-93171266D02*
X136528571Y-93552219D01*
X136528571Y-92885552D02*
X136909523Y-93266504D01*
X134766666Y-93456980D02*
X134814285Y-93504600D01*
X134814285Y-93504600D02*
X134957142Y-93552219D01*
X134957142Y-93552219D02*
X135052380Y-93552219D01*
X135052380Y-93552219D02*
X135195237Y-93504600D01*
X135195237Y-93504600D02*
X135290475Y-93409361D01*
X135290475Y-93409361D02*
X135338094Y-93314123D01*
X135338094Y-93314123D02*
X135385713Y-93123647D01*
X135385713Y-93123647D02*
X135385713Y-92980790D01*
X135385713Y-92980790D02*
X135338094Y-92790314D01*
X135338094Y-92790314D02*
X135290475Y-92695076D01*
X135290475Y-92695076D02*
X135195237Y-92599838D01*
X135195237Y-92599838D02*
X135052380Y-92552219D01*
X135052380Y-92552219D02*
X134957142Y-92552219D01*
X134957142Y-92552219D02*
X134814285Y-92599838D01*
X134814285Y-92599838D02*
X134766666Y-92647457D01*
X134195237Y-93552219D02*
X134290475Y-93504600D01*
X134290475Y-93504600D02*
X134338094Y-93409361D01*
X134338094Y-93409361D02*
X134338094Y-92552219D01*
X133385713Y-92885552D02*
X133385713Y-93552219D01*
X133814284Y-92885552D02*
X133814284Y-93409361D01*
X133814284Y-93409361D02*
X133766665Y-93504600D01*
X133766665Y-93504600D02*
X133671427Y-93552219D01*
X133671427Y-93552219D02*
X133528570Y-93552219D01*
X133528570Y-93552219D02*
X133433332Y-93504600D01*
X133433332Y-93504600D02*
X133385713Y-93456980D01*
X132909522Y-93552219D02*
X132909522Y-92552219D01*
X132909522Y-92933171D02*
X132814284Y-92885552D01*
X132814284Y-92885552D02*
X132623808Y-92885552D01*
X132623808Y-92885552D02*
X132528570Y-92933171D01*
X132528570Y-92933171D02*
X132480951Y-92980790D01*
X132480951Y-92980790D02*
X132433332Y-93076028D01*
X132433332Y-93076028D02*
X132433332Y-93361742D01*
X132433332Y-93361742D02*
X132480951Y-93456980D01*
X132480951Y-93456980D02*
X132528570Y-93504600D01*
X132528570Y-93504600D02*
X132623808Y-93552219D01*
X132623808Y-93552219D02*
X132814284Y-93552219D01*
X132814284Y-93552219D02*
X132909522Y-93504600D01*
X127695238Y-91385552D02*
X127504762Y-92052219D01*
X127504762Y-92052219D02*
X127314286Y-91576028D01*
X127314286Y-91576028D02*
X127123810Y-92052219D01*
X127123810Y-92052219D02*
X126933334Y-91385552D01*
X126552381Y-92052219D02*
X126552381Y-91385552D01*
X126552381Y-91052219D02*
X126600000Y-91099838D01*
X126600000Y-91099838D02*
X126552381Y-91147457D01*
X126552381Y-91147457D02*
X126504762Y-91099838D01*
X126504762Y-91099838D02*
X126552381Y-91052219D01*
X126552381Y-91052219D02*
X126552381Y-91147457D01*
X126219048Y-91385552D02*
X125838096Y-91385552D01*
X126076191Y-91052219D02*
X126076191Y-91909361D01*
X126076191Y-91909361D02*
X126028572Y-92004600D01*
X126028572Y-92004600D02*
X125933334Y-92052219D01*
X125933334Y-92052219D02*
X125838096Y-92052219D01*
X125504762Y-92052219D02*
X125504762Y-91052219D01*
X125076191Y-92052219D02*
X125076191Y-91528409D01*
X125076191Y-91528409D02*
X125123810Y-91433171D01*
X125123810Y-91433171D02*
X125219048Y-91385552D01*
X125219048Y-91385552D02*
X125361905Y-91385552D01*
X125361905Y-91385552D02*
X125457143Y-91433171D01*
X125457143Y-91433171D02*
X125504762Y-91480790D01*
X123647619Y-91052219D02*
X123457143Y-91052219D01*
X123457143Y-91052219D02*
X123361905Y-91099838D01*
X123361905Y-91099838D02*
X123266667Y-91195076D01*
X123266667Y-91195076D02*
X123219048Y-91385552D01*
X123219048Y-91385552D02*
X123219048Y-91718885D01*
X123219048Y-91718885D02*
X123266667Y-91909361D01*
X123266667Y-91909361D02*
X123361905Y-92004600D01*
X123361905Y-92004600D02*
X123457143Y-92052219D01*
X123457143Y-92052219D02*
X123647619Y-92052219D01*
X123647619Y-92052219D02*
X123742857Y-92004600D01*
X123742857Y-92004600D02*
X123838095Y-91909361D01*
X123838095Y-91909361D02*
X123885714Y-91718885D01*
X123885714Y-91718885D02*
X123885714Y-91385552D01*
X123885714Y-91385552D02*
X123838095Y-91195076D01*
X123838095Y-91195076D02*
X123742857Y-91099838D01*
X123742857Y-91099838D02*
X123647619Y-91052219D01*
X122790476Y-91385552D02*
X122790476Y-92052219D01*
X122790476Y-91480790D02*
X122742857Y-91433171D01*
X122742857Y-91433171D02*
X122647619Y-91385552D01*
X122647619Y-91385552D02*
X122504762Y-91385552D01*
X122504762Y-91385552D02*
X122409524Y-91433171D01*
X122409524Y-91433171D02*
X122361905Y-91528409D01*
X122361905Y-91528409D02*
X122361905Y-92052219D01*
X121552381Y-91528409D02*
X121409524Y-91576028D01*
X121409524Y-91576028D02*
X121361905Y-91623647D01*
X121361905Y-91623647D02*
X121314286Y-91718885D01*
X121314286Y-91718885D02*
X121314286Y-91861742D01*
X121314286Y-91861742D02*
X121361905Y-91956980D01*
X121361905Y-91956980D02*
X121409524Y-92004600D01*
X121409524Y-92004600D02*
X121504762Y-92052219D01*
X121504762Y-92052219D02*
X121885714Y-92052219D01*
X121885714Y-92052219D02*
X121885714Y-91052219D01*
X121885714Y-91052219D02*
X121552381Y-91052219D01*
X121552381Y-91052219D02*
X121457143Y-91099838D01*
X121457143Y-91099838D02*
X121409524Y-91147457D01*
X121409524Y-91147457D02*
X121361905Y-91242695D01*
X121361905Y-91242695D02*
X121361905Y-91337933D01*
X121361905Y-91337933D02*
X121409524Y-91433171D01*
X121409524Y-91433171D02*
X121457143Y-91480790D01*
X121457143Y-91480790D02*
X121552381Y-91528409D01*
X121552381Y-91528409D02*
X121885714Y-91528409D01*
X120742857Y-92052219D02*
X120838095Y-92004600D01*
X120838095Y-92004600D02*
X120885714Y-91956980D01*
X120885714Y-91956980D02*
X120933333Y-91861742D01*
X120933333Y-91861742D02*
X120933333Y-91576028D01*
X120933333Y-91576028D02*
X120885714Y-91480790D01*
X120885714Y-91480790D02*
X120838095Y-91433171D01*
X120838095Y-91433171D02*
X120742857Y-91385552D01*
X120742857Y-91385552D02*
X120600000Y-91385552D01*
X120600000Y-91385552D02*
X120504762Y-91433171D01*
X120504762Y-91433171D02*
X120457143Y-91480790D01*
X120457143Y-91480790D02*
X120409524Y-91576028D01*
X120409524Y-91576028D02*
X120409524Y-91861742D01*
X120409524Y-91861742D02*
X120457143Y-91956980D01*
X120457143Y-91956980D02*
X120504762Y-92004600D01*
X120504762Y-92004600D02*
X120600000Y-92052219D01*
X120600000Y-92052219D02*
X120742857Y-92052219D01*
X119552381Y-92052219D02*
X119552381Y-91528409D01*
X119552381Y-91528409D02*
X119600000Y-91433171D01*
X119600000Y-91433171D02*
X119695238Y-91385552D01*
X119695238Y-91385552D02*
X119885714Y-91385552D01*
X119885714Y-91385552D02*
X119980952Y-91433171D01*
X119552381Y-92004600D02*
X119647619Y-92052219D01*
X119647619Y-92052219D02*
X119885714Y-92052219D01*
X119885714Y-92052219D02*
X119980952Y-92004600D01*
X119980952Y-92004600D02*
X120028571Y-91909361D01*
X120028571Y-91909361D02*
X120028571Y-91814123D01*
X120028571Y-91814123D02*
X119980952Y-91718885D01*
X119980952Y-91718885D02*
X119885714Y-91671266D01*
X119885714Y-91671266D02*
X119647619Y-91671266D01*
X119647619Y-91671266D02*
X119552381Y-91623647D01*
X119076190Y-92052219D02*
X119076190Y-91385552D01*
X119076190Y-91576028D02*
X119028571Y-91480790D01*
X119028571Y-91480790D02*
X118980952Y-91433171D01*
X118980952Y-91433171D02*
X118885714Y-91385552D01*
X118885714Y-91385552D02*
X118790476Y-91385552D01*
X118028571Y-92052219D02*
X118028571Y-91052219D01*
X118028571Y-92004600D02*
X118123809Y-92052219D01*
X118123809Y-92052219D02*
X118314285Y-92052219D01*
X118314285Y-92052219D02*
X118409523Y-92004600D01*
X118409523Y-92004600D02*
X118457142Y-91956980D01*
X118457142Y-91956980D02*
X118504761Y-91861742D01*
X118504761Y-91861742D02*
X118504761Y-91576028D01*
X118504761Y-91576028D02*
X118457142Y-91480790D01*
X118457142Y-91480790D02*
X118409523Y-91433171D01*
X118409523Y-91433171D02*
X118314285Y-91385552D01*
X118314285Y-91385552D02*
X118123809Y-91385552D01*
X118123809Y-91385552D02*
X118028571Y-91433171D01*
X116790475Y-92052219D02*
X116790475Y-91052219D01*
X116790475Y-91433171D02*
X116695237Y-91385552D01*
X116695237Y-91385552D02*
X116504761Y-91385552D01*
X116504761Y-91385552D02*
X116409523Y-91433171D01*
X116409523Y-91433171D02*
X116361904Y-91480790D01*
X116361904Y-91480790D02*
X116314285Y-91576028D01*
X116314285Y-91576028D02*
X116314285Y-91861742D01*
X116314285Y-91861742D02*
X116361904Y-91956980D01*
X116361904Y-91956980D02*
X116409523Y-92004600D01*
X116409523Y-92004600D02*
X116504761Y-92052219D01*
X116504761Y-92052219D02*
X116695237Y-92052219D01*
X116695237Y-92052219D02*
X116790475Y-92004600D01*
X115980951Y-91385552D02*
X115742856Y-92052219D01*
X115504761Y-91385552D02*
X115742856Y-92052219D01*
X115742856Y-92052219D02*
X115838094Y-92290314D01*
X115838094Y-92290314D02*
X115885713Y-92337933D01*
X115885713Y-92337933D02*
X115980951Y-92385552D01*
X141338095Y-92052219D02*
X141338095Y-91385552D01*
X141338095Y-91480790D02*
X141290476Y-91433171D01*
X141290476Y-91433171D02*
X141195238Y-91385552D01*
X141195238Y-91385552D02*
X141052381Y-91385552D01*
X141052381Y-91385552D02*
X140957143Y-91433171D01*
X140957143Y-91433171D02*
X140909524Y-91528409D01*
X140909524Y-91528409D02*
X140909524Y-92052219D01*
X140909524Y-91528409D02*
X140861905Y-91433171D01*
X140861905Y-91433171D02*
X140766667Y-91385552D01*
X140766667Y-91385552D02*
X140623810Y-91385552D01*
X140623810Y-91385552D02*
X140528571Y-91433171D01*
X140528571Y-91433171D02*
X140480952Y-91528409D01*
X140480952Y-91528409D02*
X140480952Y-92052219D01*
X139576191Y-92052219D02*
X139576191Y-91528409D01*
X139576191Y-91528409D02*
X139623810Y-91433171D01*
X139623810Y-91433171D02*
X139719048Y-91385552D01*
X139719048Y-91385552D02*
X139909524Y-91385552D01*
X139909524Y-91385552D02*
X140004762Y-91433171D01*
X139576191Y-92004600D02*
X139671429Y-92052219D01*
X139671429Y-92052219D02*
X139909524Y-92052219D01*
X139909524Y-92052219D02*
X140004762Y-92004600D01*
X140004762Y-92004600D02*
X140052381Y-91909361D01*
X140052381Y-91909361D02*
X140052381Y-91814123D01*
X140052381Y-91814123D02*
X140004762Y-91718885D01*
X140004762Y-91718885D02*
X139909524Y-91671266D01*
X139909524Y-91671266D02*
X139671429Y-91671266D01*
X139671429Y-91671266D02*
X139576191Y-91623647D01*
X138671429Y-92052219D02*
X138671429Y-91052219D01*
X138671429Y-92004600D02*
X138766667Y-92052219D01*
X138766667Y-92052219D02*
X138957143Y-92052219D01*
X138957143Y-92052219D02*
X139052381Y-92004600D01*
X139052381Y-92004600D02*
X139100000Y-91956980D01*
X139100000Y-91956980D02*
X139147619Y-91861742D01*
X139147619Y-91861742D02*
X139147619Y-91576028D01*
X139147619Y-91576028D02*
X139100000Y-91480790D01*
X139100000Y-91480790D02*
X139052381Y-91433171D01*
X139052381Y-91433171D02*
X138957143Y-91385552D01*
X138957143Y-91385552D02*
X138766667Y-91385552D01*
X138766667Y-91385552D02*
X138671429Y-91433171D01*
X137814286Y-92004600D02*
X137909524Y-92052219D01*
X137909524Y-92052219D02*
X138100000Y-92052219D01*
X138100000Y-92052219D02*
X138195238Y-92004600D01*
X138195238Y-92004600D02*
X138242857Y-91909361D01*
X138242857Y-91909361D02*
X138242857Y-91528409D01*
X138242857Y-91528409D02*
X138195238Y-91433171D01*
X138195238Y-91433171D02*
X138100000Y-91385552D01*
X138100000Y-91385552D02*
X137909524Y-91385552D01*
X137909524Y-91385552D02*
X137814286Y-91433171D01*
X137814286Y-91433171D02*
X137766667Y-91528409D01*
X137766667Y-91528409D02*
X137766667Y-91623647D01*
X137766667Y-91623647D02*
X138242857Y-91718885D01*
X136576190Y-91385552D02*
X136576190Y-92385552D01*
X136576190Y-91433171D02*
X136480952Y-91385552D01*
X136480952Y-91385552D02*
X136290476Y-91385552D01*
X136290476Y-91385552D02*
X136195238Y-91433171D01*
X136195238Y-91433171D02*
X136147619Y-91480790D01*
X136147619Y-91480790D02*
X136100000Y-91576028D01*
X136100000Y-91576028D02*
X136100000Y-91861742D01*
X136100000Y-91861742D02*
X136147619Y-91956980D01*
X136147619Y-91956980D02*
X136195238Y-92004600D01*
X136195238Y-92004600D02*
X136290476Y-92052219D01*
X136290476Y-92052219D02*
X136480952Y-92052219D01*
X136480952Y-92052219D02*
X136576190Y-92004600D01*
X135528571Y-92052219D02*
X135623809Y-92004600D01*
X135623809Y-92004600D02*
X135671428Y-91956980D01*
X135671428Y-91956980D02*
X135719047Y-91861742D01*
X135719047Y-91861742D02*
X135719047Y-91576028D01*
X135719047Y-91576028D02*
X135671428Y-91480790D01*
X135671428Y-91480790D02*
X135623809Y-91433171D01*
X135623809Y-91433171D02*
X135528571Y-91385552D01*
X135528571Y-91385552D02*
X135385714Y-91385552D01*
X135385714Y-91385552D02*
X135290476Y-91433171D01*
X135290476Y-91433171D02*
X135242857Y-91480790D01*
X135242857Y-91480790D02*
X135195238Y-91576028D01*
X135195238Y-91576028D02*
X135195238Y-91861742D01*
X135195238Y-91861742D02*
X135242857Y-91956980D01*
X135242857Y-91956980D02*
X135290476Y-92004600D01*
X135290476Y-92004600D02*
X135385714Y-92052219D01*
X135385714Y-92052219D02*
X135528571Y-92052219D01*
X134814285Y-92004600D02*
X134719047Y-92052219D01*
X134719047Y-92052219D02*
X134528571Y-92052219D01*
X134528571Y-92052219D02*
X134433333Y-92004600D01*
X134433333Y-92004600D02*
X134385714Y-91909361D01*
X134385714Y-91909361D02*
X134385714Y-91861742D01*
X134385714Y-91861742D02*
X134433333Y-91766504D01*
X134433333Y-91766504D02*
X134528571Y-91718885D01*
X134528571Y-91718885D02*
X134671428Y-91718885D01*
X134671428Y-91718885D02*
X134766666Y-91671266D01*
X134766666Y-91671266D02*
X134814285Y-91576028D01*
X134814285Y-91576028D02*
X134814285Y-91528409D01*
X134814285Y-91528409D02*
X134766666Y-91433171D01*
X134766666Y-91433171D02*
X134671428Y-91385552D01*
X134671428Y-91385552D02*
X134528571Y-91385552D01*
X134528571Y-91385552D02*
X134433333Y-91433171D01*
X134004761Y-92004600D02*
X133909523Y-92052219D01*
X133909523Y-92052219D02*
X133719047Y-92052219D01*
X133719047Y-92052219D02*
X133623809Y-92004600D01*
X133623809Y-92004600D02*
X133576190Y-91909361D01*
X133576190Y-91909361D02*
X133576190Y-91861742D01*
X133576190Y-91861742D02*
X133623809Y-91766504D01*
X133623809Y-91766504D02*
X133719047Y-91718885D01*
X133719047Y-91718885D02*
X133861904Y-91718885D01*
X133861904Y-91718885D02*
X133957142Y-91671266D01*
X133957142Y-91671266D02*
X134004761Y-91576028D01*
X134004761Y-91576028D02*
X134004761Y-91528409D01*
X134004761Y-91528409D02*
X133957142Y-91433171D01*
X133957142Y-91433171D02*
X133861904Y-91385552D01*
X133861904Y-91385552D02*
X133719047Y-91385552D01*
X133719047Y-91385552D02*
X133623809Y-91433171D01*
X133147618Y-92052219D02*
X133147618Y-91385552D01*
X133147618Y-91052219D02*
X133195237Y-91099838D01*
X133195237Y-91099838D02*
X133147618Y-91147457D01*
X133147618Y-91147457D02*
X133099999Y-91099838D01*
X133099999Y-91099838D02*
X133147618Y-91052219D01*
X133147618Y-91052219D02*
X133147618Y-91147457D01*
X132671428Y-92052219D02*
X132671428Y-91052219D01*
X132671428Y-91433171D02*
X132576190Y-91385552D01*
X132576190Y-91385552D02*
X132385714Y-91385552D01*
X132385714Y-91385552D02*
X132290476Y-91433171D01*
X132290476Y-91433171D02*
X132242857Y-91480790D01*
X132242857Y-91480790D02*
X132195238Y-91576028D01*
X132195238Y-91576028D02*
X132195238Y-91861742D01*
X132195238Y-91861742D02*
X132242857Y-91956980D01*
X132242857Y-91956980D02*
X132290476Y-92004600D01*
X132290476Y-92004600D02*
X132385714Y-92052219D01*
X132385714Y-92052219D02*
X132576190Y-92052219D01*
X132576190Y-92052219D02*
X132671428Y-92004600D01*
X131623809Y-92052219D02*
X131719047Y-92004600D01*
X131719047Y-92004600D02*
X131766666Y-91909361D01*
X131766666Y-91909361D02*
X131766666Y-91052219D01*
X130861904Y-92004600D02*
X130957142Y-92052219D01*
X130957142Y-92052219D02*
X131147618Y-92052219D01*
X131147618Y-92052219D02*
X131242856Y-92004600D01*
X131242856Y-92004600D02*
X131290475Y-91909361D01*
X131290475Y-91909361D02*
X131290475Y-91528409D01*
X131290475Y-91528409D02*
X131242856Y-91433171D01*
X131242856Y-91433171D02*
X131147618Y-91385552D01*
X131147618Y-91385552D02*
X130957142Y-91385552D01*
X130957142Y-91385552D02*
X130861904Y-91433171D01*
X130861904Y-91433171D02*
X130814285Y-91528409D01*
X130814285Y-91528409D02*
X130814285Y-91623647D01*
X130814285Y-91623647D02*
X131290475Y-91718885D01*
D14*
%TO.C,J7*%
X144250000Y-105000000D03*
D15*
X141710000Y-105000000D03*
X139170000Y-105000000D03*
X136630000Y-105000000D03*
%TD*%
D14*
%TO.C,J6*%
X108350000Y-97375000D03*
D15*
X108350000Y-94835000D03*
X108350000Y-92295000D03*
%TD*%
D14*
%TO.C,J1*%
X127075000Y-84550000D03*
D15*
X124535000Y-84550000D03*
%TD*%
D16*
%TO.C,H2*%
X106975000Y-115000000D03*
X107919581Y-112719581D03*
X107919581Y-117280419D03*
X110200000Y-111775000D03*
D17*
X110200000Y-115000000D03*
D16*
X110200000Y-118225000D03*
X112480419Y-112719581D03*
X112480419Y-117280419D03*
X113425000Y-115000000D03*
%TD*%
%TO.C,H1*%
X106975000Y-86000000D03*
X107919581Y-83719581D03*
X107919581Y-88280419D03*
X110200000Y-82775000D03*
D17*
X110200000Y-86000000D03*
D16*
X110200000Y-89225000D03*
X112480419Y-83719581D03*
X112480419Y-88280419D03*
X113425000Y-86000000D03*
%TD*%
D14*
%TO.C,J5*%
X108350000Y-107475500D03*
%TD*%
D18*
%TO.C,J2*%
X142700000Y-87000000D03*
X135700000Y-87000000D03*
%TD*%
D14*
%TO.C,J10*%
X116975000Y-84550000D03*
D15*
X119515000Y-84550000D03*
X122055000Y-84550000D03*
%TD*%
D18*
%TO.C,J8*%
X142750000Y-115000000D03*
X135750000Y-115000000D03*
%TD*%
D14*
%TO.C,J9*%
X108350000Y-99900000D03*
D15*
X108350000Y-102440000D03*
X108350000Y-104980000D03*
%TD*%
D14*
%TO.C,J3*%
X144200000Y-97000000D03*
D15*
X141660000Y-97000000D03*
X139120000Y-97000000D03*
X136580000Y-97000000D03*
%TD*%
%LPD*%
M02*
