M48
; DRILL file {KiCad 9.0.1-9.0.1-0~ubuntu24.04.1} date 2025-05-01T05:33:58-0700
; FORMAT={-:-/ absolute / inch / decimal}
; #@! TF.CreationDate,2025-05-01T05:33:58-07:00
; #@! TF.GenerationSoftware,Kicad,Pcbnew,9.0.1-9.0.1-0~ubuntu24.04.1
; #@! TF.FileFunction,Plated,1,2,PTH
FMAT,2
INCH
; #@! TA.AperFunction,Plated,PTH,ViaDrill
T1C0.0118
; #@! TA.AperFunction,Plated,PTH,ComponentDrill
T2C0.0236
; #@! TA.AperFunction,Plated,PTH,ComponentDrill
T3C0.0394
; #@! TA.AperFunction,Plated,PTH,ComponentDrill
T4C0.1693
%
G90
G05
T1
X4.4921Y-3.628
X4.5582Y-3.9123
X4.563Y-3.9547
X4.563Y-4.0787
X4.5657Y-3.6996
X4.5925Y-3.9055
X4.6575Y-3.5669
X4.6595Y-3.9257
X4.7028Y-3.7106
X4.7126Y-3.9134
X4.8012Y-4.2343
X4.8898Y-4.0522
X4.8996Y-4.1654
X4.9961Y-4.0866
X5.0472Y-3.935
X5.0492Y-3.8701
X5.0653Y-3.6321
X5.0689Y-4.128
X5.0984Y-3.936
X5.1004Y-3.6732
X5.1161Y-3.8996
X5.1319Y-3.8031
X5.2736Y-4.0
X5.3594Y-3.9134
X5.5531Y-3.9626
T2
X4.2116Y-3.3858
X4.2116Y-4.5276
X4.2488Y-3.296
X4.2488Y-3.4756
X4.2488Y-4.4378
X4.2488Y-4.6173
X4.3386Y-3.2589
X4.3386Y-3.5128
X4.3386Y-4.4006
X4.3386Y-4.6545
X4.4284Y-3.296
X4.4284Y-3.4756
X4.4284Y-4.4378
X4.4284Y-4.6173
X4.4656Y-3.3858
X4.4656Y-4.5276
T3
X4.2657Y-3.6337
X4.2657Y-3.7337
X4.2657Y-3.8337
X4.2657Y-3.9331
X4.2657Y-4.0331
X4.2657Y-4.1331
X4.2657Y-4.2313
X4.6053Y-3.3287
X4.7053Y-3.3287
X4.8053Y-3.3287
X4.903Y-3.3287
X5.003Y-3.3287
X5.3772Y-3.8189
X5.3791Y-4.1339
X5.4772Y-3.8189
X5.4791Y-4.1339
X5.5772Y-3.8189
X5.5791Y-4.1339
X5.6772Y-3.8189
X5.6791Y-4.1339
T4
X4.3386Y-3.3858
X4.3386Y-4.5276
M30
